<?xml version="1.0" encoding="utf-8" standalone="no"?>
<!DOCTYPE svg PUBLIC "-//W3C//DTD SVG 1.1//EN"
  "http://www.w3.org/Graphics/SVG/1.1/DTD/svg11.dtd">
<!-- Created with matplotlib (http://matplotlib.org/) -->
<svg height="432pt" version="1.1" viewBox="0 0 576 432" width="576pt" xmlns="http://www.w3.org/2000/svg" xmlns:xlink="http://www.w3.org/1999/xlink">
 <defs>
  <style type="text/css">
*{stroke-linecap:butt;stroke-linejoin:round;stroke-miterlimit:100000;}
  </style>
 </defs>
 <g id="figure_1">
  <g id="axes_1">
   <g id="line2d_1">
    <path clip-path="url(#p89545fac0e)" d="M 156.96 303.133442 
L 161.1072 306.6293 
L 165.2544 310.418248 
L 170.784 315.778314 
L 184.608 329.378455 
L 188.7552 333.138677 
L 192.9024 336.596647 
L 197.0496 339.674705 
L 199.8144 341.481146 
L 202.5792 343.069757 
L 205.344 344.424666 
L 208.1088 345.532334 
L 210.8736 346.381694 
L 213.6384 346.964259 
L 216.4032 347.274209 
L 219.168 347.308447 
L 221.9328 347.066631 
L 224.6976 346.551176 
L 227.4624 345.767234 
L 230.2272 344.722636 
L 232.992 343.427821 
L 235.7568 341.895725 
L 238.5216 340.141657 
L 241.2864 338.183144 
L 245.4336 334.905354 
L 249.5808 331.285636 
L 255.1104 326.068839 
L 264.7872 316.457648 
L 271.6992 309.764215 
L 275.8464 306.018754 
L 279.9936 302.580096 
L 284.1408 299.525464 
L 286.9056 297.736671 
L 289.6704 296.167128 
L 292.4352 294.832519 
L 295.2 293.746177 
L 297.9648 292.918957 
L 300.7296 292.359125 
L 303.4944 292.072274 
L 306.2592 292.06127 
L 309.024 292.326223 
L 311.7888 292.864487 
L 314.5536 293.670682 
L 317.3184 294.736753 
L 320.0832 296.052049 
L 322.848 297.603428 
L 325.6128 299.375389 
L 328.3776 301.350227 
L 332.5248 304.649208 
L 336.672 308.285748 
L 342.2016 313.51754 
L 361.5552 332.329952 
L 365.7024 335.861747 
L 369.8496 339.030135 
L 372.6144 340.904977 
L 375.3792 342.567746 
L 378.144 344.001828 
L 380.9088 345.192895 
L 383.6736 346.129045 
L 386.4384 346.800925 
L 389.2032 347.201822 
L 391.968 347.327729 
L 394.7328 347.17739 
L 397.4976 346.752306 
L 400.2624 346.056724 
L 403.0272 345.097595 
L 405.792 343.884502 
L 408.5568 342.429565 
L 411.3216 340.747322 
L 414.0864 338.854582 
L 418.2336 335.662686 
L 422.3808 332.111853 
L 426.528 328.281828 
L 432.0576 322.890158 
L 432.0576 322.890158 
" style="fill:none;stroke:#000000;stroke-linecap:square;stroke-width:2.0;"/>
   </g>
   <g id="line2d_2">
    <path clip-path="url(#p89545fac0e)" d="M 156.96 297.899882 
L 161.1072 301.280218 
L 165.2544 304.980637 
L 170.784 310.267995 
L 187.3728 326.513153 
L 191.52 330.18171 
L 195.6672 333.521284 
L 198.432 335.527505 
L 201.1968 337.333946 
L 203.9616 338.922557 
L 206.7264 340.277466 
L 209.4912 341.385134 
L 212.256 342.234494 
L 215.0208 342.817059 
L 217.7856 343.127009 
L 220.5504 343.161247 
L 223.3152 342.919431 
L 226.08 342.403976 
L 228.8448 341.620034 
L 231.6096 340.575436 
L 234.3744 339.280621 
L 237.1392 337.748525 
L 239.904 335.994457 
L 242.6688 334.035944 
L 246.816 330.758154 
L 250.9632 327.138436 
L 256.4928 321.921639 
L 266.1696 312.310448 
L 273.0816 305.617015 
L 277.2288 301.871554 
L 281.376 298.432896 
L 285.5232 295.378264 
L 288.288 293.589471 
L 291.0528 292.019928 
L 293.8176 290.685319 
L 296.5824 289.598977 
L 299.3472 288.771757 
L 302.112 288.211925 
L 304.8768 287.925074 
L 307.6416 287.91407 
L 310.4064 288.179023 
L 313.1712 288.717287 
L 315.936 289.523482 
L 318.7008 290.589553 
L 321.4656 291.904849 
L 324.2304 293.456228 
L 326.9952 295.228189 
L 329.76 297.203027 
L 333.9072 300.502008 
L 338.0544 304.138548 
L 343.584 309.37034 
L 362.9376 328.182752 
L 367.0848 331.714547 
L 371.232 334.882935 
L 373.9968 336.757777 
L 376.7616 338.420546 
L 379.5264 339.854628 
L 382.2912 341.045695 
L 385.056 341.981845 
L 387.8208 342.653725 
L 390.5856 343.054622 
L 393.3504 343.180529 
L 396.1152 343.03019 
L 398.88 342.605106 
L 401.6448 341.909524 
L 404.4096 340.950395 
L 407.1744 339.737302 
L 409.9392 338.282365 
L 412.704 336.600122 
L 415.4688 334.707382 
L 419.616 331.515486 
L 423.7632 327.964653 
L 427.9104 324.134628 
L 432.0576 320.111424 
L 432.0576 320.111424 
" style="fill:none;stroke:#000000;stroke-linecap:square;stroke-width:2.0;"/>
   </g>
   <g id="line2d_3">
    <path clip-path="url(#p89545fac0e)" d="M 156.96 292.710394 
L 161.1072 295.966761 
L 165.2544 299.569401 
L 170.784 304.770835 
L 179.0784 312.999528 
L 185.9904 319.777916 
L 190.1376 323.620405 
L 194.2848 327.188127 
L 198.432 330.400959 
L 201.1968 332.309675 
L 203.9616 334.009326 
L 206.7264 335.482927 
L 209.4912 336.715756 
L 212.256 337.695494 
L 215.0208 338.412353 
L 217.7856 338.859169 
L 220.5504 339.031478 
L 223.3152 338.927559 
L 226.08 338.54845 
L 228.8448 337.897938 
L 231.6096 336.982524 
L 234.3744 335.811354 
L 237.1392 334.39613 
L 239.904 332.750993 
L 242.6688 330.892379 
L 246.816 327.745352 
L 250.9632 324.230921 
L 255.1104 320.428012 
L 260.64 315.057031 
L 274.464 301.469815 
L 278.6112 297.724354 
L 282.7584 294.285696 
L 286.9056 291.231064 
L 289.6704 289.442271 
L 292.4352 287.872728 
L 295.2 286.538119 
L 297.9648 285.451777 
L 300.7296 284.624557 
L 303.4944 284.064725 
L 306.2592 283.777874 
L 309.024 283.76687 
L 311.7888 284.031823 
L 314.5536 284.570087 
L 317.3184 285.376282 
L 320.0832 286.442353 
L 322.848 287.757649 
L 325.6128 289.309028 
L 328.3776 291.080989 
L 331.1424 293.055827 
L 335.2896 296.354808 
L 339.4368 299.991348 
L 344.9664 305.22314 
L 364.32 324.035552 
L 368.4672 327.567347 
L 372.6144 330.735735 
L 375.3792 332.610577 
L 378.144 334.273346 
L 380.9088 335.707428 
L 383.6736 336.898495 
L 386.4384 337.834645 
L 389.2032 338.506525 
L 391.968 338.907422 
L 394.7328 339.033329 
L 397.4976 338.88299 
L 400.2624 338.457906 
L 403.0272 337.762324 
L 405.792 336.803195 
L 408.5568 335.590102 
L 411.3216 334.135165 
L 414.0864 332.452922 
L 416.8512 330.560182 
L 420.9984 327.368286 
L 425.1456 323.817453 
L 429.2928 319.987428 
L 432.0576 317.321246 
L 432.0576 317.321246 
" style="fill:none;stroke:#000000;stroke-linecap:square;stroke-width:2.0;"/>
   </g>
   <g id="line2d_4">
    <path clip-path="url(#p89545fac0e)" d="M 156.96 287.567585 
L 159.7248 289.605482 
L 163.872 292.985818 
L 168.0192 296.686237 
L 173.5488 301.973595 
L 190.1376 318.218753 
L 194.2848 321.88731 
L 198.432 325.226884 
L 201.1968 327.233105 
L 203.9616 329.039546 
L 206.7264 330.628157 
L 209.4912 331.983066 
L 212.256 333.090734 
L 215.0208 333.940094 
L 217.7856 334.522659 
L 220.5504 334.832609 
L 223.3152 334.866847 
L 226.08 334.625031 
L 228.8448 334.109576 
L 231.6096 333.325634 
L 234.3744 332.281036 
L 237.1392 330.986221 
L 239.904 329.454125 
L 242.6688 327.700057 
L 245.4336 325.741544 
L 249.5808 322.463754 
L 253.728 318.844036 
L 259.2576 313.627239 
L 268.9344 304.016048 
L 275.8464 297.322615 
L 279.9936 293.577154 
L 284.1408 290.138496 
L 288.288 287.083864 
L 291.0528 285.295071 
L 293.8176 283.725528 
L 296.5824 282.390919 
L 299.3472 281.304577 
L 302.112 280.477357 
L 304.8768 279.917525 
L 307.6416 279.630674 
L 310.4064 279.61967 
L 313.1712 279.884623 
L 315.936 280.422887 
L 318.7008 281.229082 
L 321.4656 282.295153 
L 324.2304 283.610449 
L 326.9952 285.161828 
L 329.76 286.933789 
L 332.5248 288.908627 
L 336.672 292.207608 
L 340.8192 295.844148 
L 346.3488 301.07594 
L 365.7024 319.888352 
L 369.8496 323.420147 
L 373.9968 326.588535 
L 376.7616 328.463377 
L 379.5264 330.126146 
L 382.2912 331.560228 
L 385.056 332.751295 
L 387.8208 333.687445 
L 390.5856 334.359325 
L 393.3504 334.760222 
L 396.1152 334.886129 
L 398.88 334.73579 
L 401.6448 334.310706 
L 404.4096 333.615124 
L 407.1744 332.655995 
L 409.9392 331.442902 
L 412.704 329.987965 
L 415.4688 328.305722 
L 418.2336 326.412982 
L 422.3808 323.221086 
L 426.528 319.670253 
L 430.6752 315.840228 
L 432.0576 314.516233 
L 432.0576 314.516233 
" style="fill:none;stroke:#000000;stroke-linecap:square;stroke-width:2.0;"/>
   </g>
   <g id="line2d_5">
    <path clip-path="url(#p89545fac0e)" d="M 156.96 282.473942 
L 159.7248 284.415994 
L 163.872 287.672361 
L 168.0192 291.275001 
L 173.5488 296.476435 
L 181.8432 304.705128 
L 188.7552 311.483516 
L 192.9024 315.326005 
L 197.0496 318.893727 
L 201.1968 322.106559 
L 203.9616 324.015275 
L 206.7264 325.714926 
L 209.4912 327.188527 
L 212.256 328.421356 
L 215.0208 329.401094 
L 217.7856 330.117953 
L 220.5504 330.564769 
L 223.3152 330.737078 
L 226.08 330.633159 
L 228.8448 330.25405 
L 231.6096 329.603538 
L 234.3744 328.688124 
L 237.1392 327.516954 
L 239.904 326.10173 
L 242.6688 324.456593 
L 245.4336 322.597979 
L 249.5808 319.450952 
L 253.728 315.936521 
L 257.8752 312.133612 
L 263.4048 306.762631 
L 277.2288 293.175415 
L 281.376 289.429954 
L 285.5232 285.991296 
L 289.6704 282.936664 
L 292.4352 281.147871 
L 295.2 279.578328 
L 297.9648 278.243719 
L 300.7296 277.157377 
L 303.4944 276.330157 
L 306.2592 275.770325 
L 309.024 275.483474 
L 311.7888 275.47247 
L 314.5536 275.737423 
L 317.3184 276.275687 
L 320.0832 277.081882 
L 322.848 278.147953 
L 325.6128 279.463249 
L 328.3776 281.014628 
L 331.1424 282.786589 
L 333.9072 284.761427 
L 338.0544 288.060408 
L 342.2016 291.696948 
L 347.7312 296.92874 
L 367.0848 315.741152 
L 371.232 319.272947 
L 375.3792 322.441335 
L 378.144 324.316177 
L 380.9088 325.978946 
L 383.6736 327.413028 
L 386.4384 328.604095 
L 389.2032 329.540245 
L 391.968 330.212125 
L 394.7328 330.613022 
L 397.4976 330.738929 
L 400.2624 330.58859 
L 403.0272 330.163506 
L 405.792 329.467924 
L 408.5568 328.508795 
L 411.3216 327.295702 
L 414.0864 325.840765 
L 416.8512 324.158522 
L 419.616 322.265782 
L 423.7632 319.073886 
L 427.9104 315.523053 
L 432.0576 311.693028 
L 432.0576 311.693028 
" style="fill:none;stroke:#000000;stroke-linecap:square;stroke-width:2.0;"/>
   </g>
   <g id="line2d_6">
    <path clip-path="url(#p89545fac0e)" d="M 156.96 277.431832 
L 159.7248 279.273185 
L 162.4896 281.311082 
L 166.6368 284.691418 
L 170.784 288.391837 
L 176.3136 293.679195 
L 192.9024 309.924353 
L 197.0496 313.59291 
L 201.1968 316.932484 
L 203.9616 318.938705 
L 206.7264 320.745146 
L 209.4912 322.333757 
L 212.256 323.688666 
L 215.0208 324.796334 
L 217.7856 325.645694 
L 220.5504 326.228259 
L 223.3152 326.538209 
L 226.08 326.572447 
L 228.8448 326.330631 
L 231.6096 325.815176 
L 234.3744 325.031234 
L 237.1392 323.986636 
L 239.904 322.691821 
L 242.6688 321.159725 
L 245.4336 319.405657 
L 248.1984 317.447144 
L 252.3456 314.169354 
L 256.4928 310.549636 
L 262.0224 305.332839 
L 271.6992 295.721648 
L 278.6112 289.028215 
L 282.7584 285.282754 
L 286.9056 281.844096 
L 291.0528 278.789464 
L 293.8176 277.000671 
L 296.5824 275.431128 
L 299.3472 274.096519 
L 302.112 273.010177 
L 304.8768 272.182957 
L 307.6416 271.623125 
L 310.4064 271.336274 
L 313.1712 271.32527 
L 315.936 271.590223 
L 318.7008 272.128487 
L 321.4656 272.934682 
L 324.2304 274.000753 
L 326.9952 275.316049 
L 329.76 276.867428 
L 332.5248 278.639389 
L 335.2896 280.614227 
L 339.4368 283.913208 
L 343.584 287.549748 
L 349.1136 292.78154 
L 368.4672 311.593952 
L 372.6144 315.125747 
L 376.7616 318.294135 
L 379.5264 320.168977 
L 382.2912 321.831746 
L 385.056 323.265828 
L 387.8208 324.456895 
L 390.5856 325.393045 
L 393.3504 326.064925 
L 396.1152 326.465822 
L 398.88 326.591729 
L 401.6448 326.44139 
L 404.4096 326.016306 
L 407.1744 325.320724 
L 409.9392 324.361595 
L 412.704 323.148502 
L 415.4688 321.693565 
L 418.2336 320.011322 
L 420.9984 318.118582 
L 425.1456 314.926686 
L 429.2928 311.375853 
L 432.0576 308.848323 
L 432.0576 308.848323 
" style="fill:none;stroke:#000000;stroke-linecap:square;stroke-width:2.0;"/>
   </g>
   <g id="line2d_7">
    <path clip-path="url(#p89545fac0e)" d="M 156.96 272.443491 
L 159.7248 274.179542 
L 162.4896 276.121594 
L 166.6368 279.377961 
L 170.784 282.980601 
L 176.3136 288.182035 
L 184.608 296.410728 
L 191.52 303.189116 
L 195.6672 307.031605 
L 199.8144 310.599327 
L 203.9616 313.812159 
L 206.7264 315.720875 
L 209.4912 317.420526 
L 212.256 318.894127 
L 215.0208 320.126956 
L 217.7856 321.106694 
L 220.5504 321.823553 
L 223.3152 322.270369 
L 226.08 322.442678 
L 228.8448 322.338759 
L 231.6096 321.95965 
L 234.3744 321.309138 
L 237.1392 320.393724 
L 239.904 319.222554 
L 242.6688 317.80733 
L 245.4336 316.162193 
L 248.1984 314.303579 
L 252.3456 311.156552 
L 256.4928 307.642121 
L 260.64 303.839212 
L 266.1696 298.468231 
L 279.9936 284.881015 
L 284.1408 281.135554 
L 288.288 277.696896 
L 292.4352 274.642264 
L 295.2 272.853471 
L 297.9648 271.283928 
L 300.7296 269.949319 
L 303.4944 268.862977 
L 306.2592 268.035757 
L 309.024 267.475925 
L 311.7888 267.189074 
L 314.5536 267.17807 
L 317.3184 267.443023 
L 320.0832 267.981287 
L 322.848 268.787482 
L 325.6128 269.853553 
L 328.3776 271.168849 
L 331.1424 272.720228 
L 333.9072 274.492189 
L 336.672 276.467027 
L 340.8192 279.766008 
L 344.9664 283.402548 
L 350.496 288.63434 
L 369.8496 307.446752 
L 373.9968 310.978547 
L 378.144 314.146935 
L 380.9088 316.021777 
L 383.6736 317.684546 
L 386.4384 319.118628 
L 389.2032 320.309695 
L 391.968 321.245845 
L 394.7328 321.917725 
L 397.4976 322.318622 
L 400.2624 322.444529 
L 403.0272 322.29419 
L 405.792 321.869106 
L 408.5568 321.173524 
L 411.3216 320.214395 
L 414.0864 319.001302 
L 416.8512 317.546365 
L 419.616 315.864122 
L 422.3808 313.971382 
L 426.528 310.779486 
L 430.6752 307.228653 
L 432.0576 305.978863 
L 432.0576 305.978863 
" style="fill:none;stroke:#000000;stroke-linecap:square;stroke-width:2.0;"/>
   </g>
   <g id="line2d_8">
    <path clip-path="url(#p89545fac0e)" d="M 156.96 267.511022 
L 159.7248 269.137432 
L 162.4896 270.978785 
L 165.2544 273.016682 
L 169.4016 276.397018 
L 173.5488 280.097437 
L 179.0784 285.384795 
L 195.6672 301.629953 
L 199.8144 305.29851 
L 203.9616 308.638084 
L 206.7264 310.644305 
L 209.4912 312.450746 
L 212.256 314.039357 
L 215.0208 315.394266 
L 217.7856 316.501934 
L 220.5504 317.351294 
L 223.3152 317.933859 
L 226.08 318.243809 
L 228.8448 318.278047 
L 231.6096 318.036231 
L 234.3744 317.520776 
L 237.1392 316.736834 
L 239.904 315.692236 
L 242.6688 314.397421 
L 245.4336 312.865325 
L 248.1984 311.111257 
L 250.9632 309.152744 
L 255.1104 305.874954 
L 259.2576 302.255236 
L 264.7872 297.038439 
L 274.464 287.427248 
L 281.376 280.733815 
L 285.5232 276.988354 
L 289.6704 273.549696 
L 293.8176 270.495064 
L 296.5824 268.706271 
L 299.3472 267.136728 
L 302.112 265.802119 
L 304.8768 264.715777 
L 307.6416 263.888557 
L 310.4064 263.328725 
L 313.1712 263.041874 
L 315.936 263.03087 
L 318.7008 263.295823 
L 321.4656 263.834087 
L 324.2304 264.640282 
L 326.9952 265.706353 
L 329.76 267.021649 
L 332.5248 268.573028 
L 335.2896 270.344989 
L 338.0544 272.319827 
L 342.2016 275.618808 
L 346.3488 279.255348 
L 351.8784 284.48714 
L 371.232 303.299552 
L 375.3792 306.831347 
L 379.5264 309.999735 
L 382.2912 311.874577 
L 385.056 313.537346 
L 387.8208 314.971428 
L 390.5856 316.162495 
L 393.3504 317.098645 
L 396.1152 317.770525 
L 398.88 318.171422 
L 401.6448 318.297329 
L 404.4096 318.14699 
L 407.1744 317.721906 
L 409.9392 317.026324 
L 412.704 316.067195 
L 415.4688 314.854102 
L 418.2336 313.399165 
L 420.9984 311.716922 
L 423.7632 309.824182 
L 427.9104 306.632286 
L 432.0576 303.081453 
L 432.0576 303.081453 
" style="fill:none;stroke:#000000;stroke-linecap:square;stroke-width:2.0;"/>
   </g>
   <g id="line2d_9">
    <path clip-path="url(#p89545fac0e)" d="M 156.96 262.636387 
L 159.7248 264.149091 
L 162.4896 265.885142 
L 165.2544 267.827194 
L 169.4016 271.083561 
L 173.5488 274.686201 
L 179.0784 279.887635 
L 187.3728 288.116328 
L 194.2848 294.894716 
L 198.432 298.737205 
L 202.5792 302.304927 
L 206.7264 305.517759 
L 209.4912 307.426475 
L 212.256 309.126126 
L 215.0208 310.599727 
L 217.7856 311.832556 
L 220.5504 312.812294 
L 223.3152 313.529153 
L 226.08 313.975969 
L 228.8448 314.148278 
L 231.6096 314.044359 
L 234.3744 313.66525 
L 237.1392 313.014738 
L 239.904 312.099324 
L 242.6688 310.928154 
L 245.4336 309.51293 
L 248.1984 307.867793 
L 250.9632 306.009179 
L 255.1104 302.862152 
L 259.2576 299.347721 
L 263.4048 295.544812 
L 268.9344 290.173831 
L 282.7584 276.586615 
L 286.9056 272.841154 
L 291.0528 269.402496 
L 295.2 266.347864 
L 297.9648 264.559071 
L 300.7296 262.989528 
L 303.4944 261.654919 
L 306.2592 260.568577 
L 309.024 259.741357 
L 311.7888 259.181525 
L 314.5536 258.894674 
L 317.3184 258.88367 
L 320.0832 259.148623 
L 322.848 259.686887 
L 325.6128 260.493082 
L 328.3776 261.559153 
L 331.1424 262.874449 
L 333.9072 264.425828 
L 336.672 266.197789 
L 339.4368 268.172627 
L 343.584 271.471608 
L 347.7312 275.108148 
L 353.2608 280.33994 
L 372.6144 299.152352 
L 376.7616 302.684147 
L 380.9088 305.852535 
L 383.6736 307.727377 
L 386.4384 309.390146 
L 389.2032 310.824228 
L 391.968 312.015295 
L 394.7328 312.951445 
L 397.4976 313.623325 
L 400.2624 314.024222 
L 403.0272 314.150129 
L 405.792 313.99979 
L 408.5568 313.574706 
L 411.3216 312.879124 
L 414.0864 311.919995 
L 416.8512 310.706902 
L 419.616 309.251965 
L 422.3808 307.569722 
L 425.1456 305.676982 
L 429.2928 302.485086 
L 432.0576 300.15297 
L 432.0576 300.15297 
" style="fill:none;stroke:#000000;stroke-linecap:square;stroke-width:2.0;"/>
   </g>
   <g id="line2d_10">
    <path clip-path="url(#p89545fac0e)" d="M 156.96 257.821405 
L 159.7248 259.216622 
L 162.4896 260.843032 
L 165.2544 262.684385 
L 168.0192 264.722282 
L 172.1664 268.102618 
L 176.3136 271.803037 
L 181.8432 277.090395 
L 198.432 293.335553 
L 202.5792 297.00411 
L 206.7264 300.343684 
L 209.4912 302.349905 
L 212.256 304.156346 
L 215.0208 305.744957 
L 217.7856 307.099866 
L 220.5504 308.207534 
L 223.3152 309.056894 
L 226.08 309.639459 
L 228.8448 309.949409 
L 231.6096 309.983647 
L 234.3744 309.741831 
L 237.1392 309.226376 
L 239.904 308.442434 
L 242.6688 307.397836 
L 245.4336 306.103021 
L 248.1984 304.570925 
L 250.9632 302.816857 
L 253.728 300.858344 
L 257.8752 297.580554 
L 262.0224 293.960836 
L 267.552 288.744039 
L 277.2288 279.132848 
L 284.1408 272.439415 
L 288.288 268.693954 
L 292.4352 265.255296 
L 296.5824 262.200664 
L 299.3472 260.411871 
L 302.112 258.842328 
L 304.8768 257.507719 
L 307.6416 256.421377 
L 310.4064 255.594157 
L 313.1712 255.034325 
L 315.936 254.747474 
L 318.7008 254.73647 
L 321.4656 255.001423 
L 324.2304 255.539687 
L 326.9952 256.345882 
L 329.76 257.411953 
L 332.5248 258.727249 
L 335.2896 260.278628 
L 338.0544 262.050589 
L 340.8192 264.025427 
L 344.9664 267.324408 
L 349.1136 270.960948 
L 354.6432 276.19274 
L 373.9968 295.005152 
L 378.144 298.536947 
L 382.2912 301.705335 
L 385.056 303.580177 
L 387.8208 305.242946 
L 390.5856 306.677028 
L 393.3504 307.868095 
L 396.1152 308.804245 
L 398.88 309.476125 
L 401.6448 309.877022 
L 404.4096 310.002929 
L 407.1744 309.85259 
L 409.9392 309.427506 
L 412.704 308.731924 
L 415.4688 307.772795 
L 418.2336 306.559702 
L 420.9984 305.104765 
L 423.7632 303.422522 
L 426.528 301.529782 
L 430.6752 298.337886 
L 432.0576 297.190368 
L 432.0576 297.190368 
" style="fill:none;stroke:#000000;stroke-linecap:square;stroke-width:2.0;"/>
   </g>
   <g id="line2d_11">
    <path clip-path="url(#p89545fac0e)" d="M 156.96 253.067745 
L 159.7248 254.341987 
L 162.4896 255.854691 
L 165.2544 257.590742 
L 168.0192 259.532794 
L 172.1664 262.789161 
L 176.3136 266.391801 
L 181.8432 271.593235 
L 190.1376 279.821928 
L 197.0496 286.600316 
L 201.1968 290.442805 
L 205.344 294.010527 
L 209.4912 297.223359 
L 212.256 299.132075 
L 215.0208 300.831726 
L 217.7856 302.305327 
L 220.5504 303.538156 
L 223.3152 304.517894 
L 226.08 305.234753 
L 228.8448 305.681569 
L 231.6096 305.853878 
L 234.3744 305.749959 
L 237.1392 305.37085 
L 239.904 304.720338 
L 242.6688 303.804924 
L 245.4336 302.633754 
L 248.1984 301.21853 
L 250.9632 299.573393 
L 253.728 297.714779 
L 257.8752 294.567752 
L 262.0224 291.053321 
L 266.1696 287.250412 
L 271.6992 281.879431 
L 285.5232 268.292215 
L 289.6704 264.546754 
L 293.8176 261.108096 
L 297.9648 258.053464 
L 300.7296 256.264671 
L 303.4944 254.695128 
L 306.2592 253.360519 
L 309.024 252.274177 
L 311.7888 251.446957 
L 314.5536 250.887125 
L 317.3184 250.600274 
L 320.0832 250.58927 
L 322.848 250.854223 
L 325.6128 251.392487 
L 328.3776 252.198682 
L 331.1424 253.264753 
L 333.9072 254.580049 
L 336.672 256.131428 
L 339.4368 257.903389 
L 342.2016 259.878227 
L 346.3488 263.177208 
L 350.496 266.813748 
L 356.0256 272.04554 
L 375.3792 290.857952 
L 379.5264 294.389747 
L 383.6736 297.558135 
L 386.4384 299.432977 
L 389.2032 301.095746 
L 391.968 302.529828 
L 394.7328 303.720895 
L 397.4976 304.657045 
L 400.2624 305.328925 
L 403.0272 305.729822 
L 405.792 305.855729 
L 408.5568 305.70539 
L 411.3216 305.280306 
L 414.0864 304.584724 
L 416.8512 303.625595 
L 419.616 302.412502 
L 422.3808 300.957565 
L 425.1456 299.275322 
L 427.9104 297.382582 
L 432.0576 294.190686 
L 432.0576 294.190686 
" style="fill:none;stroke:#000000;stroke-linecap:square;stroke-width:2.0;"/>
   </g>
   <g id="line2d_12">
    <path clip-path="url(#p89545fac0e)" d="M 156.96 248.376922 
L 159.7248 249.527005 
L 162.4896 250.922222 
L 165.2544 252.548632 
L 168.0192 254.389985 
L 170.784 256.427882 
L 174.9312 259.808218 
L 179.0784 263.508637 
L 184.608 268.795995 
L 201.1968 285.041153 
L 205.344 288.70971 
L 209.4912 292.049284 
L 212.256 294.055505 
L 215.0208 295.861946 
L 217.7856 297.450557 
L 220.5504 298.805466 
L 223.3152 299.913134 
L 226.08 300.762494 
L 228.8448 301.345059 
L 231.6096 301.655009 
L 234.3744 301.689247 
L 237.1392 301.447431 
L 239.904 300.931976 
L 242.6688 300.148034 
L 245.4336 299.103436 
L 248.1984 297.808621 
L 250.9632 296.276525 
L 253.728 294.522457 
L 256.4928 292.563944 
L 260.64 289.286154 
L 264.7872 285.666436 
L 270.3168 280.449639 
L 279.9936 270.838448 
L 286.9056 264.145015 
L 291.0528 260.399554 
L 295.2 256.960896 
L 299.3472 253.906264 
L 302.112 252.117471 
L 304.8768 250.547928 
L 307.6416 249.213319 
L 310.4064 248.126977 
L 313.1712 247.299757 
L 315.936 246.739925 
L 318.7008 246.453074 
L 321.4656 246.44207 
L 324.2304 246.707023 
L 326.9952 247.245287 
L 329.76 248.051482 
L 332.5248 249.117553 
L 335.2896 250.432849 
L 338.0544 251.984228 
L 340.8192 253.756189 
L 343.584 255.731027 
L 347.7312 259.030008 
L 351.8784 262.666548 
L 357.408 267.89834 
L 376.7616 286.710752 
L 380.9088 290.242547 
L 385.056 293.410935 
L 387.8208 295.285777 
L 390.5856 296.948546 
L 393.3504 298.382628 
L 396.1152 299.573695 
L 398.88 300.509845 
L 401.6448 301.181725 
L 404.4096 301.582622 
L 407.1744 301.708529 
L 409.9392 301.55819 
L 412.704 301.133106 
L 415.4688 300.437524 
L 418.2336 299.478395 
L 420.9984 298.265302 
L 423.7632 296.810365 
L 426.528 295.128122 
L 429.2928 293.235382 
L 432.0576 291.151055 
L 432.0576 291.151055 
" style="fill:none;stroke:#000000;stroke-linecap:square;stroke-width:2.0;"/>
   </g>
   <g id="line2d_13">
    <path clip-path="url(#p89545fac0e)" d="M 156.96 243.750295 
L 159.7248 244.773345 
L 162.4896 246.047587 
L 165.2544 247.560291 
L 168.0192 249.296342 
L 170.784 251.238394 
L 174.9312 254.494761 
L 179.0784 258.097401 
L 184.608 263.298835 
L 192.9024 271.527528 
L 199.8144 278.305916 
L 203.9616 282.148405 
L 208.1088 285.716127 
L 212.256 288.928959 
L 215.0208 290.837675 
L 217.7856 292.537326 
L 220.5504 294.010927 
L 223.3152 295.243756 
L 226.08 296.223494 
L 228.8448 296.940353 
L 231.6096 297.387169 
L 234.3744 297.559478 
L 237.1392 297.455559 
L 239.904 297.07645 
L 242.6688 296.425938 
L 245.4336 295.510524 
L 248.1984 294.339354 
L 250.9632 292.92413 
L 253.728 291.278993 
L 256.4928 289.420379 
L 260.64 286.273352 
L 264.7872 282.758921 
L 268.9344 278.956012 
L 274.464 273.585031 
L 288.288 259.997815 
L 292.4352 256.252354 
L 296.5824 252.813696 
L 300.7296 249.759064 
L 303.4944 247.970271 
L 306.2592 246.400728 
L 309.024 245.066119 
L 311.7888 243.979777 
L 314.5536 243.152557 
L 317.3184 242.592725 
L 320.0832 242.305874 
L 322.848 242.29487 
L 325.6128 242.559823 
L 328.3776 243.098087 
L 331.1424 243.904282 
L 333.9072 244.970353 
L 336.672 246.285649 
L 339.4368 247.837028 
L 342.2016 249.608989 
L 344.9664 251.583827 
L 349.1136 254.882808 
L 353.2608 258.519348 
L 358.7904 263.75114 
L 378.144 282.563552 
L 382.2912 286.095347 
L 386.4384 289.263735 
L 389.2032 291.138577 
L 391.968 292.801346 
L 394.7328 294.235428 
L 397.4976 295.426495 
L 400.2624 296.362645 
L 403.0272 297.034525 
L 405.792 297.435422 
L 408.5568 297.561329 
L 411.3216 297.41099 
L 414.0864 296.985906 
L 416.8512 296.290324 
L 419.616 295.331195 
L 422.3808 294.118102 
L 425.1456 292.663165 
L 427.9104 290.980922 
L 430.6752 289.088182 
L 432.0576 288.068707 
L 432.0576 288.068707 
" style="fill:none;stroke:#000000;stroke-linecap:square;stroke-width:2.0;"/>
   </g>
   <g id="line2d_14">
    <path clip-path="url(#p89545fac0e)" d="M 156.96 239.189063 
L 159.7248 240.082522 
L 162.4896 241.232605 
L 165.2544 242.627822 
L 168.0192 244.254232 
L 170.784 246.095585 
L 173.5488 248.133482 
L 177.696 251.513818 
L 181.8432 255.214237 
L 187.3728 260.501595 
L 203.9616 276.746753 
L 208.1088 280.41531 
L 212.256 283.754884 
L 215.0208 285.761105 
L 217.7856 287.567546 
L 220.5504 289.156157 
L 223.3152 290.511066 
L 226.08 291.618734 
L 228.8448 292.468094 
L 231.6096 293.050659 
L 234.3744 293.360609 
L 237.1392 293.394847 
L 239.904 293.153031 
L 242.6688 292.637576 
L 245.4336 291.853634 
L 248.1984 290.809036 
L 250.9632 289.514221 
L 253.728 287.982125 
L 256.4928 286.228057 
L 259.2576 284.269544 
L 263.4048 280.991754 
L 267.552 277.372036 
L 273.0816 272.155239 
L 282.7584 262.544048 
L 289.6704 255.850615 
L 293.8176 252.105154 
L 297.9648 248.666496 
L 302.112 245.611864 
L 304.8768 243.823071 
L 307.6416 242.253528 
L 310.4064 240.918919 
L 313.1712 239.832577 
L 315.936 239.005357 
L 318.7008 238.445525 
L 321.4656 238.158674 
L 324.2304 238.14767 
L 326.9952 238.412623 
L 329.76 238.950887 
L 332.5248 239.757082 
L 335.2896 240.823153 
L 338.0544 242.138449 
L 340.8192 243.689828 
L 343.584 245.461789 
L 346.3488 247.436627 
L 350.496 250.735608 
L 354.6432 254.372148 
L 360.1728 259.60394 
L 379.5264 278.416352 
L 383.6736 281.948147 
L 387.8208 285.116535 
L 390.5856 286.991377 
L 393.3504 288.654146 
L 396.1152 290.088228 
L 398.88 291.279295 
L 401.6448 292.215445 
L 404.4096 292.887325 
L 407.1744 293.288222 
L 409.9392 293.414129 
L 412.704 293.26379 
L 415.4688 292.838706 
L 418.2336 292.143124 
L 420.9984 291.183995 
L 423.7632 289.970902 
L 426.528 288.515965 
L 429.2928 286.833722 
L 432.0576 284.940982 
L 432.0576 284.940982 
" style="fill:none;stroke:#000000;stroke-linecap:square;stroke-width:2.0;"/>
   </g>
   <g id="line2d_15">
    <path clip-path="url(#p89545fac0e)" d="M 156.96 234.694261 
L 159.7248 235.455895 
L 162.4896 236.478945 
L 165.2544 237.753187 
L 168.0192 239.265891 
L 170.784 241.001942 
L 173.5488 242.943994 
L 177.696 246.200361 
L 181.8432 249.803001 
L 187.3728 255.004435 
L 195.6672 263.233128 
L 202.5792 270.011516 
L 206.7264 273.854005 
L 210.8736 277.421727 
L 215.0208 280.634559 
L 217.7856 282.543275 
L 220.5504 284.242926 
L 223.3152 285.716527 
L 226.08 286.949356 
L 228.8448 287.929094 
L 231.6096 288.645953 
L 234.3744 289.092769 
L 237.1392 289.265078 
L 239.904 289.161159 
L 242.6688 288.78205 
L 245.4336 288.131538 
L 248.1984 287.216124 
L 250.9632 286.044954 
L 253.728 284.62973 
L 256.4928 282.984593 
L 259.2576 281.125979 
L 263.4048 277.978952 
L 267.552 274.464521 
L 271.6992 270.661612 
L 277.2288 265.290631 
L 291.0528 251.703415 
L 295.2 247.957954 
L 299.3472 244.519296 
L 303.4944 241.464664 
L 306.2592 239.675871 
L 309.024 238.106328 
L 311.7888 236.771719 
L 314.5536 235.685377 
L 317.3184 234.858157 
L 320.0832 234.298325 
L 322.848 234.011474 
L 325.6128 234.00047 
L 328.3776 234.265423 
L 331.1424 234.803687 
L 333.9072 235.609882 
L 336.672 236.675953 
L 339.4368 237.991249 
L 342.2016 239.542628 
L 344.9664 241.314589 
L 347.7312 243.289427 
L 351.8784 246.588408 
L 356.0256 250.224948 
L 361.5552 255.45674 
L 380.9088 274.269152 
L 385.056 277.800947 
L 389.2032 280.969335 
L 391.968 282.844177 
L 394.7328 284.506946 
L 397.4976 285.941028 
L 400.2624 287.132095 
L 403.0272 288.068245 
L 405.792 288.740125 
L 408.5568 289.141022 
L 411.3216 289.266929 
L 414.0864 289.11659 
L 416.8512 288.691506 
L 419.616 287.995924 
L 422.3808 287.036795 
L 425.1456 285.823702 
L 427.9104 284.368765 
L 430.6752 282.686522 
L 432.0576 281.765329 
L 432.0576 281.765329 
" style="fill:none;stroke:#000000;stroke-linecap:square;stroke-width:2.0;"/>
   </g>
   <g id="line2d_16">
    <path clip-path="url(#p89545fac0e)" d="M 156.96 230.266757 
L 159.7248 230.894663 
L 162.4896 231.788122 
L 165.2544 232.938205 
L 168.0192 234.333422 
L 170.784 235.959832 
L 173.5488 237.801185 
L 176.3136 239.839082 
L 180.4608 243.219418 
L 184.608 246.919837 
L 190.1376 252.207195 
L 206.7264 268.452353 
L 210.8736 272.12091 
L 215.0208 275.460484 
L 217.7856 277.466705 
L 220.5504 279.273146 
L 223.3152 280.861757 
L 226.08 282.216666 
L 228.8448 283.324334 
L 231.6096 284.173694 
L 234.3744 284.756259 
L 237.1392 285.066209 
L 239.904 285.100447 
L 242.6688 284.858631 
L 245.4336 284.343176 
L 248.1984 283.559234 
L 250.9632 282.514636 
L 253.728 281.219821 
L 256.4928 279.687725 
L 259.2576 277.933657 
L 262.0224 275.975144 
L 266.1696 272.697354 
L 270.3168 269.077636 
L 275.8464 263.860839 
L 285.5232 254.249648 
L 292.4352 247.556215 
L 296.5824 243.810754 
L 300.7296 240.372096 
L 304.8768 237.317464 
L 307.6416 235.528671 
L 310.4064 233.959128 
L 313.1712 232.624519 
L 315.936 231.538177 
L 318.7008 230.710957 
L 321.4656 230.151125 
L 324.2304 229.864274 
L 326.9952 229.85327 
L 329.76 230.118223 
L 332.5248 230.656487 
L 335.2896 231.462682 
L 338.0544 232.528753 
L 340.8192 233.844049 
L 343.584 235.395428 
L 346.3488 237.167389 
L 349.1136 239.142227 
L 353.2608 242.441208 
L 357.408 246.077748 
L 362.9376 251.30954 
L 382.2912 270.121952 
L 386.4384 273.653747 
L 390.5856 276.822135 
L 393.3504 278.696977 
L 396.1152 280.359746 
L 398.88 281.793828 
L 401.6448 282.984895 
L 404.4096 283.921045 
L 407.1744 284.592925 
L 409.9392 284.993822 
L 412.704 285.119729 
L 415.4688 284.96939 
L 418.2336 284.544306 
L 420.9984 283.848724 
L 423.7632 282.889595 
L 426.528 281.676502 
L 429.2928 280.221565 
L 432.0576 278.539322 
L 432.0576 278.539322 
" style="fill:none;stroke:#000000;stroke-linecap:square;stroke-width:2.0;"/>
   </g>
   <g id="line2d_17">
    <path clip-path="url(#p89545fac0e)" d="M 156.96 225.907251 
L 159.7248 226.399861 
L 162.4896 227.161495 
L 165.2544 228.184545 
L 168.0192 229.458787 
L 170.784 230.971491 
L 173.5488 232.707542 
L 176.3136 234.649594 
L 180.4608 237.905961 
L 184.608 241.508601 
L 190.1376 246.710035 
L 198.432 254.938728 
L 205.344 261.717116 
L 209.4912 265.559605 
L 213.6384 269.127327 
L 217.7856 272.340159 
L 220.5504 274.248875 
L 223.3152 275.948526 
L 226.08 277.422127 
L 228.8448 278.654956 
L 231.6096 279.634694 
L 234.3744 280.351553 
L 237.1392 280.798369 
L 239.904 280.970678 
L 242.6688 280.866759 
L 245.4336 280.48765 
L 248.1984 279.837138 
L 250.9632 278.921724 
L 253.728 277.750554 
L 256.4928 276.33533 
L 259.2576 274.690193 
L 262.0224 272.831579 
L 266.1696 269.684552 
L 270.3168 266.170121 
L 274.464 262.367212 
L 279.9936 256.996231 
L 293.8176 243.409015 
L 297.9648 239.663554 
L 302.112 236.224896 
L 306.2592 233.170264 
L 309.024 231.381471 
L 311.7888 229.811928 
L 314.5536 228.477319 
L 317.3184 227.390977 
L 320.0832 226.563757 
L 322.848 226.003925 
L 325.6128 225.717074 
L 328.3776 225.70607 
L 331.1424 225.971023 
L 333.9072 226.509287 
L 336.672 227.315482 
L 339.4368 228.381553 
L 342.2016 229.696849 
L 344.9664 231.248228 
L 347.7312 233.020189 
L 350.496 234.995027 
L 354.6432 238.294008 
L 358.7904 241.930548 
L 364.32 247.16234 
L 383.6736 265.974752 
L 387.8208 269.506547 
L 391.968 272.674935 
L 394.7328 274.549777 
L 397.4976 276.212546 
L 400.2624 277.646628 
L 403.0272 278.837695 
L 405.792 279.773845 
L 408.5568 280.445725 
L 411.3216 280.846622 
L 414.0864 280.972529 
L 416.8512 280.82219 
L 419.616 280.397106 
L 422.3808 279.701524 
L 425.1456 278.742395 
L 427.9104 277.529302 
L 430.6752 276.074365 
L 432.0576 275.260658 
L 432.0576 275.260658 
" style="fill:none;stroke:#000000;stroke-linecap:square;stroke-width:2.0;"/>
   </g>
   <g id="line2d_18">
    <path clip-path="url(#p89545fac0e)" d="M 156.96 221.616276 
L 159.7248 221.972357 
L 162.4896 222.600263 
L 165.2544 223.493722 
L 168.0192 224.643805 
L 170.784 226.039022 
L 173.5488 227.665432 
L 176.3136 229.506785 
L 179.0784 231.544682 
L 183.2256 234.925018 
L 187.3728 238.625437 
L 192.9024 243.912795 
L 209.4912 260.157953 
L 213.6384 263.82651 
L 217.7856 267.166084 
L 220.5504 269.172305 
L 223.3152 270.978746 
L 226.08 272.567357 
L 228.8448 273.922266 
L 231.6096 275.029934 
L 234.3744 275.879294 
L 237.1392 276.461859 
L 239.904 276.771809 
L 242.6688 276.806047 
L 245.4336 276.564231 
L 248.1984 276.048776 
L 250.9632 275.264834 
L 253.728 274.220236 
L 256.4928 272.925421 
L 259.2576 271.393325 
L 262.0224 269.639257 
L 264.7872 267.680744 
L 268.9344 264.402954 
L 273.0816 260.783236 
L 278.6112 255.566439 
L 288.288 245.955248 
L 295.2 239.261815 
L 299.3472 235.516354 
L 303.4944 232.077696 
L 307.6416 229.023064 
L 310.4064 227.234271 
L 313.1712 225.664728 
L 315.936 224.330119 
L 318.7008 223.243777 
L 321.4656 222.416557 
L 324.2304 221.856725 
L 326.9952 221.569874 
L 329.76 221.55887 
L 332.5248 221.823823 
L 335.2896 222.362087 
L 338.0544 223.168282 
L 340.8192 224.234353 
L 343.584 225.549649 
L 346.3488 227.101028 
L 349.1136 228.872989 
L 351.8784 230.847827 
L 356.0256 234.146808 
L 360.1728 237.783348 
L 365.7024 243.01514 
L 385.056 261.827552 
L 389.2032 265.359347 
L 393.3504 268.527735 
L 396.1152 270.402577 
L 398.88 272.065346 
L 401.6448 273.499428 
L 404.4096 274.690495 
L 407.1744 275.626645 
L 409.9392 276.298525 
L 412.704 276.699422 
L 415.4688 276.825329 
L 418.2336 276.67499 
L 420.9984 276.249906 
L 423.7632 275.554324 
L 426.528 274.595195 
L 429.2928 273.382102 
L 432.0576 271.927165 
L 432.0576 271.927165 
" style="fill:none;stroke:#000000;stroke-linecap:square;stroke-width:2.0;"/>
   </g>
   <g id="line2d_19">
    <path clip-path="url(#p89545fac0e)" d="M 156.96 217.394189 
L 159.7248 217.612851 
L 162.4896 218.105461 
L 165.2544 218.867095 
L 168.0192 219.890145 
L 170.784 221.164387 
L 173.5488 222.677091 
L 176.3136 224.413142 
L 179.0784 226.355194 
L 183.2256 229.611561 
L 187.3728 233.214201 
L 192.9024 238.415635 
L 201.1968 246.644328 
L 208.1088 253.422716 
L 212.256 257.265205 
L 216.4032 260.832927 
L 220.5504 264.045759 
L 223.3152 265.954475 
L 226.08 267.654126 
L 228.8448 269.127727 
L 231.6096 270.360556 
L 234.3744 271.340294 
L 237.1392 272.057153 
L 239.904 272.503969 
L 242.6688 272.676278 
L 245.4336 272.572359 
L 248.1984 272.19325 
L 250.9632 271.542738 
L 253.728 270.627324 
L 256.4928 269.456154 
L 259.2576 268.04093 
L 262.0224 266.395793 
L 264.7872 264.537179 
L 268.9344 261.390152 
L 273.0816 257.875721 
L 277.2288 254.072812 
L 282.7584 248.701831 
L 296.5824 235.114615 
L 300.7296 231.369154 
L 304.8768 227.930496 
L 309.024 224.875864 
L 311.7888 223.087071 
L 314.5536 221.517528 
L 317.3184 220.182919 
L 320.0832 219.096577 
L 322.848 218.269357 
L 325.6128 217.709525 
L 328.3776 217.422674 
L 331.1424 217.41167 
L 333.9072 217.676623 
L 336.672 218.214887 
L 339.4368 219.021082 
L 342.2016 220.087153 
L 344.9664 221.402449 
L 347.7312 222.953828 
L 350.496 224.725789 
L 353.2608 226.700627 
L 357.408 229.999608 
L 361.5552 233.636148 
L 367.0848 238.86794 
L 386.4384 257.680352 
L 390.5856 261.212147 
L 394.7328 264.380535 
L 397.4976 266.255377 
L 400.2624 267.918146 
L 403.0272 269.352228 
L 405.792 270.543295 
L 408.5568 271.479445 
L 411.3216 272.151325 
L 414.0864 272.552222 
L 416.8512 272.678129 
L 419.616 272.52779 
L 422.3808 272.102706 
L 425.1456 271.407124 
L 427.9104 270.447995 
L 430.6752 269.234902 
L 432.0576 268.53681 
L 432.0576 268.53681 
" style="fill:none;stroke:#000000;stroke-linecap:square;stroke-width:2.0;"/>
   </g>
   <g id="line2d_20">
    <path clip-path="url(#p89545fac0e)" d="M 156.96 213.241178 
L 159.7248 213.321876 
L 162.4896 213.677957 
L 165.2544 214.305863 
L 168.0192 215.199322 
L 170.784 216.349405 
L 173.5488 217.744622 
L 176.3136 219.371032 
L 179.0784 221.212385 
L 181.8432 223.250282 
L 185.9904 226.630618 
L 190.1376 230.331037 
L 195.6672 235.618395 
L 212.256 251.863553 
L 216.4032 255.53211 
L 220.5504 258.871684 
L 223.3152 260.877905 
L 226.08 262.684346 
L 228.8448 264.272957 
L 231.6096 265.627866 
L 234.3744 266.735534 
L 237.1392 267.584894 
L 239.904 268.167459 
L 242.6688 268.477409 
L 245.4336 268.511647 
L 248.1984 268.269831 
L 250.9632 267.754376 
L 253.728 266.970434 
L 256.4928 265.925836 
L 259.2576 264.631021 
L 262.0224 263.098925 
L 264.7872 261.344857 
L 267.552 259.386344 
L 271.6992 256.108554 
L 275.8464 252.488836 
L 281.376 247.272039 
L 291.0528 237.660848 
L 297.9648 230.967415 
L 302.112 227.221954 
L 306.2592 223.783296 
L 310.4064 220.728664 
L 313.1712 218.939871 
L 315.936 217.370328 
L 318.7008 216.035719 
L 321.4656 214.949377 
L 324.2304 214.122157 
L 326.9952 213.562325 
L 329.76 213.275474 
L 332.5248 213.26447 
L 335.2896 213.529423 
L 338.0544 214.067687 
L 340.8192 214.873882 
L 343.584 215.939953 
L 346.3488 217.255249 
L 349.1136 218.806628 
L 351.8784 220.578589 
L 354.6432 222.553427 
L 358.7904 225.852408 
L 362.9376 229.488948 
L 368.4672 234.72074 
L 387.8208 253.533152 
L 391.968 257.064947 
L 396.1152 260.233335 
L 398.88 262.108177 
L 401.6448 263.770946 
L 404.4096 265.205028 
L 407.1744 266.396095 
L 409.9392 267.332245 
L 412.704 268.004125 
L 415.4688 268.405022 
L 418.2336 268.530929 
L 420.9984 268.38059 
L 423.7632 267.955506 
L 426.528 267.259924 
L 429.2928 266.300795 
L 432.0576 265.087702 
L 432.0576 265.087702 
" style="fill:none;stroke:#000000;stroke-linecap:square;stroke-width:2.0;"/>
   </g>
   <g id="line2d_21">
    <path clip-path="url(#p89545fac0e)" d="M 156.96 209.157259 
L 158.3424 209.093978 
L 159.7248 209.099789 
L 162.4896 209.318451 
L 165.2544 209.811061 
L 168.0192 210.572695 
L 170.784 211.595745 
L 173.5488 212.869987 
L 176.3136 214.382691 
L 179.0784 216.118742 
L 181.8432 218.060794 
L 185.9904 221.317161 
L 190.1376 224.919801 
L 195.6672 230.121235 
L 203.9616 238.349928 
L 210.8736 245.128316 
L 215.0208 248.970805 
L 219.168 252.538527 
L 223.3152 255.751359 
L 226.08 257.660075 
L 228.8448 259.359726 
L 231.6096 260.833327 
L 234.3744 262.066156 
L 237.1392 263.045894 
L 239.904 263.762753 
L 242.6688 264.209569 
L 245.4336 264.381878 
L 248.1984 264.277959 
L 250.9632 263.89885 
L 253.728 263.248338 
L 256.4928 262.332924 
L 259.2576 261.161754 
L 262.0224 259.74653 
L 264.7872 258.101393 
L 267.552 256.242779 
L 271.6992 253.095752 
L 275.8464 249.581321 
L 279.9936 245.778412 
L 285.5232 240.407431 
L 299.3472 226.820215 
L 303.4944 223.074754 
L 307.6416 219.636096 
L 311.7888 216.581464 
L 314.5536 214.792671 
L 317.3184 213.223128 
L 320.0832 211.888519 
L 322.848 210.802177 
L 325.6128 209.974957 
L 328.3776 209.415125 
L 331.1424 209.128274 
L 333.9072 209.11727 
L 336.672 209.382223 
L 339.4368 209.920487 
L 342.2016 210.726682 
L 344.9664 211.792753 
L 347.7312 213.108049 
L 350.496 214.659428 
L 353.2608 216.431389 
L 356.0256 218.406227 
L 360.1728 221.705208 
L 364.32 225.341748 
L 369.8496 230.57354 
L 389.2032 249.385952 
L 393.3504 252.917747 
L 397.4976 256.086135 
L 400.2624 257.960977 
L 403.0272 259.623746 
L 405.792 261.057828 
L 408.5568 262.248895 
L 411.3216 263.185045 
L 414.0864 263.856925 
L 416.8512 264.257822 
L 419.616 264.383729 
L 422.3808 264.23339 
L 425.1456 263.808306 
L 427.9104 263.112724 
L 430.6752 262.153595 
L 432.0576 261.578095 
L 432.0576 261.578095 
" style="fill:none;stroke:#000000;stroke-linecap:square;stroke-width:2.0;"/>
   </g>
   <g id="line2d_22">
    <path clip-path="url(#p89545fac0e)" d="M 156.96 205.142271 
L 158.3424 205.010059 
L 159.7248 204.946778 
L 162.4896 205.027476 
L 165.2544 205.383557 
L 168.0192 206.011463 
L 170.784 206.904922 
L 173.5488 208.055005 
L 176.3136 209.450222 
L 179.0784 211.076632 
L 181.8432 212.917985 
L 184.608 214.955882 
L 188.7552 218.336218 
L 192.9024 222.036637 
L 198.432 227.323995 
L 215.0208 243.569153 
L 219.168 247.23771 
L 223.3152 250.577284 
L 226.08 252.583505 
L 228.8448 254.389946 
L 231.6096 255.978557 
L 234.3744 257.333466 
L 237.1392 258.441134 
L 239.904 259.290494 
L 242.6688 259.873059 
L 245.4336 260.183009 
L 248.1984 260.217247 
L 250.9632 259.975431 
L 253.728 259.459976 
L 256.4928 258.676034 
L 259.2576 257.631436 
L 262.0224 256.336621 
L 264.7872 254.804525 
L 267.552 253.050457 
L 270.3168 251.091944 
L 274.464 247.814154 
L 278.6112 244.194436 
L 284.1408 238.977639 
L 293.8176 229.366448 
L 300.7296 222.673015 
L 304.8768 218.927554 
L 309.024 215.488896 
L 313.1712 212.434264 
L 315.936 210.645471 
L 318.7008 209.075928 
L 321.4656 207.741319 
L 324.2304 206.654977 
L 326.9952 205.827757 
L 329.76 205.267925 
L 332.5248 204.981074 
L 335.2896 204.97007 
L 338.0544 205.235023 
L 340.8192 205.773287 
L 343.584 206.579482 
L 346.3488 207.645553 
L 349.1136 208.960849 
L 351.8784 210.512228 
L 354.6432 212.284189 
L 357.408 214.259027 
L 361.5552 217.558008 
L 365.7024 221.194548 
L 371.232 226.42634 
L 390.5856 245.238752 
L 394.7328 248.770547 
L 398.88 251.938935 
L 401.6448 253.813777 
L 404.4096 255.476546 
L 407.1744 256.910628 
L 409.9392 258.101695 
L 412.704 259.037845 
L 415.4688 259.709725 
L 418.2336 260.110622 
L 420.9984 260.236529 
L 423.7632 260.08619 
L 426.528 259.661106 
L 429.2928 258.965524 
L 432.0576 258.006395 
L 432.0576 258.006395 
" style="fill:none;stroke:#000000;stroke-linecap:square;stroke-width:2.0;"/>
   </g>
   <g id="line2d_23">
    <path clip-path="url(#p89545fac0e)" d="M 156.96 201.195886 
L 158.3424 200.995071 
L 159.7248 200.862859 
L 162.4896 200.805389 
L 165.2544 201.024051 
L 168.0192 201.516661 
L 170.784 202.278295 
L 173.5488 203.301345 
L 176.3136 204.575587 
L 179.0784 206.088291 
L 181.8432 207.824342 
L 184.608 209.766394 
L 188.7552 213.022761 
L 192.9024 216.625401 
L 198.432 221.826835 
L 206.7264 230.055528 
L 213.6384 236.833916 
L 217.7856 240.676405 
L 221.9328 244.244127 
L 226.08 247.456959 
L 228.8448 249.365675 
L 231.6096 251.065326 
L 234.3744 252.538927 
L 237.1392 253.771756 
L 239.904 254.751494 
L 242.6688 255.468353 
L 245.4336 255.915169 
L 248.1984 256.087478 
L 250.9632 255.983559 
L 253.728 255.60445 
L 256.4928 254.953938 
L 259.2576 254.038524 
L 262.0224 252.867354 
L 264.7872 251.45213 
L 267.552 249.806993 
L 270.3168 247.948379 
L 274.464 244.801352 
L 278.6112 241.286921 
L 282.7584 237.484012 
L 288.288 232.113031 
L 302.112 218.525815 
L 306.2592 214.780354 
L 310.4064 211.341696 
L 314.5536 208.287064 
L 317.3184 206.498271 
L 320.0832 204.928728 
L 322.848 203.594119 
L 325.6128 202.507777 
L 328.3776 201.680557 
L 331.1424 201.120725 
L 333.9072 200.833874 
L 336.672 200.82287 
L 339.4368 201.087823 
L 342.2016 201.626087 
L 344.9664 202.432282 
L 347.7312 203.498353 
L 350.496 204.813649 
L 353.2608 206.365028 
L 356.0256 208.136989 
L 358.7904 210.111827 
L 362.9376 213.410808 
L 367.0848 217.047348 
L 372.6144 222.27914 
L 391.968 241.091552 
L 396.1152 244.623347 
L 400.2624 247.791735 
L 403.0272 249.666577 
L 405.792 251.329346 
L 408.5568 252.763428 
L 411.3216 253.954495 
L 414.0864 254.890645 
L 416.8512 255.562525 
L 419.616 255.963422 
L 422.3808 256.089329 
L 425.1456 255.93899 
L 427.9104 255.513906 
L 430.6752 254.818324 
L 432.0576 254.371165 
L 432.0576 254.371165 
" style="fill:none;stroke:#000000;stroke-linecap:square;stroke-width:2.0;"/>
   </g>
   <g id="line2d_24">
    <path clip-path="url(#p89545fac0e)" d="M 156.96 197.317601 
L 158.3424 197.048686 
L 159.7248 196.847871 
L 162.4896 196.652378 
L 165.2544 196.733076 
L 168.0192 197.089157 
L 170.784 197.717063 
L 173.5488 198.610522 
L 176.3136 199.760605 
L 179.0784 201.155822 
L 181.8432 202.782232 
L 184.608 204.623585 
L 187.3728 206.661482 
L 191.52 210.041818 
L 195.6672 213.742237 
L 201.1968 219.029595 
L 217.7856 235.274753 
L 221.9328 238.94331 
L 226.08 242.282884 
L 228.8448 244.289105 
L 231.6096 246.095546 
L 234.3744 247.684157 
L 237.1392 249.039066 
L 239.904 250.146734 
L 242.6688 250.996094 
L 245.4336 251.578659 
L 248.1984 251.888609 
L 250.9632 251.922847 
L 253.728 251.681031 
L 256.4928 251.165576 
L 259.2576 250.381634 
L 262.0224 249.337036 
L 264.7872 248.042221 
L 267.552 246.510125 
L 270.3168 244.756057 
L 273.0816 242.797544 
L 277.2288 239.519754 
L 281.376 235.900036 
L 286.9056 230.683239 
L 296.5824 221.072048 
L 303.4944 214.378615 
L 307.6416 210.633154 
L 311.7888 207.194496 
L 315.936 204.139864 
L 318.7008 202.351071 
L 321.4656 200.781528 
L 324.2304 199.446919 
L 326.9952 198.360577 
L 329.76 197.533357 
L 332.5248 196.973525 
L 335.2896 196.686674 
L 338.0544 196.67567 
L 340.8192 196.940623 
L 343.584 197.478887 
L 346.3488 198.285082 
L 349.1136 199.351153 
L 351.8784 200.666449 
L 354.6432 202.217828 
L 357.408 203.989789 
L 360.1728 205.964627 
L 364.32 209.263608 
L 368.4672 212.900148 
L 373.9968 218.13194 
L 393.3504 236.944352 
L 397.4976 240.476147 
L 401.6448 243.644535 
L 404.4096 245.519377 
L 407.1744 247.182146 
L 409.9392 248.616228 
L 412.704 249.807295 
L 415.4688 250.743445 
L 418.2336 251.415325 
L 420.9984 251.816222 
L 423.7632 251.942129 
L 426.528 251.79179 
L 429.2928 251.366706 
L 432.0576 250.671124 
L 432.0576 250.671124 
" style="fill:none;stroke:#000000;stroke-linecap:square;stroke-width:2.0;"/>
   </g>
   <g id="line2d_25">
    <path clip-path="url(#p89545fac0e)" d="M 156.96 193.506743 
L 158.3424 193.170401 
L 159.7248 192.901486 
L 162.4896 192.568459 
L 165.2544 192.510989 
L 168.0192 192.729651 
L 170.784 193.222261 
L 173.5488 193.983895 
L 176.3136 195.006945 
L 179.0784 196.281187 
L 181.8432 197.793891 
L 184.608 199.529942 
L 187.3728 201.471994 
L 191.52 204.728361 
L 195.6672 208.331001 
L 201.1968 213.532435 
L 209.4912 221.761128 
L 216.4032 228.539516 
L 220.5504 232.382005 
L 224.6976 235.949727 
L 228.8448 239.162559 
L 231.6096 241.071275 
L 234.3744 242.770926 
L 237.1392 244.244527 
L 239.904 245.477356 
L 242.6688 246.457094 
L 245.4336 247.173953 
L 248.1984 247.620769 
L 250.9632 247.793078 
L 253.728 247.689159 
L 256.4928 247.31005 
L 259.2576 246.659538 
L 262.0224 245.744124 
L 264.7872 244.572954 
L 267.552 243.15773 
L 270.3168 241.512593 
L 273.0816 239.653979 
L 277.2288 236.506952 
L 281.376 232.992521 
L 285.5232 229.189612 
L 291.0528 223.818631 
L 304.8768 210.231415 
L 309.024 206.485954 
L 313.1712 203.047296 
L 317.3184 199.992664 
L 320.0832 198.203871 
L 322.848 196.634328 
L 325.6128 195.299719 
L 328.3776 194.213377 
L 331.1424 193.386157 
L 333.9072 192.826325 
L 336.672 192.539474 
L 339.4368 192.52847 
L 342.2016 192.793423 
L 344.9664 193.331687 
L 347.7312 194.137882 
L 350.496 195.203953 
L 353.2608 196.519249 
L 356.0256 198.070628 
L 358.7904 199.842589 
L 361.5552 201.817427 
L 365.7024 205.116408 
L 369.8496 208.752948 
L 375.3792 213.98474 
L 394.7328 232.797152 
L 398.88 236.328947 
L 403.0272 239.497335 
L 405.792 241.372177 
L 408.5568 243.034946 
L 411.3216 244.469028 
L 414.0864 245.660095 
L 416.8512 246.596245 
L 419.616 247.268125 
L 422.3808 247.669022 
L 425.1456 247.794929 
L 427.9104 247.64459 
L 430.6752 247.219506 
L 432.0576 246.905156 
L 432.0576 246.905156 
" style="fill:none;stroke:#000000;stroke-linecap:square;stroke-width:2.0;"/>
   </g>
   <g id="line2d_26">
    <path clip-path="url(#p89545fac0e)" d="M 156.96 189.762473 
L 158.3424 189.359543 
L 159.7248 189.023201 
L 162.4896 188.553471 
L 165.2544 188.357978 
L 168.0192 188.438676 
L 170.784 188.794757 
L 173.5488 189.422663 
L 176.3136 190.316122 
L 179.0784 191.466205 
L 181.8432 192.861422 
L 184.608 194.487832 
L 187.3728 196.329185 
L 190.1376 198.367082 
L 194.2848 201.747418 
L 198.432 205.447837 
L 203.9616 210.735195 
L 220.5504 226.980353 
L 224.6976 230.64891 
L 228.8448 233.988484 
L 231.6096 235.994705 
L 234.3744 237.801146 
L 237.1392 239.389757 
L 239.904 240.744666 
L 242.6688 241.852334 
L 245.4336 242.701694 
L 248.1984 243.284259 
L 250.9632 243.594209 
L 253.728 243.628447 
L 256.4928 243.386631 
L 259.2576 242.871176 
L 262.0224 242.087234 
L 264.7872 241.042636 
L 267.552 239.747821 
L 270.3168 238.215725 
L 273.0816 236.461657 
L 275.8464 234.503144 
L 279.9936 231.225354 
L 284.1408 227.605636 
L 289.6704 222.388839 
L 299.3472 212.777648 
L 306.2592 206.084215 
L 310.4064 202.338754 
L 314.5536 198.900096 
L 318.7008 195.845464 
L 321.4656 194.056671 
L 324.2304 192.487128 
L 326.9952 191.152519 
L 329.76 190.066177 
L 332.5248 189.238957 
L 335.2896 188.679125 
L 338.0544 188.392274 
L 340.8192 188.38127 
L 343.584 188.646223 
L 346.3488 189.184487 
L 349.1136 189.990682 
L 351.8784 191.056753 
L 354.6432 192.372049 
L 357.408 193.923428 
L 360.1728 195.695389 
L 362.9376 197.670227 
L 367.0848 200.969208 
L 371.232 204.605748 
L 376.7616 209.83754 
L 396.1152 228.649952 
L 400.2624 232.181747 
L 404.4096 235.350135 
L 407.1744 237.224977 
L 409.9392 238.887746 
L 412.704 240.321828 
L 415.4688 241.512895 
L 418.2336 242.449045 
L 420.9984 243.120925 
L 423.7632 243.521822 
L 426.528 243.647729 
L 429.2928 243.49739 
L 432.0576 243.072306 
L 432.0576 243.072306 
" style="fill:none;stroke:#000000;stroke-linecap:square;stroke-width:2.0;"/>
   </g>
   <g id="line2d_27">
    <path clip-path="url(#p89545fac0e)" d="M 156.96 186.083783 
L 158.3424 185.615273 
L 159.7248 185.212343 
L 162.4896 184.607086 
L 165.2544 184.274059 
L 168.0192 184.216589 
L 170.784 184.435251 
L 173.5488 184.927861 
L 176.3136 185.689495 
L 179.0784 186.712545 
L 181.8432 187.986787 
L 184.608 189.499491 
L 187.3728 191.235542 
L 190.1376 193.177594 
L 194.2848 196.433961 
L 198.432 200.036601 
L 203.9616 205.238035 
L 212.256 213.466728 
L 219.168 220.245116 
L 223.3152 224.087605 
L 227.4624 227.655327 
L 231.6096 230.868159 
L 234.3744 232.776875 
L 237.1392 234.476526 
L 239.904 235.950127 
L 242.6688 237.182956 
L 245.4336 238.162694 
L 248.1984 238.879553 
L 250.9632 239.326369 
L 253.728 239.498678 
L 256.4928 239.394759 
L 259.2576 239.01565 
L 262.0224 238.365138 
L 264.7872 237.449724 
L 267.552 236.278554 
L 270.3168 234.86333 
L 273.0816 233.218193 
L 275.8464 231.359579 
L 279.9936 228.212552 
L 284.1408 224.698121 
L 288.288 220.895212 
L 293.8176 215.524231 
L 307.6416 201.937015 
L 311.7888 198.191554 
L 315.936 194.752896 
L 320.0832 191.698264 
L 322.848 189.909471 
L 325.6128 188.339928 
L 328.3776 187.005319 
L 331.1424 185.918977 
L 333.9072 185.091757 
L 336.672 184.531925 
L 339.4368 184.245074 
L 342.2016 184.23407 
L 344.9664 184.499023 
L 347.7312 185.037287 
L 350.496 185.843482 
L 353.2608 186.909553 
L 356.0256 188.224849 
L 358.7904 189.776228 
L 361.5552 191.548189 
L 364.32 193.523027 
L 368.4672 196.822008 
L 372.6144 200.458548 
L 378.144 205.69034 
L 397.4976 224.502752 
L 401.6448 228.034547 
L 405.792 231.202935 
L 408.5568 233.077777 
L 411.3216 234.740546 
L 414.0864 236.174628 
L 416.8512 237.365695 
L 419.616 238.301845 
L 422.3808 238.973725 
L 425.1456 239.374622 
L 427.9104 239.500529 
L 430.6752 239.35019 
L 432.0576 239.17179 
L 432.0576 239.17179 
" style="fill:none;stroke:#000000;stroke-linecap:square;stroke-width:2.0;"/>
   </g>
   <g id="line2d_28">
    <path clip-path="url(#p89545fac0e)" d="M 156.96 182.469503 
L 158.3424 181.936583 
L 159.7248 181.468073 
L 162.4896 180.728801 
L 165.2544 180.259071 
L 168.0192 180.063578 
L 170.784 180.144276 
L 173.5488 180.500357 
L 176.3136 181.128263 
L 179.0784 182.021722 
L 181.8432 183.171805 
L 184.608 184.567022 
L 187.3728 186.193432 
L 190.1376 188.034785 
L 192.9024 190.072682 
L 197.0496 193.453018 
L 201.1968 197.153437 
L 206.7264 202.440795 
L 223.3152 218.685953 
L 227.4624 222.35451 
L 231.6096 225.694084 
L 234.3744 227.700305 
L 237.1392 229.506746 
L 239.904 231.095357 
L 242.6688 232.450266 
L 245.4336 233.557934 
L 248.1984 234.407294 
L 250.9632 234.989859 
L 253.728 235.299809 
L 256.4928 235.334047 
L 259.2576 235.092231 
L 262.0224 234.576776 
L 264.7872 233.792834 
L 267.552 232.748236 
L 270.3168 231.453421 
L 273.0816 229.921325 
L 275.8464 228.167257 
L 278.6112 226.208744 
L 282.7584 222.930954 
L 286.9056 219.311236 
L 292.4352 214.094439 
L 302.112 204.483248 
L 309.024 197.789815 
L 313.1712 194.044354 
L 317.3184 190.605696 
L 321.4656 187.551064 
L 324.2304 185.762271 
L 326.9952 184.192728 
L 329.76 182.858119 
L 332.5248 181.771777 
L 335.2896 180.944557 
L 338.0544 180.384725 
L 340.8192 180.097874 
L 343.584 180.08687 
L 346.3488 180.351823 
L 349.1136 180.890087 
L 351.8784 181.696282 
L 354.6432 182.762353 
L 357.408 184.077649 
L 360.1728 185.629028 
L 362.9376 187.400989 
L 365.7024 189.375827 
L 369.8496 192.674808 
L 373.9968 196.311348 
L 379.5264 201.54314 
L 398.88 220.355552 
L 403.0272 223.887347 
L 407.1744 227.055735 
L 409.9392 228.930577 
L 412.704 230.593346 
L 415.4688 232.027428 
L 418.2336 233.218495 
L 420.9984 234.154645 
L 423.7632 234.826525 
L 426.528 235.227422 
L 429.2928 235.353329 
L 432.0576 235.20299 
L 432.0576 235.20299 
" style="fill:none;stroke:#000000;stroke-linecap:square;stroke-width:2.0;"/>
   </g>
   <g id="line2d_29">
    <path clip-path="url(#p89545fac0e)" d="M 156.96 178.918299 
L 158.3424 178.322303 
L 159.7248 177.789383 
L 162.4896 176.917943 
L 165.2544 176.312686 
L 168.0192 175.979659 
L 170.784 175.922189 
L 173.5488 176.140851 
L 176.3136 176.633461 
L 179.0784 177.395095 
L 181.8432 178.418145 
L 184.608 179.692387 
L 187.3728 181.205091 
L 190.1376 182.941142 
L 192.9024 184.883194 
L 197.0496 188.139561 
L 201.1968 191.742201 
L 206.7264 196.943635 
L 215.0208 205.172328 
L 221.9328 211.950716 
L 226.08 215.793205 
L 230.2272 219.360927 
L 234.3744 222.573759 
L 237.1392 224.482475 
L 239.904 226.182126 
L 242.6688 227.655727 
L 245.4336 228.888556 
L 248.1984 229.868294 
L 250.9632 230.585153 
L 253.728 231.031969 
L 256.4928 231.204278 
L 259.2576 231.100359 
L 262.0224 230.72125 
L 264.7872 230.070738 
L 267.552 229.155324 
L 270.3168 227.984154 
L 273.0816 226.56893 
L 275.8464 224.923793 
L 278.6112 223.065179 
L 282.7584 219.918152 
L 286.9056 216.403721 
L 291.0528 212.600812 
L 296.5824 207.229831 
L 310.4064 193.642615 
L 314.5536 189.897154 
L 318.7008 186.458496 
L 322.848 183.403864 
L 325.6128 181.615071 
L 328.3776 180.045528 
L 331.1424 178.710919 
L 333.9072 177.624577 
L 336.672 176.797357 
L 339.4368 176.237525 
L 342.2016 175.950674 
L 344.9664 175.93967 
L 347.7312 176.204623 
L 350.496 176.742887 
L 353.2608 177.549082 
L 356.0256 178.615153 
L 358.7904 179.930449 
L 361.5552 181.481828 
L 364.32 183.253789 
L 367.0848 185.228627 
L 371.232 188.527608 
L 375.3792 192.164148 
L 380.9088 197.39594 
L 400.2624 216.208352 
L 404.4096 219.740147 
L 408.5568 222.908535 
L 411.3216 224.783377 
L 414.0864 226.446146 
L 416.8512 227.880228 
L 419.616 229.071295 
L 422.3808 230.007445 
L 425.1456 230.679325 
L 427.9104 231.080222 
L 430.6752 231.206129 
L 432.0576 231.165461 
L 432.0576 231.165461 
" style="fill:none;stroke:#000000;stroke-linecap:square;stroke-width:2.0;"/>
   </g>
   <g id="line2d_30">
    <path clip-path="url(#p89545fac0e)" d="M 156.96 175.428683 
L 158.3424 174.771099 
L 159.7248 174.175103 
L 162.4896 173.173673 
L 165.2544 172.434401 
L 168.0192 171.964671 
L 170.784 171.769178 
L 173.5488 171.849876 
L 176.3136 172.205957 
L 179.0784 172.833863 
L 181.8432 173.727322 
L 184.608 174.877405 
L 187.3728 176.272622 
L 190.1376 177.899032 
L 192.9024 179.740385 
L 195.6672 181.778282 
L 199.8144 185.158618 
L 203.9616 188.859037 
L 209.4912 194.146395 
L 226.08 210.391553 
L 230.2272 214.06011 
L 234.3744 217.399684 
L 237.1392 219.405905 
L 239.904 221.212346 
L 242.6688 222.800957 
L 245.4336 224.155866 
L 248.1984 225.263534 
L 250.9632 226.112894 
L 253.728 226.695459 
L 256.4928 227.005409 
L 259.2576 227.039647 
L 262.0224 226.797831 
L 264.7872 226.282376 
L 267.552 225.498434 
L 270.3168 224.453836 
L 273.0816 223.159021 
L 275.8464 221.626925 
L 278.6112 219.872857 
L 281.376 217.914344 
L 285.5232 214.636554 
L 289.6704 211.016836 
L 295.2 205.800039 
L 304.8768 196.188848 
L 311.7888 189.495415 
L 315.936 185.749954 
L 320.0832 182.311296 
L 324.2304 179.256664 
L 326.9952 177.467871 
L 329.76 175.898328 
L 332.5248 174.563719 
L 335.2896 173.477377 
L 338.0544 172.650157 
L 340.8192 172.090325 
L 343.584 171.803474 
L 346.3488 171.79247 
L 349.1136 172.057423 
L 351.8784 172.595687 
L 354.6432 173.401882 
L 357.408 174.467953 
L 360.1728 175.783249 
L 362.9376 177.334628 
L 365.7024 179.106589 
L 368.4672 181.081427 
L 372.6144 184.380408 
L 376.7616 188.016948 
L 382.2912 193.24874 
L 401.6448 212.061152 
L 405.792 215.592947 
L 409.9392 218.761335 
L 412.704 220.636177 
L 415.4688 222.298946 
L 418.2336 223.733028 
L 420.9984 224.924095 
L 423.7632 225.860245 
L 426.528 226.532125 
L 429.2928 226.933022 
L 432.0576 227.058929 
L 432.0576 227.058929 
" style="fill:none;stroke:#000000;stroke-linecap:square;stroke-width:2.0;"/>
   </g>
   <g id="line2d_31">
    <path clip-path="url(#p89545fac0e)" d="M 156.96 171.99901 
L 158.3424 171.281483 
L 159.7248 170.623899 
L 162.4896 169.494983 
L 165.2544 168.623543 
L 168.0192 168.018286 
L 170.784 167.685259 
L 173.5488 167.627789 
L 176.3136 167.846451 
L 179.0784 168.339061 
L 181.8432 169.100695 
L 184.608 170.123745 
L 187.3728 171.397987 
L 190.1376 172.910691 
L 192.9024 174.646742 
L 195.6672 176.588794 
L 199.8144 179.845161 
L 203.9616 183.447801 
L 209.4912 188.649235 
L 217.7856 196.877928 
L 224.6976 203.656316 
L 228.8448 207.498805 
L 232.992 211.066527 
L 237.1392 214.279359 
L 239.904 216.188075 
L 242.6688 217.887726 
L 245.4336 219.361327 
L 248.1984 220.594156 
L 250.9632 221.573894 
L 253.728 222.290753 
L 256.4928 222.737569 
L 259.2576 222.909878 
L 262.0224 222.805959 
L 264.7872 222.42685 
L 267.552 221.776338 
L 270.3168 220.860924 
L 273.0816 219.689754 
L 275.8464 218.27453 
L 278.6112 216.629393 
L 281.376 214.770779 
L 285.5232 211.623752 
L 289.6704 208.109321 
L 293.8176 204.306412 
L 299.3472 198.935431 
L 313.1712 185.348215 
L 317.3184 181.602754 
L 321.4656 178.164096 
L 325.6128 175.109464 
L 328.3776 173.320671 
L 331.1424 171.751128 
L 333.9072 170.416519 
L 336.672 169.330177 
L 339.4368 168.502957 
L 342.2016 167.943125 
L 344.9664 167.656274 
L 347.7312 167.64527 
L 350.496 167.910223 
L 353.2608 168.448487 
L 356.0256 169.254682 
L 358.7904 170.320753 
L 361.5552 171.636049 
L 364.32 173.187428 
L 367.0848 174.959389 
L 369.8496 176.934227 
L 373.9968 180.233208 
L 378.144 183.869748 
L 383.6736 189.10154 
L 403.0272 207.913952 
L 407.1744 211.445747 
L 411.3216 214.614135 
L 414.0864 216.488977 
L 416.8512 218.151746 
L 419.616 219.585828 
L 422.3808 220.776895 
L 425.1456 221.713045 
L 427.9104 222.384925 
L 430.6752 222.785822 
L 432.0576 222.883292 
L 432.0576 222.883292 
" style="fill:none;stroke:#000000;stroke-linecap:square;stroke-width:2.0;"/>
   </g>
   <g id="line2d_32">
    <path clip-path="url(#p89545fac0e)" d="M 156.96 168.627488 
L 158.3424 167.85181 
L 159.7248 167.134283 
L 162.4896 165.880703 
L 165.2544 164.879273 
L 168.0192 164.140001 
L 170.784 163.670271 
L 173.5488 163.474778 
L 176.3136 163.555476 
L 179.0784 163.911557 
L 181.8432 164.539463 
L 184.608 165.432922 
L 187.3728 166.583005 
L 190.1376 167.978222 
L 192.9024 169.604632 
L 195.6672 171.445985 
L 198.432 173.483882 
L 202.5792 176.864218 
L 206.7264 180.564637 
L 212.256 185.851995 
L 228.8448 202.097153 
L 232.992 205.76571 
L 237.1392 209.105284 
L 239.904 211.111505 
L 242.6688 212.917946 
L 245.4336 214.506557 
L 248.1984 215.861466 
L 250.9632 216.969134 
L 253.728 217.818494 
L 256.4928 218.401059 
L 259.2576 218.711009 
L 262.0224 218.745247 
L 264.7872 218.503431 
L 267.552 217.987976 
L 270.3168 217.204034 
L 273.0816 216.159436 
L 275.8464 214.864621 
L 278.6112 213.332525 
L 281.376 211.578457 
L 284.1408 209.619944 
L 288.288 206.342154 
L 292.4352 202.722436 
L 297.9648 197.505639 
L 307.6416 187.894448 
L 314.5536 181.201015 
L 318.7008 177.455554 
L 322.848 174.016896 
L 326.9952 170.962264 
L 329.76 169.173471 
L 332.5248 167.603928 
L 335.2896 166.269319 
L 338.0544 165.182977 
L 340.8192 164.355757 
L 343.584 163.795925 
L 346.3488 163.509074 
L 349.1136 163.49807 
L 351.8784 163.763023 
L 354.6432 164.301287 
L 357.408 165.107482 
L 360.1728 166.173553 
L 362.9376 167.488849 
L 365.7024 169.040228 
L 368.4672 170.812189 
L 371.232 172.787027 
L 375.3792 176.086008 
L 379.5264 179.722548 
L 385.056 184.95434 
L 404.4096 203.766752 
L 408.5568 207.298547 
L 412.704 210.466935 
L 415.4688 212.341777 
L 418.2336 214.004546 
L 420.9984 215.438628 
L 423.7632 216.629695 
L 426.528 217.565845 
L 429.2928 218.237725 
L 432.0576 218.638622 
L 432.0576 218.638622 
" style="fill:none;stroke:#000000;stroke-linecap:square;stroke-width:2.0;"/>
   </g>
   <g id="line2d_33">
    <path clip-path="url(#p89545fac0e)" d="M 156.96 165.312178 
L 158.3424 164.480288 
L 159.7248 163.70461 
L 162.4896 162.329499 
L 165.2544 161.200583 
L 168.0192 160.329143 
L 170.784 159.723886 
L 173.5488 159.390859 
L 176.3136 159.333389 
L 179.0784 159.552051 
L 181.8432 160.044661 
L 184.608 160.806295 
L 187.3728 161.829345 
L 190.1376 163.103587 
L 192.9024 164.616291 
L 195.6672 166.352342 
L 198.432 168.294394 
L 202.5792 171.550761 
L 206.7264 175.153401 
L 212.256 180.354835 
L 220.5504 188.583528 
L 227.4624 195.361916 
L 231.6096 199.204405 
L 235.7568 202.772127 
L 239.904 205.984959 
L 242.6688 207.893675 
L 245.4336 209.593326 
L 248.1984 211.066927 
L 250.9632 212.299756 
L 253.728 213.279494 
L 256.4928 213.996353 
L 259.2576 214.443169 
L 262.0224 214.615478 
L 264.7872 214.511559 
L 267.552 214.13245 
L 270.3168 213.481938 
L 273.0816 212.566524 
L 275.8464 211.395354 
L 278.6112 209.98013 
L 281.376 208.334993 
L 284.1408 206.476379 
L 288.288 203.329352 
L 292.4352 199.814921 
L 296.5824 196.012012 
L 302.112 190.641031 
L 315.936 177.053815 
L 320.0832 173.308354 
L 324.2304 169.869696 
L 328.3776 166.815064 
L 331.1424 165.026271 
L 333.9072 163.456728 
L 336.672 162.122119 
L 339.4368 161.035777 
L 342.2016 160.208557 
L 344.9664 159.648725 
L 347.7312 159.361874 
L 350.496 159.35087 
L 353.2608 159.615823 
L 356.0256 160.154087 
L 358.7904 160.960282 
L 361.5552 162.026353 
L 364.32 163.341649 
L 367.0848 164.893028 
L 369.8496 166.664989 
L 372.6144 168.639827 
L 376.7616 171.938808 
L 380.9088 175.575348 
L 386.4384 180.80714 
L 405.792 199.619552 
L 409.9392 203.151347 
L 414.0864 206.319735 
L 416.8512 208.194577 
L 419.616 209.857346 
L 422.3808 211.291428 
L 425.1456 212.482495 
L 427.9104 213.418645 
L 430.6752 214.090525 
L 432.0576 214.325161 
L 432.0576 214.325161 
" style="fill:none;stroke:#000000;stroke-linecap:square;stroke-width:2.0;"/>
   </g>
   <g id="line2d_34">
    <path clip-path="url(#p89545fac0e)" d="M 156.96 162.050999 
L 158.3424 161.164978 
L 159.7248 160.333088 
L 162.4896 158.839883 
L 165.2544 157.586303 
L 168.0192 156.584873 
L 170.784 155.845601 
L 173.5488 155.375871 
L 176.3136 155.180378 
L 179.0784 155.261076 
L 181.8432 155.617157 
L 184.608 156.245063 
L 187.3728 157.138522 
L 190.1376 158.288605 
L 192.9024 159.683822 
L 195.6672 161.310232 
L 198.432 163.151585 
L 201.1968 165.189482 
L 205.344 168.569818 
L 209.4912 172.270237 
L 215.0208 177.557595 
L 231.6096 193.802753 
L 235.7568 197.47131 
L 239.904 200.810884 
L 242.6688 202.817105 
L 245.4336 204.623546 
L 248.1984 206.212157 
L 250.9632 207.567066 
L 253.728 208.674734 
L 256.4928 209.524094 
L 259.2576 210.106659 
L 262.0224 210.416609 
L 264.7872 210.450847 
L 267.552 210.209031 
L 270.3168 209.693576 
L 273.0816 208.909634 
L 275.8464 207.865036 
L 278.6112 206.570221 
L 281.376 205.038125 
L 284.1408 203.284057 
L 286.9056 201.325544 
L 291.0528 198.047754 
L 295.2 194.428036 
L 300.7296 189.211239 
L 310.4064 179.600048 
L 317.3184 172.906615 
L 321.4656 169.161154 
L 325.6128 165.722496 
L 329.76 162.667864 
L 332.5248 160.879071 
L 335.2896 159.309528 
L 338.0544 157.974919 
L 340.8192 156.888577 
L 343.584 156.061357 
L 346.3488 155.501525 
L 349.1136 155.214674 
L 351.8784 155.20367 
L 354.6432 155.468623 
L 357.408 156.006887 
L 360.1728 156.813082 
L 362.9376 157.879153 
L 365.7024 159.194449 
L 368.4672 160.745828 
L 371.232 162.517789 
L 373.9968 164.492627 
L 378.144 167.791608 
L 382.2912 171.428148 
L 387.8208 176.65994 
L 407.1744 195.472352 
L 411.3216 199.004147 
L 415.4688 202.172535 
L 418.2336 204.047377 
L 420.9984 205.710146 
L 423.7632 207.144228 
L 426.528 208.335295 
L 429.2928 209.271445 
L 432.0576 209.943325 
L 432.0576 209.943325 
" style="fill:none;stroke:#000000;stroke-linecap:square;stroke-width:2.0;"/>
   </g>
   <g id="line2d_35">
    <path clip-path="url(#p89545fac0e)" d="M 156.96 158.841739 
L 158.3424 157.903799 
L 159.7248 157.017778 
L 162.4896 155.41021 
L 165.2544 154.035099 
L 168.0192 152.906183 
L 170.784 152.034743 
L 173.5488 151.429486 
L 176.3136 151.096459 
L 179.0784 151.038989 
L 181.8432 151.257651 
L 184.608 151.750261 
L 187.3728 152.511895 
L 190.1376 153.534945 
L 192.9024 154.809187 
L 195.6672 156.321891 
L 198.432 158.057942 
L 201.1968 159.999994 
L 205.344 163.256361 
L 209.4912 166.859001 
L 215.0208 172.060435 
L 223.3152 180.289128 
L 230.2272 187.067516 
L 234.3744 190.910005 
L 238.5216 194.477727 
L 242.6688 197.690559 
L 245.4336 199.599275 
L 248.1984 201.298926 
L 250.9632 202.772527 
L 253.728 204.005356 
L 256.4928 204.985094 
L 259.2576 205.701953 
L 262.0224 206.148769 
L 264.7872 206.321078 
L 267.552 206.217159 
L 270.3168 205.83805 
L 273.0816 205.187538 
L 275.8464 204.272124 
L 278.6112 203.100954 
L 281.376 201.68573 
L 284.1408 200.040593 
L 286.9056 198.181979 
L 291.0528 195.034952 
L 295.2 191.520521 
L 299.3472 187.717612 
L 304.8768 182.346631 
L 318.7008 168.759415 
L 322.848 165.013954 
L 326.9952 161.575296 
L 331.1424 158.520664 
L 333.9072 156.731871 
L 336.672 155.162328 
L 339.4368 153.827719 
L 342.2016 152.741377 
L 344.9664 151.914157 
L 347.7312 151.354325 
L 350.496 151.067474 
L 353.2608 151.05647 
L 356.0256 151.321423 
L 358.7904 151.859687 
L 361.5552 152.665882 
L 364.32 153.731953 
L 367.0848 155.047249 
L 369.8496 156.598628 
L 372.6144 158.370589 
L 375.3792 160.345427 
L 379.5264 163.644408 
L 383.6736 167.280948 
L 389.2032 172.51274 
L 408.5568 191.325152 
L 412.704 194.856947 
L 416.8512 198.025335 
L 419.616 199.900177 
L 422.3808 201.562946 
L 425.1456 202.997028 
L 427.9104 204.188095 
L 430.6752 205.124245 
L 432.0576 205.493701 
L 432.0576 205.493701 
" style="fill:none;stroke:#000000;stroke-linecap:square;stroke-width:2.0;"/>
   </g>
   <g id="line2d_36">
    <path clip-path="url(#p89545fac0e)" d="M 156.96 155.682052 
L 158.3424 154.694539 
L 159.7248 153.756599 
L 162.4896 152.038688 
L 165.2544 150.545483 
L 168.0192 149.291903 
L 170.784 148.290473 
L 173.5488 147.551201 
L 176.3136 147.081471 
L 179.0784 146.885978 
L 181.8432 146.966676 
L 184.608 147.322757 
L 187.3728 147.950663 
L 190.1376 148.844122 
L 192.9024 149.994205 
L 195.6672 151.389422 
L 198.432 153.015832 
L 201.1968 154.857185 
L 203.9616 156.895082 
L 208.1088 160.275418 
L 212.256 163.975837 
L 217.7856 169.263195 
L 234.3744 185.508353 
L 238.5216 189.17691 
L 242.6688 192.516484 
L 245.4336 194.522705 
L 248.1984 196.329146 
L 250.9632 197.917757 
L 253.728 199.272666 
L 256.4928 200.380334 
L 259.2576 201.229694 
L 262.0224 201.812259 
L 264.7872 202.122209 
L 267.552 202.156447 
L 270.3168 201.914631 
L 273.0816 201.399176 
L 275.8464 200.615234 
L 278.6112 199.570636 
L 281.376 198.275821 
L 284.1408 196.743725 
L 286.9056 194.989657 
L 289.6704 193.031144 
L 293.8176 189.753354 
L 297.9648 186.133636 
L 303.4944 180.916839 
L 313.1712 171.305648 
L 320.0832 164.612215 
L 324.2304 160.866754 
L 328.3776 157.428096 
L 332.5248 154.373464 
L 335.2896 152.584671 
L 338.0544 151.015128 
L 340.8192 149.680519 
L 343.584 148.594177 
L 346.3488 147.766957 
L 349.1136 147.207125 
L 351.8784 146.920274 
L 354.6432 146.90927 
L 357.408 147.174223 
L 360.1728 147.712487 
L 362.9376 148.518682 
L 365.7024 149.584753 
L 368.4672 150.900049 
L 371.232 152.451428 
L 373.9968 154.223389 
L 376.7616 156.198227 
L 380.9088 159.497208 
L 385.056 163.133748 
L 390.5856 168.36554 
L 409.9392 187.177952 
L 414.0864 190.709747 
L 418.2336 193.878135 
L 420.9984 195.752977 
L 423.7632 197.415746 
L 426.528 198.849828 
L 429.2928 200.040895 
L 432.0576 200.977045 
L 432.0576 200.977045 
" style="fill:none;stroke:#000000;stroke-linecap:square;stroke-width:2.0;"/>
   </g>
   <g id="line2d_37">
    <path clip-path="url(#p89545fac0e)" d="M 156.96 152.569469 
L 158.3424 151.534852 
L 159.7248 150.547339 
L 162.4896 148.723378 
L 165.2544 147.11581 
L 168.0192 145.740699 
L 170.784 144.611783 
L 173.5488 143.740343 
L 176.3136 143.135086 
L 179.0784 142.802059 
L 181.8432 142.744589 
L 184.608 142.963251 
L 187.3728 143.455861 
L 190.1376 144.217495 
L 192.9024 145.240545 
L 195.6672 146.514787 
L 198.432 148.027491 
L 201.1968 149.763542 
L 203.9616 151.705594 
L 208.1088 154.961961 
L 212.256 158.564601 
L 217.7856 163.766035 
L 226.08 171.994728 
L 232.992 178.773116 
L 237.1392 182.615605 
L 241.2864 186.183327 
L 245.4336 189.396159 
L 248.1984 191.304875 
L 250.9632 193.004526 
L 253.728 194.478127 
L 256.4928 195.710956 
L 259.2576 196.690694 
L 262.0224 197.407553 
L 264.7872 197.854369 
L 267.552 198.026678 
L 270.3168 197.922759 
L 273.0816 197.54365 
L 275.8464 196.893138 
L 278.6112 195.977724 
L 281.376 194.806554 
L 284.1408 193.39133 
L 286.9056 191.746193 
L 289.6704 189.887579 
L 293.8176 186.740552 
L 297.9648 183.226121 
L 302.112 179.423212 
L 307.6416 174.052231 
L 321.4656 160.465015 
L 325.6128 156.719554 
L 329.76 153.280896 
L 333.9072 150.226264 
L 336.672 148.437471 
L 339.4368 146.867928 
L 342.2016 145.533319 
L 344.9664 144.446977 
L 347.7312 143.619757 
L 350.496 143.059925 
L 353.2608 142.773074 
L 356.0256 142.76207 
L 358.7904 143.027023 
L 361.5552 143.565287 
L 364.32 144.371482 
L 367.0848 145.437553 
L 369.8496 146.752849 
L 372.6144 148.304228 
L 375.3792 150.076189 
L 378.144 152.051027 
L 382.2912 155.350008 
L 386.4384 158.986548 
L 391.968 164.21834 
L 411.3216 183.030752 
L 415.4688 186.562547 
L 419.616 189.730935 
L 422.3808 191.605777 
L 425.1456 193.268546 
L 427.9104 194.702628 
L 430.6752 195.893695 
L 432.0576 196.39428 
L 432.0576 196.39428 
" style="fill:none;stroke:#000000;stroke-linecap:square;stroke-width:2.0;"/>
   </g>
   <g id="line2d_38">
    <path clip-path="url(#p89545fac0e)" d="M 156.96 149.501406 
L 161.1072 146.400139 
L 163.872 144.576178 
L 166.6368 142.96861 
L 169.4016 141.593499 
L 172.1664 140.464583 
L 174.9312 139.593143 
L 177.696 138.987886 
L 180.4608 138.654859 
L 183.2256 138.597389 
L 185.9904 138.816051 
L 188.7552 139.308661 
L 191.52 140.070295 
L 194.2848 141.093345 
L 197.0496 142.367587 
L 199.8144 143.880291 
L 202.5792 145.616342 
L 205.344 147.558394 
L 209.4912 150.814761 
L 213.6384 154.417401 
L 219.168 159.618835 
L 227.4624 167.847528 
L 234.3744 174.625916 
L 238.5216 178.468405 
L 242.6688 182.036127 
L 246.816 185.248959 
L 249.5808 187.157675 
L 252.3456 188.857326 
L 255.1104 190.330927 
L 257.8752 191.563756 
L 260.64 192.543494 
L 263.4048 193.260353 
L 266.1696 193.707169 
L 268.9344 193.879478 
L 271.6992 193.775559 
L 274.464 193.39645 
L 277.2288 192.745938 
L 279.9936 191.830524 
L 282.7584 190.659354 
L 285.5232 189.24413 
L 288.288 187.598993 
L 291.0528 185.740379 
L 295.2 182.593352 
L 299.3472 179.078921 
L 303.4944 175.276012 
L 309.024 169.905031 
L 322.848 156.317815 
L 326.9952 152.572354 
L 331.1424 149.133696 
L 335.2896 146.079064 
L 338.0544 144.290271 
L 340.8192 142.720728 
L 343.584 141.386119 
L 346.3488 140.299777 
L 349.1136 139.472557 
L 351.8784 138.912725 
L 354.6432 138.625874 
L 357.408 138.61487 
L 360.1728 138.879823 
L 362.9376 139.418087 
L 365.7024 140.224282 
L 368.4672 141.290353 
L 371.232 142.605649 
L 373.9968 144.157028 
L 376.7616 145.928989 
L 379.5264 147.903827 
L 383.6736 151.202808 
L 387.8208 154.839348 
L 393.3504 160.07114 
L 412.704 178.883552 
L 416.8512 182.415347 
L 420.9984 185.583735 
L 423.7632 187.458577 
L 426.528 189.121346 
L 429.2928 190.555428 
L 432.0576 191.746495 
L 432.0576 191.746495 
" style="fill:none;stroke:#000000;stroke-linecap:square;stroke-width:2.0;"/>
   </g>
   <g id="line2d_39">
    <path clip-path="url(#p89545fac0e)" d="M 156.96 146.475165 
L 161.1072 143.240452 
L 163.872 141.314999 
L 166.6368 139.597088 
L 169.4016 138.103883 
L 172.1664 136.850303 
L 174.9312 135.848873 
L 177.696 135.109601 
L 180.4608 134.639871 
L 183.2256 134.444378 
L 185.9904 134.525076 
L 188.7552 134.881157 
L 191.52 135.509063 
L 194.2848 136.402522 
L 197.0496 137.552605 
L 199.8144 138.947822 
L 202.5792 140.574232 
L 205.344 142.415585 
L 208.1088 144.453482 
L 212.256 147.833818 
L 216.4032 151.534237 
L 221.9328 156.821595 
L 238.5216 173.066753 
L 242.6688 176.73531 
L 246.816 180.074884 
L 249.5808 182.081105 
L 252.3456 183.887546 
L 255.1104 185.476157 
L 257.8752 186.831066 
L 260.64 187.938734 
L 263.4048 188.788094 
L 266.1696 189.370659 
L 268.9344 189.680609 
L 271.6992 189.714847 
L 274.464 189.473031 
L 277.2288 188.957576 
L 279.9936 188.173634 
L 282.7584 187.129036 
L 285.5232 185.834221 
L 288.288 184.302125 
L 291.0528 182.548057 
L 293.8176 180.589544 
L 297.9648 177.311754 
L 302.112 173.692036 
L 307.6416 168.475239 
L 317.3184 158.864048 
L 324.2304 152.170615 
L 328.3776 148.425154 
L 332.5248 144.986496 
L 336.672 141.931864 
L 339.4368 140.143071 
L 342.2016 138.573528 
L 344.9664 137.238919 
L 347.7312 136.152577 
L 350.496 135.325357 
L 353.2608 134.765525 
L 356.0256 134.478674 
L 358.7904 134.46767 
L 361.5552 134.732623 
L 364.32 135.270887 
L 367.0848 136.077082 
L 369.8496 137.143153 
L 372.6144 138.458449 
L 375.3792 140.009828 
L 378.144 141.781789 
L 380.9088 143.756627 
L 385.056 147.055608 
L 389.2032 150.692148 
L 394.7328 155.92394 
L 414.0864 174.736352 
L 418.2336 178.268147 
L 422.3808 181.436535 
L 425.1456 183.311377 
L 427.9104 184.974146 
L 430.6752 186.408228 
L 432.0576 187.034941 
L 432.0576 187.034941 
" style="fill:none;stroke:#000000;stroke-linecap:square;stroke-width:2.0;"/>
   </g>
   <g id="line2d_40">
    <path clip-path="url(#p89545fac0e)" d="M 156.96 143.487943 
L 161.1072 140.127869 
L 163.872 138.105739 
L 166.6368 136.281778 
L 169.4016 134.67421 
L 172.1664 133.299099 
L 174.9312 132.170183 
L 177.696 131.298743 
L 180.4608 130.693486 
L 183.2256 130.360459 
L 185.9904 130.302989 
L 188.7552 130.521651 
L 191.52 131.014261 
L 194.2848 131.775895 
L 197.0496 132.798945 
L 199.8144 134.073187 
L 202.5792 135.585891 
L 205.344 137.321942 
L 208.1088 139.263994 
L 212.256 142.520361 
L 216.4032 146.123001 
L 221.9328 151.324435 
L 230.2272 159.553128 
L 237.1392 166.331516 
L 241.2864 170.174005 
L 245.4336 173.741727 
L 249.5808 176.954559 
L 252.3456 178.863275 
L 255.1104 180.562926 
L 257.8752 182.036527 
L 260.64 183.269356 
L 263.4048 184.249094 
L 266.1696 184.965953 
L 268.9344 185.412769 
L 271.6992 185.585078 
L 274.464 185.481159 
L 277.2288 185.10205 
L 279.9936 184.451538 
L 282.7584 183.536124 
L 285.5232 182.364954 
L 288.288 180.94973 
L 291.0528 179.304593 
L 293.8176 177.445979 
L 297.9648 174.298952 
L 302.112 170.784521 
L 306.2592 166.981612 
L 311.7888 161.610631 
L 325.6128 148.023415 
L 329.76 144.277954 
L 333.9072 140.839296 
L 338.0544 137.784664 
L 340.8192 135.995871 
L 343.584 134.426328 
L 346.3488 133.091719 
L 349.1136 132.005377 
L 351.8784 131.178157 
L 354.6432 130.618325 
L 357.408 130.331474 
L 360.1728 130.32047 
L 362.9376 130.585423 
L 365.7024 131.123687 
L 368.4672 131.929882 
L 371.232 132.995953 
L 373.9968 134.311249 
L 376.7616 135.862628 
L 379.5264 137.634589 
L 382.2912 139.609427 
L 386.4384 142.908408 
L 390.5856 146.544948 
L 396.1152 151.77674 
L 415.4688 170.589152 
L 419.616 174.120947 
L 423.7632 177.289335 
L 426.528 179.164177 
L 429.2928 180.826946 
L 432.0576 182.261028 
L 432.0576 182.261028 
" style="fill:none;stroke:#000000;stroke-linecap:square;stroke-width:2.0;"/>
   </g>
   <g id="line2d_41">
    <path clip-path="url(#p89545fac0e)" d="M 156.96 140.536843 
L 161.1072 137.059806 
L 165.2544 133.958539 
L 168.0192 132.134578 
L 170.784 130.52701 
L 173.5488 129.151899 
L 176.3136 128.022983 
L 179.0784 127.151543 
L 181.8432 126.546286 
L 184.608 126.213259 
L 187.3728 126.155789 
L 190.1376 126.374451 
L 192.9024 126.867061 
L 195.6672 127.628695 
L 198.432 128.651745 
L 201.1968 129.925987 
L 203.9616 131.438691 
L 206.7264 133.174742 
L 209.4912 135.116794 
L 213.6384 138.373161 
L 217.7856 141.975801 
L 223.3152 147.177235 
L 231.6096 155.405928 
L 238.5216 162.184316 
L 242.6688 166.026805 
L 246.816 169.594527 
L 250.9632 172.807359 
L 253.728 174.716075 
L 256.4928 176.415726 
L 259.2576 177.889327 
L 262.0224 179.122156 
L 264.7872 180.101894 
L 267.552 180.818753 
L 270.3168 181.265569 
L 273.0816 181.437878 
L 275.8464 181.333959 
L 278.6112 180.95485 
L 281.376 180.304338 
L 284.1408 179.388924 
L 286.9056 178.217754 
L 289.6704 176.80253 
L 292.4352 175.157393 
L 295.2 173.298779 
L 299.3472 170.151752 
L 303.4944 166.637321 
L 307.6416 162.834412 
L 313.1712 157.463431 
L 326.9952 143.876215 
L 331.1424 140.130754 
L 335.2896 136.692096 
L 339.4368 133.637464 
L 342.2016 131.848671 
L 344.9664 130.279128 
L 347.7312 128.944519 
L 350.496 127.858177 
L 353.2608 127.030957 
L 356.0256 126.471125 
L 358.7904 126.184274 
L 361.5552 126.17327 
L 364.32 126.438223 
L 367.0848 126.976487 
L 369.8496 127.782682 
L 372.6144 128.848753 
L 375.3792 130.164049 
L 378.144 131.715428 
L 380.9088 133.487389 
L 383.6736 135.462227 
L 387.8208 138.761208 
L 391.968 142.397748 
L 397.4976 147.62954 
L 416.8512 166.441952 
L 420.9984 169.973747 
L 425.1456 173.142135 
L 427.9104 175.016977 
L 430.6752 176.679746 
L 432.0576 177.426324 
L 432.0576 177.426324 
" style="fill:none;stroke:#000000;stroke-linecap:square;stroke-width:2.0;"/>
   </g>
   <g id="line2d_42">
    <path clip-path="url(#p89545fac0e)" d="M 156.96 137.618873 
L 161.1072 134.033565 
L 165.2544 130.798852 
L 168.0192 128.873399 
L 170.784 127.155488 
L 173.5488 125.662283 
L 176.3136 124.408703 
L 179.0784 123.407273 
L 181.8432 122.668001 
L 184.608 122.198271 
L 187.3728 122.002778 
L 190.1376 122.083476 
L 192.9024 122.439557 
L 195.6672 123.067463 
L 198.432 123.960922 
L 201.1968 125.111005 
L 203.9616 126.506222 
L 206.7264 128.132632 
L 209.4912 129.973985 
L 212.256 132.011882 
L 216.4032 135.392218 
L 220.5504 139.092637 
L 226.08 144.379995 
L 242.6688 160.625153 
L 246.816 164.29371 
L 250.9632 167.633284 
L 253.728 169.639505 
L 256.4928 171.445946 
L 259.2576 173.034557 
L 262.0224 174.389466 
L 264.7872 175.497134 
L 267.552 176.346494 
L 270.3168 176.929059 
L 273.0816 177.239009 
L 275.8464 177.273247 
L 278.6112 177.031431 
L 281.376 176.515976 
L 284.1408 175.732034 
L 286.9056 174.687436 
L 289.6704 173.392621 
L 292.4352 171.860525 
L 295.2 170.106457 
L 297.9648 168.147944 
L 302.112 164.870154 
L 306.2592 161.250436 
L 311.7888 156.033639 
L 321.4656 146.422448 
L 328.3776 139.729015 
L 332.5248 135.983554 
L 336.672 132.544896 
L 340.8192 129.490264 
L 343.584 127.701471 
L 346.3488 126.131928 
L 349.1136 124.797319 
L 351.8784 123.710977 
L 354.6432 122.883757 
L 357.408 122.323925 
L 360.1728 122.037074 
L 362.9376 122.02607 
L 365.7024 122.291023 
L 368.4672 122.829287 
L 371.232 123.635482 
L 373.9968 124.701553 
L 376.7616 126.016849 
L 379.5264 127.568228 
L 382.2912 129.340189 
L 385.056 131.315027 
L 389.2032 134.614008 
L 393.3504 138.250548 
L 398.88 143.48234 
L 418.2336 162.294752 
L 422.3808 165.826547 
L 426.528 168.994935 
L 429.2928 170.869777 
L 432.0576 172.532546 
L 432.0576 172.532546 
" style="fill:none;stroke:#000000;stroke-linecap:square;stroke-width:2.0;"/>
   </g>
   <g id="line2d_43">
    <path clip-path="url(#p89545fac0e)" d="M 156.96 134.730962 
L 161.1072 131.046343 
L 165.2544 127.686269 
L 168.0192 125.664139 
L 170.784 123.840178 
L 173.5488 122.23261 
L 176.3136 120.857499 
L 179.0784 119.728583 
L 181.8432 118.857143 
L 184.608 118.251886 
L 187.3728 117.918859 
L 190.1376 117.861389 
L 192.9024 118.080051 
L 195.6672 118.572661 
L 198.432 119.334295 
L 201.1968 120.357345 
L 203.9616 121.631587 
L 206.7264 123.144291 
L 209.4912 124.880342 
L 212.256 126.822394 
L 216.4032 130.078761 
L 220.5504 133.681401 
L 226.08 138.882835 
L 234.3744 147.111528 
L 241.2864 153.889916 
L 245.4336 157.732405 
L 249.5808 161.300127 
L 253.728 164.512959 
L 256.4928 166.421675 
L 259.2576 168.121326 
L 262.0224 169.594927 
L 264.7872 170.827756 
L 267.552 171.807494 
L 270.3168 172.524353 
L 273.0816 172.971169 
L 275.8464 173.143478 
L 278.6112 173.039559 
L 281.376 172.66045 
L 284.1408 172.009938 
L 286.9056 171.094524 
L 289.6704 169.923354 
L 292.4352 168.50813 
L 295.2 166.862993 
L 297.9648 165.004379 
L 302.112 161.857352 
L 306.2592 158.342921 
L 310.4064 154.540012 
L 315.936 149.169031 
L 329.76 135.581815 
L 333.9072 131.836354 
L 338.0544 128.397696 
L 342.2016 125.343064 
L 344.9664 123.554271 
L 347.7312 121.984728 
L 350.496 120.650119 
L 353.2608 119.563777 
L 356.0256 118.736557 
L 358.7904 118.176725 
L 361.5552 117.889874 
L 364.32 117.87887 
L 367.0848 118.143823 
L 369.8496 118.682087 
L 372.6144 119.488282 
L 375.3792 120.554353 
L 378.144 121.869649 
L 380.9088 123.421028 
L 383.6736 125.192989 
L 386.4384 127.167827 
L 390.5856 130.466808 
L 394.7328 134.103348 
L 400.2624 139.33514 
L 419.616 158.147552 
L 423.7632 161.679347 
L 427.9104 164.847735 
L 430.6752 166.722577 
L 432.0576 167.581561 
L 432.0576 167.581561 
" style="fill:none;stroke:#000000;stroke-linecap:square;stroke-width:2.0;"/>
   </g>
   <g id="line2d_44">
    <path clip-path="url(#p89545fac0e)" d="M 156.96 131.869961 
L 161.1072 128.095243 
L 165.2544 124.618206 
L 169.4016 121.516939 
L 172.1664 119.692978 
L 174.9312 118.08541 
L 177.696 116.710299 
L 180.4608 115.581383 
L 183.2256 114.709943 
L 185.9904 114.104686 
L 188.7552 113.771659 
L 191.52 113.714189 
L 194.2848 113.932851 
L 197.0496 114.425461 
L 199.8144 115.187095 
L 202.5792 116.210145 
L 205.344 117.484387 
L 208.1088 118.997091 
L 210.8736 120.733142 
L 213.6384 122.675194 
L 217.7856 125.931561 
L 221.9328 129.534201 
L 227.4624 134.735635 
L 235.7568 142.964328 
L 242.6688 149.742716 
L 246.816 153.585205 
L 250.9632 157.152927 
L 255.1104 160.365759 
L 257.8752 162.274475 
L 260.64 163.974126 
L 263.4048 165.447727 
L 266.1696 166.680556 
L 268.9344 167.660294 
L 271.6992 168.377153 
L 274.464 168.823969 
L 277.2288 168.996278 
L 279.9936 168.892359 
L 282.7584 168.51325 
L 285.5232 167.862738 
L 288.288 166.947324 
L 291.0528 165.776154 
L 293.8176 164.36093 
L 296.5824 162.715793 
L 299.3472 160.857179 
L 303.4944 157.710152 
L 307.6416 154.195721 
L 311.7888 150.392812 
L 317.3184 145.021831 
L 331.1424 131.434615 
L 335.2896 127.689154 
L 339.4368 124.250496 
L 343.584 121.195864 
L 346.3488 119.407071 
L 349.1136 117.837528 
L 351.8784 116.502919 
L 354.6432 115.416577 
L 357.408 114.589357 
L 360.1728 114.029525 
L 362.9376 113.742674 
L 365.7024 113.73167 
L 368.4672 113.996623 
L 371.232 114.534887 
L 373.9968 115.341082 
L 376.7616 116.407153 
L 379.5264 117.722449 
L 382.2912 119.273828 
L 385.056 121.045789 
L 387.8208 123.020627 
L 391.968 126.319608 
L 396.1152 129.956148 
L 401.6448 135.18794 
L 420.9984 154.000352 
L 425.1456 157.532147 
L 429.2928 160.700535 
L 432.0576 162.575377 
L 432.0576 162.575377 
" style="fill:none;stroke:#000000;stroke-linecap:square;stroke-width:2.0;"/>
   </g>
   <g id="line2d_45">
    <path clip-path="url(#p89545fac0e)" d="M 156.96 129.032657 
L 161.1072 125.177273 
L 165.2544 121.591965 
L 169.4016 118.357252 
L 172.1664 116.431799 
L 174.9312 114.713888 
L 177.696 113.220683 
L 180.4608 111.967103 
L 183.2256 110.965673 
L 185.9904 110.226401 
L 188.7552 109.756671 
L 191.52 109.561178 
L 194.2848 109.641876 
L 197.0496 109.997957 
L 199.8144 110.625863 
L 202.5792 111.519322 
L 205.344 112.669405 
L 208.1088 114.064622 
L 210.8736 115.691032 
L 213.6384 117.532385 
L 216.4032 119.570282 
L 220.5504 122.950618 
L 224.6976 126.651037 
L 230.2272 131.938395 
L 246.816 148.183553 
L 250.9632 151.85211 
L 255.1104 155.191684 
L 257.8752 157.197905 
L 260.64 159.004346 
L 263.4048 160.592957 
L 266.1696 161.947866 
L 268.9344 163.055534 
L 271.6992 163.904894 
L 274.464 164.487459 
L 277.2288 164.797409 
L 279.9936 164.831647 
L 282.7584 164.589831 
L 285.5232 164.074376 
L 288.288 163.290434 
L 291.0528 162.245836 
L 293.8176 160.951021 
L 296.5824 159.418925 
L 299.3472 157.664857 
L 302.112 155.706344 
L 306.2592 152.428554 
L 310.4064 148.808836 
L 315.936 143.592039 
L 325.6128 133.980848 
L 332.5248 127.287415 
L 336.672 123.541954 
L 340.8192 120.103296 
L 344.9664 117.048664 
L 347.7312 115.259871 
L 350.496 113.690328 
L 353.2608 112.355719 
L 356.0256 111.269377 
L 358.7904 110.442157 
L 361.5552 109.882325 
L 364.32 109.595474 
L 367.0848 109.58447 
L 369.8496 109.849423 
L 372.6144 110.387687 
L 375.3792 111.193882 
L 378.144 112.259953 
L 380.9088 113.575249 
L 383.6736 115.126628 
L 386.4384 116.898589 
L 389.2032 118.873427 
L 393.3504 122.172408 
L 397.4976 125.808948 
L 403.0272 131.04074 
L 422.3808 149.853152 
L 426.528 153.384947 
L 430.6752 156.553335 
L 432.0576 157.516142 
L 432.0576 157.516142 
" style="fill:none;stroke:#000000;stroke-linecap:square;stroke-width:2.0;"/>
   </g>
   <g id="line2d_46">
    <path clip-path="url(#p89545fac0e)" d="M 156.96 126.215775 
L 162.4896 121.030073 
L 166.6368 117.444765 
L 170.784 114.210052 
L 173.5488 112.284599 
L 176.3136 110.566688 
L 179.0784 109.073483 
L 181.8432 107.819903 
L 184.608 106.818473 
L 187.3728 106.079201 
L 190.1376 105.609471 
L 192.9024 105.413978 
L 195.6672 105.494676 
L 198.432 105.850757 
L 201.1968 106.478663 
L 203.9616 107.372122 
L 206.7264 108.522205 
L 209.4912 109.917422 
L 212.256 111.543832 
L 215.0208 113.385185 
L 217.7856 115.423082 
L 221.9328 118.803418 
L 226.08 122.503837 
L 231.6096 127.791195 
L 248.1984 144.036353 
L 252.3456 147.70491 
L 256.4928 151.044484 
L 259.2576 153.050705 
L 262.0224 154.857146 
L 264.7872 156.445757 
L 267.552 157.800666 
L 270.3168 158.908334 
L 273.0816 159.757694 
L 275.8464 160.340259 
L 278.6112 160.650209 
L 281.376 160.684447 
L 284.1408 160.442631 
L 286.9056 159.927176 
L 289.6704 159.143234 
L 292.4352 158.098636 
L 295.2 156.803821 
L 297.9648 155.271725 
L 300.7296 153.517657 
L 303.4944 151.559144 
L 307.6416 148.281354 
L 311.7888 144.661636 
L 317.3184 139.444839 
L 326.9952 129.833648 
L 333.9072 123.140215 
L 338.0544 119.394754 
L 342.2016 115.956096 
L 346.3488 112.901464 
L 349.1136 111.112671 
L 351.8784 109.543128 
L 354.6432 108.208519 
L 357.408 107.122177 
L 360.1728 106.294957 
L 362.9376 105.735125 
L 365.7024 105.448274 
L 368.4672 105.43727 
L 371.232 105.702223 
L 373.9968 106.240487 
L 376.7616 107.046682 
L 379.5264 108.112753 
L 382.2912 109.428049 
L 385.056 110.979428 
L 387.8208 112.751389 
L 390.5856 114.726227 
L 394.7328 118.025208 
L 398.88 121.661748 
L 404.4096 126.89354 
L 423.7632 145.705952 
L 427.9104 149.237747 
L 432.0576 152.406135 
L 432.0576 152.406135 
" style="fill:none;stroke:#000000;stroke-linecap:square;stroke-width:2.0;"/>
   </g>
   <g id="line2d_47">
    <path clip-path="url(#p89545fac0e)" d="M 156.96 123.41599 
L 162.4896 118.142162 
L 166.6368 114.457543 
L 170.784 111.097469 
L 173.5488 109.075339 
L 176.3136 107.251378 
L 179.0784 105.64381 
L 181.8432 104.268699 
L 184.608 103.139783 
L 187.3728 102.268343 
L 190.1376 101.663086 
L 192.9024 101.330059 
L 195.6672 101.272589 
L 198.432 101.491251 
L 201.1968 101.983861 
L 203.9616 102.745495 
L 206.7264 103.768545 
L 209.4912 105.042787 
L 212.256 106.555491 
L 215.0208 108.291542 
L 217.7856 110.233594 
L 221.9328 113.489961 
L 226.08 117.092601 
L 231.6096 122.294035 
L 239.904 130.522728 
L 246.816 137.301116 
L 250.9632 141.143605 
L 255.1104 144.711327 
L 259.2576 147.924159 
L 262.0224 149.832875 
L 264.7872 151.532526 
L 267.552 153.006127 
L 270.3168 154.238956 
L 273.0816 155.218694 
L 275.8464 155.935553 
L 278.6112 156.382369 
L 281.376 156.554678 
L 284.1408 156.450759 
L 286.9056 156.07165 
L 289.6704 155.421138 
L 292.4352 154.505724 
L 295.2 153.334554 
L 297.9648 151.91933 
L 300.7296 150.274193 
L 303.4944 148.415579 
L 307.6416 145.268552 
L 311.7888 141.754121 
L 315.936 137.951212 
L 321.4656 132.580231 
L 335.2896 118.993015 
L 339.4368 115.247554 
L 343.584 111.808896 
L 347.7312 108.754264 
L 350.496 106.965471 
L 353.2608 105.395928 
L 356.0256 104.061319 
L 358.7904 102.974977 
L 361.5552 102.147757 
L 364.32 101.587925 
L 367.0848 101.301074 
L 369.8496 101.29007 
L 372.6144 101.555023 
L 375.3792 102.093287 
L 378.144 102.899482 
L 380.9088 103.965553 
L 383.6736 105.280849 
L 386.4384 106.832228 
L 389.2032 108.604189 
L 391.968 110.579027 
L 396.1152 113.878008 
L 400.2624 117.514548 
L 405.792 122.74634 
L 425.1456 141.558752 
L 429.2928 145.090547 
L 432.0576 147.247763 
L 432.0576 147.247763 
" style="fill:none;stroke:#000000;stroke-linecap:square;stroke-width:2.0;"/>
   </g>
   <g id="line2d_48">
    <path clip-path="url(#p89545fac0e)" d="M 156.96 120.629935 
L 162.4896 115.281161 
L 166.6368 111.506443 
L 170.784 108.029406 
L 174.9312 104.928139 
L 177.696 103.104178 
L 180.4608 101.49661 
L 183.2256 100.121499 
L 185.9904 98.992583 
L 188.7552 98.121143 
L 191.52 97.515886 
L 194.2848 97.182859 
L 197.0496 97.125389 
L 199.8144 97.344051 
L 202.5792 97.836661 
L 205.344 98.598295 
L 208.1088 99.621345 
L 210.8736 100.895587 
L 213.6384 102.408291 
L 216.4032 104.144342 
L 219.168 106.086394 
L 223.3152 109.342761 
L 227.4624 112.945401 
L 232.992 118.146835 
L 241.2864 126.375528 
L 248.1984 133.153916 
L 252.3456 136.996405 
L 256.4928 140.564127 
L 260.64 143.776959 
L 263.4048 145.685675 
L 266.1696 147.385326 
L 268.9344 148.858927 
L 271.6992 150.091756 
L 274.464 151.071494 
L 277.2288 151.788353 
L 279.9936 152.235169 
L 282.7584 152.407478 
L 285.5232 152.303559 
L 288.288 151.92445 
L 291.0528 151.273938 
L 293.8176 150.358524 
L 296.5824 149.187354 
L 299.3472 147.77213 
L 302.112 146.126993 
L 304.8768 144.268379 
L 309.024 141.121352 
L 313.1712 137.606921 
L 317.3184 133.804012 
L 322.848 128.433031 
L 336.672 114.845815 
L 340.8192 111.100354 
L 344.9664 107.661696 
L 349.1136 104.607064 
L 351.8784 102.818271 
L 354.6432 101.248728 
L 357.408 99.914119 
L 360.1728 98.827777 
L 362.9376 98.000557 
L 365.7024 97.440725 
L 368.4672 97.153874 
L 371.232 97.14287 
L 373.9968 97.407823 
L 376.7616 97.946087 
L 379.5264 98.752282 
L 382.2912 99.818353 
L 385.056 101.133649 
L 387.8208 102.685028 
L 390.5856 104.456989 
L 393.3504 106.431827 
L 397.4976 109.730808 
L 401.6448 113.367348 
L 407.1744 118.59914 
L 426.528 137.411552 
L 430.6752 140.943347 
L 432.0576 142.043553 
L 432.0576 142.043553 
" style="fill:none;stroke:#000000;stroke-linecap:square;stroke-width:2.0;"/>
   </g>
   <g id="line2d_49">
    <path clip-path="url(#p89545fac0e)" d="M 156.96 117.854206 
L 163.872 111.133961 
L 168.0192 107.359243 
L 172.1664 103.882206 
L 176.3136 100.780939 
L 179.0784 98.956978 
L 181.8432 97.34941 
L 184.608 95.974299 
L 187.3728 94.845383 
L 190.1376 93.973943 
L 192.9024 93.368686 
L 195.6672 93.035659 
L 198.432 92.978189 
L 201.1968 93.196851 
L 203.9616 93.689461 
L 206.7264 94.451095 
L 209.4912 95.474145 
L 212.256 96.748387 
L 215.0208 98.261091 
L 217.7856 99.997142 
L 220.5504 101.939194 
L 224.6976 105.195561 
L 228.8448 108.798201 
L 234.3744 113.999635 
L 242.6688 122.228328 
L 249.5808 129.006716 
L 253.728 132.849205 
L 257.8752 136.416927 
L 262.0224 139.629759 
L 264.7872 141.538475 
L 267.552 143.238126 
L 270.3168 144.711727 
L 273.0816 145.944556 
L 275.8464 146.924294 
L 278.6112 147.641153 
L 281.376 148.087969 
L 284.1408 148.260278 
L 286.9056 148.156359 
L 289.6704 147.77725 
L 292.4352 147.126738 
L 295.2 146.211324 
L 297.9648 145.040154 
L 300.7296 143.62493 
L 303.4944 141.979793 
L 306.2592 140.121179 
L 310.4064 136.974152 
L 314.5536 133.459721 
L 318.7008 129.656812 
L 324.2304 124.285831 
L 338.0544 110.698615 
L 342.2016 106.953154 
L 346.3488 103.514496 
L 350.496 100.459864 
L 353.2608 98.671071 
L 356.0256 97.101528 
L 358.7904 95.766919 
L 361.5552 94.680577 
L 364.32 93.853357 
L 367.0848 93.293525 
L 369.8496 93.006674 
L 372.6144 92.99567 
L 375.3792 93.260623 
L 378.144 93.798887 
L 380.9088 94.605082 
L 383.6736 95.671153 
L 386.4384 96.986449 
L 389.2032 98.537828 
L 391.968 100.309789 
L 394.7328 102.284627 
L 398.88 105.583608 
L 403.0272 109.220148 
L 408.5568 114.45194 
L 427.9104 133.264352 
L 432.0576 136.796147 
L 432.0576 136.796147 
" style="fill:none;stroke:#000000;stroke-linecap:square;stroke-width:2.0;"/>
   </g>
   <g id="line2d_50">
    <path clip-path="url(#p89545fac0e)" d="M 156.96 115.085376 
L 163.872 108.296657 
L 168.0192 104.441273 
L 172.1664 100.855965 
L 176.3136 97.621252 
L 179.0784 95.695799 
L 181.8432 93.977888 
L 184.608 92.484683 
L 187.3728 91.231103 
L 190.1376 90.229673 
L 192.9024 89.490401 
L 195.6672 89.020671 
L 198.432 88.825178 
L 201.1968 88.905876 
L 203.9616 89.261957 
L 206.7264 89.889863 
L 209.4912 90.783322 
L 212.256 91.933405 
L 215.0208 93.328622 
L 217.7856 94.955032 
L 220.5504 96.796385 
L 223.3152 98.834282 
L 227.4624 102.214618 
L 231.6096 105.915037 
L 237.1392 111.202395 
L 253.728 127.447553 
L 257.8752 131.11611 
L 262.0224 134.455684 
L 264.7872 136.461905 
L 267.552 138.268346 
L 270.3168 139.856957 
L 273.0816 141.211866 
L 275.8464 142.319534 
L 278.6112 143.168894 
L 281.376 143.751459 
L 284.1408 144.061409 
L 286.9056 144.095647 
L 289.6704 143.853831 
L 292.4352 143.338376 
L 295.2 142.554434 
L 297.9648 141.509836 
L 300.7296 140.215021 
L 303.4944 138.682925 
L 306.2592 136.928857 
L 309.024 134.970344 
L 313.1712 131.692554 
L 317.3184 128.072836 
L 322.848 122.856039 
L 332.5248 113.244848 
L 339.4368 106.551415 
L 343.584 102.805954 
L 347.7312 99.367296 
L 351.8784 96.312664 
L 354.6432 94.523871 
L 357.408 92.954328 
L 360.1728 91.619719 
L 362.9376 90.533377 
L 365.7024 89.706157 
L 368.4672 89.146325 
L 371.232 88.859474 
L 373.9968 88.84847 
L 376.7616 89.113423 
L 379.5264 89.651687 
L 382.2912 90.457882 
L 385.056 91.523953 
L 387.8208 92.839249 
L 390.5856 94.390628 
L 393.3504 96.162589 
L 396.1152 98.137427 
L 400.2624 101.436408 
L 404.4096 105.072948 
L 409.9392 110.30474 
L 429.2928 129.117152 
L 432.0576 131.508296 
L 432.0576 131.508296 
" style="fill:none;stroke:#000000;stroke-linecap:square;stroke-width:2.0;"/>
   </g>
  </g>
 </g>
 <defs>
  <clipPath id="p89545fac0e">
   <rect height="345.6" width="276.48" x="156.96" y="43.2"/>
  </clipPath>
 </defs>
</svg>
