<?xml version="1.0" encoding="utf-8" standalone="no"?>
<!DOCTYPE svg PUBLIC "-//W3C//DTD SVG 1.1//EN"
  "http://www.w3.org/Graphics/SVG/1.1/DTD/svg11.dtd">
<!-- Created with matplotlib (http://matplotlib.org/) -->
<svg height="432pt" version="1.1" viewBox="0 0 576 432" width="576pt" xmlns="http://www.w3.org/2000/svg" xmlns:xlink="http://www.w3.org/1999/xlink">
 <defs>
  <style type="text/css">
*{stroke-linecap:butt;stroke-linejoin:round;stroke-miterlimit:100000;}
  </style>
 </defs>
 <g id="figure_1">
  <g id="axes_1">
   <g id="line2d_1">
    <path clip-path="url(#p242df203d2)" d="M 226.08 388.8 
L 363.6288 388.8 
L 363.6288 388.8 
" style="fill:none;stroke:#000000;stroke-linecap:square;stroke-width:2.0;"/>
   </g>
   <g id="line2d_2">
    <path clip-path="url(#p242df203d2)" d="M 226.08 385.662439 
L 275.1552 384.629517 
L 288.9792 384.716939 
L 304.8768 385.054694 
L 339.4368 385.872695 
L 353.2608 385.91967 
L 363.6288 385.805849 
L 363.6288 385.805849 
" style="fill:none;stroke:#000000;stroke-linecap:square;stroke-width:2.0;"/>
   </g>
   <g id="line2d_3">
    <path clip-path="url(#p242df203d2)" d="M 226.08 382.424827 
L 240.5952 381.667087 
L 259.9488 380.68693 
L 270.3168 380.39091 
L 279.9936 380.336395 
L 289.6704 380.506407 
L 300.7296 380.936104 
L 318.7008 381.909669 
L 333.216 382.602997 
L 343.584 382.879654 
L 353.2608 382.913433 
L 362.9376 382.723794 
L 363.6288 382.702345 
L 363.6288 382.702345 
" style="fill:none;stroke:#000000;stroke-linecap:square;stroke-width:2.0;"/>
   </g>
   <g id="line2d_4">
    <path clip-path="url(#p242df203d2)" d="M 226.08 379.085814 
L 237.1392 378.254159 
L 259.2576 376.524902 
L 268.2432 376.083904 
L 276.5376 375.911266 
L 284.1408 375.971299 
L 292.4352 376.267093 
L 301.4208 376.814577 
L 314.5536 377.865503 
L 330.4512 379.098367 
L 339.4368 379.570248 
L 347.7312 379.777406 
L 355.3344 379.75022 
L 363.6288 379.487289 
L 363.6288 379.487289 
" style="fill:none;stroke:#000000;stroke-linecap:square;stroke-width:2.0;"/>
   </g>
   <g id="line2d_5">
    <path clip-path="url(#p242df203d2)" d="M 226.08 375.644802 
L 235.0656 374.780151 
L 261.3312 372.077119 
L 268.9344 371.601797 
L 275.8464 371.38824 
L 282.7584 371.403038 
L 289.6704 371.64487 
L 297.2736 372.146761 
L 306.2592 372.984433 
L 335.9808 375.97778 
L 343.584 376.381922 
L 350.496 376.521698 
L 357.408 376.431272 
L 363.6288 376.159324 
L 363.6288 376.159324 
" style="fill:none;stroke:#000000;stroke-linecap:square;stroke-width:2.0;"/>
   </g>
   <g id="line2d_6">
    <path clip-path="url(#p242df203d2)" d="M 226.08 372.10195 
L 234.3744 371.136137 
L 263.4048 367.469231 
L 270.3168 366.968074 
L 276.5376 366.741534 
L 282.7584 366.74516 
L 288.9792 366.978687 
L 295.2 367.425196 
L 302.8032 368.211874 
L 312.48 369.465923 
L 329.76 371.749274 
L 337.3632 372.502369 
L 343.584 372.91386 
L 349.8048 373.10828 
L 356.0256 373.071542 
L 362.2464 372.806309 
L 363.6288 372.71796 
L 363.6288 372.71796 
" style="fill:none;stroke:#000000;stroke-linecap:square;stroke-width:2.0;"/>
   </g>
   <g id="line2d_7">
    <path clip-path="url(#p242df203d2)" d="M 226.08 368.458188 
L 232.992 367.53645 
L 242.6688 366.002836 
L 256.4928 363.81166 
L 263.4048 362.93188 
L 269.6256 362.355344 
L 275.1552 362.049912 
L 280.6848 361.957959 
L 286.2144 362.084755 
L 291.744 362.423032 
L 297.9648 363.031795 
L 304.8768 363.938808 
L 314.5536 365.4629 
L 329.0688 367.763734 
L 335.9808 368.637379 
L 342.2016 369.206745 
L 347.7312 369.504925 
L 353.2608 369.589231 
L 358.7904 369.454832 
L 363.6288 369.163579 
L 363.6288 369.163579 
" style="fill:none;stroke:#000000;stroke-linecap:square;stroke-width:2.0;"/>
   </g>
   <g id="line2d_8">
    <path clip-path="url(#p242df203d2)" d="M 226.08 364.715215 
L 232.3008 363.787507 
L 240.5952 362.308187 
L 257.8752 359.135669 
L 264.7872 358.14375 
L 270.3168 357.563821 
L 275.8464 357.210553 
L 281.376 357.104198 
L 286.9056 357.250853 
L 292.4352 357.64211 
L 297.9648 358.25554 
L 304.1856 359.167 
L 312.48 360.633953 
L 331.1424 364.04101 
L 337.3632 364.915791 
L 342.8928 365.488271 
L 348.4224 365.833151 
L 353.952 365.930661 
L 359.4816 365.775212 
L 363.6288 365.497446 
L 363.6288 365.497446 
" style="fill:none;stroke:#000000;stroke-linecap:square;stroke-width:2.0;"/>
   </g>
   <g id="line2d_9">
    <path clip-path="url(#p242df203d2)" d="M 226.08 360.875502 
L 232.3008 359.851508 
L 239.904 358.343425 
L 259.9488 354.213469 
L 266.1696 353.243564 
L 271.6992 352.61768 
L 276.5376 352.282578 
L 281.376 352.161611 
L 286.2144 352.260095 
L 291.0528 352.573703 
L 296.5824 353.17744 
L 302.112 354.009251 
L 309.024 355.296075 
L 320.0832 357.646877 
L 329.76 359.631064 
L 335.9808 360.698627 
L 341.5104 361.434097 
L 346.3488 361.877575 
L 351.1872 362.113602 
L 356.0256 362.131807 
L 360.864 361.931391 
L 363.6288 361.721712 
L 363.6288 361.721712 
" style="fill:none;stroke:#000000;stroke-linecap:square;stroke-width:2.0;"/>
   </g>
   <g id="line2d_10">
    <path clip-path="url(#p242df203d2)" d="M 226.08 356.942286 
L 231.6096 355.969059 
L 238.5216 354.496299 
L 252.3456 351.214279 
L 259.9488 349.559249 
L 265.4784 348.559264 
L 271.008 347.796419 
L 275.8464 347.35822 
L 280.6848 347.154557 
L 285.5232 347.19438 
L 290.3616 347.475937 
L 295.2 347.986859 
L 300.7296 348.8224 
L 306.9504 350.024906 
L 314.5536 351.747489 
L 331.1424 355.59231 
L 337.3632 356.751897 
L 342.8928 357.538091 
L 347.7312 357.999482 
L 352.5696 358.227852 
L 357.408 358.213167 
L 362.2464 357.956072 
L 363.6288 357.839412 
L 363.6288 357.839412 
" style="fill:none;stroke:#000000;stroke-linecap:square;stroke-width:2.0;"/>
   </g>
   <g id="line2d_11">
    <path clip-path="url(#p242df203d2)" d="M 226.08 352.91956 
L 231.6096 351.882273 
L 237.8304 350.462771 
L 246.816 348.145843 
L 257.8752 345.331687 
L 264.096 343.991829 
L 268.9344 343.15356 
L 273.7728 342.534643 
L 278.6112 342.162272 
L 282.7584 342.05204 
L 286.9056 342.138715 
L 291.0528 342.419495 
L 295.8912 342.97996 
L 300.7296 343.767405 
L 306.2592 344.900491 
L 313.1712 346.569775 
L 333.9072 351.777456 
L 339.4368 352.836657 
L 344.2752 353.544591 
L 349.1136 354.015314 
L 353.2608 354.214009 
L 357.408 354.216627 
L 361.5552 354.023081 
L 363.6288 353.854458 
L 363.6288 353.854458 
" style="fill:none;stroke:#000000;stroke-linecap:square;stroke-width:2.0;"/>
   </g>
   <g id="line2d_12">
    <path clip-path="url(#p242df203d2)" d="M 226.08 348.812062 
L 230.9184 347.872056 
L 236.448 346.566119 
L 243.36 344.69748 
L 259.9488 340.116479 
L 265.4784 338.866465 
L 270.3168 337.989168 
L 275.1552 337.354636 
L 279.3024 337.025422 
L 283.4496 336.90588 
L 287.5968 336.999874 
L 291.744 337.304367 
L 295.8912 337.809519 
L 300.7296 338.63036 
L 306.2592 339.82868 
L 312.48 341.425407 
L 324.2304 344.752102 
L 331.8336 346.788956 
L 337.3632 348.059624 
L 342.2016 348.959864 
L 347.04 349.620837 
L 351.1872 349.97462 
L 355.3344 350.119653 
L 359.4816 350.05125 
L 363.6288 349.771621 
L 363.6288 349.771621 
" style="fill:none;stroke:#000000;stroke-linecap:square;stroke-width:2.0;"/>
   </g>
   <g id="line2d_13">
    <path clip-path="url(#p242df203d2)" d="M 226.08 344.625256 
L 230.9184 343.648991 
L 236.448 342.27592 
L 243.36 340.290659 
L 260.64 335.162118 
L 266.1696 333.819694 
L 271.008 332.877541 
L 275.1552 332.276218 
L 279.3024 331.886055 
L 283.4496 331.71966 
L 287.5968 331.782409 
L 291.744 332.072274 
L 295.8912 332.57989 
L 300.7296 333.425071 
L 305.568 334.506905 
L 311.0976 335.971692 
L 318.7008 338.232687 
L 331.1424 341.951876 
L 336.672 343.374748 
L 341.5104 344.407606 
L 346.3488 345.194565 
L 350.496 345.646849 
L 354.6432 345.878254 
L 358.7904 345.881302 
L 362.9376 345.655894 
L 363.6288 345.59652 
L 363.6288 345.59652 
" style="fill:none;stroke:#000000;stroke-linecap:square;stroke-width:2.0;"/>
   </g>
   <g id="line2d_14">
    <path clip-path="url(#p242df203d2)" d="M 226.08 340.365309 
L 230.9184 339.362018 
L 235.7568 338.12518 
L 241.9776 336.280195 
L 264.096 329.412765 
L 268.9344 328.269912 
L 273.0816 327.490731 
L 277.2288 326.923389 
L 281.376 326.586219 
L 285.5232 326.490116 
L 289.6704 326.638185 
L 293.8176 327.025641 
L 297.9648 327.639965 
L 302.112 328.461307 
L 306.9504 329.645445 
L 312.48 331.232097 
L 320.7744 333.883486 
L 331.1424 337.186411 
L 336.672 338.730607 
L 341.5104 339.864196 
L 345.6576 340.633993 
L 349.8048 341.190936 
L 353.952 341.517029 
L 358.0992 341.601735 
L 362.2464 341.442318 
L 363.6288 341.335594 
L 363.6288 341.335594 
" style="fill:none;stroke:#000000;stroke-linecap:square;stroke-width:2.0;"/>
   </g>
   <g id="line2d_15">
    <path clip-path="url(#p242df203d2)" d="M 226.08 336.039066 
L 230.2272 335.180563 
L 235.0656 333.938336 
L 240.5952 332.26905 
L 248.1984 329.71088 
L 259.9488 325.757045 
L 265.4784 324.146753 
L 270.3168 322.974097 
L 274.464 322.186166 
L 278.6112 321.6259 
L 282.7584 321.311401 
L 286.9056 321.252833 
L 291.0528 321.452088 
L 295.2 321.902727 
L 299.3472 322.590189 
L 303.4944 323.49226 
L 308.3328 324.776689 
L 313.8624 326.480597 
L 322.1568 329.299009 
L 331.8336 332.550525 
L 337.3632 334.182726 
L 342.2016 335.380919 
L 346.3488 336.194587 
L 350.496 336.783271 
L 354.6432 337.127949 
L 358.7904 337.217483 
L 362.9376 337.04898 
L 363.6288 336.99607 
L 363.6288 336.99607 
" style="fill:none;stroke:#000000;stroke-linecap:square;stroke-width:2.0;"/>
   </g>
   <g id="line2d_16">
    <path clip-path="url(#p242df203d2)" d="M 226.08 331.654017 
L 230.2272 330.789273 
L 235.0656 329.520923 
L 240.5952 327.798417 
L 247.5072 325.3823 
L 260.64 320.729725 
L 266.1696 319.038965 
L 271.008 317.807709 
L 275.1552 316.980404 
L 279.3024 316.39214 
L 283.4496 316.061926 
L 286.9056 315.991826 
L 290.3616 316.110065 
L 294.5088 316.496527 
L 298.656 317.137664 
L 302.8032 318.012761 
L 307.6416 319.291303 
L 313.1712 321.02243 
L 320.0832 323.444083 
L 333.216 328.08998 
L 338.7456 329.771569 
L 343.584 330.992229 
L 347.7312 331.808907 
L 351.8784 332.385479 
L 356.0256 332.703313 
L 359.4816 332.762859 
L 362.9376 332.634103 
L 363.6288 332.585935 
L 363.6288 332.585935 
" style="fill:none;stroke:#000000;stroke-linecap:square;stroke-width:2.0;"/>
   </g>
   <g id="line2d_17">
    <path clip-path="url(#p242df203d2)" d="M 226.08 327.218264 
L 230.2272 326.35485 
L 234.3744 325.269861 
L 239.2128 323.771113 
L 245.4336 321.57846 
L 264.096 314.773678 
L 268.9344 313.341111 
L 273.0816 312.326417 
L 277.2288 311.543443 
L 281.376 311.017489 
L 284.832 310.788053 
L 288.288 310.754216 
L 291.744 310.916736 
L 295.2 311.271964 
L 299.3472 311.941085 
L 303.4944 312.854377 
L 307.6416 313.98233 
L 312.48 315.520625 
L 318.7008 317.744801 
L 335.2896 323.835193 
L 340.128 325.324988 
L 344.2752 326.400357 
L 348.4224 327.25268 
L 352.5696 327.854417 
L 356.0256 328.150157 
L 359.4816 328.25158 
L 362.9376 328.156407 
L 363.6288 328.113892 
L 363.6288 328.113892 
" style="fill:none;stroke:#000000;stroke-linecap:square;stroke-width:2.0;"/>
   </g>
   <g id="line2d_18">
    <path clip-path="url(#p242df203d2)" d="M 226.08 322.740482 
L 230.2272 321.885725 
L 234.3744 320.79563 
L 239.2128 319.273776 
L 244.7424 317.287532 
L 254.4192 313.514918 
L 262.0224 310.650669 
L 267.552 308.81928 
L 271.6992 307.658222 
L 275.8464 306.721554 
L 279.9936 306.039542 
L 283.4496 305.681892 
L 286.9056 305.524581 
L 290.3616 305.571142 
L 293.8176 305.82053 
L 297.2736 306.267143 
L 301.4208 307.048995 
L 305.568 308.074923 
L 310.4064 309.535707 
L 315.936 311.473566 
L 324.2304 314.678953 
L 333.9072 318.376911 
L 339.4368 320.233218 
L 343.584 321.418804 
L 347.7312 322.38414 
L 351.8784 323.098034 
L 355.3344 323.483965 
L 358.7904 323.67044 
L 362.2464 323.65327 
L 363.6288 323.589314 
L 363.6288 323.589314 
" style="fill:none;stroke:#000000;stroke-linecap:square;stroke-width:2.0;"/>
   </g>
   <g id="line2d_19">
    <path clip-path="url(#p242df203d2)" d="M 226.08 318.229871 
L 230.2272 317.390794 
L 234.3744 316.303393 
L 239.2128 314.768177 
L 244.7424 312.745683 
L 253.0368 309.42436 
L 262.0224 305.880454 
L 267.552 303.953955 
L 271.6992 302.720075 
L 275.8464 301.71192 
L 279.9936 300.962067 
L 283.4496 300.552254 
L 286.9056 300.348009 
L 290.3616 300.353919 
L 293.8176 300.569851 
L 297.2736 300.990955 
L 300.7296 301.607775 
L 304.8768 302.586508 
L 309.024 303.795283 
L 313.8624 305.443802 
L 320.0832 307.827349 
L 336.672 314.354139 
L 341.5104 315.950683 
L 345.6576 317.103106 
L 349.8048 318.016501 
L 353.2608 318.573525 
L 356.7168 318.931398 
L 360.1728 319.082082 
L 363.6288 319.022195 
L 363.6288 319.022195 
" style="fill:none;stroke:#000000;stroke-linecap:square;stroke-width:2.0;"/>
   </g>
   <g id="line2d_20">
    <path clip-path="url(#p242df203d2)" d="M 226.08 313.696112 
L 229.536 313.034402 
L 233.6832 311.998449 
L 237.8304 310.730546 
L 242.6688 309.013181 
L 248.8896 306.545978 
L 264.096 300.368632 
L 268.9344 298.683978 
L 273.0816 297.452075 
L 277.2288 296.458254 
L 280.6848 295.835362 
L 284.1408 295.414249 
L 287.5968 295.204373 
L 291.0528 295.210445 
L 294.5088 295.432331 
L 297.9648 295.865047 
L 301.4208 296.498876 
L 305.568 297.504596 
L 309.7152 298.746701 
L 314.5536 300.440676 
L 320.7744 302.889945 
L 337.3632 309.596703 
L 342.2016 311.23727 
L 346.3488 312.421469 
L 350.496 313.36005 
L 353.952 313.932433 
L 357.408 314.300174 
L 360.864 314.455014 
L 363.6288 314.423097 
L 363.6288 314.423097 
" style="fill:none;stroke:#000000;stroke-linecap:square;stroke-width:2.0;"/>
   </g>
   <g id="line2d_21">
    <path clip-path="url(#p242df203d2)" d="M 226.08 309.149314 
L 229.536 308.512166 
L 233.6832 307.495599 
L 237.8304 306.235501 
L 242.6688 304.512291 
L 248.8896 302.014422 
L 265.4784 295.145194 
L 270.3168 293.456994 
L 274.464 292.234855 
L 278.6112 291.2623 
L 282.0672 290.66543 
L 285.5232 290.277272 
L 288.9792 290.106543 
L 292.4352 290.157075 
L 295.8912 290.427736 
L 299.3472 290.912446 
L 302.8032 291.600319 
L 306.9504 292.671891 
L 311.0976 293.978924 
L 315.936 295.74469 
L 322.1568 298.275184 
L 337.3632 304.585662 
L 342.2016 306.299216 
L 346.3488 307.548789 
L 350.496 308.553112 
L 353.952 309.179028 
L 357.408 309.597881 
L 360.864 309.800262 
L 363.6288 309.803087 
L 363.6288 309.803087 
" style="fill:none;stroke:#000000;stroke-linecap:square;stroke-width:2.0;"/>
   </g>
   <g id="line2d_22">
    <path clip-path="url(#p242df203d2)" d="M 226.08 304.59996 
L 229.536 303.992091 
L 232.992 303.185317 
L 237.1392 301.980433 
L 241.2864 300.554363 
L 246.816 298.38936 
L 255.1104 294.83401 
L 264.096 291.040392 
L 268.9344 289.218882 
L 273.0816 287.861745 
L 277.2288 286.739634 
L 280.6848 286.010489 
L 284.1408 285.486267 
L 287.5968 285.17874 
L 291.0528 285.094814 
L 294.5088 285.236374 
L 297.9648 285.600241 
L 301.4208 286.178244 
L 304.8768 286.957401 
L 309.024 288.132981 
L 313.1712 289.534822 
L 318.0096 291.395501 
L 324.9216 294.316766 
L 336.672 299.307019 
L 341.5104 301.119594 
L 345.6576 302.466676 
L 349.8048 303.576859 
L 353.2608 304.29491 
L 356.7168 304.807254 
L 360.1728 305.102385 
L 363.6288 305.173675 
L 363.6288 305.173675 
" style="fill:none;stroke:#000000;stroke-linecap:square;stroke-width:2.0;"/>
   </g>
   <g id="line2d_23">
    <path clip-path="url(#p242df203d2)" d="M 226.08 300.058846 
L 229.536 299.484533 
L 232.992 298.705358 
L 237.1392 297.524867 
L 241.2864 296.11294 
L 246.1248 294.234394 
L 253.0368 291.277776 
L 264.7872 286.209644 
L 269.6256 284.362362 
L 273.7728 282.986024 
L 277.92 281.848036 
L 281.376 281.108575 
L 284.832 280.576936 
L 288.288 280.265058 
L 291.744 280.179944 
L 295.2 280.323507 
L 298.656 280.692523 
L 302.112 281.278703 
L 305.568 282.068885 
L 309.7152 283.261097 
L 313.8624 284.682772 
L 318.7008 286.569777 
L 325.6128 289.532374 
L 336.672 294.31345 
L 341.5104 296.183404 
L 345.6576 297.585484 
L 349.8048 298.754169 
L 353.2608 299.522284 
L 356.7168 300.084688 
L 360.1728 300.428751 
L 363.6288 300.546746 
L 363.6288 300.546746 
" style="fill:none;stroke:#000000;stroke-linecap:square;stroke-width:2.0;"/>
   </g>
   <g id="line2d_24">
    <path clip-path="url(#p242df203d2)" d="M 226.08 295.537021 
L 229.536 295.000063 
L 232.992 294.253204 
L 237.1392 293.103831 
L 241.2864 291.713723 
L 246.1248 289.84796 
L 252.3456 287.190793 
L 266.1696 281.179474 
L 271.008 279.346966 
L 275.1552 277.994054 
L 279.3024 276.888644 
L 282.7584 276.18257 
L 286.2144 275.689195 
L 289.6704 275.4196 
L 293.1264 275.37984 
L 296.5824 275.570807 
L 300.0384 275.988212 
L 303.4944 276.622682 
L 306.9504 277.459968 
L 311.0976 278.705656 
L 315.2448 280.175851 
L 320.7744 282.402381 
L 329.0688 286.048606 
L 337.3632 289.644194 
L 342.2016 291.532856 
L 346.3488 292.948964 
L 350.496 294.129341 
L 353.952 294.905141 
L 357.408 295.473171 
L 360.864 295.820677 
L 363.6288 295.934486 
L 363.6288 295.934486 
" style="fill:none;stroke:#000000;stroke-linecap:square;stroke-width:2.0;"/>
   </g>
   <g id="line2d_25">
    <path clip-path="url(#p242df203d2)" d="M 226.08 291.045721 
L 229.536 290.549406 
L 232.992 289.839124 
L 237.1392 288.727127 
L 241.2864 287.366153 
L 246.1248 285.522725 
L 252.3456 282.874417 
L 267.552 276.243622 
L 272.3904 274.435307 
L 276.5376 273.112976 
L 280.6848 272.046204 
L 284.1408 271.377589 
L 287.5968 270.925564 
L 291.0528 270.700281 
L 294.5088 270.706799 
L 297.9648 270.944973 
L 301.4208 271.409452 
L 304.8768 272.089807 
L 308.3328 272.970757 
L 312.48 274.264535 
L 317.3184 276.04657 
L 322.848 278.345827 
L 342.2016 286.678809 
L 346.3488 288.13859 
L 350.496 289.368412 
L 353.952 290.188676 
L 357.408 290.803075 
L 360.864 291.19781 
L 363.6288 291.349311 
L 363.6288 291.349311 
" style="fill:none;stroke:#000000;stroke-linecap:square;stroke-width:2.0;"/>
   </g>
   <g id="line2d_26">
    <path clip-path="url(#p242df203d2)" d="M 226.08 286.5963 
L 229.536 286.143381 
L 232.992 285.473444 
L 236.448 284.601533 
L 240.5952 283.3165 
L 245.4336 281.541422 
L 250.9632 279.245472 
L 271.008 270.625787 
L 275.1552 269.188399 
L 279.3024 267.986622 
L 282.7584 267.193396 
L 286.2144 266.608727 
L 289.6704 266.245746 
L 293.1264 266.112604 
L 296.5824 266.212292 
L 300.0384 266.54257 
L 303.4944 267.096021 
L 306.9504 267.860216 
L 311.0976 269.030957 
L 315.2448 270.442396 
L 320.0832 272.33208 
L 326.304 275.016868 
L 340.128 281.068052 
L 344.9664 282.905432 
L 349.1136 284.258367 
L 353.2608 285.359964 
L 356.7168 286.060013 
L 360.1728 286.544916 
L 363.6288 286.803782 
L 363.6288 286.803782 
" style="fill:none;stroke:#000000;stroke-linecap:square;stroke-width:2.0;"/>
   </g>
   <g id="line2d_27">
    <path clip-path="url(#p242df203d2)" d="M 226.08 282.200163 
L 229.536 281.792835 
L 232.992 281.166488 
L 236.448 280.335188 
L 240.5952 279.093678 
L 244.7424 277.624258 
L 249.5808 275.685565 
L 256.4928 272.660873 
L 266.8608 268.106378 
L 271.6992 266.197732 
L 275.8464 264.76318 
L 279.9936 263.563775 
L 283.4496 262.772114 
L 286.9056 262.188599 
L 290.3616 261.826334 
L 293.8176 261.693455 
L 297.2736 261.792946 
L 300.7296 262.122572 
L 304.1856 262.674931 
L 307.6416 263.437619 
L 311.7888 264.606049 
L 315.936 266.014703 
L 320.7744 267.900658 
L 326.9952 270.580148 
L 340.8192 276.619392 
L 345.6576 278.453146 
L 349.8048 279.803412 
L 353.952 280.902834 
L 357.408 281.601502 
L 360.864 282.085448 
L 363.6288 282.310533 
L 363.6288 282.310533 
" style="fill:none;stroke:#000000;stroke-linecap:square;stroke-width:2.0;"/>
   </g>
   <g id="line2d_28">
    <path clip-path="url(#p242df203d2)" d="M 226.08 277.868692 
L 229.536 277.508573 
L 232.992 276.928514 
L 236.448 276.141543 
L 240.5952 274.949242 
L 244.7424 273.523189 
L 249.5808 271.625849 
L 256.4928 268.639651 
L 268.2432 263.520814 
L 273.0816 261.65505 
L 277.2288 260.264942 
L 281.376 259.11557 
L 284.832 258.368711 
L 288.288 257.831753 
L 291.744 257.516754 
L 295.2 257.430789 
L 298.656 257.575789 
L 302.112 257.948496 
L 305.568 258.540541 
L 309.024 259.338628 
L 313.1712 260.542768 
L 317.3184 261.978666 
L 322.1568 263.88455 
L 329.0688 266.876787 
L 340.128 271.705696 
L 344.9664 273.594358 
L 349.1136 275.010466 
L 353.2608 276.190843 
L 356.7168 276.966642 
L 360.1728 277.534673 
L 363.6288 277.882178 
L 363.6288 277.882178 
" style="fill:none;stroke:#000000;stroke-linecap:square;stroke-width:2.0;"/>
   </g>
   <g id="line2d_29">
    <path clip-path="url(#p242df203d2)" d="M 226.08 273.613171 
L 229.536 273.301293 
L 232.992 272.769654 
L 236.448 272.030193 
L 240.5952 270.892205 
L 244.7424 269.515867 
L 249.5808 267.668585 
L 255.8016 265.037739 
L 269.6256 259.085965 
L 274.464 257.271609 
L 278.6112 255.932099 
L 282.7584 254.837638 
L 286.2144 254.138558 
L 289.6704 253.65007 
L 293.1264 253.383146 
L 296.5824 253.34378 
L 300.0384 253.532855 
L 303.4944 253.946126 
L 306.9504 254.574311 
L 310.4064 255.403303 
L 314.5536 256.636652 
L 318.7008 258.092284 
L 324.2304 260.296758 
L 332.5248 263.906866 
L 340.8192 267.466838 
L 345.6576 269.336791 
L 349.8048 270.738872 
L 353.952 271.907557 
L 357.408 272.675671 
L 360.864 273.238076 
L 363.6288 273.531236 
L 363.6288 273.531236 
" style="fill:none;stroke:#000000;stroke-linecap:square;stroke-width:2.0;"/>
   </g>
   <g id="line2d_30">
    <path clip-path="url(#p242df203d2)" d="M 226.08 269.444716 
L 229.536 269.181515 
L 232.992 268.699843 
L 236.448 268.010515 
L 240.5952 266.931324 
L 244.7424 265.610501 
L 249.5808 263.821458 
L 255.8016 261.25128 
L 271.008 254.816105 
L 275.8464 253.061138 
L 279.9936 251.777819 
L 284.1408 250.742518 
L 287.5968 250.093628 
L 291.0528 249.654939 
L 294.5088 249.436302 
L 297.9648 249.442628 
L 301.4208 249.673775 
L 304.8768 250.124552 
L 308.3328 250.784835 
L 312.48 251.832531 
L 316.6272 253.126479 
L 321.4656 254.891156 
L 327.6864 257.442653 
L 344.2752 264.429335 
L 349.1136 266.138375 
L 353.2608 267.372 
L 357.408 268.349755 
L 360.864 268.946028 
L 363.6288 269.270038 
L 363.6288 269.270038 
" style="fill:none;stroke:#000000;stroke-linecap:square;stroke-width:2.0;"/>
   </g>
   <g id="line2d_31">
    <path clip-path="url(#p242df203d2)" d="M 226.08 265.374191 
L 229.536 265.159511 
L 232.992 264.72876 
L 236.448 264.091612 
L 240.5952 263.075045 
L 244.7424 261.814947 
L 249.5808 260.091737 
L 255.8016 257.593868 
L 272.3904 250.72464 
L 277.2288 249.03644 
L 281.376 247.814301 
L 285.5232 246.841746 
L 288.9792 246.244876 
L 292.4352 245.856718 
L 295.8912 245.685989 
L 299.3472 245.736521 
L 302.8032 246.007182 
L 306.2592 246.491892 
L 309.7152 247.179765 
L 313.8624 248.251337 
L 318.0096 249.55837 
L 322.848 251.324136 
L 329.0688 253.85463 
L 344.2752 260.165108 
L 349.1136 261.878662 
L 353.2608 263.128235 
L 357.408 264.132558 
L 360.864 264.758475 
L 363.6288 265.110642 
L 363.6288 265.110642 
" style="fill:none;stroke:#000000;stroke-linecap:square;stroke-width:2.0;"/>
   </g>
   <g id="line2d_32">
    <path clip-path="url(#p242df203d2)" d="M 226.08 261.412142 
L 229.536 261.245232 
L 232.992 260.865759 
L 236.448 260.282245 
L 240.5952 259.331451 
L 244.7424 258.136657 
L 249.5808 256.486231 
L 255.1104 254.35151 
L 275.1552 246.33713 
L 279.9936 244.798168 
L 284.1408 243.721014 
L 288.288 242.904275 
L 291.744 242.441901 
L 295.2 242.189246 
L 298.656 242.151984 
L 302.112 242.330952 
L 305.568 242.72213 
L 309.024 243.316734 
L 313.1712 244.279675 
L 317.3184 245.484978 
L 322.1568 247.145147 
L 327.6864 249.287169 
L 347.04 257.050299 
L 351.8784 258.617176 
L 356.0256 259.723385 
L 360.1728 260.572931 
L 363.6288 261.064748 
L 363.6288 261.064748 
" style="fill:none;stroke:#000000;stroke-linecap:square;stroke-width:2.0;"/>
   </g>
   <g id="line2d_33">
    <path clip-path="url(#p242df203d2)" d="M 226.08 257.56871 
L 229.536 257.44824 
L 232.992 257.119805 
L 236.448 256.59078 
L 240.5952 255.708205 
L 244.7424 254.582631 
L 249.5808 253.011247 
L 255.1104 250.960358 
L 264.7872 247.06496 
L 272.3904 244.107491 
L 277.2288 242.436209 
L 281.376 241.202329 
L 285.5232 240.194174 
L 289.6704 239.444321 
L 293.1264 239.034508 
L 296.5824 238.830263 
L 300.0384 238.836173 
L 303.4944 239.052105 
L 306.9504 239.47321 
L 310.4064 240.09003 
L 314.5536 241.068763 
L 318.7008 242.277537 
L 323.5392 243.926056 
L 329.76 246.309603 
L 346.3488 252.836393 
L 351.1872 254.432937 
L 355.3344 255.58536 
L 359.4816 256.498755 
L 362.9376 257.055779 
L 363.6288 257.143609 
L 363.6288 257.143609 
" style="fill:none;stroke:#000000;stroke-linecap:square;stroke-width:2.0;"/>
   </g>
   <g id="line2d_34">
    <path clip-path="url(#p242df203d2)" d="M 226.08 253.853565 
L 229.536 253.777635 
L 232.992 253.499405 
L 236.448 253.025126 
L 240.5952 252.212497 
L 244.7424 251.159371 
L 249.5808 249.672545 
L 255.1104 247.713801 
L 263.4048 244.497167 
L 272.3904 241.064966 
L 277.92 239.19919 
L 282.7584 237.825346 
L 286.9056 236.888678 
L 291.0528 236.206666 
L 294.5088 235.849016 
L 297.9648 235.691705 
L 301.4208 235.738266 
L 304.8768 235.987653 
L 308.3328 236.434266 
L 312.48 237.216119 
L 316.6272 238.242047 
L 321.4656 239.702831 
L 326.9952 241.640689 
L 335.2896 244.846077 
L 344.9664 248.544035 
L 350.496 250.400341 
L 354.6432 251.585928 
L 358.7904 252.551264 
L 362.9376 253.265157 
L 363.6288 253.357948 
L 363.6288 253.357948 
" style="fill:none;stroke:#000000;stroke-linecap:square;stroke-width:2.0;"/>
   </g>
   <g id="line2d_35">
    <path clip-path="url(#p242df203d2)" d="M 226.08 250.275825 
L 229.536 250.241987 
L 232.992 250.012552 
L 236.448 249.592671 
L 240.5952 248.850992 
L 244.7424 247.872832 
L 249.5808 246.475303 
L 255.1104 244.616233 
L 262.7136 241.795008 
L 273.0816 237.962896 
L 278.6112 236.165207 
L 283.4496 234.841498 
L 287.5968 233.939012 
L 291.744 233.281888 
L 295.2 232.93729 
L 298.656 232.785719 
L 302.112 232.830581 
L 305.568 233.070868 
L 309.024 233.501183 
L 313.1712 234.254503 
L 317.3184 235.242992 
L 322.1568 236.650469 
L 327.6864 238.51761 
L 335.9808 241.606024 
L 345.6576 245.169034 
L 351.1872 246.957599 
L 356.0256 248.270578 
L 360.1728 249.162195 
L 363.6288 249.71787 
L 363.6288 249.71787 
" style="fill:none;stroke:#000000;stroke-linecap:square;stroke-width:2.0;"/>
   </g>
   <g id="line2d_36">
    <path clip-path="url(#p242df203d2)" d="M 226.08 246.843984 
L 229.536 246.849268 
L 232.992 246.66665 
L 237.1392 246.205544 
L 241.2864 245.494884 
L 245.4336 244.557631 
L 250.272 243.218549 
L 255.8016 241.437228 
L 264.096 238.482391 
L 273.7728 235.062142 
L 279.3024 233.339636 
L 284.1408 232.071286 
L 288.288 231.206542 
L 292.4352 230.576901 
L 296.5824 230.202706 
L 300.0384 230.094992 
L 303.4944 230.175641 
L 307.6416 230.518212 
L 311.7888 231.118127 
L 315.936 231.956 
L 320.0832 233.004758 
L 324.9216 234.449305 
L 331.1424 236.557137 
L 349.1136 242.855239 
L 353.952 244.251297 
L 358.0992 245.248211 
L 362.2464 246.026503 
L 363.6288 246.232785 
L 363.6288 246.232785 
" style="fill:none;stroke:#000000;stroke-linecap:square;stroke-width:2.0;"/>
   </g>
   <g id="line2d_37">
    <path clip-path="url(#p242df203d2)" d="M 226.08 243.565842 
L 230.2272 243.593417 
L 234.3744 243.363504 
L 238.5216 242.883531 
L 242.6688 242.169008 
L 246.816 241.243022 
L 251.6544 239.935696 
L 257.184 238.213424 
L 266.8608 234.906736 
L 275.1552 232.149946 
L 280.6848 230.539655 
L 285.5232 229.366998 
L 289.6704 228.579067 
L 293.8176 228.018801 
L 297.9648 227.704303 
L 302.112 227.645734 
L 306.2592 227.844989 
L 310.4064 228.295628 
L 314.5536 228.98309 
L 318.7008 229.885161 
L 323.5392 231.16959 
L 329.0688 232.873498 
L 337.3632 235.69191 
L 347.04 238.943426 
L 352.5696 240.575627 
L 357.408 241.77382 
L 361.5552 242.587488 
L 363.6288 242.911321 
L 363.6288 242.911321 
" style="fill:none;stroke:#000000;stroke-linecap:square;stroke-width:2.0;"/>
   </g>
   <g id="line2d_38">
    <path clip-path="url(#p242df203d2)" d="M 226.08 240.448434 
L 230.2272 240.515255 
L 234.3744 240.338062 
L 238.5216 239.922581 
L 242.6688 239.282237 
L 247.5072 238.278945 
L 252.3456 237.042107 
L 258.5664 235.197123 
L 280.6848 228.329693 
L 285.5232 227.18684 
L 289.6704 226.407659 
L 293.8176 225.840317 
L 297.9648 225.503147 
L 302.112 225.407044 
L 306.2592 225.555113 
L 310.4064 225.942569 
L 314.5536 226.556893 
L 318.7008 227.378235 
L 323.5392 228.562373 
L 329.0688 230.149025 
L 337.3632 232.800414 
L 347.7312 236.103339 
L 353.2608 237.647535 
L 358.0992 238.781124 
L 362.2464 239.55092 
L 363.6288 239.761255 
L 363.6288 239.761255 
" style="fill:none;stroke:#000000;stroke-linecap:square;stroke-width:2.0;"/>
   </g>
   <g id="line2d_39">
    <path clip-path="url(#p242df203d2)" d="M 226.08 237.497967 
L 230.2272 237.59891 
L 234.3744 237.470531 
L 238.5216 237.116979 
L 242.6688 236.549677 
L 247.5072 235.642484 
L 252.3456 234.509424 
L 258.5664 232.801797 
L 268.9344 229.652296 
L 277.2288 227.224515 
L 282.7584 225.822033 
L 287.5968 224.812534 
L 291.744 224.144821 
L 295.8912 223.682524 
L 300.0384 223.440579 
L 304.1856 223.426805 
L 308.3328 223.641647 
L 312.48 224.078164 
L 316.6272 224.722249 
L 321.4656 225.707917 
L 326.9952 227.089356 
L 333.9072 229.08083 
L 351.1872 234.20201 
L 356.7168 235.535627 
L 361.5552 236.468067 
L 363.6288 236.789436 
L 363.6288 236.789436 
" style="fill:none;stroke:#000000;stroke-linecap:square;stroke-width:2.0;"/>
   </g>
   <g id="line2d_40">
    <path clip-path="url(#p242df203d2)" d="M 226.08 234.719753 
L 230.2272 234.849227 
L 234.3744 234.765192 
L 238.5216 234.470365 
L 242.6688 233.97427 
L 247.5072 233.16284 
L 252.3456 232.13518 
L 258.5664 230.569748 
L 268.2432 227.845343 
L 277.92 225.189822 
L 283.4496 223.883884 
L 288.288 222.943878 
L 293.1264 222.236646 
L 297.2736 221.839578 
L 301.4208 221.649377 
L 305.568 221.672189 
L 309.7152 221.907277 
L 313.8624 222.347045 
L 318.7008 223.099494 
L 323.5392 224.07788 
L 329.0688 225.41716 
L 336.672 227.505668 
L 350.496 231.34262 
L 356.0256 232.641001 
L 360.864 233.572418 
L 363.6288 234.001714 
L 363.6288 234.001714 
" style="fill:none;stroke:#000000;stroke-linecap:square;stroke-width:2.0;"/>
   </g>
   <g id="line2d_41">
    <path clip-path="url(#p242df203d2)" d="M 226.08 232.118151 
L 230.2272 232.270152 
L 234.3744 232.225473 
L 238.5216 231.985559 
L 243.36 231.469584 
L 248.1984 230.721342 
L 253.728 229.62439 
L 259.9488 228.158139 
L 271.6992 225.092336 
L 279.9936 223.050144 
L 285.5232 221.897474 
L 290.3616 221.088496 
L 295.2 220.503377 
L 300.0384 220.167827 
L 304.1856 220.090336 
L 308.3328 220.209728 
L 313.1712 220.592359 
L 318.0096 221.220648 
L 322.848 222.066991 
L 328.3776 223.253161 
L 335.9808 225.142781 
L 351.8784 229.203009 
L 357.408 230.374725 
L 362.2464 231.20486 
L 363.6288 231.402882 
L 363.6288 231.402882 
" style="fill:none;stroke:#000000;stroke-linecap:square;stroke-width:2.0;"/>
   </g>
   <g id="line2d_42">
    <path clip-path="url(#p242df203d2)" d="M 226.08 229.696515 
L 230.9184 229.875375 
L 235.7568 229.810433 
L 240.5952 229.504545 
L 245.4336 228.971148 
L 250.9632 228.113457 
L 257.184 226.892038 
L 265.4784 224.991701 
L 279.9936 221.614601 
L 286.2144 220.419611 
L 291.744 219.592801 
L 296.5824 219.090694 
L 301.4208 218.818646 
L 306.2592 218.78861 
L 311.0976 219.001905 
L 315.936 219.449159 
L 320.7744 220.11072 
L 326.304 221.091536 
L 333.216 222.57069 
L 357.408 228.02481 
L 362.9376 228.904252 
L 363.6288 228.996611 
L 363.6288 228.996611 
" style="fill:none;stroke:#000000;stroke-linecap:square;stroke-width:2.0;"/>
   </g>
   <g id="line2d_43">
    <path clip-path="url(#p242df203d2)" d="M 226.08 227.457141 
L 230.9184 227.648911 
L 235.7568 227.621905 
L 240.5952 227.377311 
L 245.4336 226.925875 
L 250.9632 226.182503 
L 257.184 225.108106 
L 265.4784 223.416164 
L 281.376 220.101729 
L 287.5968 219.052062 
L 293.1264 218.337123 
L 297.9648 217.914225 
L 302.8032 217.700277 
L 307.6416 217.704678 
L 312.48 217.927235 
L 317.3184 218.35817 
L 322.848 219.081143 
L 329.0688 220.137838 
L 336.672 221.669634 
L 354.6432 225.400372 
L 360.864 226.417004 
L 363.6288 226.785402 
L 363.6288 226.785402 
" style="fill:none;stroke:#000000;stroke-linecap:square;stroke-width:2.0;"/>
   </g>
   <g id="line2d_44">
    <path clip-path="url(#p242df203d2)" d="M 226.08 225.401222 
L 231.6096 225.610378 
L 237.1392 225.567271 
L 242.6688 225.274372 
L 248.1984 224.748472 
L 254.4192 223.916329 
L 262.0224 222.640219 
L 286.9056 218.200657 
L 293.1264 217.448124 
L 298.656 217.006754 
L 304.1856 216.806316 
L 309.7152 216.8583 
L 315.2448 217.159726 
L 320.7744 217.693315 
L 326.9952 218.532561 
L 334.5984 219.814418 
L 358.7904 224.148377 
L 363.6288 224.770535 
L 363.6288 224.770535 
" style="fill:none;stroke:#000000;stroke-linecap:square;stroke-width:2.0;"/>
   </g>
   <g id="line2d_45">
    <path clip-path="url(#p242df203d2)" d="M 226.08 223.528812 
L 231.6096 223.736432 
L 237.1392 223.726567 
L 242.6688 223.49978 
L 248.8896 223.002008 
L 255.1104 222.282545 
L 262.7136 221.179232 
L 288.288 217.258235 
L 294.5088 216.631745 
L 300.0384 216.275218 
L 305.568 216.128913 
L 311.0976 216.201215 
L 316.6272 216.487979 
L 322.848 217.046021 
L 329.76 217.909918 
L 338.7456 219.290741 
L 356.7168 222.123939 
L 363.6288 222.952029 
L 363.6288 222.952029 
" style="fill:none;stroke:#000000;stroke-linecap:square;stroke-width:2.0;"/>
   </g>
   <g id="line2d_46">
    <path clip-path="url(#p242df203d2)" d="M 226.08 221.838786 
L 232.3008 222.047306 
L 238.5216 222.025061 
L 244.7424 221.773663 
L 251.6544 221.248256 
L 259.2576 220.426568 
L 269.6256 219.054621 
L 284.832 217.053452 
L 292.4352 216.294202 
L 298.656 215.876354 
L 304.8768 215.674877 
L 311.0976 215.704369 
L 317.3184 215.962694 
L 324.2304 216.494813 
L 331.8336 217.322001 
L 342.2016 218.697279 
L 356.7168 220.61404 
L 363.6288 221.32861 
L 363.6288 221.32861 
" style="fill:none;stroke:#000000;stroke-linecap:square;stroke-width:2.0;"/>
   </g>
   <g id="line2d_47">
    <path clip-path="url(#p242df203d2)" d="M 226.08 220.32882 
L 232.992 220.526341 
L 239.904 220.494911 
L 246.816 220.237338 
L 254.4192 219.720832 
L 263.4048 218.871593 
L 291.744 215.992524 
L 299.3472 215.560098 
L 306.2592 215.391325 
L 313.1712 215.452298 
L 320.0832 215.737569 
L 327.6864 216.279472 
L 336.672 217.148302 
L 362.9376 219.845678 
L 363.6288 219.897684 
L 363.6288 219.897684 
" style="fill:none;stroke:#000000;stroke-linecap:square;stroke-width:2.0;"/>
   </g>
   <g id="line2d_48">
    <path clip-path="url(#p242df203d2)" d="M 226.08 218.995366 
L 234.3744 219.173662 
L 241.9776 219.118974 
L 250.272 218.828484 
L 259.2576 218.285364 
L 272.3904 217.236983 
L 288.288 216.000338 
L 297.2736 215.523543 
L 305.568 215.310808 
L 313.1712 215.332633 
L 321.4656 215.590141 
L 330.4512 216.105649 
L 342.8928 217.078644 
L 360.864 218.486182 
L 363.6288 218.655319 
L 363.6288 218.655319 
" style="fill:none;stroke:#000000;stroke-linecap:square;stroke-width:2.0;"/>
   </g>
   <g id="line2d_49">
    <path clip-path="url(#p242df203d2)" d="M 226.08 217.833637 
L 235.7568 217.972498 
L 245.4336 217.885759 
L 255.8016 217.560375 
L 268.9344 216.907257 
L 292.4352 215.706986 
L 302.8032 215.426054 
L 312.48 215.387731 
L 322.1568 215.573097 
L 333.216 216.015914 
L 353.952 217.142589 
L 363.6288 217.59623 
L 363.6288 217.59623 
" style="fill:none;stroke:#000000;stroke-linecap:square;stroke-width:2.0;"/>
   </g>
   <g id="line2d_50">
    <path clip-path="url(#p242df203d2)" d="M 226.08 216.837606 
L 239.904 216.913748 
L 253.728 216.763628 
L 271.6992 216.324553 
L 297.2736 215.711308 
L 311.0976 215.615816 
L 324.9216 215.747467 
L 342.2016 216.154879 
L 363.6288 216.713785 
L 363.6288 216.713785 
" style="fill:none;stroke:#000000;stroke-linecap:square;stroke-width:2.0;"/>
   </g>
   <g id="line2d_51">
    <path clip-path="url(#p242df203d2)" d="M 226.08 216 
L 363.6288 216 
L 363.6288 216 
" style="fill:none;stroke:#000000;stroke-linecap:square;stroke-width:2.0;"/>
   </g>
   <g id="line2d_52">
    <path clip-path="url(#p242df203d2)" d="M 226.08 215.312313 
L 239.904 215.213691 
L 253.728 215.342297 
L 271.008 215.747611 
L 299.3472 216.428865 
L 313.1712 216.513133 
L 326.9952 216.370697 
L 344.9664 215.936659 
L 363.6288 215.445562 
L 363.6288 215.445562 
" style="fill:none;stroke:#000000;stroke-linecap:square;stroke-width:2.0;"/>
   </g>
   <g id="line2d_53">
    <path clip-path="url(#p242df203d2)" d="M 226.08 214.76482 
L 236.448 214.558281 
L 246.1248 214.596604 
L 256.4928 214.877536 
L 268.9344 215.461151 
L 297.2736 216.886835 
L 307.6416 217.12104 
L 317.3184 217.110637 
L 326.9952 216.880267 
L 338.7456 216.365038 
L 363.6288 215.039846 
L 363.6288 215.039846 
" style="fill:none;stroke:#000000;stroke-linecap:square;stroke-width:2.0;"/>
   </g>
   <g id="line2d_54">
    <path clip-path="url(#p242df203d2)" d="M 226.08 214.346602 
L 234.3744 214.050808 
L 241.9776 213.990775 
L 249.5808 214.139872 
L 257.8752 214.521555 
L 268.2432 215.244291 
L 297.2736 217.450502 
L 305.568 217.77837 
L 313.1712 217.871089 
L 320.7744 217.754193 
L 329.0688 217.403008 
L 338.7456 216.758979 
L 363.6288 214.770948 
L 363.6288 214.770948 
" style="fill:none;stroke:#000000;stroke-linecap:square;stroke-width:2.0;"/>
   </g>
   <g id="line2d_55">
    <path clip-path="url(#p242df203d2)" d="M 226.08 214.045573 
L 233.6832 213.651281 
L 240.5952 213.521509 
L 247.5072 213.622017 
L 254.4192 213.943827 
L 262.0224 214.51858 
L 271.6992 215.486554 
L 293.8176 217.799619 
L 301.4208 218.336029 
L 308.3328 218.615272 
L 315.2448 218.669784 
L 322.1568 218.494696 
L 329.0688 218.105647 
L 337.3632 217.406468 
L 349.1136 216.155121 
L 363.6288 214.625727 
L 363.6288 214.625727 
" style="fill:none;stroke:#000000;stroke-linecap:square;stroke-width:2.0;"/>
   </g>
   <g id="line2d_56">
    <path clip-path="url(#p242df203d2)" d="M 226.08 213.848526 
L 232.992 213.365102 
L 239.2128 213.156582 
L 245.4336 213.178827 
L 251.6544 213.430225 
L 258.5664 213.955632 
L 266.1696 214.77732 
L 276.5376 216.149267 
L 291.744 218.150436 
L 299.3472 218.909686 
L 305.568 219.327534 
L 311.7888 219.529011 
L 318.0096 219.499519 
L 324.2304 219.241194 
L 331.1424 218.709075 
L 338.7456 217.881887 
L 349.1136 216.506609 
L 363.6288 214.589848 
L 363.6288 214.589848 
" style="fill:none;stroke:#000000;stroke-linecap:square;stroke-width:2.0;"/>
   </g>
   <g id="line2d_57">
    <path clip-path="url(#p242df203d2)" d="M 226.08 213.741174 
L 232.3008 213.183133 
L 237.8304 212.896368 
L 243.36 212.824066 
L 248.8896 212.970372 
L 254.4192 213.326898 
L 260.64 213.953389 
L 267.552 214.875126 
L 277.2288 216.40874 
L 291.0528 218.599917 
L 297.9648 219.479697 
L 304.1856 220.056233 
L 309.7152 220.361664 
L 315.2448 220.453618 
L 320.7744 220.326822 
L 326.304 219.988545 
L 332.5248 219.379782 
L 339.4368 218.472769 
L 349.1136 216.948677 
L 363.6288 214.647842 
L 363.6288 214.647842 
" style="fill:none;stroke:#000000;stroke-linecap:square;stroke-width:2.0;"/>
   </g>
   <g id="line2d_58">
    <path clip-path="url(#p242df203d2)" d="M 226.08 213.70821 
L 231.6096 213.09478 
L 237.1392 212.703523 
L 242.6688 212.556869 
L 248.1984 212.663223 
L 253.728 213.016491 
L 259.2576 213.59642 
L 265.4784 214.477932 
L 273.0816 215.793054 
L 294.5088 219.677126 
L 300.7296 220.509269 
L 306.2592 221.035169 
L 311.7888 221.328068 
L 317.3184 221.371175 
L 322.848 221.162019 
L 328.3776 220.712591 
L 333.9072 220.048653 
L 340.8192 218.976057 
L 349.8048 217.330324 
L 363.6288 214.783171 
L 363.6288 214.783171 
" style="fill:none;stroke:#000000;stroke-linecap:square;stroke-width:2.0;"/>
   </g>
   <g id="line2d_59">
    <path clip-path="url(#p242df203d2)" d="M 226.08 213.733364 
L 231.6096 213.010391 
L 236.448 212.579456 
L 241.2864 212.356899 
L 246.1248 212.352498 
L 250.9632 212.566446 
L 255.8016 212.989343 
L 261.3312 213.704283 
L 267.552 214.75395 
L 275.1552 216.280748 
L 293.8176 220.142257 
L 300.0384 221.139655 
L 305.568 221.795824 
L 310.4064 222.160528 
L 315.2448 222.312634 
L 320.0832 222.24546 
L 324.9216 221.961957 
L 329.76 221.474581 
L 335.2896 220.695787 
L 341.5104 219.591144 
L 349.8048 217.878197 
L 363.6288 214.978298 
L 363.6288 214.978298 
" style="fill:none;stroke:#000000;stroke-linecap:square;stroke-width:2.0;"/>
   </g>
   <g id="line2d_60">
    <path clip-path="url(#p242df203d2)" d="M 226.08 213.799475 
L 231.6096 212.963934 
L 236.448 212.453013 
L 241.2864 212.171455 
L 246.1248 212.131632 
L 250.9632 212.335295 
L 255.8016 212.773494 
L 260.64 213.426975 
L 266.1696 214.400202 
L 273.0816 215.872962 
L 286.9056 219.154982 
L 294.5088 220.810012 
L 300.0384 221.809997 
L 305.568 222.572842 
L 310.4064 223.011041 
L 315.2448 223.214704 
L 320.0832 223.174881 
L 324.9216 222.893324 
L 329.76 222.382402 
L 335.2896 221.546861 
L 341.5104 220.344355 
L 349.1136 218.621772 
L 363.6288 215.214767 
L 363.6288 215.214767 
" style="fill:none;stroke:#000000;stroke-linecap:square;stroke-width:2.0;"/>
   </g>
   <g id="line2d_61">
    <path clip-path="url(#p242df203d2)" d="M 226.08 213.888566 
L 230.9184 213.042223 
L 235.7568 212.413934 
L 240.5952 212.031303 
L 244.7424 211.911911 
L 248.8896 211.989401 
L 253.0368 212.26127 
L 257.8752 212.812064 
L 262.7136 213.591025 
L 268.2432 214.716342 
L 275.1552 216.379442 
L 295.8912 221.595286 
L 301.4208 222.662886 
L 306.2592 223.379735 
L 311.0976 223.860425 
L 315.2448 224.068171 
L 319.392 224.079997 
L 323.5392 223.895523 
L 328.3776 223.440499 
L 333.216 222.746646 
L 338.7456 221.700768 
L 344.9664 220.274403 
L 354.6432 217.770942 
L 363.6288 215.473294 
L 363.6288 215.473294 
" style="fill:none;stroke:#000000;stroke-linecap:square;stroke-width:2.0;"/>
   </g>
   <g id="line2d_62">
    <path clip-path="url(#p242df203d2)" d="M 226.08 213.981929 
L 230.9184 213.033401 
L 235.7568 212.316179 
L 239.904 211.909712 
L 244.0512 211.709659 
L 248.1984 211.722485 
L 252.3456 211.947775 
L 256.4928 212.378249 
L 261.3312 213.120893 
L 266.1696 214.090998 
L 271.6992 215.423147 
L 279.3024 217.506597 
L 293.1264 221.349564 
L 298.656 222.655502 
L 303.4944 223.595508 
L 308.3328 224.302741 
L 312.48 224.699809 
L 316.6272 224.89001 
L 320.7744 224.867197 
L 324.9216 224.632109 
L 329.0688 224.192341 
L 333.9072 223.439892 
L 338.7456 222.461507 
L 344.2752 221.122226 
L 351.8784 219.033718 
L 363.6288 215.733858 
L 363.6288 215.733858 
" style="fill:none;stroke:#000000;stroke-linecap:square;stroke-width:2.0;"/>
   </g>
   <g id="line2d_63">
    <path clip-path="url(#p242df203d2)" d="M 226.08 214.060214 
L 230.9184 213.009499 
L 235.7568 212.201423 
L 239.904 211.729144 
L 244.0512 211.476677 
L 248.1984 211.452178 
L 252.3456 211.65644 
L 256.4928 212.082862 
L 260.64 212.717666 
L 265.4784 213.693931 
L 271.008 215.067002 
L 277.92 217.052263 
L 295.2 222.180804 
L 300.7296 223.523228 
L 305.568 224.465381 
L 309.7152 225.066704 
L 313.8624 225.456867 
L 318.0096 225.623262 
L 322.1568 225.560513 
L 326.304 225.270648 
L 330.4512 224.763032 
L 335.2896 223.917851 
L 340.128 222.836017 
L 345.6576 221.37123 
L 353.2608 219.110235 
L 363.6288 215.975801 
L 363.6288 215.975801 
" style="fill:none;stroke:#000000;stroke-linecap:square;stroke-width:2.0;"/>
   </g>
   <g id="line2d_64">
    <path clip-path="url(#p242df203d2)" d="M 226.08 214.103521 
L 230.9184 212.951484 
L 235.0656 212.162974 
L 239.2128 211.585274 
L 243.36 211.237051 
L 247.5072 211.129558 
L 251.6544 211.266268 
L 255.8016 211.642763 
L 259.9488 212.246877 
L 264.096 213.059091 
L 268.9344 214.23434 
L 274.464 215.813621 
L 282.7584 218.46036 
L 293.8176 221.974511 
L 299.3472 223.497979 
L 304.1856 224.607407 
L 308.3328 225.352855 
L 312.48 225.882912 
L 316.6272 226.180454 
L 320.7744 226.235864 
L 324.9216 226.047353 
L 329.0688 225.621012 
L 333.216 224.970616 
L 338.0544 223.957052 
L 342.8928 222.711935 
L 349.1136 220.859808 
L 363.6288 216.177938 
L 363.6288 216.177938 
" style="fill:none;stroke:#000000;stroke-linecap:square;stroke-width:2.0;"/>
   </g>
   <g id="line2d_65">
    <path clip-path="url(#p242df203d2)" d="M 226.08 214.091506 
L 230.9184 212.839883 
L 235.0656 211.971732 
L 239.2128 211.322397 
L 243.36 210.912859 
L 247.5072 210.756352 
L 251.6544 210.857932 
L 255.8016 211.214318 
L 259.9488 211.813993 
L 264.096 212.63758 
L 268.9344 213.845565 
L 274.464 215.486092 
L 282.0672 218.025549 
L 294.5088 222.218361 
L 300.0384 223.828653 
L 304.8768 225.001309 
L 309.024 225.78924 
L 313.1712 226.349507 
L 317.3184 226.664005 
L 321.4656 226.722573 
L 325.6128 226.523319 
L 329.76 226.07268 
L 333.9072 225.385218 
L 338.0544 224.483147 
L 342.8928 223.198718 
L 348.4224 221.49481 
L 356.7168 218.676398 
L 363.6288 216.318664 
L 363.6288 216.318664 
" style="fill:none;stroke:#000000;stroke-linecap:square;stroke-width:2.0;"/>
   </g>
   <g id="line2d_66">
    <path clip-path="url(#p242df203d2)" d="M 226.08 214.003485 
L 230.9184 212.654871 
L 235.0656 211.707722 
L 239.2128 210.985906 
L 243.36 210.512748 
L 246.816 210.319681 
L 250.272 210.314397 
L 253.728 210.497015 
L 257.8752 210.95812 
L 262.0224 211.668781 
L 266.1696 212.606033 
L 271.008 213.945115 
L 276.5376 215.726436 
L 284.832 218.681273 
L 294.5088 222.101522 
L 300.0384 223.824029 
L 304.8768 225.092379 
L 309.024 225.957122 
L 313.1712 226.586764 
L 317.3184 226.960959 
L 320.7744 227.068673 
L 324.2304 226.988024 
L 328.3776 226.645452 
L 332.5248 226.045538 
L 336.672 225.207664 
L 340.8192 224.158906 
L 345.6576 222.71436 
L 351.8784 220.606528 
L 363.6288 216.376075 
L 363.6288 216.376075 
" style="fill:none;stroke:#000000;stroke-linecap:square;stroke-width:2.0;"/>
   </g>
   <g id="line2d_67">
    <path clip-path="url(#p242df203d2)" d="M 226.08 213.81854 
L 230.9184 212.376383 
L 235.0656 211.351613 
L 239.2128 210.557191 
L 243.36 210.018787 
L 246.816 209.778501 
L 250.272 209.733639 
L 253.728 209.885209 
L 257.184 210.229807 
L 261.3312 210.886931 
L 265.4784 211.789417 
L 269.6256 212.908105 
L 274.464 214.437936 
L 280.6848 216.65549 
L 297.9648 222.981089 
L 302.8032 224.447407 
L 306.9504 225.497721 
L 311.0976 226.321286 
L 315.2448 226.891489 
L 318.7008 227.159565 
L 322.1568 227.232725 
L 325.6128 227.109324 
L 329.0688 226.792136 
L 333.216 226.166037 
L 337.3632 225.291593 
L 341.5104 224.19706 
L 346.3488 222.689464 
L 352.5696 220.489633 
L 363.6288 216.328086 
L 363.6288 216.328086 
" style="fill:none;stroke:#000000;stroke-linecap:square;stroke-width:2.0;"/>
   </g>
   <g id="line2d_68">
    <path clip-path="url(#p242df203d2)" d="M 226.08 213.515643 
L 230.9184 211.984216 
L 235.0656 210.883936 
L 239.2128 210.017509 
L 242.6688 209.494573 
L 246.1248 209.165371 
L 249.5808 209.037297 
L 253.0368 209.113227 
L 256.4928 209.391457 
L 259.9488 209.865736 
L 264.096 210.678365 
L 268.2432 211.731491 
L 273.0816 213.218317 
L 278.6112 215.177061 
L 286.9056 218.393695 
L 295.8912 221.825896 
L 301.4208 223.691672 
L 306.2592 225.065516 
L 310.4064 226.002184 
L 314.5536 226.684196 
L 318.0096 227.041846 
L 321.4656 227.199157 
L 324.9216 227.152596 
L 328.3776 226.903209 
L 331.8336 226.456596 
L 335.9808 225.674743 
L 340.128 224.648815 
L 344.9664 223.188031 
L 350.496 221.250173 
L 358.7904 218.044785 
L 363.6288 216.152558 
L 363.6288 216.152558 
" style="fill:none;stroke:#000000;stroke-linecap:square;stroke-width:2.0;"/>
   </g>
   <g id="line2d_69">
    <path clip-path="url(#p242df203d2)" d="M 226.08 213.073763 
L 230.9184 211.458142 
L 235.0656 210.285182 
L 239.2128 209.348081 
L 242.6688 208.769433 
L 246.1248 208.388751 
L 249.5808 208.214586 
L 253.0368 208.250848 
L 256.4928 208.496723 
L 259.9488 208.94669 
L 263.4048 209.590643 
L 267.552 210.598798 
L 271.6992 211.832678 
L 276.5376 213.50396 
L 282.7584 215.904958 
L 297.9648 221.916543 
L 302.8032 223.555991 
L 306.9504 224.754837 
L 311.0976 225.72199 
L 314.5536 226.328168 
L 318.0096 226.73798 
L 321.4656 226.942226 
L 324.9216 226.936316 
L 328.3776 226.720384 
L 331.8336 226.299279 
L 335.2896 225.682459 
L 339.4368 224.703726 
L 343.584 223.494952 
L 348.4224 221.846432 
L 354.6432 219.462886 
L 363.6288 215.827421 
L 363.6288 215.827421 
" style="fill:none;stroke:#000000;stroke-linecap:square;stroke-width:2.0;"/>
   </g>
   <g id="line2d_70">
    <path clip-path="url(#p242df203d2)" d="M 226.08 212.471994 
L 230.9184 210.778019 
L 235.0656 209.535915 
L 239.2128 208.530194 
L 242.6688 207.896366 
L 246.1248 207.46365 
L 249.5808 207.241764 
L 253.0368 207.235692 
L 256.4928 207.445568 
L 259.9488 207.866681 
L 263.4048 208.489573 
L 267.552 209.483394 
L 271.6992 210.715297 
L 276.5376 212.39995 
L 282.7584 214.841929 
L 299.3472 221.557457 
L 304.1856 223.207883 
L 308.3328 224.402677 
L 312.48 225.353471 
L 315.936 225.936985 
L 319.392 226.316458 
L 322.848 226.483368 
L 326.304 226.433966 
L 329.76 226.169361 
L 333.216 225.695497 
L 336.672 225.023015 
L 340.8192 223.97542 
L 344.9664 222.697631 
L 349.8048 220.971375 
L 356.0256 218.4975 
L 363.6288 215.33081 
L 363.6288 215.33081 
" style="fill:none;stroke:#000000;stroke-linecap:square;stroke-width:2.0;"/>
   </g>
   <g id="line2d_71">
    <path clip-path="url(#p242df203d2)" d="M 226.08 211.689675 
L 230.9184 209.92391 
L 235.0656 208.616876 
L 239.2128 207.545305 
L 242.6688 206.857431 
L 246.1248 206.372722 
L 249.5808 206.102061 
L 253.0368 206.051528 
L 256.4928 206.222258 
L 259.9488 206.610416 
L 263.4048 207.207285 
L 267.552 208.17984 
L 271.6992 209.40198 
L 276.5376 211.09018 
L 282.0672 213.273758 
L 302.112 221.471565 
L 306.9504 223.04575 
L 311.0976 224.147557 
L 314.5536 224.863507 
L 318.0096 225.378244 
L 321.4656 225.680206 
L 324.9216 225.762614 
L 328.3776 225.623615 
L 331.8336 225.266332 
L 335.2896 224.698788 
L 338.7456 223.93373 
L 342.8928 222.779422 
L 347.04 221.402948 
L 351.8784 219.575939 
L 358.7904 216.707534 
L 363.6288 214.641187 
L 363.6288 214.641187 
" style="fill:none;stroke:#000000;stroke-linecap:square;stroke-width:2.0;"/>
   </g>
   <g id="line2d_72">
    <path clip-path="url(#p242df203d2)" d="M 226.08 210.706513 
L 230.9184 208.876197 
L 235.0656 207.509101 
L 239.2128 206.375141 
L 242.6688 205.634955 
L 246.1248 205.098891 
L 249.5808 204.778989 
L 253.0368 204.682434 
L 256.4928 204.811393 
L 259.9488 205.16297 
L 263.4048 205.72927 
L 266.8608 206.497575 
L 271.008 207.661597 
L 275.1552 209.053826 
L 279.9936 210.906164 
L 286.9056 213.821534 
L 298.656 218.818959 
L 303.4944 220.640469 
L 307.6416 221.997606 
L 311.7888 223.119717 
L 315.2448 223.848862 
L 318.7008 224.373084 
L 322.1568 224.680611 
L 325.6128 224.764537 
L 329.0688 224.622977 
L 332.5248 224.25911 
L 335.9808 223.681107 
L 339.4368 222.90195 
L 343.584 221.72637 
L 347.7312 220.324529 
L 352.5696 218.46385 
L 359.4816 215.542585 
L 363.6288 213.73748 
L 363.6288 213.73748 
" style="fill:none;stroke:#000000;stroke-linecap:square;stroke-width:2.0;"/>
   </g>
   <g id="line2d_73">
    <path clip-path="url(#p242df203d2)" d="M 226.08 209.502707 
L 231.6096 207.364689 
L 235.7568 205.97825 
L 239.904 204.828247 
L 243.36 204.077587 
L 246.816 203.533939 
L 250.272 203.209511 
L 253.728 203.11159 
L 257.184 203.242373 
L 260.64 203.598925 
L 264.096 204.173238 
L 267.552 204.952413 
L 271.6992 206.132904 
L 275.8464 207.544831 
L 280.6848 209.423377 
L 287.5968 212.379995 
L 299.3472 217.448127 
L 304.1856 219.295409 
L 308.3328 220.671747 
L 312.48 221.809735 
L 315.936 222.549196 
L 319.392 223.080835 
L 322.848 223.392713 
L 326.304 223.477827 
L 329.76 223.334264 
L 333.216 222.965248 
L 336.672 222.379068 
L 340.128 221.588886 
L 344.2752 220.396674 
L 348.4224 218.974999 
L 353.2608 217.087994 
L 360.1728 214.125397 
L 363.6288 212.599209 
L 363.6288 212.599209 
" style="fill:none;stroke:#000000;stroke-linecap:square;stroke-width:2.0;"/>
   </g>
   <g id="line2d_74">
    <path clip-path="url(#p242df203d2)" d="M 226.08 208.059074 
L 231.6096 205.865119 
L 235.7568 204.42922 
L 239.904 203.22508 
L 243.36 202.426993 
L 246.816 201.834948 
L 250.272 201.462241 
L 253.728 201.317242 
L 257.184 201.403206 
L 260.64 201.718205 
L 264.096 202.255163 
L 267.552 203.002022 
L 271.6992 204.151395 
L 275.8464 205.541503 
L 280.6848 207.407266 
L 286.9056 210.064433 
L 300.7296 216.075752 
L 305.568 217.90826 
L 309.7152 219.261172 
L 313.8624 220.366582 
L 317.3184 221.072657 
L 320.7744 221.566031 
L 324.2304 221.835626 
L 327.6864 221.875386 
L 331.1424 221.684419 
L 334.5984 221.267014 
L 338.0544 220.632544 
L 341.5104 219.795258 
L 345.6576 218.54957 
L 349.8048 217.079375 
L 355.3344 214.852846 
L 363.6288 211.20662 
L 363.6288 211.20662 
" style="fill:none;stroke:#000000;stroke-linecap:square;stroke-width:2.0;"/>
   </g>
   <g id="line2d_75">
    <path clip-path="url(#p242df203d2)" d="M 226.08 206.357175 
L 231.6096 204.117377 
L 236.448 202.412694 
L 240.5952 201.201378 
L 244.0512 200.398536 
L 247.5072 199.802963 
L 250.9632 199.428035 
L 254.4192 199.282171 
L 257.8752 199.368648 
L 261.3312 199.685524 
L 264.7872 200.225682 
L 268.2432 200.976991 
L 272.3904 202.133213 
L 276.5376 203.531605 
L 281.376 205.408486 
L 287.5968 208.081487 
L 301.4208 214.128628 
L 306.2592 215.972056 
L 310.4064 217.33303 
L 314.5536 218.445027 
L 318.0096 219.155309 
L 321.4656 219.651624 
L 324.9216 219.922825 
L 328.3776 219.962822 
L 331.8336 219.770717 
L 335.2896 219.350824 
L 338.7456 218.712574 
L 342.2016 217.870298 
L 346.3488 216.617187 
L 350.496 215.138231 
L 356.0256 212.898434 
L 363.6288 209.54081 
L 363.6288 209.54081 
" style="fill:none;stroke:#000000;stroke-linecap:square;stroke-width:2.0;"/>
   </g>
   <g id="line2d_76">
    <path clip-path="url(#p242df203d2)" d="M 226.08 204.379428 
L 231.6096 202.10439 
L 236.448 200.356798 
L 240.5952 199.101209 
L 244.0512 198.257269 
L 247.5072 197.617756 
L 250.9632 197.197033 
L 254.4192 197.004548 
L 257.8752 197.044624 
L 261.3312 197.316362 
L 264.7872 197.813658 
L 268.2432 198.525344 
L 272.3904 199.63954 
L 276.5376 201.003204 
L 281.376 202.850277 
L 287.5968 205.503821 
L 302.8032 212.147726 
L 307.6416 213.959618 
L 311.7888 215.284562 
L 315.936 216.353444 
L 319.392 217.023381 
L 322.848 217.4763 
L 326.304 217.702028 
L 329.76 217.695497 
L 333.216 217.456852 
L 336.672 216.991454 
L 340.128 216.309755 
L 343.584 215.427063 
L 347.7312 214.130727 
L 352.5696 212.345169 
L 358.0992 210.041365 
L 363.6288 207.583855 
L 363.6288 207.583855 
" style="fill:none;stroke:#000000;stroke-linecap:square;stroke-width:2.0;"/>
   </g>
   <g id="line2d_77">
    <path clip-path="url(#p242df203d2)" d="M 226.08 202.109238 
L 232.3008 199.540073 
L 237.1392 197.795929 
L 241.2864 196.542819 
L 244.7424 195.700543 
L 248.1984 195.062292 
L 251.6544 194.642399 
L 255.1104 194.450295 
L 258.5664 194.490292 
L 262.0224 194.761493 
L 265.4784 195.257808 
L 268.9344 195.96809 
L 273.0816 197.080087 
L 277.2288 198.441061 
L 282.0672 200.284489 
L 288.288 202.932797 
L 303.4944 209.563592 
L 308.3328 211.371907 
L 312.48 212.694238 
L 316.6272 213.76101 
L 320.0832 214.429625 
L 323.5392 214.88165 
L 326.9952 215.106933 
L 330.4512 215.100414 
L 333.9072 214.862241 
L 337.3632 214.397761 
L 340.8192 213.717407 
L 344.2752 212.836457 
L 348.4224 211.542679 
L 353.2608 209.760644 
L 358.7904 207.461387 
L 363.6288 205.318933 
L 363.6288 205.318933 
" style="fill:none;stroke:#000000;stroke-linecap:square;stroke-width:2.0;"/>
   </g>
   <g id="line2d_78">
    <path clip-path="url(#p242df203d2)" d="M 226.08 199.531107 
L 232.3008 196.946229 
L 237.1392 195.174751 
L 241.2864 193.888637 
L 245.4336 192.861135 
L 248.8896 192.226664 
L 252.3456 191.809259 
L 255.8016 191.618292 
L 259.2576 191.658052 
L 262.7136 191.927647 
L 266.1696 192.421022 
L 269.6256 193.127096 
L 273.7728 194.232506 
L 277.92 195.585418 
L 282.7584 197.417926 
L 288.9792 200.050546 
L 304.1856 206.642062 
L 309.024 208.439666 
L 313.1712 209.754163 
L 317.3184 210.814616 
L 320.7744 211.479271 
L 324.2304 211.928618 
L 327.6864 212.152566 
L 331.1424 212.146086 
L 334.5984 211.909324 
L 338.0544 211.447596 
L 341.5104 210.771271 
L 344.9664 209.89554 
L 349.1136 208.609426 
L 353.952 206.837948 
L 359.4816 204.55231 
L 363.6288 202.730439 
L 363.6288 202.730439 
" style="fill:none;stroke:#000000;stroke-linecap:square;stroke-width:2.0;"/>
   </g>
   <g id="line2d_79">
    <path clip-path="url(#p242df203d2)" d="M 226.08 196.63075 
L 232.3008 194.043153 
L 237.1392 192.253508 
L 241.2864 190.941253 
L 245.4336 189.878733 
L 248.8896 189.209108 
L 252.3456 188.751954 
L 255.8016 188.517536 
L 259.2576 188.511121 
L 262.7136 188.732851 
L 266.1696 189.177747 
L 269.6256 189.835817 
L 273.0816 190.692284 
L 277.2288 191.954556 
L 282.0672 193.698193 
L 287.5968 195.953475 
L 307.6416 204.420482 
L 311.7888 205.83241 
L 315.936 207.0129 
L 319.392 207.792076 
L 322.848 208.366388 
L 326.304 208.72294 
L 329.76 208.853724 
L 333.216 208.755802 
L 336.672 208.431374 
L 340.128 207.887726 
L 343.584 207.137067 
L 347.7312 205.987063 
L 351.8784 204.600624 
L 356.7168 202.744412 
L 362.9376 200.107179 
L 363.6288 199.804105 
L 363.6288 199.804105 
" style="fill:none;stroke:#000000;stroke-linecap:square;stroke-width:2.0;"/>
   </g>
   <g id="line2d_80">
    <path clip-path="url(#p242df203d2)" d="M 226.08 193.395199 
L 232.992 190.547674 
L 237.8304 188.782997 
L 241.9776 187.48905 
L 246.1248 186.441353 
L 249.5808 185.78107 
L 253.0368 185.330294 
L 256.4928 185.099147 
L 259.9488 185.092821 
L 263.4048 185.311457 
L 266.8608 185.750146 
L 270.3168 186.399036 
L 274.464 187.434337 
L 278.6112 188.717656 
L 283.4496 190.472623 
L 288.9792 192.722861 
L 306.9504 200.273027 
L 311.7888 201.955135 
L 315.936 203.160019 
L 320.0832 204.104783 
L 323.5392 204.671083 
L 326.9952 205.022661 
L 330.4512 205.15162 
L 333.9072 205.055064 
L 337.3632 204.735162 
L 340.8192 204.199099 
L 344.2752 203.458912 
L 348.4224 202.324952 
L 352.5696 200.957856 
L 357.408 199.12754 
L 363.6288 196.5271 
L 363.6288 196.5271 
" style="fill:none;stroke:#000000;stroke-linecap:square;stroke-width:2.0;"/>
   </g>
   <g id="line2d_81">
    <path clip-path="url(#p242df203d2)" d="M 226.08 189.81291 
L 232.992 186.990229 
L 237.8304 185.224464 
L 241.9776 183.91743 
L 246.1248 182.845859 
L 249.5808 182.157985 
L 253.0368 181.673276 
L 256.4928 181.402615 
L 259.9488 181.352082 
L 263.4048 181.522812 
L 266.8608 181.91097 
L 270.3168 182.507839 
L 274.464 183.480394 
L 278.6112 184.702534 
L 283.4496 186.390734 
L 288.9792 188.574312 
L 309.024 196.772119 
L 313.8624 198.346304 
L 318.0096 199.448111 
L 321.4656 200.164061 
L 324.9216 200.678798 
L 328.3776 200.98076 
L 331.8336 201.063168 
L 335.2896 200.924169 
L 338.7456 200.566886 
L 342.2016 199.999342 
L 345.6576 199.234284 
L 349.8048 198.079976 
L 353.952 196.703502 
L 358.7904 194.876493 
L 363.6288 192.888139 
L 363.6288 192.888139 
" style="fill:none;stroke:#000000;stroke-linecap:square;stroke-width:2.0;"/>
   </g>
   <g id="line2d_82">
    <path clip-path="url(#p242df203d2)" d="M 226.08 185.87386 
L 233.6832 182.827464 
L 238.5216 181.101208 
L 242.6688 179.823419 
L 246.816 178.775824 
L 250.272 178.103342 
L 253.728 177.629478 
L 257.184 177.364874 
L 260.64 177.315471 
L 264.096 177.482381 
L 267.552 177.861854 
L 271.008 178.445368 
L 275.1552 179.396162 
L 279.3024 180.590956 
L 284.1408 182.241382 
L 289.6704 184.376103 
L 309.7152 192.390483 
L 314.5536 193.929445 
L 318.7008 195.006599 
L 322.848 195.823338 
L 326.304 196.285712 
L 329.76 196.538367 
L 333.216 196.575629 
L 336.672 196.396661 
L 340.128 196.005483 
L 343.584 195.410879 
L 347.7312 194.447939 
L 351.8784 193.242635 
L 356.7168 191.582466 
L 362.2464 189.440444 
L 363.6288 188.877575 
L 363.6288 188.877575 
" style="fill:none;stroke:#000000;stroke-linecap:square;stroke-width:2.0;"/>
   </g>
   <g id="line2d_83">
    <path clip-path="url(#p242df203d2)" d="M 226.08 181.569633 
L 234.3744 178.324868 
L 239.2128 176.644934 
L 243.36 175.401433 
L 247.5072 174.381949 
L 251.6544 173.619424 
L 255.1104 173.198319 
L 258.5664 172.982387 
L 262.0224 172.976478 
L 265.4784 173.180723 
L 268.9344 173.590536 
L 272.3904 174.196713 
L 276.5376 175.163866 
L 280.6848 176.362712 
L 285.5232 178.00216 
L 291.744 180.378611 
L 308.3328 186.913936 
L 313.1712 188.520075 
L 317.3184 189.682808 
L 321.4656 190.608088 
L 324.9216 191.175945 
L 328.3776 191.545235 
L 331.8336 191.707666 
L 335.2896 191.659589 
L 338.7456 191.402085 
L 342.2016 190.940936 
L 346.3488 190.133638 
L 350.496 189.07432 
L 354.6432 187.797212 
L 359.4816 186.087375 
L 363.6288 184.487483 
L 363.6288 184.487483 
" style="fill:none;stroke:#000000;stroke-linecap:square;stroke-width:2.0;"/>
   </g>
   <g id="line2d_84">
    <path clip-path="url(#p242df203d2)" d="M 226.08 176.893506 
L 234.3744 173.727195 
L 239.904 171.852083 
L 244.7424 170.467199 
L 248.8896 169.519316 
L 253.0368 168.824852 
L 256.4928 168.456169 
L 259.9488 168.287494 
L 263.4048 168.322613 
L 266.8608 168.560738 
L 270.3168 168.996522 
L 274.464 169.766292 
L 278.6112 170.7815 
L 283.4496 172.231959 
L 288.9792 174.161441 
L 296.5824 177.08952 
L 306.9504 181.066773 
L 312.48 182.932548 
L 317.3184 184.306393 
L 321.4656 185.243061 
L 325.6128 185.925072 
L 329.0688 186.282723 
L 332.5248 186.440034 
L 335.9808 186.393472 
L 339.4368 186.144085 
L 342.8928 185.697472 
L 347.04 184.91562 
L 351.1872 183.889692 
L 356.0256 182.428908 
L 361.5552 180.491049 
L 363.6288 179.711744 
L 363.6288 179.711744 
" style="fill:none;stroke:#000000;stroke-linecap:square;stroke-width:2.0;"/>
   </g>
   <g id="line2d_85">
    <path clip-path="url(#p242df203d2)" d="M 226.08 171.840525 
L 235.0656 168.527327 
L 240.5952 166.720643 
L 245.4336 165.386297 
L 249.5808 164.473004 
L 253.728 163.803883 
L 257.184 163.448655 
L 260.64 163.286135 
L 264.096 163.319972 
L 267.552 163.549408 
L 271.008 163.969289 
L 275.1552 164.710968 
L 279.3024 165.689128 
L 284.1408 167.086657 
L 289.6704 168.945726 
L 297.2736 171.766952 
L 307.6416 175.599064 
L 313.1712 177.396752 
L 318.0096 178.720462 
L 322.1568 179.622948 
L 326.304 180.280072 
L 329.76 180.62467 
L 333.216 180.77624 
L 336.672 180.731378 
L 340.128 180.491092 
L 343.584 180.060777 
L 347.7312 179.307456 
L 351.8784 178.318967 
L 356.7168 176.911491 
L 362.2464 175.04435 
L 363.6288 174.546112 
L 363.6288 174.546112 
" style="fill:none;stroke:#000000;stroke-linecap:square;stroke-width:2.0;"/>
   </g>
   <g id="line2d_86">
    <path clip-path="url(#p242df203d2)" d="M 226.08 166.407569 
L 235.7568 162.981312 
L 241.2864 161.250185 
L 246.1248 159.971643 
L 250.272 159.096546 
L 254.4192 158.455409 
L 258.5664 158.068947 
L 262.0224 157.950708 
L 265.4784 158.020808 
L 269.6256 158.351022 
L 273.7728 158.939286 
L 277.92 159.766591 
L 282.0672 160.806205 
L 286.9056 162.242274 
L 293.1264 164.343227 
L 311.7888 170.863423 
L 316.6272 172.236079 
L 320.7744 173.208337 
L 324.9216 173.958566 
L 329.0688 174.462524 
L 333.216 174.703926 
L 336.672 174.698642 
L 340.128 174.505575 
L 344.2752 174.032417 
L 348.4224 173.310601 
L 352.5696 172.363452 
L 357.408 171.014838 
L 362.9376 169.225784 
L 363.6288 168.988276 
L 363.6288 168.988276 
" style="fill:none;stroke:#000000;stroke-linecap:square;stroke-width:2.0;"/>
   </g>
   <g id="line2d_87">
    <path clip-path="url(#p242df203d2)" d="M 226.08 160.593408 
L 237.1392 156.872458 
L 242.6688 155.253545 
L 247.5072 154.07088 
L 251.6544 153.272884 
L 255.8016 152.701521 
L 259.9488 152.375254 
L 264.096 152.304625 
L 268.2432 152.491916 
L 272.3904 152.931076 
L 276.5376 153.607914 
L 280.6848 154.50056 
L 285.5232 155.77591 
L 291.0528 157.472453 
L 299.3472 160.286659 
L 309.024 163.544127 
L 314.5536 165.184654 
L 319.392 166.392639 
L 323.5392 167.216227 
L 327.6864 167.815902 
L 331.8336 168.172287 
L 335.9808 168.273867 
L 340.128 168.11736 
L 344.2752 167.707822 
L 348.4224 167.058487 
L 352.5696 166.190337 
L 357.408 164.938713 
L 362.9376 163.261636 
L 363.6288 163.037909 
L 363.6288 163.037909 
" style="fill:none;stroke:#000000;stroke-linecap:square;stroke-width:2.0;"/>
   </g>
   <g id="line2d_88">
    <path clip-path="url(#p242df203d2)" d="M 226.08 154.398752 
L 237.8304 150.652022 
L 243.36 149.120399 
L 248.1984 148.001501 
L 252.3456 147.246531 
L 256.4928 146.705975 
L 260.64 146.397299 
L 264.7872 146.330478 
L 268.9344 146.507671 
L 273.0816 146.923153 
L 277.2288 147.563497 
L 282.0672 148.566788 
L 286.9056 149.803626 
L 293.1264 151.648611 
L 315.2448 158.516041 
L 320.0832 159.658894 
L 324.2304 160.438075 
L 328.3776 161.005417 
L 332.5248 161.342587 
L 336.672 161.43869 
L 340.8192 161.290621 
L 344.9664 160.903165 
L 349.1136 160.288841 
L 353.2608 159.467499 
L 358.0992 158.283361 
L 363.6288 156.696709 
L 363.6288 156.696709 
" style="fill:none;stroke:#000000;stroke-linecap:square;stroke-width:2.0;"/>
   </g>
   <g id="line2d_89">
    <path clip-path="url(#p242df203d2)" d="M 226.08 147.826291 
L 239.2128 143.904601 
L 244.7424 142.494101 
L 249.5808 141.475451 
L 254.4192 140.705207 
L 258.5664 140.268691 
L 262.7136 140.053848 
L 266.8608 140.067622 
L 271.008 140.309567 
L 275.1552 140.771865 
L 279.3024 141.439578 
L 284.1408 142.449076 
L 289.6704 143.851558 
L 296.5824 145.858341 
L 312.48 150.593764 
L 318.0096 151.966835 
L 322.848 152.9431 
L 326.9952 153.577904 
L 331.1424 154.004326 
L 335.2896 154.208588 
L 339.4368 154.184089 
L 343.584 153.931622 
L 347.7312 153.459343 
L 351.8784 152.782514 
L 356.7168 151.763864 
L 362.2464 150.353365 
L 363.6288 149.96843 
L 363.6288 149.96843 
" style="fill:none;stroke:#000000;stroke-linecap:square;stroke-width:2.0;"/>
   </g>
   <g id="line2d_90">
    <path clip-path="url(#p242df203d2)" d="M 226.08 140.880716 
L 240.5952 136.85676 
L 246.1248 135.570417 
L 250.9632 134.6526 
L 255.8016 133.971251 
L 259.9488 133.59845 
L 264.096 133.433613 
L 268.2432 133.482064 
L 272.3904 133.74224 
L 276.5376 134.205733 
L 281.376 134.98312 
L 286.2144 135.982452 
L 292.4352 137.521832 
L 301.4208 140.034426 
L 311.7888 142.909032 
L 318.0096 144.392175 
L 322.848 145.332182 
L 327.6864 146.039414 
L 331.8336 146.436482 
L 335.9808 146.626683 
L 340.128 146.603871 
L 344.2752 146.368783 
L 348.4224 145.929015 
L 353.2608 145.176566 
L 358.0992 144.19818 
L 363.6288 142.858899 
L 363.6288 142.858899 
" style="fill:none;stroke:#000000;stroke-linecap:square;stroke-width:2.0;"/>
   </g>
   <g id="line2d_91">
    <path clip-path="url(#p242df203d2)" d="M 226.08 133.568745 
L 241.9776 129.518247 
L 247.5072 128.358097 
L 252.3456 127.540836 
L 257.184 126.946191 
L 262.0224 126.60029 
L 266.1696 126.513615 
L 270.3168 126.623847 
L 275.1552 126.996218 
L 279.9936 127.615135 
L 284.832 128.453404 
L 290.3616 129.632388 
L 297.2736 131.33703 
L 315.2448 135.89602 
L 320.7744 137.021338 
L 325.6128 137.800298 
L 330.4512 138.351093 
L 335.2896 138.649521 
L 339.4368 138.694199 
L 343.584 138.542198 
L 348.4224 138.123182 
L 353.2608 137.461813 
L 358.0992 136.587151 
L 363.6288 135.376028 
L 363.6288 135.376028 
" style="fill:none;stroke:#000000;stroke-linecap:square;stroke-width:2.0;"/>
   </g>
   <g id="line2d_92">
    <path clip-path="url(#p242df203d2)" d="M 226.08 125.899122 
L 243.36 121.900143 
L 249.5808 120.753107 
L 255.1104 119.981128 
L 259.9488 119.533874 
L 264.7872 119.320579 
L 269.6256 119.350616 
L 274.464 119.622664 
L 279.3024 120.12477 
L 284.1408 120.834872 
L 289.6704 121.860715 
L 296.5824 123.376801 
L 318.0096 128.264756 
L 323.5392 129.21035 
L 328.3776 129.834626 
L 333.216 130.240266 
L 338.0544 130.409445 
L 342.8928 130.334731 
L 347.7312 130.019406 
L 352.5696 129.477326 
L 358.0992 128.611119 
L 363.6288 127.529802 
L 363.6288 127.529802 
" style="fill:none;stroke:#000000;stroke-linecap:square;stroke-width:2.0;"/>
   </g>
   <g id="line2d_93">
    <path clip-path="url(#p242df203d2)" d="M 226.08 117.882617 
L 244.7424 114.014832 
L 250.9632 113.009889 
L 256.4928 112.345338 
L 261.3312 111.972396 
L 266.1696 111.811586 
L 271.008 111.869974 
L 275.8464 112.144994 
L 280.6848 112.624562 
L 286.2144 113.395699 
L 292.4352 114.493858 
L 300.7296 116.202422 
L 315.936 119.368381 
L 322.1568 120.418049 
L 327.6864 121.132988 
L 332.5248 121.555885 
L 337.3632 121.769833 
L 342.2016 121.765432 
L 347.04 121.542875 
L 351.8784 121.11194 
L 357.408 120.388967 
L 363.6288 119.332273 
L 363.6288 119.332273 
" style="fill:none;stroke:#000000;stroke-linecap:square;stroke-width:2.0;"/>
   </g>
   <g id="line2d_94">
    <path clip-path="url(#p242df203d2)" d="M 226.08 109.532007 
L 246.816 105.769484 
L 253.0368 104.930239 
L 258.5664 104.39665 
L 264.096 104.095224 
L 269.6256 104.04324 
L 275.1552 104.243678 
L 280.6848 104.685048 
L 286.2144 105.342048 
L 293.1264 106.408146 
L 302.112 108.049894 
L 316.6272 110.716304 
L 323.5392 111.733873 
L 329.0688 112.340046 
L 334.5984 112.723034 
L 340.128 112.860884 
L 345.6576 112.745692 
L 351.1872 112.384062 
L 356.7168 111.796725 
L 362.9376 110.908545 
L 363.6288 110.797526 
L 363.6288 110.797526 
" style="fill:none;stroke:#000000;stroke-linecap:square;stroke-width:2.0;"/>
   </g>
   <g id="line2d_95">
    <path clip-path="url(#p242df203d2)" d="M 226.08 100.862052 
L 248.8896 97.320654 
L 255.1104 96.63997 
L 261.3312 96.189208 
L 266.8608 96.008374 
L 272.3904 96.045644 
L 277.92 96.298881 
L 284.1408 96.823389 
L 291.0528 97.658045 
L 299.3472 98.905881 
L 320.0832 102.153217 
L 326.9952 102.939745 
L 333.216 103.410336 
L 338.7456 103.610467 
L 344.2752 103.59292 
L 349.8048 103.358699 
L 356.0256 102.853388 
L 362.2464 102.127785 
L 363.6288 101.941644 
L 363.6288 101.941644 
" style="fill:none;stroke:#000000;stroke-linecap:square;stroke-width:2.0;"/>
   </g>
   <g id="line2d_96">
    <path clip-path="url(#p242df203d2)" d="M 226.08 91.889451 
L 250.9632 88.682938 
L 257.8752 88.104039 
L 264.096 87.796839 
L 270.3168 87.715715 
L 276.5376 87.866547 
L 282.7584 88.238404 
L 289.6704 88.877544 
L 297.9648 89.87874 
L 323.5392 93.170167 
L 330.4512 93.742632 
L 336.672 94.043046 
L 342.8928 94.116949 
L 349.1136 93.958984 
L 355.3344 93.580598 
L 362.2464 92.935486 
L 363.6288 92.78266 
L 363.6288 92.78266 
" style="fill:none;stroke:#000000;stroke-linecap:square;stroke-width:2.0;"/>
   </g>
   <g id="line2d_97">
    <path clip-path="url(#p242df203d2)" d="M 226.08 82.632797 
L 253.0368 79.871337 
L 260.64 79.411263 
L 267.552 79.213743 
L 274.464 79.245173 
L 281.376 79.502746 
L 288.9792 80.019252 
L 297.9648 80.868491 
L 326.304 83.747559 
L 333.9072 84.179986 
L 340.8192 84.348759 
L 347.7312 84.287786 
L 354.6432 84.002514 
L 362.2464 83.460612 
L 363.6288 83.340491 
L 363.6288 83.340491 
" style="fill:none;stroke:#000000;stroke-linecap:square;stroke-width:2.0;"/>
   </g>
   <g id="line2d_98">
    <path clip-path="url(#p242df203d2)" d="M 226.08 73.112514 
L 255.8016 70.865321 
L 264.096 70.550775 
L 271.6992 70.471711 
L 279.3024 70.602127 
L 287.5968 70.966194 
L 297.2736 71.620679 
L 329.76 74.03707 
L 338.0544 74.308469 
L 345.6576 74.344061 
L 353.2608 74.171246 
L 361.5552 73.767514 
L 363.6288 73.636868 
L 363.6288 73.636868 
" style="fill:none;stroke:#000000;stroke-linecap:square;stroke-width:2.0;"/>
   </g>
   <g id="line2d_99">
    <path clip-path="url(#p242df203d2)" d="M 226.08 63.350783 
L 259.2576 61.724957 
L 268.9344 61.554944 
L 278.6112 61.60946 
L 288.9792 61.90548 
L 301.4208 62.500053 
L 328.3776 63.864557 
L 338.7456 64.114567 
L 348.4224 64.120416 
L 358.0992 63.904858 
L 363.6288 63.695256 
L 363.6288 63.695256 
" style="fill:none;stroke:#000000;stroke-linecap:square;stroke-width:2.0;"/>
   </g>
   <g id="line2d_100">
    <path clip-path="url(#p242df203d2)" d="M 226.08 53.371465 
L 264.096 52.489299 
L 277.92 52.470375 
L 292.4352 52.686626 
L 316.6272 53.330355 
L 334.5984 53.692551 
L 348.4224 53.742735 
L 362.2464 53.568749 
L 363.6288 53.540755 
L 363.6288 53.540755 
" style="fill:none;stroke:#000000;stroke-linecap:square;stroke-width:2.0;"/>
   </g>
  </g>
 </g>
 <defs>
  <clipPath id="p242df203d2">
   <rect height="345.6" width="138.24" x="226.08" y="43.2"/>
  </clipPath>
 </defs>
</svg>
