<?xml version="1.0" encoding="utf-8" standalone="no"?>
<!DOCTYPE svg PUBLIC "-//W3C//DTD SVG 1.1//EN"
  "http://www.w3.org/Graphics/SVG/1.1/DTD/svg11.dtd">
<!-- Created with matplotlib (http://matplotlib.org/) -->
<svg height="432pt" version="1.1" viewBox="0 0 576 432" width="576pt" xmlns="http://www.w3.org/2000/svg" xmlns:xlink="http://www.w3.org/1999/xlink">
 <defs>
  <style type="text/css">
*{stroke-linecap:butt;stroke-linejoin:round;stroke-miterlimit:100000;}
  </style>
 </defs>
 <g id="figure_1">
  <g id="axes_1">
   <g id="line2d_1">
    <path clip-path="url(#p19eea8561e)" d="M 72 271.8 
L 516.168 271.8 
L 516.168 271.8 
" style="fill:none;stroke:#000000;stroke-linecap:square;stroke-width:2.0;"/>
   </g>
   <g id="line2d_2">
    <path clip-path="url(#p19eea8561e)" d="M 72 272.828293 
L 107.712 271.90393 
L 170.208 270.251632 
L 199.224 269.735702 
L 223.776 269.514669 
L 248.328 269.517572 
L 272.88 269.744098 
L 299.664 270.216938 
L 333.144 271.046101 
L 411.264 273.080742 
L 438.048 273.507244 
L 462.6 273.683038 
L 487.152 273.632938 
L 511.704 273.362349 
L 516.168 273.291388 
L 516.168 273.291388 
" style="fill:none;stroke:#000000;stroke-linecap:square;stroke-width:2.0;"/>
   </g>
   <g id="line2d_3">
    <path clip-path="url(#p19eea8561e)" d="M 72 273.533503 
L 96.552 272.320504 
L 176.904 268.100506 
L 196.992 267.38519 
L 214.848 266.965648 
L 232.704 266.775123 
L 250.56 266.824537 
L 268.416 267.111055 
L 286.272 267.618255 
L 306.36 268.415995 
L 330.912 269.634456 
L 411.264 273.846743 
L 431.352 274.554684 
L 449.208 274.966536 
L 467.064 275.148761 
L 484.92 275.090914 
L 502.776 274.79631 
L 516.168 274.429657 
L 516.168 274.429657 
" style="fill:none;stroke:#000000;stroke-linecap:square;stroke-width:2.0;"/>
   </g>
   <g id="line2d_4">
    <path clip-path="url(#p19eea8561e)" d="M 72 273.911275 
L 89.856 272.64671 
L 114.408 270.66896 
L 159.048 267.020958 
L 179.136 265.641663 
L 194.76 264.778722 
L 210.384 264.141589 
L 223.776 263.796716 
L 237.168 263.649636 
L 250.56 263.705101 
L 263.952 263.961319 
L 279.576 264.502575 
L 295.2 265.281773 
L 313.056 266.419299 
L 333.144 267.935019 
L 371.088 271.09294 
L 395.64 273.026458 
L 413.496 274.232661 
L 429.12 275.08723 
L 444.744 275.714669 
L 458.136 276.050503 
L 471.528 276.188178 
L 484.92 276.123246 
L 498.312 275.857803 
L 513.936 275.30649 
L 516.168 275.207703 
L 516.168 275.207703 
" style="fill:none;stroke:#000000;stroke-linecap:square;stroke-width:2.0;"/>
   </g>
   <g id="line2d_5">
    <path clip-path="url(#p19eea8561e)" d="M 72 273.959672 
L 87.624 272.534176 
L 107.712 270.44869 
L 167.976 263.976494 
L 183.6 262.613944 
L 196.992 261.648843 
L 210.384 260.904138 
L 223.776 260.40389 
L 237.168 260.164265 
L 248.328 260.16951 
L 261.72 260.421547 
L 275.112 260.933637 
L 288.504 261.689231 
L 301.896 262.663915 
L 317.52 264.035586 
L 335.376 265.837836 
L 364.392 269.03867 
L 391.176 271.928411 
L 409.032 273.629559 
L 424.656 274.878366 
L 438.048 275.726405 
L 451.44 276.339956 
L 464.832 276.699193 
L 475.992 276.795659 
L 487.152 276.705138 
L 500.544 276.352847 
L 513.936 275.745825 
L 516.168 275.621152 
L 516.168 275.621152 
" style="fill:none;stroke:#000000;stroke-linecap:square;stroke-width:2.0;"/>
   </g>
   <g id="line2d_6">
    <path clip-path="url(#p19eea8561e)" d="M 72 273.679214 
L 85.392 272.210029 
L 101.016 270.271646 
L 123.336 267.247436 
L 156.816 262.693668 
L 172.44 260.785327 
L 185.832 259.351005 
L 199.224 258.151791 
L 210.384 257.360256 
L 221.544 256.776835 
L 232.704 256.414627 
L 243.864 256.281769 
L 255.024 256.381244 
L 266.184 256.710818 
L 277.344 257.263089 
L 288.504 258.025655 
L 301.896 259.193899 
L 315.288 260.602327 
L 330.912 262.487981 
L 351 265.167044 
L 393.408 270.924972 
L 409.032 272.792349 
L 422.424 274.180158 
L 435.816 275.323907 
L 446.976 276.063667 
L 458.136 276.591501 
L 469.296 276.895555 
L 480.456 276.969001 
L 491.616 276.810189 
L 502.776 276.422686 
L 513.936 275.815194 
L 516.168 275.668413 
L 516.168 275.668413 
" style="fill:none;stroke:#000000;stroke-linecap:square;stroke-width:2.0;"/>
   </g>
   <g id="line2d_7">
    <path clip-path="url(#p19eea8561e)" d="M 72 273.072899 
L 85.392 271.364225 
L 98.784 269.430684 
L 116.64 266.611619 
L 163.512 259.044246 
L 176.904 257.144017 
L 190.296 255.478412 
L 201.456 254.308734 
L 212.616 253.365798 
L 223.776 252.670781 
L 234.936 252.239293 
L 246.096 252.081022 
L 257.256 252.199524 
L 268.416 252.592138 
L 279.576 253.250045 
L 290.736 254.158471 
L 301.896 255.297014 
L 313.056 256.640106 
L 326.448 258.479067 
L 342.072 260.862002 
L 366.624 264.878361 
L 391.176 268.843649 
L 406.8 271.142977 
L 420.192 272.881701 
L 431.352 274.123538 
L 442.512 275.14712 
L 453.672 275.929459 
L 464.832 276.452987 
L 475.992 276.705945 
L 487.152 276.682654 
L 498.312 276.383635 
L 509.472 275.815604 
L 516.168 275.350723 
L 516.168 275.350723 
" style="fill:none;stroke:#000000;stroke-linecap:square;stroke-width:2.0;"/>
   </g>
   <g id="line2d_8">
    <path clip-path="url(#p19eea8561e)" d="M 72 272.146216 
L 83.16 270.561473 
L 96.552 268.404141 
L 112.176 265.623717 
L 136.728 260.966644 
L 159.048 256.799735 
L 172.44 254.492381 
L 185.832 252.421848 
L 196.992 250.925858 
L 208.152 249.674559 
L 217.08 248.868784 
L 226.008 248.249302 
L 234.936 247.825025 
L 243.864 247.602055 
L 252.792 247.583598 
L 261.72 247.76992 
L 270.648 248.158341 
L 279.576 248.743275 
L 288.504 249.516309 
L 299.664 250.729933 
L 310.824 252.192648 
L 321.984 253.871605 
L 335.376 256.11841 
L 351 258.96714 
L 400.104 268.129606 
L 413.496 270.316291 
L 424.656 271.931594 
L 435.816 273.319846 
L 446.976 274.449868 
L 455.904 275.150696 
L 464.832 275.659813 
L 473.76 275.969896 
L 482.688 276.076487 
L 491.616 275.97805 
L 500.544 275.676003 
L 509.472 275.174689 
L 516.168 274.672168 
L 516.168 274.672168 
" style="fill:none;stroke:#000000;stroke-linecap:square;stroke-width:2.0;"/>
   </g>
   <g id="line2d_9">
    <path clip-path="url(#p19eea8561e)" d="M 72 270.907143 
L 83.16 269.16349 
L 94.32 267.189267 
L 107.712 264.578581 
L 125.568 260.827561 
L 161.28 253.214839 
L 174.672 250.604152 
L 185.832 248.629929 
L 196.992 246.886277 
L 205.92 245.683876 
L 214.848 244.671512 
L 223.776 243.863746 
L 232.704 243.272194 
L 241.632 242.905366 
L 250.56 242.768537 
L 259.488 242.863674 
L 268.416 243.189411 
L 277.344 243.741062 
L 286.272 244.510692 
L 295.2 245.487232 
L 304.128 246.656637 
L 315.288 248.363742 
L 326.448 250.307394 
L 339.84 252.890243 
L 355.464 256.142634 
L 400.104 265.597108 
L 413.496 268.115487 
L 424.656 269.989768 
L 435.816 271.614923 
L 444.744 272.71094 
L 453.672 273.60827 
L 462.6 274.294009 
L 471.528 274.758292 
L 480.456 274.994442 
L 489.384 274.999064 
L 498.312 274.772089 
L 507.24 274.316783 
L 516.168 273.639694 
L 516.168 273.639694 
" style="fill:none;stroke:#000000;stroke-linecap:square;stroke-width:2.0;"/>
   </g>
   <g id="line2d_10">
    <path clip-path="url(#p19eea8561e)" d="M 72 269.366132 
L 80.928 267.882713 
L 92.088 265.78386 
L 103.248 263.457523 
L 116.64 260.439491 
L 136.728 255.654467 
L 161.28 249.841303 
L 174.672 246.896821 
L 185.832 244.655469 
L 196.992 242.661131 
L 205.92 241.273821 
L 214.848 240.093344 
L 223.776 239.136679 
L 232.704 238.417585 
L 241.632 237.946403 
L 250.56 237.729913 
L 259.488 237.771226 
L 268.416 238.069749 
L 277.344 238.621188 
L 286.272 239.417612 
L 295.2 240.447566 
L 304.128 241.696238 
L 313.056 243.145666 
L 324.216 245.207757 
L 335.376 247.504459 
L 348.768 250.497261 
L 368.856 255.267136 
L 393.408 261.099844 
L 406.8 264.072031 
L 417.96 266.344913 
L 429.12 268.37771 
L 438.048 269.800201 
L 446.976 271.019237 
L 455.904 272.017287 
L 464.832 272.779994 
L 473.76 273.296389 
L 482.688 273.559046 
L 491.616 273.564186 
L 500.544 273.311735 
L 509.472 272.805324 
L 516.168 272.263102 
L 516.168 272.263102 
" style="fill:none;stroke:#000000;stroke-linecap:square;stroke-width:2.0;"/>
   </g>
   <g id="line2d_11">
    <path clip-path="url(#p19eea8561e)" d="M 72 267.536079 
L 80.928 265.960821 
L 89.856 264.186507 
L 101.016 261.727814 
L 114.408 258.497809 
L 130.032 254.476772 
L 165.744 245.188527 
L 179.136 242.003242 
L 190.296 239.594503 
L 199.224 237.867666 
L 208.152 236.345831 
L 217.08 235.050885 
L 226.008 234.001452 
L 234.936 233.212628 
L 243.864 232.695757 
L 252.792 232.458274 
L 261.72 232.503593 
L 270.648 232.831063 
L 279.576 233.435975 
L 288.504 234.309627 
L 297.432 235.439455 
L 306.36 236.809208 
L 315.288 238.399186 
L 324.216 240.18652 
L 335.376 242.658817 
L 348.768 245.900836 
L 366.624 250.517065 
L 397.872 258.654103 
L 411.264 261.871867 
L 422.424 264.316782 
L 431.352 266.07795 
L 440.28 267.638378 
L 449.208 268.975623 
L 458.136 270.070452 
L 467.064 270.907118 
L 475.992 271.473587 
L 484.92 271.761713 
L 493.848 271.767351 
L 502.776 271.490421 
L 511.704 270.934904 
L 516.168 270.555019 
L 516.168 270.555019 
" style="fill:none;stroke:#000000;stroke-linecap:square;stroke-width:2.0;"/>
   </g>
   <g id="line2d_12">
    <path clip-path="url(#p19eea8561e)" d="M 72 265.432285 
L 80.928 263.781929 
L 89.856 261.909261 
L 101.016 259.297102 
L 112.176 256.438533 
L 125.568 252.773683 
L 174.672 239.042369 
L 185.832 236.27494 
L 194.76 234.253051 
L 203.688 232.433554 
L 212.616 230.842619 
L 221.544 229.503127 
L 230.472 228.434345 
L 239.4 227.651644 
L 246.096 227.25929 
L 252.792 227.037454 
L 259.488 226.987929 
L 266.184 227.111118 
L 272.88 227.406023 
L 279.576 227.870257 
L 288.504 228.745947 
L 297.432 229.903237 
L 306.36 231.325481 
L 315.288 232.992224 
L 324.216 234.879494 
L 335.376 237.507073 
L 346.536 240.377598 
L 359.928 244.05185 
L 406.8 257.190465 
L 417.96 259.991858 
L 426.888 262.047157 
L 435.816 263.905092 
L 444.744 265.538943 
L 453.672 266.925209 
L 462.6 268.043953 
L 471.528 268.879083 
L 478.224 269.311926 
L 484.92 269.574889 
L 491.616 269.665844 
L 498.312 269.584054 
L 505.008 269.330181 
L 511.704 268.906281 
L 516.168 268.53086 
L 516.168 268.53086 
" style="fill:none;stroke:#000000;stroke-linecap:square;stroke-width:2.0;"/>
   </g>
   <g id="line2d_13">
    <path clip-path="url(#p19eea8561e)" d="M 72 263.07239 
L 80.928 261.363841 
L 89.856 259.409833 
L 98.784 257.238471 
L 109.944 254.266453 
L 123.336 250.410756 
L 141.192 244.985091 
L 165.744 237.524715 
L 179.136 233.714286 
L 190.296 230.795241 
L 199.224 228.675404 
L 208.152 226.780258 
L 217.08 225.137059 
L 226.008 223.769442 
L 232.704 222.93657 
L 239.4 222.276605 
L 246.096 221.794891 
L 252.792 221.495325 
L 259.488 221.380334 
L 266.184 221.450848 
L 272.88 221.706295 
L 279.576 222.144609 
L 286.272 222.762242 
L 292.968 223.554193 
L 301.896 224.870015 
L 310.824 226.465258 
L 319.752 228.31698 
L 328.68 230.398547 
L 337.608 232.680021 
L 348.768 235.762757 
L 362.16 239.708637 
L 409.032 253.818555 
L 420.192 256.827049 
L 429.12 259.03429 
L 438.048 261.029578 
L 446.976 262.784215 
L 455.904 264.272964 
L 464.832 265.474414 
L 471.528 266.176403 
L 478.224 266.701293 
L 484.92 267.044837 
L 491.616 267.204252 
L 498.312 267.178249 
L 505.008 266.967038 
L 511.704 266.572329 
L 516.168 266.208764 
L 516.168 266.208764 
" style="fill:none;stroke:#000000;stroke-linecap:square;stroke-width:2.0;"/>
   </g>
   <g id="line2d_14">
    <path clip-path="url(#p19eea8561e)" d="M 72 260.476311 
L 80.928 258.726482 
L 89.856 256.708356 
L 98.784 254.45096 
L 107.712 251.98676 
L 118.872 248.669928 
L 132.264 244.441742 
L 174.672 230.793541 
L 185.832 227.524433 
L 194.76 225.108719 
L 203.688 222.908224 
L 212.616 220.954595 
L 221.544 219.275932 
L 228.24 218.212064 
L 234.936 217.325145 
L 241.632 216.622354 
L 248.328 216.10938 
L 255.024 215.790375 
L 261.72 215.667922 
L 268.416 215.743012 
L 275.112 216.015036 
L 281.808 216.481793 
L 288.504 217.139505 
L 295.2 217.982847 
L 301.896 219.004994 
L 310.824 220.631496 
L 319.752 222.537611 
L 328.68 224.695924 
L 337.608 227.075392 
L 348.768 230.308326 
L 362.16 234.47054 
L 382.248 241.009504 
L 402.336 247.480564 
L 413.496 250.872466 
L 424.656 254.021821 
L 433.584 256.318917 
L 442.512 258.382344 
L 451.44 260.182424 
L 460.368 261.693266 
L 467.064 262.623348 
L 473.76 263.37089 
L 480.456 263.929842 
L 487.152 264.295679 
L 493.848 264.465439 
L 500.544 264.437748 
L 507.24 264.212832 
L 513.936 263.792509 
L 516.168 263.609521 
L 516.168 263.609521 
" style="fill:none;stroke:#000000;stroke-linecap:square;stroke-width:2.0;"/>
   </g>
   <g id="line2d_15">
    <path clip-path="url(#p19eea8561e)" d="M 72 257.666149 
L 78.696 256.363719 
L 87.624 254.368783 
L 96.552 252.105115 
L 105.48 249.605274 
L 116.64 246.203411 
L 127.8 242.565316 
L 145.656 236.458291 
L 170.208 228.061033 
L 181.368 224.463792 
L 192.528 221.118544 
L 201.456 218.6745 
L 210.384 216.475106 
L 219.312 214.551996 
L 226.008 213.307774 
L 232.704 212.244682 
L 239.4 211.371324 
L 246.096 210.69477 
L 252.792 210.220496 
L 259.488 209.952341 
L 266.184 209.892476 
L 272.88 210.041386 
L 279.576 210.397865 
L 286.272 210.959027 
L 292.968 211.720331 
L 299.664 212.675613 
L 306.36 213.817142 
L 313.056 215.135676 
L 321.984 217.150423 
L 330.912 219.43174 
L 339.84 221.946816 
L 351 225.363998 
L 364.392 229.763421 
L 384.48 236.675046 
L 404.568 243.514898 
L 415.728 247.100107 
L 426.888 250.428947 
L 435.816 252.856957 
L 444.744 255.037981 
L 453.672 256.940649 
L 460.368 258.168355 
L 467.064 259.214064 
L 473.76 260.069313 
L 480.456 260.727178 
L 487.152 261.182334 
L 493.848 261.431097 
L 500.544 261.471454 
L 507.24 261.303077 
L 513.936 260.92733 
L 516.168 260.756476 
L 516.168 260.756476 
" style="fill:none;stroke:#000000;stroke-linecap:square;stroke-width:2.0;"/>
   </g>
   <g id="line2d_16">
    <path clip-path="url(#p19eea8561e)" d="M 72 254.666096 
L 78.696 253.359698 
L 85.392 251.873695 
L 94.32 249.633958 
L 103.248 247.128676 
L 112.176 244.393881 
L 123.336 240.712827 
L 136.728 236.020342 
L 179.136 220.873425 
L 190.296 217.245336 
L 199.224 214.564352 
L 208.152 212.122218 
L 217.08 209.954061 
L 223.776 208.52666 
L 230.472 207.282555 
L 237.168 206.231818 
L 243.864 205.382953 
L 250.56 204.742832 
L 257.256 204.316636 
L 263.952 204.107815 
L 270.648 204.118058 
L 277.344 204.347285 
L 284.04 204.793638 
L 290.736 205.453505 
L 297.432 206.321544 
L 304.128 207.390729 
L 310.824 208.652406 
L 317.52 210.096362 
L 326.448 212.284779 
L 335.376 214.744834 
L 344.304 217.441144 
L 355.464 221.084408 
L 368.856 225.747759 
L 415.728 242.423257 
L 426.888 245.97878 
L 435.816 248.587359 
L 444.744 250.945446 
L 453.672 253.019125 
L 460.368 254.369634 
L 467.064 255.532362 
L 473.76 256.497897 
L 480.456 257.258424 
L 487.152 257.807787 
L 493.848 258.141539 
L 500.544 258.256978 
L 507.24 258.153171 
L 513.936 257.830956 
L 516.168 257.675417 
L 516.168 257.675417 
" style="fill:none;stroke:#000000;stroke-linecap:square;stroke-width:2.0;"/>
   </g>
   <g id="line2d_17">
    <path clip-path="url(#p19eea8561e)" d="M 72 251.502312 
L 78.696 250.203907 
L 85.392 248.714204 
L 92.088 247.045263 
L 101.016 244.564738 
L 109.944 241.825414 
L 118.872 238.86669 
L 130.032 234.924836 
L 145.656 229.111737 
L 174.672 218.217247 
L 185.832 214.275393 
L 194.76 211.31667 
L 203.688 208.577346 
L 212.616 206.09682 
L 219.312 204.427879 
L 226.008 202.938177 
L 232.704 201.639771 
L 239.4 200.543173 
L 246.096 199.657258 
L 252.792 198.989197 
L 259.488 198.544399 
L 266.184 198.326463 
L 272.88 198.337154 
L 279.576 198.576386 
L 286.272 199.04222 
L 292.968 199.730888 
L 299.664 200.636815 
L 306.36 201.752667 
L 313.056 203.069412 
L 319.752 204.576392 
L 328.68 206.860326 
L 337.608 209.427753 
L 346.536 212.241749 
L 357.696 216.044029 
L 371.088 220.910921 
L 395.64 230.190906 
L 411.264 235.955632 
L 422.424 239.835 
L 431.352 242.727994 
L 440.28 245.388606 
L 449.208 247.77857 
L 455.904 249.372592 
L 462.6 250.782046 
L 469.296 251.995523 
L 475.992 253.0032 
L 482.688 253.796922 
L 489.384 254.370263 
L 496.08 254.718582 
L 502.776 254.83906 
L 509.472 254.730721 
L 516.168 254.394443 
L 516.168 254.394443 
" style="fill:none;stroke:#000000;stroke-linecap:square;stroke-width:2.0;"/>
   </g>
   <g id="line2d_18">
    <path clip-path="url(#p19eea8561e)" d="M 72 248.202807 
L 78.696 246.923911 
L 85.392 245.442654 
L 92.088 243.771026 
L 101.016 241.269649 
L 109.944 238.490032 
L 118.872 235.472152 
L 130.032 231.431146 
L 143.424 226.308457 
L 181.368 211.588844 
L 192.528 207.60162 
L 201.456 204.63936 
L 210.384 201.925701 
L 219.312 199.499675 
L 226.008 197.890074 
L 232.704 196.475018 
L 239.4 195.26596 
L 246.096 194.272688 
L 252.792 193.503241 
L 259.488 192.963848 
L 266.184 192.658875 
L 272.88 192.590791 
L 279.576 192.760146 
L 286.272 193.165571 
L 292.968 193.803782 
L 299.664 194.669614 
L 306.36 195.756059 
L 313.056 197.054323 
L 319.752 198.553896 
L 326.448 200.24264 
L 335.376 202.764731 
L 344.304 205.562387 
L 353.232 208.59537 
L 364.392 212.650797 
L 377.784 217.783845 
L 413.496 231.664159 
L 424.656 235.690457 
L 433.584 238.693022 
L 442.512 241.454405 
L 451.44 243.934889 
L 458.136 245.589284 
L 464.832 247.05212 
L 471.528 248.311557 
L 478.224 249.357401 
L 484.92 250.181184 
L 491.616 250.77624 
L 498.312 251.137752 
L 505.008 251.262793 
L 511.704 251.150351 
L 516.168 250.943825 
L 516.168 250.943825 
" style="fill:none;stroke:#000000;stroke-linecap:square;stroke-width:2.0;"/>
   </g>
   <g id="line2d_19">
    <path clip-path="url(#p19eea8561e)" d="M 72 244.797291 
L 78.696 243.548883 
L 85.392 242.087772 
L 92.088 240.425785 
L 98.784 238.576375 
L 107.712 235.845025 
L 116.64 232.846538 
L 125.568 229.624039 
L 136.728 225.351761 
L 152.352 219.088029 
L 176.904 209.191244 
L 188.064 204.918966 
L 196.992 201.696467 
L 205.92 198.69798 
L 214.848 195.96663 
L 221.544 194.11722 
L 228.24 192.455233 
L 234.936 190.994122 
L 241.632 189.745714 
L 248.328 188.720115 
L 255.024 187.925625 
L 261.72 187.368677 
L 268.416 187.053779 
L 275.112 186.983478 
L 281.808 187.158346 
L 288.504 187.576965 
L 295.2 188.235948 
L 301.896 189.129959 
L 308.592 190.251764 
L 315.288 191.592281 
L 321.984 193.140659 
L 328.68 194.884365 
L 337.608 197.488541 
L 346.536 200.37725 
L 355.464 203.508944 
L 366.624 207.69636 
L 380.016 212.996468 
L 415.728 227.328532 
L 426.888 231.485871 
L 435.816 234.586158 
L 444.744 237.437413 
L 453.672 239.998627 
L 460.368 241.706866 
L 467.064 243.217312 
L 473.76 244.517739 
L 480.456 245.59762 
L 487.152 246.448215 
L 493.848 247.062638 
L 500.544 247.435915 
L 507.24 247.565026 
L 513.936 247.448924 
L 516.168 247.355838 
L 516.168 247.355838 
" style="fill:none;stroke:#000000;stroke-linecap:square;stroke-width:2.0;"/>
   </g>
   <g id="line2d_20">
    <path clip-path="url(#p19eea8561e)" d="M 72 241.317027 
L 78.696 240.109449 
L 85.392 238.679641 
L 92.088 237.039176 
L 98.784 235.201333 
L 107.712 232.469771 
L 116.64 229.453219 
L 125.568 226.195064 
L 136.728 221.854282 
L 150.12 216.38157 
L 183.6 202.56795 
L 194.76 198.280373 
L 203.688 195.07835 
L 212.616 192.129128 
L 219.312 190.108783 
L 226.008 188.27094 
L 232.704 186.630475 
L 239.4 185.200667 
L 246.096 183.993089 
L 252.792 183.017517 
L 259.488 182.281847 
L 266.184 181.792034 
L 272.88 181.552042 
L 279.576 181.563815 
L 286.272 181.827258 
L 292.968 182.340236 
L 299.664 183.0986 
L 306.36 184.096208 
L 313.056 185.324988 
L 319.752 186.774992 
L 326.448 188.434482 
L 333.144 190.290027 
L 342.072 193.042887 
L 351 196.077823 
L 359.928 199.351185 
L 371.088 203.706179 
L 384.48 209.188505 
L 415.728 222.103977 
L 426.888 226.43024 
L 435.816 229.672958 
L 444.744 232.670912 
L 453.672 235.380984 
L 460.368 237.200995 
L 467.064 238.822318 
L 473.76 240.23183 
L 480.456 241.41812 
L 487.152 242.371587 
L 493.848 243.084512 
L 500.544 243.551125 
L 507.24 243.767649 
L 513.936 243.73233 
L 516.168 243.664583 
L 516.168 243.664583 
" style="fill:none;stroke:#000000;stroke-linecap:square;stroke-width:2.0;"/>
   </g>
   <g id="line2d_21">
    <path clip-path="url(#p19eea8561e)" d="M 72 237.794659 
L 78.696 236.637531 
L 85.392 235.249544 
L 92.088 233.641935 
L 98.784 231.827714 
L 105.48 229.821569 
L 114.408 226.876433 
L 123.336 223.661489 
L 132.264 220.222976 
L 143.424 215.686033 
L 161.28 208.117256 
L 181.368 199.624161 
L 192.528 195.133603 
L 201.456 191.74646 
L 210.384 188.594774 
L 219.312 185.723874 
L 226.008 183.779974 
L 232.704 182.033072 
L 239.4 180.49731 
L 246.096 179.185118 
L 252.792 178.107119 
L 259.488 177.272038 
L 266.184 176.686634 
L 272.88 176.355647 
L 279.576 176.281755 
L 286.272 176.465556 
L 292.968 176.905563 
L 299.664 177.598215 
L 306.36 178.537904 
L 313.056 179.717024 
L 319.752 181.12603 
L 326.448 182.753518 
L 333.144 184.586314 
L 339.84 186.609581 
L 348.768 189.575049 
L 357.696 192.807204 
L 366.624 196.259559 
L 377.784 200.808771 
L 395.64 208.384954 
L 415.728 216.86805 
L 426.888 221.344881 
L 435.816 224.71708 
L 444.744 227.850527 
L 453.672 230.700156 
L 460.368 232.626297 
L 467.064 234.354048 
L 473.76 235.869424 
L 480.456 237.16016 
L 487.152 238.215807 
L 493.848 239.02782 
L 500.544 239.589626 
L 507.24 239.896678 
L 513.936 239.946491 
L 516.168 239.905801 
L 516.168 239.905801 
" style="fill:none;stroke:#000000;stroke-linecap:square;stroke-width:2.0;"/>
   </g>
   <g id="line2d_22">
    <path clip-path="url(#p19eea8561e)" d="M 72 234.264037 
L 78.696 233.166171 
L 85.392 231.829798 
L 92.088 230.265734 
L 98.784 228.486639 
L 105.48 226.506916 
L 112.176 224.342587 
L 121.104 221.200132 
L 130.032 217.805989 
L 141.192 213.284033 
L 154.584 207.582902 
L 185.832 194.117677 
L 196.992 189.595721 
L 205.92 186.201578 
L 214.848 183.059123 
L 221.544 180.894795 
L 228.24 178.915071 
L 234.936 177.135976 
L 241.632 175.571912 
L 248.328 174.235539 
L 255.024 173.137673 
L 261.72 172.287203 
L 268.416 171.691011 
L 275.112 171.353924 
L 281.808 171.27867 
L 288.504 171.465859 
L 295.2 171.913975 
L 301.896 172.619391 
L 308.592 173.576397 
L 315.288 174.777246 
L 321.984 176.212219 
L 328.68 177.869699 
L 335.376 179.736271 
L 342.072 181.796824 
L 351 184.816941 
L 359.928 188.10866 
L 368.856 191.624638 
L 380.016 196.257685 
L 397.872 203.973487 
L 417.96 212.612915 
L 429.12 217.172248 
L 438.048 220.606591 
L 446.976 223.797783 
L 455.904 226.699927 
L 462.6 228.661564 
L 469.296 230.421155 
L 475.992 231.964457 
L 482.688 233.278979 
L 489.384 234.35408 
L 496.08 235.181058 
L 502.776 235.753218 
L 509.472 236.065928 
L 516.168 236.116659 
L 516.168 236.116659 
" style="fill:none;stroke:#000000;stroke-linecap:square;stroke-width:2.0;"/>
   </g>
   <g id="line2d_23">
    <path clip-path="url(#p19eea8561e)" d="M 72 230.760024 
L 78.696 229.729354 
L 85.392 228.453577 
L 92.088 226.943018 
L 98.784 225.209904 
L 105.48 223.268266 
L 112.176 221.133819 
L 121.104 218.018034 
L 130.032 214.635171 
L 138.96 211.033885 
L 150.12 206.304266 
L 170.208 197.476615 
L 185.832 190.67666 
L 196.992 186.038642 
L 205.92 182.540272 
L 214.848 179.28509 
L 223.776 176.319916 
L 230.472 174.312182 
L 237.168 172.507916 
L 243.864 170.921722 
L 250.56 169.566441 
L 257.256 168.453043 
L 263.952 167.590539 
L 270.648 166.985912 
L 277.344 166.644055 
L 284.04 166.567737 
L 290.736 166.757574 
L 297.432 167.21203 
L 304.128 167.927427 
L 310.824 168.897973 
L 317.52 170.115813 
L 324.216 171.571088 
L 330.912 173.25202 
L 337.608 175.145001 
L 344.304 177.234708 
L 353.232 180.297555 
L 362.16 183.635848 
L 371.088 187.201572 
L 382.248 191.90017 
L 400.104 199.725139 
L 420.192 208.486803 
L 431.352 213.110644 
L 440.28 216.593578 
L 449.208 219.829922 
L 458.136 222.773127 
L 464.832 224.762518 
L 471.528 226.547004 
L 478.224 228.112143 
L 484.92 229.445263 
L 491.616 230.535576 
L 498.312 231.374253 
L 505.008 231.954509 
L 511.704 232.271644 
L 516.168 232.335534 
L 516.168 232.335534 
" style="fill:none;stroke:#000000;stroke-linecap:square;stroke-width:2.0;"/>
   </g>
   <g id="line2d_24">
    <path clip-path="url(#p19eea8561e)" d="M 72 227.318297 
L 78.696 226.36181 
L 85.392 225.154727 
L 92.088 223.70682 
L 98.784 222.029808 
L 105.48 220.137266 
L 112.176 218.044513 
L 121.104 214.972232 
L 130.032 211.618495 
L 138.96 208.031538 
L 150.12 203.29873 
L 165.744 196.39953 
L 188.064 186.543448 
L 199.224 181.859028 
L 208.152 178.325658 
L 217.08 175.03791 
L 226.008 172.04307 
L 232.704 170.015249 
L 239.4 168.192932 
L 246.096 166.59087 
L 252.792 165.222029 
L 259.488 164.097491 
L 266.184 163.226359 
L 272.88 162.615682 
L 279.576 162.270406 
L 286.272 162.193324 
L 292.968 162.38506 
L 299.664 162.844063 
L 306.36 163.566617 
L 313.056 164.546873 
L 319.752 165.776897 
L 326.448 167.246732 
L 333.144 168.944481 
L 339.84 170.8564 
L 346.536 172.967014 
L 355.464 176.060505 
L 364.392 179.432195 
L 373.32 183.033593 
L 384.48 187.779199 
L 402.336 195.682455 
L 422.424 204.531776 
L 433.584 209.201877 
L 442.512 212.719657 
L 451.44 215.988379 
L 458.136 218.24804 
L 464.832 220.322784 
L 471.528 222.195815 
L 478.224 223.851972 
L 484.92 225.27785 
L 491.616 226.461906 
L 498.312 227.394557 
L 505.008 228.068252 
L 511.704 228.477539 
L 516.168 228.601779 
L 516.168 228.601779 
" style="fill:none;stroke:#000000;stroke-linecap:square;stroke-width:2.0;"/>
   </g>
   <g id="line2d_25">
    <path clip-path="url(#p19eea8561e)" d="M 72 223.97514 
L 78.696 223.098816 
L 85.392 221.967577 
L 92.088 220.590579 
L 98.784 218.97897 
L 105.48 217.145794 
L 112.176 215.105889 
L 118.872 212.875768 
L 127.8 209.637786 
L 136.728 206.140466 
L 147.888 201.481049 
L 161.28 195.606612 
L 192.528 181.732063 
L 203.688 177.072646 
L 212.616 173.575326 
L 221.544 170.337344 
L 228.24 168.107224 
L 234.936 166.067319 
L 241.632 164.234143 
L 248.328 162.622533 
L 255.024 161.245536 
L 261.72 160.114297 
L 268.416 159.237973 
L 275.112 158.623658 
L 281.808 158.276324 
L 288.504 158.198782 
L 295.2 158.391662 
L 301.896 158.8534 
L 308.592 159.580259 
L 315.288 160.566357 
L 321.984 161.80371 
L 328.68 163.282304 
L 335.376 164.99017 
L 342.072 166.913482 
L 348.768 169.036674 
L 357.696 172.148598 
L 366.624 175.540381 
L 375.552 179.163239 
L 386.712 183.937124 
L 404.568 191.887476 
L 424.656 200.78953 
L 435.816 205.48746 
L 444.744 209.026203 
L 453.672 212.314403 
L 460.368 214.58753 
L 467.064 216.674637 
L 473.76 218.558829 
L 480.456 220.224856 
L 487.152 221.65923 
L 493.848 222.850342 
L 500.544 223.788551 
L 507.24 224.466261 
L 513.936 224.877987 
L 516.168 224.955482 
L 516.168 224.955482 
" style="fill:none;stroke:#000000;stroke-linecap:square;stroke-width:2.0;"/>
   </g>
   <g id="line2d_26">
    <path clip-path="url(#p19eea8561e)" d="M 72 220.767218 
L 78.696 219.975985 
L 85.392 218.92673 
L 92.088 217.627947 
L 98.784 216.09015 
L 105.48 214.325785 
L 112.176 212.349135 
L 118.872 210.176199 
L 127.8 207.00423 
L 136.728 203.560367 
L 145.656 199.894141 
L 156.816 195.079237 
L 176.904 186.092405 
L 192.528 179.169831 
L 203.688 174.44818 
L 212.616 170.886727 
L 221.544 167.572848 
L 228.24 165.278734 
L 234.936 163.169348 
L 241.632 161.261764 
L 248.328 159.571423 
L 255.024 158.112008 
L 261.72 156.895331 
L 268.416 155.931242 
L 275.112 155.227544 
L 281.808 154.789933 
L 288.504 154.621951 
L 295.2 154.724959 
L 301.896 155.098122 
L 308.592 155.73842 
L 315.288 156.64067 
L 321.984 157.797568 
L 328.68 159.19975 
L 335.376 160.835867 
L 342.072 162.692674 
L 348.768 164.755141 
L 355.464 167.006575 
L 364.392 170.270731 
L 373.32 173.791322 
L 384.48 178.475236 
L 397.872 184.371627 
L 429.12 198.26257 
L 440.28 202.915584 
L 449.208 206.403216 
L 458.136 209.627598 
L 464.832 211.845067 
L 471.528 213.870331 
L 478.224 215.686996 
L 484.92 217.280357 
L 491.616 218.637517 
L 498.312 219.747489 
L 505.008 220.60129 
L 511.704 221.192009 
L 516.168 221.437214 
L 516.168 221.437214 
" style="fill:none;stroke:#000000;stroke-linecap:square;stroke-width:2.0;"/>
   </g>
   <g id="line2d_27">
    <path clip-path="url(#p19eea8561e)" d="M 72 217.731359 
L 78.696 217.02905 
L 85.392 216.066863 
L 92.088 214.852587 
L 98.784 213.396051 
L 105.48 211.709046 
L 112.176 209.805226 
L 118.872 207.700002 
L 127.8 204.609414 
L 136.728 201.235692 
L 145.656 197.62736 
L 156.816 192.866349 
L 172.44 185.926037 
L 194.76 176.011222 
L 205.92 171.298888 
L 214.848 167.744463 
L 223.776 164.437123 
L 232.704 161.424437 
L 239.4 159.384532 
L 246.096 157.551356 
L 252.792 155.939746 
L 259.488 154.562749 
L 266.184 153.43151 
L 272.88 152.555186 
L 279.576 151.940871 
L 286.272 151.593537 
L 292.968 151.515995 
L 299.664 151.708875 
L 306.36 152.170613 
L 313.056 152.897472 
L 319.752 153.88357 
L 326.448 155.120923 
L 333.144 156.599517 
L 339.84 158.307383 
L 346.536 160.230695 
L 353.232 162.353887 
L 362.16 165.465811 
L 371.088 168.857594 
L 380.016 172.480452 
L 391.176 177.254337 
L 409.032 185.204689 
L 429.12 194.106743 
L 440.28 198.804673 
L 449.208 202.343416 
L 458.136 205.631616 
L 464.832 207.904743 
L 471.528 209.99185 
L 478.224 211.876042 
L 484.92 213.542069 
L 491.616 214.976443 
L 498.312 216.167555 
L 505.008 217.105764 
L 511.704 217.783474 
L 516.168 218.087762 
L 516.168 218.087762 
" style="fill:none;stroke:#000000;stroke-linecap:square;stroke-width:2.0;"/>
   </g>
   <g id="line2d_28">
    <path clip-path="url(#p19eea8561e)" d="M 72 214.904317 
L 78.696 214.29364 
L 85.392 213.422508 
L 92.088 212.29797 
L 98.784 210.929129 
L 105.48 209.327067 
L 112.176 207.50475 
L 118.872 205.476929 
L 125.568 203.260019 
L 134.496 200.041218 
L 143.424 196.564615 
L 154.584 191.932799 
L 167.976 186.09316 
L 199.224 172.3008 
L 210.384 167.668984 
L 219.312 164.192381 
L 228.24 160.97358 
L 234.936 158.75667 
L 241.632 156.728849 
L 248.328 154.906532 
L 255.024 153.304469 
L 261.72 151.935629 
L 268.416 150.811091 
L 275.112 149.939959 
L 281.808 149.329282 
L 288.504 148.984006 
L 295.2 148.906924 
L 301.896 149.09866 
L 308.592 149.557663 
L 315.288 150.280217 
L 321.984 151.260473 
L 328.68 152.490497 
L 335.376 153.960332 
L 342.072 155.658081 
L 348.768 157.57 
L 355.464 159.680614 
L 364.392 162.774104 
L 373.32 166.145795 
L 382.248 169.747193 
L 393.408 174.492799 
L 411.264 182.396055 
L 431.352 191.245376 
L 442.512 195.915477 
L 451.44 199.433257 
L 460.368 202.701979 
L 467.064 204.96164 
L 473.76 207.036384 
L 480.456 208.909415 
L 487.152 210.565572 
L 493.848 211.99145 
L 500.544 213.175506 
L 507.24 214.108157 
L 513.936 214.781852 
L 516.168 214.947868 
L 516.168 214.947868 
" style="fill:none;stroke:#000000;stroke-linecap:square;stroke-width:2.0;"/>
   </g>
   <g id="line2d_29">
    <path clip-path="url(#p19eea8561e)" d="M 72 212.322532 
L 78.696 211.805056 
L 85.392 211.027837 
L 92.088 209.997168 
L 98.784 208.72139 
L 105.48 207.210831 
L 112.176 205.477718 
L 118.872 203.53608 
L 125.568 201.401633 
L 134.496 198.285848 
L 143.424 194.902985 
L 152.352 191.301699 
L 163.512 186.57208 
L 183.6 177.744429 
L 199.224 170.944473 
L 210.384 166.306455 
L 219.312 162.808085 
L 228.24 159.552904 
L 237.168 156.58773 
L 243.864 154.579996 
L 250.56 152.77573 
L 257.256 151.189536 
L 263.952 149.834255 
L 270.648 148.720856 
L 277.344 147.858353 
L 284.04 147.253725 
L 290.736 146.911869 
L 297.432 146.835551 
L 304.128 147.025388 
L 310.824 147.479844 
L 317.52 148.195241 
L 324.216 149.165787 
L 330.912 150.383627 
L 337.608 151.838902 
L 344.304 153.519833 
L 351 155.412814 
L 357.696 157.502522 
L 366.624 160.565369 
L 375.552 163.903662 
L 384.48 167.469385 
L 395.64 172.167984 
L 413.496 179.992953 
L 433.584 188.754617 
L 444.744 193.378458 
L 453.672 196.861392 
L 462.6 200.097735 
L 471.528 203.04094 
L 478.224 205.030331 
L 484.92 206.814818 
L 491.616 208.379956 
L 498.312 209.713077 
L 505.008 210.803389 
L 511.704 211.642067 
L 516.168 212.057951 
L 516.168 212.057951 
" style="fill:none;stroke:#000000;stroke-linecap:square;stroke-width:2.0;"/>
   </g>
   <g id="line2d_30">
    <path clip-path="url(#p19eea8561e)" d="M 72 210.021894 
L 78.696 209.598031 
L 85.392 208.916441 
L 92.088 207.98264 
L 98.784 206.804188 
L 105.48 205.390623 
L 112.176 203.753387 
L 118.872 201.905733 
L 125.568 199.862617 
L 134.496 196.863207 
L 143.424 193.589016 
L 152.352 190.087136 
L 163.512 185.466584 
L 179.136 178.731023 
L 201.456 169.108713 
L 212.616 164.535401 
L 221.544 161.085837 
L 230.472 157.87607 
L 239.4 154.952263 
L 246.096 152.972539 
L 252.792 151.193445 
L 259.488 149.629381 
L 266.184 148.293007 
L 272.88 147.195142 
L 279.576 146.344671 
L 286.272 145.74848 
L 292.968 145.411392 
L 299.664 145.336139 
L 306.36 145.523328 
L 313.056 145.971444 
L 319.752 146.67686 
L 326.448 147.633866 
L 333.144 148.834715 
L 339.84 150.269688 
L 346.536 151.927168 
L 353.232 153.793739 
L 359.928 155.854293 
L 368.856 158.87441 
L 377.784 162.166129 
L 386.712 165.682107 
L 397.872 170.315154 
L 415.728 178.030955 
L 435.816 186.670383 
L 446.976 191.229716 
L 455.904 194.664059 
L 464.832 197.855252 
L 473.76 200.757396 
L 480.456 202.719032 
L 487.152 204.478623 
L 493.848 206.021926 
L 500.544 207.336448 
L 507.24 208.411549 
L 513.936 209.238526 
L 516.168 209.457831 
L 516.168 209.457831 
" style="fill:none;stroke:#000000;stroke-linecap:square;stroke-width:2.0;"/>
   </g>
   <g id="line2d_31">
    <path clip-path="url(#p19eea8561e)" d="M 72 208.037493 
L 78.696 207.706505 
L 85.392 207.121102 
L 92.088 206.28602 
L 98.784 205.208021 
L 105.48 203.895829 
L 112.176 202.360067 
L 118.872 200.613166 
L 125.568 198.669265 
L 134.496 195.798365 
L 143.424 192.646679 
L 152.352 189.259536 
L 163.512 184.768978 
L 179.136 178.18522 
L 203.688 167.782789 
L 214.848 163.292231 
L 223.776 159.905088 
L 232.704 156.753402 
L 241.632 153.882502 
L 248.328 151.938601 
L 255.024 150.1917 
L 261.72 148.655938 
L 268.416 147.343746 
L 275.112 146.265747 
L 281.808 145.430665 
L 288.504 144.845262 
L 295.2 144.514274 
L 301.896 144.440382 
L 308.592 144.624184 
L 315.288 145.064191 
L 321.984 145.756843 
L 328.68 146.696531 
L 335.376 147.875651 
L 342.072 149.284658 
L 348.768 150.912146 
L 355.464 152.744941 
L 362.16 154.768209 
L 371.088 157.733677 
L 380.016 160.965832 
L 388.944 164.418187 
L 400.104 168.967399 
L 417.96 176.543582 
L 438.048 185.026678 
L 449.208 189.503509 
L 458.136 192.875708 
L 467.064 196.009155 
L 475.992 198.858784 
L 482.688 200.784924 
L 489.384 202.512676 
L 496.08 204.028052 
L 502.776 205.318788 
L 509.472 206.374434 
L 516.168 207.186448 
L 516.168 207.186448 
" style="fill:none;stroke:#000000;stroke-linecap:square;stroke-width:2.0;"/>
   </g>
   <g id="line2d_32">
    <path clip-path="url(#p19eea8561e)" d="M 72 206.403374 
L 78.696 206.163382 
L 85.392 205.673569 
L 92.088 204.937899 
L 98.784 203.962327 
L 105.48 202.754749 
L 112.176 201.324941 
L 118.872 199.684476 
L 125.568 197.846633 
L 134.496 195.115071 
L 143.424 192.098519 
L 152.352 188.840364 
L 163.512 184.499582 
L 176.904 179.026869 
L 210.384 165.21325 
L 221.544 160.925673 
L 230.472 157.72365 
L 239.4 154.774428 
L 246.096 152.754083 
L 252.792 150.91624 
L 259.488 149.275775 
L 266.184 147.845967 
L 272.88 146.638389 
L 279.576 145.662817 
L 286.272 144.927147 
L 292.968 144.437334 
L 299.664 144.197342 
L 306.36 144.209115 
L 313.056 144.472557 
L 319.752 144.985536 
L 326.448 145.743899 
L 333.144 146.741508 
L 339.84 147.970288 
L 346.536 149.420292 
L 353.232 151.079782 
L 359.928 152.935327 
L 368.856 155.688187 
L 377.784 158.723123 
L 386.712 161.996485 
L 397.872 166.351479 
L 411.264 171.833805 
L 442.512 184.749277 
L 453.672 189.07554 
L 462.6 192.318258 
L 471.528 195.316212 
L 480.456 198.026284 
L 487.152 199.846295 
L 493.848 201.467618 
L 500.544 202.87713 
L 507.24 204.06342 
L 513.936 205.016887 
L 516.168 205.281581 
L 516.168 205.281581 
" style="fill:none;stroke:#000000;stroke-linecap:square;stroke-width:2.0;"/>
   </g>
   <g id="line2d_33">
    <path clip-path="url(#p19eea8561e)" d="M 72 205.152293 
L 78.696 205.000299 
L 85.392 204.604337 
L 92.088 203.967611 
L 98.784 203.095277 
L 105.48 201.994395 
L 112.176 200.673877 
L 118.872 199.144411 
L 125.568 197.418377 
L 132.264 195.509747 
L 141.192 192.70777 
L 150.12 189.6491 
L 159.048 186.377728 
L 170.208 182.06132 
L 188.064 174.860449 
L 208.152 166.780191 
L 219.312 162.507913 
L 228.24 159.285414 
L 237.168 156.286926 
L 246.096 153.555577 
L 252.792 151.706166 
L 259.488 150.044179 
L 266.184 148.583068 
L 272.88 147.33466 
L 279.576 146.309061 
L 286.272 145.514572 
L 292.968 144.957624 
L 299.664 144.642725 
L 306.36 144.572425 
L 313.056 144.747292 
L 319.752 145.165911 
L 326.448 145.824894 
L 333.144 146.718906 
L 339.84 147.84071 
L 346.536 149.181227 
L 353.232 150.729605 
L 359.928 152.473311 
L 368.856 155.077487 
L 377.784 157.966196 
L 386.712 161.09789 
L 397.872 165.285306 
L 411.264 170.585414 
L 446.976 184.917479 
L 458.136 189.074818 
L 467.064 192.175104 
L 475.992 195.026359 
L 484.92 197.587573 
L 491.616 199.295812 
L 498.312 200.806258 
L 505.008 202.106685 
L 511.704 203.186567 
L 516.168 203.77957 
L 516.168 203.77957 
" style="fill:none;stroke:#000000;stroke-linecap:square;stroke-width:2.0;"/>
   </g>
   <g id="line2d_34">
    <path clip-path="url(#p19eea8561e)" d="M 72 204.315471 
L 78.696 204.247386 
L 85.392 203.942414 
L 92.088 203.403021 
L 98.784 202.633574 
L 105.48 201.640302 
L 112.176 200.431244 
L 118.872 199.016187 
L 125.568 197.406587 
L 132.264 195.61547 
L 141.192 192.970213 
L 150.12 190.066239 
L 159.048 186.945314 
L 170.208 182.807699 
L 185.832 176.741402 
L 210.384 167.156566 
L 221.544 163.018952 
L 230.472 159.898027 
L 239.4 156.994052 
L 248.328 154.348795 
L 255.024 152.557679 
L 261.72 150.948078 
L 268.416 149.533022 
L 275.112 148.323964 
L 281.808 147.330692 
L 288.504 146.561245 
L 295.2 146.021852 
L 301.896 145.716879 
L 308.592 145.648795 
L 315.288 145.81815 
L 321.984 146.223574 
L 328.68 146.861786 
L 335.376 147.727618 
L 342.072 148.814063 
L 348.768 150.112327 
L 355.464 151.611899 
L 362.16 153.300643 
L 371.088 155.822735 
L 380.016 158.620391 
L 388.944 161.653373 
L 400.104 165.708801 
L 413.496 170.841848 
L 449.208 184.722162 
L 460.368 188.748461 
L 469.296 191.751026 
L 478.224 194.512409 
L 487.152 196.992892 
L 493.848 198.647287 
L 500.544 200.110124 
L 507.24 201.369561 
L 513.936 202.415404 
L 516.168 202.715039 
L 516.168 202.715039 
" style="fill:none;stroke:#000000;stroke-linecap:square;stroke-width:2.0;"/>
   </g>
   <g id="line2d_35">
    <path clip-path="url(#p19eea8561e)" d="M 72 203.922351 
L 78.696 203.933042 
L 85.392 203.715106 
L 92.088 203.270308 
L 98.784 202.602248 
L 105.48 201.716333 
L 112.176 200.619734 
L 118.872 199.321329 
L 125.568 197.831626 
L 132.264 196.162685 
L 141.192 193.68216 
L 150.12 190.942836 
L 159.048 187.984112 
L 170.208 184.042258 
L 185.832 178.229159 
L 214.848 167.334669 
L 226.008 163.392815 
L 234.936 160.434091 
L 243.864 157.694768 
L 252.792 155.214242 
L 259.488 153.545301 
L 266.184 152.055598 
L 272.88 150.757193 
L 279.576 149.660595 
L 286.272 148.77468 
L 292.968 148.106619 
L 299.664 147.661821 
L 306.36 147.443885 
L 313.056 147.454576 
L 319.752 147.693807 
L 326.448 148.159642 
L 333.144 148.84831 
L 339.84 149.754237 
L 346.536 150.870089 
L 353.232 152.186834 
L 359.928 153.693813 
L 368.856 155.977747 
L 377.784 158.545175 
L 386.712 161.359171 
L 397.872 165.161451 
L 411.264 170.028343 
L 435.816 179.308328 
L 451.44 185.073054 
L 462.6 188.952422 
L 471.528 191.845415 
L 480.456 194.506028 
L 489.384 196.895992 
L 496.08 198.490014 
L 502.776 199.899468 
L 509.472 201.112945 
L 516.168 202.120622 
L 516.168 202.120622 
" style="fill:none;stroke:#000000;stroke-linecap:square;stroke-width:2.0;"/>
   </g>
   <g id="line2d_36">
    <path clip-path="url(#p19eea8561e)" d="M 72 204.000364 
L 78.696 204.083699 
L 85.392 203.947799 
L 92.088 203.593764 
L 98.784 203.02446 
L 105.48 202.244496 
L 112.176 201.260184 
L 118.872 200.079492 
L 125.568 198.711977 
L 134.496 196.617351 
L 143.424 194.240564 
L 152.352 191.615802 
L 161.28 188.780817 
L 172.44 185.003816 
L 188.064 179.433829 
L 217.08 168.994961 
L 228.24 165.21796 
L 237.168 162.382975 
L 246.096 159.758213 
L 255.024 157.381427 
L 263.952 155.2868 
L 270.648 153.919285 
L 277.344 152.738593 
L 284.04 151.754281 
L 290.736 150.974317 
L 297.432 150.405013 
L 304.128 150.050978 
L 310.824 149.915078 
L 317.52 149.998413 
L 324.216 150.300308 
L 330.912 150.81832 
L 337.608 151.548256 
L 344.304 152.484206 
L 351 153.618596 
L 357.696 154.942242 
L 364.392 156.44443 
L 373.32 158.703868 
L 382.248 161.226445 
L 391.176 163.975881 
L 402.336 167.671185 
L 415.728 172.374424 
L 458.136 187.507384 
L 469.296 191.120042 
L 478.224 193.785512 
L 487.152 196.209551 
L 496.08 198.357296 
L 502.776 199.768042 
L 509.472 200.994485 
L 516.168 202.0267 
L 516.168 202.0267 
" style="fill:none;stroke:#000000;stroke-linecap:square;stroke-width:2.0;"/>
   </g>
   <g id="line2d_37">
    <path clip-path="url(#p19eea8561e)" d="M 72 204.574697 
L 78.696 204.723607 
L 85.392 204.663742 
L 92.088 204.395587 
L 98.784 203.921313 
L 105.48 203.244759 
L 112.176 202.371401 
L 118.872 201.308309 
L 125.568 200.064087 
L 134.496 198.140977 
L 143.424 195.941583 
L 152.352 193.497539 
L 161.28 190.843997 
L 172.44 187.290848 
L 185.832 182.786603 
L 223.776 169.844038 
L 234.936 166.338177 
L 243.864 163.73354 
L 252.792 161.347492 
L 261.72 159.214352 
L 270.648 157.364799 
L 277.344 156.179905 
L 284.04 155.179176 
L 290.736 154.370712 
L 297.432 153.761056 
L 304.128 153.355144 
L 310.824 153.156261 
L 317.52 153.166017 
L 324.216 153.384334 
L 330.912 153.809444 
L 337.608 154.437905 
L 344.304 155.264632 
L 351 156.282931 
L 357.696 157.484561 
L 366.624 159.354899 
L 375.552 161.506803 
L 384.48 163.909322 
L 393.408 166.527903 
L 404.568 170.047336 
L 417.96 174.526732 
L 460.368 188.939466 
L 471.528 192.380186 
L 480.456 194.918797 
L 489.384 197.227468 
L 498.312 199.272995 
L 505.008 200.616599 
L 511.704 201.784672 
L 516.168 202.461141 
L 516.168 202.461141 
" style="fill:none;stroke:#000000;stroke-linecap:square;stroke-width:2.0;"/>
   </g>
   <g id="line2d_38">
    <path clip-path="url(#p19eea8561e)" d="M 72 205.668069 
L 78.696 205.874615 
L 85.392 205.883845 
L 92.088 205.695686 
L 98.784 205.311659 
L 105.48 204.734875 
L 112.176 203.970001 
L 118.872 203.02323 
L 125.568 201.902223 
L 134.496 200.152395 
L 143.424 198.134269 
L 152.352 195.876872 
L 161.28 193.412673 
L 172.44 190.095841 
L 185.832 185.867655 
L 228.24 172.219453 
L 239.4 168.950346 
L 248.328 166.534632 
L 257.256 164.334136 
L 266.184 162.380508 
L 275.112 160.701845 
L 281.808 159.637977 
L 288.504 158.751058 
L 295.2 158.048267 
L 301.896 157.535293 
L 308.592 157.216288 
L 315.288 157.093835 
L 321.984 157.168924 
L 328.68 157.440949 
L 335.376 157.907706 
L 342.072 158.565417 
L 348.768 159.40876 
L 355.464 160.430907 
L 364.392 162.057409 
L 373.32 163.963524 
L 382.248 166.121837 
L 391.176 168.501305 
L 402.336 171.734239 
L 415.728 175.896453 
L 435.816 182.435417 
L 455.904 188.906477 
L 467.064 192.298379 
L 478.224 195.447733 
L 487.152 197.74483 
L 496.08 199.808257 
L 505.008 201.608337 
L 513.936 203.119179 
L 516.168 203.449053 
L 516.168 203.449053 
" style="fill:none;stroke:#000000;stroke-linecap:square;stroke-width:2.0;"/>
   </g>
   <g id="line2d_39">
    <path clip-path="url(#p19eea8561e)" d="M 72 207.300519 
L 78.696 207.555967 
L 85.392 207.62648 
L 92.088 207.511489 
L 98.784 207.211924 
L 105.48 206.730209 
L 112.176 206.070245 
L 118.872 205.237372 
L 127.8 203.869755 
L 136.728 202.226557 
L 145.656 200.33141 
L 154.584 198.211574 
L 165.744 195.292528 
L 176.904 192.135804 
L 192.528 187.45282 
L 226.008 177.282554 
L 237.168 174.12583 
L 248.328 171.206784 
L 257.256 169.086948 
L 266.184 167.191801 
L 275.112 165.548603 
L 284.04 164.180986 
L 290.736 163.348113 
L 297.432 162.688149 
L 304.128 162.206434 
L 310.824 161.906869 
L 317.52 161.791878 
L 324.216 161.862391 
L 330.912 162.117839 
L 337.608 162.556153 
L 344.304 163.173785 
L 351 163.965737 
L 359.928 165.281558 
L 368.856 166.876802 
L 377.784 168.728524 
L 386.712 170.810091 
L 395.64 173.091565 
L 406.8 176.174301 
L 420.192 180.120181 
L 467.064 194.230099 
L 478.224 197.238593 
L 487.152 199.445834 
L 496.08 201.441122 
L 505.008 203.195758 
L 513.936 204.684508 
L 516.168 205.012552 
L 516.168 205.012552 
" style="fill:none;stroke:#000000;stroke-linecap:square;stroke-width:2.0;"/>
   </g>
   <g id="line2d_40">
    <path clip-path="url(#p19eea8561e)" d="M 72 209.489201 
L 78.696 209.784106 
L 85.392 209.907295 
L 92.088 209.857771 
L 98.784 209.635934 
L 105.48 209.24358 
L 114.408 208.460879 
L 123.336 207.392097 
L 132.264 206.052605 
L 141.192 204.46167 
L 150.12 202.642174 
L 159.048 200.620285 
L 170.208 197.852855 
L 183.6 194.262578 
L 201.456 189.210407 
L 226.008 182.263591 
L 239.4 178.715466 
L 250.56 175.997363 
L 259.488 174.023453 
L 268.416 172.258765 
L 277.344 170.728682 
L 286.272 169.455209 
L 295.2 168.456664 
L 304.128 167.747406 
L 310.824 167.411607 
L 317.52 167.247076 
L 324.216 167.255148 
L 330.912 167.435755 
L 337.608 167.787436 
L 346.536 168.517343 
L 355.464 169.535665 
L 364.392 170.827758 
L 373.32 172.375036 
L 382.248 174.155245 
L 391.176 176.142783 
L 402.336 178.874958 
L 415.728 182.435219 
L 433.584 187.469727 
L 460.368 195.048141 
L 473.76 198.583879 
L 484.92 201.287718 
L 493.848 203.247862 
L 502.776 204.996902 
L 511.704 206.509682 
L 516.168 207.170534 
L 516.168 207.170534 
" style="fill:none;stroke:#000000;stroke-linecap:square;stroke-width:2.0;"/>
   </g>
   <g id="line2d_41">
    <path clip-path="url(#p19eea8561e)" d="M 72 212.248195 
L 80.928 212.645625 
L 89.856 212.761702 
L 98.784 212.594758 
L 107.712 212.147192 
L 116.64 211.425443 
L 125.568 210.439891 
L 134.496 209.204711 
L 143.424 207.737668 
L 152.352 206.059863 
L 163.512 203.703245 
L 174.672 201.108137 
L 188.064 197.761561 
L 210.384 191.903764 
L 230.472 186.70694 
L 243.864 183.476934 
L 255.024 181.018242 
L 263.952 179.243928 
L 272.88 177.668669 
L 281.808 176.315122 
L 290.736 175.202755 
L 299.664 174.347565 
L 308.592 173.761854 
L 317.52 173.454045 
L 326.448 173.428565 
L 335.376 173.685782 
L 344.304 174.221994 
L 353.232 175.029491 
L 362.16 176.096659 
L 371.088 177.408147 
L 380.016 178.945094 
L 388.944 180.685395 
L 400.104 183.108354 
L 411.264 185.75534 
L 426.888 189.723565 
L 469.296 200.718305 
L 480.456 203.343054 
L 491.616 205.737404 
L 500.544 207.450654 
L 509.472 208.95727 
L 516.168 209.938472 
L 516.168 209.938472 
" style="fill:none;stroke:#000000;stroke-linecap:square;stroke-width:2.0;"/>
   </g>
   <g id="line2d_42">
    <path clip-path="url(#p19eea8561e)" d="M 72 215.588329 
L 80.928 216.014076 
L 89.856 216.184301 
L 98.784 216.096554 
L 107.712 215.752098 
L 116.64 215.155888 
L 125.568 214.316497 
L 134.496 213.246 
L 143.424 211.959792 
L 152.352 210.476373 
L 163.512 208.37752 
L 174.672 206.051183 
L 188.064 203.033151 
L 208.152 198.248128 
L 232.704 192.434964 
L 246.096 189.490481 
L 257.256 187.249129 
L 268.416 185.254791 
L 277.344 183.867482 
L 286.272 182.687005 
L 295.2 181.73034 
L 304.128 181.011245 
L 313.056 180.540064 
L 321.984 180.323573 
L 330.912 180.364886 
L 339.84 180.663409 
L 348.768 181.214848 
L 357.696 182.011272 
L 366.624 183.041227 
L 375.552 184.289898 
L 384.48 185.739327 
L 395.64 187.801418 
L 406.8 190.09812 
L 420.192 193.090921 
L 440.28 197.860797 
L 464.832 203.693505 
L 478.224 206.665692 
L 489.384 208.938573 
L 500.544 210.971371 
L 509.472 212.393861 
L 516.168 213.328224 
L 516.168 213.328224 
" style="fill:none;stroke:#000000;stroke-linecap:square;stroke-width:2.0;"/>
   </g>
   <g id="line2d_43">
    <path clip-path="url(#p19eea8561e)" d="M 72 219.517017 
L 80.928 219.956501 
L 89.856 220.167318 
L 98.784 220.146435 
L 107.712 219.894152 
L 116.64 219.414098 
L 125.568 218.713178 
L 134.496 217.801472 
L 143.424 216.692094 
L 154.584 215.051954 
L 165.744 213.164908 
L 179.136 210.63454 
L 194.76 207.419999 
L 246.096 196.609637 
L 257.256 194.555343 
L 268.416 192.714452 
L 279.576 191.128307 
L 288.504 190.066958 
L 297.432 189.206835 
L 306.36 188.560308 
L 315.288 188.136676 
L 324.216 187.942033 
L 333.144 187.979177 
L 342.072 188.247574 
L 351 188.743365 
L 359.928 189.459417 
L 368.856 190.385434 
L 377.784 191.508095 
L 388.944 193.163103 
L 400.104 195.062782 
L 413.496 197.60496 
L 429.12 200.828193 
L 478.224 211.195188 
L 491.616 213.669342 
L 502.776 215.496999 
L 513.936 217.067754 
L 516.168 217.347862 
L 516.168 217.347862 
" style="fill:none;stroke:#000000;stroke-linecap:square;stroke-width:2.0;"/>
   </g>
   <g id="line2d_44">
    <path clip-path="url(#p19eea8561e)" d="M 72 224.038114 
L 80.928 224.476299 
L 89.856 224.713511 
L 98.784 224.74634 
L 107.712 224.574312 
L 116.64 224.199901 
L 125.568 223.628493 
L 134.496 222.868307 
L 145.656 221.669506 
L 156.816 220.219932 
L 167.976 218.55214 
L 181.368 216.315772 
L 196.992 213.474725 
L 248.328 203.920406 
L 261.72 201.763074 
L 272.88 200.178331 
L 284.04 198.82546 
L 295.2 197.734844 
L 304.128 197.067847 
L 313.056 196.594085 
L 321.984 196.320373 
L 330.912 196.250648 
L 339.84 196.385912 
L 348.768 196.724219 
L 357.696 197.260705 
L 366.624 197.987653 
L 377.784 199.147997 
L 388.944 200.563353 
L 400.104 202.201934 
L 413.496 204.410771 
L 429.12 207.231168 
L 484.92 217.56647 
L 498.312 219.669115 
L 509.472 221.197683 
L 516.168 222.001519 
L 516.168 222.001519 
" style="fill:none;stroke:#000000;stroke-linecap:square;stroke-width:2.0;"/>
   </g>
   <g id="line2d_45">
    <path clip-path="url(#p19eea8561e)" d="M 72 229.151788 
L 83.16 229.651916 
L 94.32 229.88073 
L 105.48 229.833089 
L 116.64 229.510065 
L 127.8 228.918912 
L 138.96 228.072905 
L 150.12 226.991045 
L 161.28 225.697627 
L 174.672 223.907464 
L 190.296 221.564605 
L 212.616 217.940525 
L 241.632 213.229123 
L 257.256 210.919973 
L 270.648 209.169768 
L 281.808 207.916481 
L 292.968 206.880009 
L 304.128 206.083631 
L 315.288 205.545231 
L 326.448 205.2769 
L 337.608 205.284664 
L 348.768 205.568349 
L 359.928 206.121584 
L 371.088 206.931944 
L 382.248 207.981232 
L 393.408 209.245881 
L 406.8 211.007444 
L 422.424 213.326252 
L 442.512 216.566337 
L 475.992 222.009371 
L 491.616 224.308699 
L 505.008 226.047423 
L 516.168 227.28926 
L 516.168 227.28926 
" style="fill:none;stroke:#000000;stroke-linecap:square;stroke-width:2.0;"/>
   </g>
   <g id="line2d_46">
    <path clip-path="url(#p19eea8561e)" d="M 72 234.854414 
L 83.16 235.318819 
L 94.32 235.556955 
L 105.48 235.563472 
L 116.64 235.338225 
L 127.8 234.886273 
L 138.96 234.217764 
L 150.12 233.347713 
L 163.512 232.06542 
L 176.904 230.562694 
L 192.528 228.596013 
L 217.08 225.2435 
L 246.096 221.310112 
L 261.72 219.401771 
L 275.112 217.967449 
L 288.504 216.768235 
L 299.664 215.9767 
L 310.824 215.393279 
L 321.984 215.031072 
L 333.144 214.898214 
L 344.304 214.997688 
L 355.464 215.327262 
L 366.624 215.879533 
L 377.784 216.642099 
L 391.176 217.810343 
L 404.568 219.218771 
L 420.192 221.104425 
L 440.28 223.783488 
L 482.688 229.541416 
L 498.312 231.408793 
L 511.704 232.796602 
L 516.168 233.20697 
L 516.168 233.20697 
" style="fill:none;stroke:#000000;stroke-linecap:square;stroke-width:2.0;"/>
   </g>
   <g id="line2d_47">
    <path clip-path="url(#p19eea8561e)" d="M 72 241.138482 
L 85.392 241.608157 
L 98.784 241.815829 
L 109.944 241.783645 
L 123.336 241.499813 
L 136.728 240.957478 
L 150.12 240.174166 
L 163.512 239.175186 
L 179.136 237.780535 
L 196.992 235.96031 
L 230.472 232.255525 
L 255.024 229.654931 
L 270.648 228.199872 
L 286.272 226.97768 
L 299.664 226.156466 
L 313.056 225.572533 
L 326.448 225.244749 
L 337.608 225.175166 
L 348.768 225.292535 
L 362.16 225.676151 
L 375.552 226.312568 
L 388.944 227.181223 
L 404.568 228.450352 
L 420.192 229.941344 
L 442.512 232.324783 
L 487.152 237.184254 
L 505.008 238.853464 
L 516.168 239.746272 
L 516.168 239.746272 
" style="fill:none;stroke:#000000;stroke-linecap:square;stroke-width:2.0;"/>
   </g>
   <g id="line2d_48">
    <path clip-path="url(#p19eea8561e)" d="M 72 247.992535 
L 87.624 248.423885 
L 101.016 248.58036 
L 114.408 248.534366 
L 127.8 248.28739 
L 143.424 247.756228 
L 159.048 246.985964 
L 176.904 245.856725 
L 196.992 244.347318 
L 232.704 241.376922 
L 259.488 239.251833 
L 277.344 238.038147 
L 292.968 237.175206 
L 308.592 236.538073 
L 321.984 236.1932 
L 335.376 236.046119 
L 348.768 236.101584 
L 362.16 236.357803 
L 377.784 236.899059 
L 393.408 237.678257 
L 411.264 238.815782 
L 431.352 240.331502 
L 469.296 243.489424 
L 493.848 245.422942 
L 511.704 246.629145 
L 516.168 246.894466 
L 516.168 246.894466 
" style="fill:none;stroke:#000000;stroke-linecap:square;stroke-width:2.0;"/>
   </g>
   <g id="line2d_49">
    <path clip-path="url(#p19eea8561e)" d="M 72 255.40112 
L 89.856 255.744865 
L 107.712 255.85436 
L 125.568 255.723328 
L 143.424 255.359281 
L 161.28 254.783087 
L 181.368 253.922829 
L 208.152 252.533178 
L 270.648 249.186304 
L 290.736 248.371486 
L 308.592 247.84568 
L 326.448 247.538437 
L 344.304 247.46737 
L 362.16 247.636552 
L 380.016 248.036286 
L 400.104 248.732561 
L 422.424 249.75211 
L 453.672 251.442053 
L 496.08 253.737633 
L 516.168 254.634494 
L 516.168 254.634494 
" style="fill:none;stroke:#000000;stroke-linecap:square;stroke-width:2.0;"/>
   </g>
   <g id="line2d_50">
    <path clip-path="url(#p19eea8561e)" d="M 72 263.344769 
L 96.552 263.571295 
L 121.104 263.574198 
L 145.656 263.353165 
L 172.44 262.885266 
L 205.92 262.05982 
L 284.04 260.020637 
L 310.824 259.588936 
L 335.376 259.407533 
L 359.928 259.451841 
L 384.48 259.717079 
L 411.264 260.224187 
L 446.976 261.140131 
L 513.936 262.898504 
L 516.168 262.94493 
L 516.168 262.94493 
" style="fill:none;stroke:#000000;stroke-linecap:square;stroke-width:2.0;"/>
   </g>
  </g>
 </g>
 <defs>
  <clipPath id="p19eea8561e">
   <rect height="156.24" width="446.4" x="72.0" y="137.88"/>
  </clipPath>
 </defs>
</svg>
