<?xml version="1.0" encoding="utf-8" standalone="no"?>
<!DOCTYPE svg PUBLIC "-//W3C//DTD SVG 1.1//EN"
  "http://www.w3.org/Graphics/SVG/1.1/DTD/svg11.dtd">
<!-- Created with matplotlib (http://matplotlib.org/) -->
<svg height="432pt" version="1.1" viewBox="0 0 576 432" width="576pt" xmlns="http://www.w3.org/2000/svg" xmlns:xlink="http://www.w3.org/1999/xlink">
 <defs>
  <style type="text/css">
*{stroke-linecap:butt;stroke-linejoin:round;stroke-miterlimit:100000;}
  </style>
 </defs>
 <g id="figure_1">
  <g id="axes_1">
   <g id="line2d_1">
    <path clip-path="url(#p51829aa8fa)" d="M 72 383.4 
L 517.284 383.4 
L 517.284 383.4 
" style="fill:none;stroke:#000000;stroke-linecap:square;stroke-width:2.0;"/>
   </g>
   <g id="line2d_2">
    <path clip-path="url(#p51829aa8fa)" d="M 72 377.999347 
L 101.016 377.223012 
L 127.8 376.576692 
L 146.772 376.348049 
L 163.512 376.364088 
L 181.368 376.60331 
L 203.688 377.138829 
L 246.096 378.208918 
L 263.952 378.413767 
L 280.692 378.393788 
L 298.548 378.150886 
L 320.868 377.612739 
L 363.276 376.545854 
L 381.132 376.344844 
L 397.872 376.368762 
L 415.728 376.615327 
L 439.164 377.186969 
L 479.34 378.200323 
L 497.196 378.411164 
L 513.936 378.397365 
L 517.284 378.36947 
L 517.284 378.36947 
" style="fill:none;stroke:#000000;stroke-linecap:square;stroke-width:2.0;"/>
   </g>
   <g id="line2d_3">
    <path clip-path="url(#p51829aa8fa)" d="M 72 372.437152 
L 89.856 371.526402 
L 123.336 369.767344 
L 137.844 369.271538 
L 150.12 369.070627 
L 162.396 369.094197 
L 174.672 369.339703 
L 188.064 369.828931 
L 205.92 370.730686 
L 240.516 372.547437 
L 253.908 373.009449 
L 266.184 373.224549 
L 278.46 373.215857 
L 290.736 372.984312 
L 304.128 372.507508 
L 320.868 371.67633 
L 358.812 369.695043 
L 372.204 369.256118 
L 384.48 369.06632 
L 396.756 369.101468 
L 409.032 369.357769 
L 422.424 369.856513 
L 440.28 370.765308 
L 473.76 372.526673 
L 488.268 373.025551 
L 500.544 373.22961 
L 512.82 373.209332 
L 517.284 373.146003 
L 517.284 373.146003 
" style="fill:none;stroke:#000000;stroke-linecap:square;stroke-width:2.0;"/>
   </g>
   <g id="line2d_4">
    <path clip-path="url(#p51829aa8fa)" d="M 72 366.711237 
L 85.392 365.731017 
L 126.684 362.50855 
L 137.844 361.948078 
L 147.888 361.653958 
L 157.932 361.581604 
L 167.976 361.736259 
L 178.02 362.106718 
L 189.18 362.738314 
L 202.572 363.723109 
L 243.864 366.939262 
L 255.024 367.493396 
L 265.068 367.780852 
L 275.112 367.84613 
L 285.156 367.684502 
L 295.2 367.307677 
L 306.36 366.670279 
L 319.752 365.680978 
L 359.928 362.538144 
L 371.088 361.967812 
L 381.132 361.663282 
L 391.176 361.579842 
L 401.22 361.72354 
L 411.264 362.083962 
L 422.424 362.706369 
L 435.816 363.683958 
L 478.224 366.976129 
L 489.384 367.517469 
L 499.428 367.791536 
L 509.472 367.842651 
L 517.284 367.725308 
L 517.284 367.725308 
" style="fill:none;stroke:#000000;stroke-linecap:square;stroke-width:2.0;"/>
   </g>
   <g id="line2d_5">
    <path clip-path="url(#p51829aa8fa)" d="M 72 360.820636 
L 83.16 359.773107 
L 101.016 357.825938 
L 118.872 355.935189 
L 130.032 354.975572 
L 140.076 354.346717 
L 149.004 354.013569 
L 157.932 353.913271 
L 166.86 354.051574 
L 175.788 354.420548 
L 185.832 355.084554 
L 196.992 356.073875 
L 211.5 357.611968 
L 236.052 360.2459 
L 247.212 361.198825 
L 257.256 361.819859 
L 266.184 362.145098 
L 275.112 362.237054 
L 284.04 362.090458 
L 292.968 361.713713 
L 303.012 361.04214 
L 314.172 360.046511 
L 328.68 358.504378 
L 353.232 355.875454 
L 364.392 354.92929 
L 374.436 354.316119 
L 383.364 353.998813 
L 392.292 353.915204 
L 401.22 354.070084 
L 410.148 354.454574 
L 420.192 355.133665 
L 431.352 356.135533 
L 446.976 357.806086 
L 469.296 360.198871 
L 480.456 361.162261 
L 490.5 361.79554 
L 499.428 362.133173 
L 508.356 362.238208 
L 517.284 362.104624 
L 517.284 362.104624 
" style="fill:none;stroke:#000000;stroke-linecap:square;stroke-width:2.0;"/>
   </g>
   <g id="line2d_6">
    <path clip-path="url(#p51829aa8fa)" d="M 72 354.765607 
L 82.044 353.628286 
L 95.436 351.858792 
L 118.872 348.714214 
L 128.916 347.601502 
L 137.844 346.83162 
L 145.656 346.364086 
L 153.468 346.110769 
L 161.28 346.0828 
L 169.092 346.281409 
L 176.904 346.697868 
L 185.832 347.416694 
L 194.76 348.354661 
L 205.92 349.75242 
L 241.632 354.445392 
L 250.56 355.318525 
L 259.488 355.957834 
L 267.3 356.296237 
L 275.112 356.412457 
L 282.924 356.301389 
L 290.736 355.967912 
L 298.548 355.426678 
L 307.476 354.584616 
L 317.52 353.410944 
L 332.028 351.462854 
L 352.116 348.773959 
L 362.16 347.650306 
L 371.088 346.8677 
L 378.9 346.387306 
L 386.712 346.12011 
L 394.524 346.077852 
L 402.336 346.262389 
L 410.148 346.665612 
L 419.076 347.371077 
L 428.004 348.298298 
L 439.164 349.687223 
L 477.108 354.631867 
L 486.036 355.462937 
L 493.848 355.992822 
L 501.66 356.313856 
L 509.472 356.411934 
L 517.284 356.282746 
L 517.284 356.282746 
" style="fill:none;stroke:#000000;stroke-linecap:square;stroke-width:2.0;"/>
   </g>
   <g id="line2d_7">
    <path clip-path="url(#p51829aa8fa)" d="M 72 348.54765 
L 80.928 347.382071 
L 92.088 345.678577 
L 123.336 340.734201 
L 132.264 339.624964 
L 140.076 338.868344 
L 147.888 338.346591 
L 154.584 338.103989 
L 161.28 338.05881 
L 167.976 338.212513 
L 175.788 338.636222 
L 183.6 339.304998 
L 191.412 340.189455 
L 200.34 341.414141 
L 212.616 343.344118 
L 237.168 347.267212 
L 246.096 348.452051 
L 253.908 349.291482 
L 261.72 349.907808 
L 269.532 350.273947 
L 276.228 350.376144 
L 282.924 350.279219 
L 289.62 349.986302 
L 297.432 349.409821 
L 305.244 348.605035 
L 314.172 347.451485 
L 325.332 345.757372 
L 357.696 340.649177 
L 366.624 339.556455 
L 374.436 338.817544 
L 382.248 338.315733 
L 388.944 338.091339 
L 395.64 338.064776 
L 402.336 338.236903 
L 410.148 338.681069 
L 417.96 339.368332 
L 425.772 340.268494 
L 435.816 341.674116 
L 449.208 343.814848 
L 469.296 347.033278 
L 479.34 348.3927 
L 487.152 349.245003 
L 494.964 349.876243 
L 502.776 350.258683 
L 509.472 350.375415 
L 516.168 350.293047 
L 517.284 350.260055 
L 517.284 350.260055 
" style="fill:none;stroke:#000000;stroke-linecap:square;stroke-width:2.0;"/>
   </g>
   <g id="line2d_8">
    <path clip-path="url(#p51829aa8fa)" d="M 72 342.169508 
L 79.812 341.031633 
L 89.856 339.31675 
L 105.48 336.366505 
L 118.872 333.906882 
L 127.8 332.470171 
L 135.612 331.42392 
L 143.424 330.622985 
L 150.12 330.158723 
L 156.816 329.91575 
L 163.512 329.901918 
L 170.208 330.117673 
L 176.904 330.556044 
L 183.6 331.202867 
L 191.412 332.192724 
L 200.34 333.580033 
L 211.5 335.57997 
L 239.4 340.722913 
L 248.328 342.062197 
L 256.14 342.9986 
L 262.836 343.592957 
L 269.532 343.974508 
L 276.228 344.130925 
L 282.924 344.057153 
L 289.62 343.755576 
L 296.316 343.235939 
L 303.012 342.515032 
L 310.824 341.450997 
L 319.752 339.999005 
L 332.028 337.741272 
L 353.232 333.799409 
L 362.16 332.378384 
L 369.972 331.350215 
L 376.668 330.665328 
L 383.364 330.185361 
L 390.06 329.925823 
L 396.756 329.8951 
L 403.452 330.094185 
L 410.148 330.516645 
L 416.844 331.148829 
L 424.656 332.123845 
L 433.584 333.497931 
L 443.628 335.279822 
L 474.876 341.00348 
L 482.688 342.145968 
L 490.5 343.062664 
L 497.196 343.637853 
L 503.892 343.998786 
L 510.588 344.133799 
L 517.284 344.038531 
L 517.284 344.038531 
" style="fill:none;stroke:#000000;stroke-linecap:square;stroke-width:2.0;"/>
   </g>
   <g id="line2d_9">
    <path clip-path="url(#p51829aa8fa)" d="M 72 335.635171 
L 79.812 334.381146 
L 88.74 332.696006 
L 101.016 330.113538 
L 118.872 326.341548 
L 127.8 324.685439 
L 135.612 323.465981 
L 142.308 322.634571 
L 149.004 322.029201 
L 155.7 321.66943 
L 162.396 321.566885 
L 169.092 321.724879 
L 175.788 322.138307 
L 182.484 322.793809 
L 189.18 323.670205 
L 196.992 324.933716 
L 205.92 326.626722 
L 218.196 329.214067 
L 236.052 332.980154 
L 244.98 334.627858 
L 252.792 335.837431 
L 259.488 336.658827 
L 266.184 337.253102 
L 272.88 337.601053 
L 279.576 337.691437 
L 286.272 337.521334 
L 292.968 337.09624 
L 299.664 336.42989 
L 306.36 335.543817 
L 314.172 334.270909 
L 323.1 332.570158 
L 335.376 329.978117 
L 353.232 326.218201 
L 362.16 324.579018 
L 369.972 323.379416 
L 376.668 322.568091 
L 383.364 321.984954 
L 390.06 321.648846 
L 396.756 321.570629 
L 403.452 321.75283 
L 410.148 322.189561 
L 416.844 322.866711 
L 423.54 323.762399 
L 431.352 325.044614 
L 440.28 326.75299 
L 453.672 329.591423 
L 469.296 332.883141 
L 478.224 334.543974 
L 486.036 335.769012 
L 492.732 336.606086 
L 499.428 337.217743 
L 506.124 337.584219 
L 512.82 337.693672 
L 517.284 337.621757 
L 517.284 337.621757 
" style="fill:none;stroke:#000000;stroke-linecap:square;stroke-width:2.0;"/>
   </g>
   <g id="line2d_10">
    <path clip-path="url(#p51829aa8fa)" d="M 72 328.949866 
L 78.696 327.803607 
L 86.508 326.236073 
L 96.552 323.963865 
L 123.336 317.71521 
L 131.148 316.179524 
L 137.844 315.067794 
L 144.54 314.183101 
L 151.236 313.55403 
L 156.816 313.240002 
L 162.396 313.124816 
L 167.976 313.211059 
L 173.556 313.496795 
L 179.136 313.975606 
L 185.832 314.789607 
L 192.528 315.839633 
L 200.34 317.317334 
L 209.268 319.258896 
L 223.776 322.707151 
L 237.168 325.820267 
L 246.096 327.652912 
L 252.792 328.823387 
L 259.488 329.776419 
L 266.184 330.481213 
L 271.764 330.862225 
L 277.344 331.046323 
L 282.924 331.029372 
L 288.504 330.811752 
L 294.084 330.398351 
L 300.78 329.657209 
L 307.476 328.671681 
L 314.172 327.473611 
L 321.984 325.859208 
L 332.028 323.551276 
L 355.464 318.057255 
L 363.276 316.476168 
L 369.972 315.315058 
L 376.668 314.372994 
L 383.364 313.680417 
L 388.944 313.310256 
L 394.524 313.137359 
L 400.104 313.16561 
L 405.684 313.394374 
L 411.264 313.818513 
L 417.96 314.571668 
L 424.656 315.56789 
L 431.352 316.774989 
L 439.164 318.397438 
L 450.324 320.97771 
L 471.528 325.956927 
L 479.34 327.559613 
L 486.036 328.744607 
L 492.732 329.714704 
L 499.428 330.438557 
L 505.008 330.836533 
L 510.588 331.038171 
L 516.168 331.038943 
L 517.284 331.014912 
L 517.284 331.014912 
" style="fill:none;stroke:#000000;stroke-linecap:square;stroke-width:2.0;"/>
   </g>
   <g id="line2d_11">
    <path clip-path="url(#p51829aa8fa)" d="M 72 322.12004 
L 78.696 320.900507 
L 86.508 319.215907 
L 95.436 317.036986 
L 127.8 308.856661 
L 134.496 307.492539 
L 141.192 306.352019 
L 146.772 305.599225 
L 152.352 305.044358 
L 157.932 304.699879 
L 163.512 304.573523 
L 169.092 304.668129 
L 174.672 304.981573 
L 180.252 305.506814 
L 185.832 306.232056 
L 192.528 307.343122 
L 199.224 308.682618 
L 207.036 310.475981 
L 217.08 313.023921 
L 239.4 318.766666 
L 247.212 320.510391 
L 253.908 321.794365 
L 260.604 322.839811 
L 266.184 323.504178 
L 271.764 323.964364 
L 277.344 324.210036 
L 282.924 324.235676 
L 288.504 324.040707 
L 294.084 323.62951 
L 299.664 323.011317 
L 306.36 322.01611 
L 313.056 320.77521 
L 320.868 319.070841 
L 329.796 316.877168 
L 359.928 309.212436 
L 367.74 307.58537 
L 374.436 306.427124 
L 380.016 305.657679 
L 385.596 305.084847 
L 391.176 304.721494 
L 396.756 304.575779 
L 402.336 304.650975 
L 407.916 304.945394 
L 413.496 305.452423 
L 419.076 306.160675 
L 425.772 307.253499 
L 432.468 308.577649 
L 440.28 310.357425 
L 450.324 312.895607 
L 472.644 318.649948 
L 480.456 320.408045 
L 487.152 321.707947 
L 493.848 322.772113 
L 499.428 323.453778 
L 505.008 323.932395 
L 510.588 324.197216 
L 516.168 324.242292 
L 517.284 324.224761 
L 517.284 324.224761 
" style="fill:none;stroke:#000000;stroke-linecap:square;stroke-width:2.0;"/>
   </g>
   <g id="line2d_12">
    <path clip-path="url(#p51829aa8fa)" d="M 72 315.153342 
L 78.696 313.873086 
L 85.392 312.357806 
L 93.204 310.358609 
L 104.364 307.239519 
L 121.104 302.542883 
L 128.916 300.57467 
L 135.612 299.095347 
L 142.308 297.858509 
L 147.888 297.042142 
L 153.468 296.440416 
L 159.048 296.066845 
L 164.628 295.929819 
L 170.208 296.032415 
L 175.788 296.372328 
L 181.368 296.941926 
L 186.948 297.728416 
L 192.528 298.714135 
L 199.224 300.128526 
L 207.036 302.039327 
L 215.964 304.463125 
L 241.632 311.606477 
L 249.444 313.460778 
L 256.14 314.812988 
L 261.72 315.738704 
L 267.3 316.459176 
L 272.88 316.958226 
L 278.46 317.224645 
L 284.04 317.252449 
L 289.62 317.041016 
L 295.2 316.595092 
L 300.78 315.924693 
L 306.36 315.044874 
L 313.056 313.740784 
L 319.752 312.205945 
L 327.564 310.190166 
L 338.724 307.060339 
L 354.348 302.67336 
L 362.16 300.69131 
L 368.856 299.196018 
L 375.552 297.939957 
L 381.132 297.105532 
L 386.712 296.484324 
L 392.292 296.090286 
L 397.872 295.932265 
L 403.452 296.013812 
L 409.032 296.333094 
L 414.612 296.882942 
L 420.192 297.651006 
L 425.772 298.620038 
L 432.468 300.017224 
L 440.28 301.91253 
L 449.208 304.32547 
L 475.992 311.764204 
L 483.804 313.597214 
L 490.5 314.92636 
L 496.08 315.830021 
L 501.66 316.526389 
L 507.24 316.999824 
L 512.82 317.239695 
L 517.284 317.259624 
L 517.284 317.259624 
" style="fill:none;stroke:#000000;stroke-linecap:square;stroke-width:2.0;"/>
   </g>
   <g id="line2d_13">
    <path clip-path="url(#p51829aa8fa)" d="M 72 308.058595 
L 77.58 306.971055 
L 84.276 305.422415 
L 92.088 303.343875 
L 101.016 300.722775 
L 124.452 293.686809 
L 132.264 291.645316 
L 138.96 290.138115 
L 144.54 289.09093 
L 150.12 288.258897 
L 155.7 287.660703 
L 161.28 287.309781 
L 166.86 287.214012 
L 172.44 287.375548 
L 178.02 287.79076 
L 183.6 288.450323 
L 189.18 289.339426 
L 194.76 290.438101 
L 201.456 291.998105 
L 209.268 294.086694 
L 219.312 297.054079 
L 240.516 303.431678 
L 248.328 305.500023 
L 255.024 307.037189 
L 260.604 308.113517 
L 266.184 308.977791 
L 271.764 309.610601 
L 277.344 309.997737 
L 282.924 310.130504 
L 288.504 310.005919 
L 294.084 309.626782 
L 299.664 309.001606 
L 305.244 308.144432 
L 310.824 307.07451 
L 317.52 305.543913 
L 324.216 303.791242 
L 333.144 301.207589 
L 361.044 292.909673 
L 367.74 291.229366 
L 374.436 289.789525 
L 380.016 288.807181 
L 385.596 288.046362 
L 391.176 287.524155 
L 396.756 287.252286 
L 402.336 287.236862 
L 407.916 287.47823 
L 413.496 287.970967 
L 419.076 288.704009 
L 424.656 289.660893 
L 430.236 290.82013 
L 436.932 292.441377 
L 444.744 294.583199 
L 454.788 297.586752 
L 472.644 302.977228 
L 480.456 305.096373 
L 487.152 306.691305 
L 492.732 307.824399 
L 498.312 308.751932 
L 503.892 309.453074 
L 509.472 309.912078 
L 515.052 310.118638 
L 517.284 310.129344 
L 517.284 310.129344 
" style="fill:none;stroke:#000000;stroke-linecap:square;stroke-width:2.0;"/>
   </g>
   <g id="line2d_14">
    <path clip-path="url(#p51829aa8fa)" d="M 72 300.845755 
L 77.58 299.730616 
L 83.16 298.411406 
L 89.856 296.60098 
L 97.668 294.249999 
L 109.944 290.277752 
L 123.336 286.00437 
L 131.148 283.753489 
L 137.844 282.061712 
L 143.424 280.861669 
L 149.004 279.881311 
L 154.584 279.142655 
L 160.164 278.66229 
L 165.744 278.451003 
L 171.324 278.51354 
L 176.904 278.848496 
L 182.484 279.448349 
L 188.064 280.299627 
L 193.644 281.383213 
L 199.224 282.674771 
L 205.92 284.458033 
L 213.732 286.786706 
L 224.892 290.380311 
L 239.4 295.038429 
L 247.212 297.31502 
L 253.908 299.03655 
L 259.488 300.266107 
L 265.068 301.279567 
L 270.648 302.05417 
L 276.228 302.572521 
L 281.808 302.822978 
L 287.388 302.799917 
L 292.968 302.503855 
L 298.548 301.941441 
L 304.128 301.125306 
L 309.708 300.073779 
L 315.288 298.810475 
L 321.984 297.055208 
L 329.796 294.74993 
L 340.956 291.170608 
L 356.58 286.153587 
L 364.392 283.886881 
L 371.088 282.17684 
L 376.668 280.958708 
L 382.248 279.958081 
L 387.828 279.197432 
L 393.408 278.693844 
L 398.988 278.458625 
L 404.568 278.497059 
L 410.148 278.808283 
L 415.728 279.385306 
L 421.308 280.21517 
L 426.888 281.279238 
L 432.468 282.553614 
L 439.164 284.31988 
L 446.976 286.634395 
L 458.136 290.219477 
L 473.76 295.229219 
L 481.572 297.48588 
L 488.268 299.18431 
L 493.848 300.390932 
L 499.428 301.378655 
L 505.008 302.125295 
L 510.588 302.614086 
L 516.168 302.834049 
L 517.284 302.84524 
L 517.284 302.84524 
" style="fill:none;stroke:#000000;stroke-linecap:square;stroke-width:2.0;"/>
   </g>
   <g id="line2d_15">
    <path clip-path="url(#p51829aa8fa)" d="M 72 293.525875 
L 77.58 292.393666 
L 83.16 291.040053 
L 89.856 289.166579 
L 97.668 286.714686 
L 108.828 282.921945 
L 123.336 277.991281 
L 131.148 275.574666 
L 137.844 273.743008 
L 143.424 272.431394 
L 149.004 271.346687 
L 154.584 270.513246 
L 160.164 269.94979 
L 164.628 269.702128 
L 169.092 269.639038 
L 173.556 269.761429 
L 178.02 270.067539 
L 183.6 270.701578 
L 189.18 271.601371 
L 194.76 272.746711 
L 200.34 274.111876 
L 207.036 275.996769 
L 214.848 278.458154 
L 226.008 282.256563 
L 240.516 287.180151 
L 248.328 289.586487 
L 255.024 291.406129 
L 260.604 292.705759 
L 266.184 293.776977 
L 271.764 294.595726 
L 277.344 295.143618 
L 281.808 295.378434 
L 286.272 295.428527 
L 290.736 295.293177 
L 295.2 294.97433 
L 300.78 294.324962 
L 306.36 293.410817 
L 311.94 292.252427 
L 317.52 290.875805 
L 324.216 288.979628 
L 332.028 286.508924 
L 343.188 282.705116 
L 357.696 277.788953 
L 365.508 275.393065 
L 372.204 273.585568 
L 377.784 272.298013 
L 383.364 271.240359 
L 388.944 270.436361 
L 394.524 269.904072 
L 398.988 269.682119 
L 403.452 269.645026 
L 407.916 269.793326 
L 412.38 270.124888 
L 417.96 270.789539 
L 423.54 271.71797 
L 429.12 272.889328 
L 434.7 274.277309 
L 441.396 276.184637 
L 449.208 278.664485 
L 461.484 282.860341 
L 473.76 287.021094 
L 481.572 289.443473 
L 488.268 291.281903 
L 493.848 292.600285 
L 499.428 293.692624 
L 505.008 294.534388 
L 510.588 295.106673 
L 515.052 295.361628 
L 517.284 295.420051 
L 517.284 295.420051 
" style="fill:none;stroke:#000000;stroke-linecap:square;stroke-width:2.0;"/>
   </g>
   <g id="line2d_16">
    <path clip-path="url(#p51829aa8fa)" d="M 72 286.111048 
L 77.58 284.972136 
L 83.16 283.594979 
L 89.856 281.67179 
L 96.552 279.512454 
L 105.48 276.387416 
L 126.684 268.841306 
L 133.38 266.716662 
L 140.076 264.839109 
L 145.656 263.507289 
L 151.236 262.419278 
L 156.816 261.59951 
L 161.28 261.149416 
L 165.744 260.889378 
L 170.208 260.823136 
L 174.672 260.951642 
L 179.136 261.273049 
L 183.6 261.782733 
L 189.18 262.673187 
L 194.76 263.826181 
L 200.34 265.215823 
L 207.036 267.151493 
L 213.732 269.320204 
L 222.66 272.452403 
L 242.748 279.617581 
L 249.444 281.76739 
L 256.14 283.677962 
L 261.72 285.042537 
L 267.3 286.167286 
L 272.88 287.026948 
L 277.344 287.510631 
L 281.808 287.805224 
L 286.272 287.906489 
L 290.736 287.81297 
L 295.2 287.526013 
L 299.664 287.049743 
L 305.244 286.198874 
L 310.824 285.08221 
L 316.404 283.724829 
L 321.984 282.157214 
L 328.68 280.048424 
L 337.608 276.963638 
L 362.16 268.268661 
L 368.856 266.201961 
L 374.436 264.678574 
L 380.016 263.372691 
L 385.596 262.31364 
L 391.176 261.525205 
L 395.64 261.101414 
L 400.104 260.868369 
L 404.568 260.829423 
L 409.032 260.985134 
L 413.496 261.333264 
L 417.96 261.868806 
L 423.54 262.789798 
L 429.12 263.970712 
L 434.7 265.385028 
L 441.396 267.345247 
L 449.208 269.913921 
L 459.252 273.486912 
L 474.876 279.0738 
L 482.688 281.617229 
L 489.384 283.547528 
L 494.964 284.931792 
L 500.544 286.078717 
L 506.124 286.962546 
L 510.588 287.46663 
L 515.052 287.782256 
L 517.284 287.867871 
L 517.284 287.867871 
" style="fill:none;stroke:#000000;stroke-linecap:square;stroke-width:2.0;"/>
   </g>
   <g id="line2d_17">
    <path clip-path="url(#p51829aa8fa)" d="M 72 278.614356 
L 77.58 277.478857 
L 83.16 276.088907 
L 88.74 274.475722 
L 95.436 272.296545 
L 103.248 269.508422 
L 131.148 259.248799 
L 137.844 257.151873 
L 143.424 255.623898 
L 149.004 254.332288 
L 154.584 253.30605 
L 159.048 252.691829 
L 163.512 252.271154 
L 167.976 252.050077 
L 172.44 252.031777 
L 176.904 252.216517 
L 181.368 252.60164 
L 185.832 253.181607 
L 190.296 253.948077 
L 195.876 255.151396 
L 201.456 256.601691 
L 207.036 258.266392 
L 213.732 260.494119 
L 222.66 263.735306 
L 244.98 272.020325 
L 251.676 274.227197 
L 257.256 275.869642 
L 262.836 277.293776 
L 268.416 278.467616 
L 272.88 279.208557 
L 277.344 279.761661 
L 281.808 280.118974 
L 286.272 280.275357 
L 290.736 280.228561 
L 295.2 279.979258 
L 299.664 279.531034 
L 304.128 278.890335 
L 309.708 277.833088 
L 315.288 276.513434 
L 320.868 274.961012 
L 327.564 272.84026 
L 335.376 270.097993 
L 347.652 265.487281 
L 359.928 260.947949 
L 367.74 258.322536 
L 374.436 256.341882 
L 380.016 254.93098 
L 385.596 253.772004 
L 390.06 253.043907 
L 394.524 252.504293 
L 398.988 252.160923 
L 403.452 252.018736 
L 407.916 252.079776 
L 412.38 252.343166 
L 416.844 252.805118 
L 421.308 253.458987 
L 426.888 254.531628 
L 432.468 255.865164 
L 438.048 257.429646 
L 444.744 259.562085 
L 452.556 262.313683 
L 464.832 266.928835 
L 475.992 271.064523 
L 483.804 273.718965 
L 490.5 275.733515 
L 496.08 277.178197 
L 501.66 278.375182 
L 506.124 279.136159 
L 510.588 279.710342 
L 515.052 280.089471 
L 517.284 280.204075 
L 517.284 280.204075 
" style="fill:none;stroke:#000000;stroke-linecap:square;stroke-width:2.0;"/>
   </g>
   <g id="line2d_18">
    <path clip-path="url(#p51829aa8fa)" d="M 72 271.049803 
L 76.464 270.174442 
L 82.044 268.833913 
L 87.624 267.248066 
L 94.32 265.071719 
L 102.132 262.245561 
L 113.292 257.910464 
L 126.684 252.742822 
L 134.496 249.9944 
L 140.076 248.237704 
L 145.656 246.698238 
L 151.236 245.410573 
L 155.7 244.58138 
L 160.164 243.943895 
L 164.628 243.507288 
L 169.092 243.277838 
L 173.556 243.258844 
L 178.02 243.450581 
L 182.484 243.850291 
L 186.948 244.452224 
L 191.412 245.247724 
L 196.992 246.496618 
L 202.572 248.001843 
L 208.152 249.729594 
L 214.848 252.041696 
L 223.776 255.405642 
L 246.096 264.004454 
L 252.792 266.294911 
L 258.372 267.999563 
L 263.952 269.477636 
L 269.532 270.695935 
L 273.996 271.464939 
L 278.46 272.038992 
L 282.924 272.409839 
L 287.388 272.572145 
L 291.852 272.523576 
L 296.316 272.26483 
L 300.78 271.79963 
L 305.244 271.134665 
L 309.708 270.279501 
L 315.288 268.96206 
L 320.868 267.396425 
L 326.448 265.617755 
L 333.144 263.258674 
L 342.072 259.858439 
L 362.16 252.105999 
L 368.856 249.787865 
L 374.436 248.053639 
L 380.016 246.540777 
L 385.596 245.283253 
L 390.06 244.480265 
L 394.524 243.87044 
L 398.988 243.462549 
L 403.452 243.262459 
L 407.916 243.273047 
L 412.38 243.494161 
L 416.844 243.92262 
L 421.308 244.552263 
L 425.772 245.374034 
L 431.352 246.65317 
L 436.932 248.185121 
L 442.512 249.935482 
L 449.208 252.268576 
L 458.136 255.649023 
L 479.34 263.827989 
L 486.036 266.135474 
L 491.616 267.85828 
L 497.196 269.35768 
L 502.776 270.6 
L 507.24 271.3898 
L 511.704 271.985729 
L 516.168 272.379218 
L 517.284 272.44523 
L 517.284 272.44523 
" style="fill:none;stroke:#000000;stroke-linecap:square;stroke-width:2.0;"/>
   </g>
   <g id="line2d_19">
    <path clip-path="url(#p51829aa8fa)" d="M 72 263.432246 
L 76.464 262.576065 
L 82.044 261.246493 
L 87.624 259.656922 
L 93.204 257.843053 
L 99.9 255.427991 
L 108.828 251.932861 
L 130.032 243.493083 
L 136.728 241.116822 
L 142.308 239.344702 
L 147.888 237.804451 
L 153.468 236.530661 
L 157.932 235.722922 
L 162.396 235.11577 
L 166.86 234.717939 
L 171.324 234.535149 
L 175.788 234.570031 
L 180.252 234.822082 
L 184.716 235.287678 
L 189.18 235.960121 
L 193.644 236.82974 
L 199.224 238.174733 
L 204.804 239.77787 
L 210.384 241.603149 
L 217.08 244.028696 
L 226.008 247.531834 
L 246.096 255.545568 
L 252.792 257.949974 
L 258.372 259.752306 
L 263.952 261.328197 
L 269.532 262.642256 
L 273.996 263.484937 
L 278.46 264.128912 
L 282.924 264.564919 
L 287.388 264.786687 
L 291.852 264.791027 
L 296.316 264.577875 
L 300.78 264.150299 
L 305.244 263.514447 
L 309.708 262.679464 
L 315.288 261.374264 
L 320.868 259.806197 
L 326.448 258.010478 
L 333.144 255.612204 
L 342.072 252.130132 
L 364.392 243.261414 
L 371.088 240.907837 
L 376.668 239.159817 
L 382.248 237.647819 
L 387.828 236.405798 
L 392.292 235.625531 
L 396.756 235.047251 
L 401.22 234.679277 
L 405.684 234.526902 
L 410.148 234.592316 
L 414.612 234.874579 
L 419.076 235.369631 
L 423.54 236.070353 
L 428.004 236.966664 
L 433.584 238.342211 
L 439.164 239.972141 
L 444.744 241.81985 
L 451.44 244.265852 
L 460.368 247.784264 
L 479.34 255.360989 
L 486.036 257.78203 
L 491.616 259.6024 
L 497.196 261.199694 
L 502.776 262.538042 
L 507.24 263.401867 
L 511.704 264.068181 
L 516.168 264.527401 
L 517.284 264.609006 
L 517.284 264.609006 
" style="fill:none;stroke:#000000;stroke-linecap:square;stroke-width:2.0;"/>
   </g>
   <g id="line2d_20">
    <path clip-path="url(#p51829aa8fa)" d="M 72 255.777313 
L 76.464 254.947302 
L 80.928 253.923109 
L 86.508 252.392492 
L 92.088 250.616048 
L 98.784 248.216332 
L 106.596 245.146042 
L 134.496 233.848115 
L 141.192 231.538973 
L 146.772 229.856362 
L 152.352 228.434038 
L 156.816 227.505264 
L 161.28 226.777001 
L 165.744 226.259724 
L 170.208 225.96087 
L 174.672 225.884741 
L 179.136 226.032429 
L 183.6 226.401811 
L 188.064 226.987574 
L 192.528 227.781294 
L 196.992 228.771554 
L 202.572 230.263814 
L 208.152 232.007208 
L 214.848 234.375307 
L 222.66 237.421059 
L 234.936 242.510222 
L 246.096 247.051559 
L 252.792 249.560529 
L 258.372 251.454256 
L 263.952 253.123227 
L 269.532 254.529959 
L 273.996 255.445087 
L 278.46 256.158875 
L 282.924 256.661056 
L 287.388 256.944408 
L 291.852 257.004855 
L 296.316 256.841528 
L 300.78 256.456776 
L 305.244 255.856133 
L 309.708 255.048238 
L 314.172 254.04471 
L 319.752 252.537432 
L 325.332 250.781071 
L 332.028 248.40053 
L 339.84 245.345054 
L 353.232 239.786976 
L 363.276 235.719223 
L 369.972 233.22075 
L 375.552 231.338539 
L 381.132 229.683326 
L 386.712 228.292285 
L 391.176 227.390867 
L 395.64 226.691605 
L 400.104 226.204556 
L 404.568 225.936726 
L 409.032 225.891966 
L 413.496 226.07092 
L 417.96 226.471014 
L 422.424 227.086494 
L 426.888 227.908508 
L 431.352 228.925233 
L 436.932 230.447423 
L 442.512 232.216625 
L 449.208 234.609441 
L 457.02 237.674424 
L 471.528 243.698695 
L 480.456 247.294906 
L 487.152 249.782705 
L 492.732 251.653268 
L 498.312 253.294606 
L 503.892 254.669857 
L 508.356 255.557501 
L 512.82 256.242188 
L 517.284 256.71407 
L 517.284 256.71407 
" style="fill:none;stroke:#000000;stroke-linecap:square;stroke-width:2.0;"/>
   </g>
   <g id="line2d_21">
    <path clip-path="url(#p51829aa8fa)" d="M 72 248.10133 
L 76.464 247.304001 
L 80.928 246.30472 
L 86.508 244.793777 
L 92.088 243.023869 
L 97.668 241.034745 
L 104.364 238.421615 
L 114.408 234.217296 
L 130.032 227.65418 
L 136.728 225.07723 
L 142.308 223.128519 
L 147.888 221.407398 
L 153.468 219.952521 
L 157.932 219.00249 
L 162.396 218.257559 
L 166.86 217.728443 
L 171.324 217.42275 
L 175.788 217.344877 
L 180.252 217.495946 
L 184.716 217.873782 
L 189.18 218.472952 
L 193.644 219.284838 
L 198.108 220.297762 
L 203.688 221.824175 
L 209.268 223.607472 
L 214.848 225.607602 
L 221.544 228.23045 
L 231.588 232.441602 
L 246.096 238.54806 
L 252.792 241.151286 
L 258.372 243.129264 
L 263.952 244.885658 
L 269.532 246.381024 
L 273.996 247.366592 
L 278.46 248.149306 
L 282.924 248.71791 
L 287.388 249.064224 
L 291.852 249.183268 
L 296.316 249.073331 
L 300.78 248.735992 
L 305.244 248.176103 
L 309.708 247.401719 
L 314.172 246.423975 
L 319.752 244.937509 
L 325.332 243.18885 
L 330.912 241.217269 
L 337.608 238.619753 
L 346.536 234.902495 
L 364.392 227.404444 
L 371.088 224.848788 
L 376.668 222.923498 
L 382.248 221.230402 
L 387.828 219.807524 
L 392.292 218.885475 
L 396.756 218.170209 
L 401.22 217.672013 
L 405.684 217.398052 
L 410.148 217.352268 
L 414.612 217.535318 
L 419.076 217.944569 
L 423.54 218.574136 
L 428.004 219.414963 
L 432.468 220.454958 
L 438.048 222.011987 
L 443.628 223.821681 
L 450.324 226.269262 
L 458.136 229.404394 
L 472.644 235.566544 
L 481.572 239.245063 
L 488.268 241.7898 
L 493.848 243.703176 
L 499.428 245.382079 
L 505.008 246.788806 
L 509.472 247.696766 
L 513.936 248.397123 
L 517.284 248.779976 
L 517.284 248.779976 
" style="fill:none;stroke:#000000;stroke-linecap:square;stroke-width:2.0;"/>
   </g>
   <g id="line2d_22">
    <path clip-path="url(#p51829aa8fa)" d="M 72 240.421218 
L 76.464 239.66256 
L 80.928 238.695021 
L 85.392 237.53252 
L 90.972 235.830945 
L 96.552 233.889266 
L 103.248 231.304034 
L 111.06 228.042428 
L 134.496 218.087061 
L 141.192 215.587186 
L 146.772 213.736597 
L 152.352 212.142096 
L 156.816 211.075156 
L 161.28 210.210502 
L 165.744 209.560569 
L 170.208 209.134705 
L 174.672 208.939036 
L 179.136 208.976376 
L 183.6 209.246187 
L 188.064 209.74459 
L 192.528 210.464415 
L 196.992 211.395309 
L 201.456 212.523885 
L 207.036 214.187612 
L 212.616 216.097298 
L 219.312 218.652868 
L 227.124 221.893082 
L 251.676 232.31469 
L 258.372 234.801878 
L 263.952 236.639164 
L 269.532 238.218194 
L 273.996 239.271429 
L 278.46 240.12141 
L 282.924 240.755912 
L 287.388 241.165809 
L 291.852 241.345206 
L 296.316 241.291522 
L 300.78 241.005531 
L 305.244 240.491344 
L 309.708 239.756358 
L 314.172 238.811143 
L 318.636 237.669294 
L 324.216 235.990738 
L 329.796 234.068488 
L 336.492 231.501226 
L 344.304 228.252503 
L 367.74 218.280173 
L 374.436 215.760758 
L 380.016 213.889569 
L 385.596 212.271032 
L 390.06 211.18275 
L 394.524 210.295207 
L 398.988 209.621166 
L 403.452 209.170324 
L 407.916 208.949164 
L 412.38 208.960867 
L 416.844 209.205264 
L 421.308 209.678841 
L 425.772 210.374787 
L 430.236 211.283091 
L 434.7 212.39069 
L 440.28 214.030923 
L 445.86 215.920634 
L 452.556 218.457505 
L 460.368 221.683912 
L 486.036 232.558152 
L 492.732 235.01944 
L 498.312 236.82973 
L 503.892 238.377485 
L 508.356 239.403087 
L 512.82 240.223541 
L 517.284 240.827048 
L 517.284 240.827048 
" style="fill:none;stroke:#000000;stroke-linecap:square;stroke-width:2.0;"/>
   </g>
   <g id="line2d_23">
    <path clip-path="url(#p51829aa8fa)" d="M 72 232.754412 
L 76.464 232.03983 
L 80.928 231.110354 
L 85.392 229.979352 
L 90.972 228.307244 
L 96.552 226.383417 
L 103.248 223.803729 
L 111.06 220.526533 
L 136.728 209.505465 
L 143.424 207.016945 
L 149.004 205.188917 
L 154.584 203.628358 
L 159.048 202.596262 
L 163.512 201.772751 
L 167.976 201.169669 
L 172.44 200.795691 
L 176.904 200.656195 
L 181.368 200.753187 
L 185.832 201.085273 
L 190.296 201.647676 
L 194.76 202.432307 
L 199.224 203.427881 
L 203.688 204.620079 
L 209.268 206.360457 
L 214.848 208.341993 
L 221.544 210.975186 
L 230.472 214.77822 
L 250.56 223.477992 
L 257.256 226.088233 
L 262.836 228.044859 
L 268.416 229.755659 
L 272.88 230.921276 
L 277.344 231.888088 
L 281.808 232.642188 
L 286.272 233.17273 
L 290.736 233.472085 
L 295.2 233.535946 
L 299.664 233.363395 
L 304.128 232.956914 
L 308.592 232.322348 
L 313.056 231.468826 
L 317.52 230.408622 
L 323.1 228.816217 
L 328.68 226.960663 
L 334.26 224.883632 
L 340.956 222.164809 
L 351 217.808622 
L 365.508 211.50952 
L 372.204 208.831227 
L 377.784 206.799954 
L 383.364 204.999969 
L 388.944 203.471696 
L 393.408 202.468 
L 397.872 201.674733 
L 402.336 201.103306 
L 406.8 200.761936 
L 411.264 200.655534 
L 415.728 200.78563 
L 420.192 201.150353 
L 424.656 201.744457 
L 429.12 202.559397 
L 433.584 203.583452 
L 438.048 204.801894 
L 443.628 206.571359 
L 449.208 208.577246 
L 455.904 211.232644 
L 464.832 215.05226 
L 483.804 223.277611 
L 490.5 225.905912 
L 496.08 227.882119 
L 501.66 229.616154 
L 506.124 230.802643 
L 510.588 231.792033 
L 515.052 232.570092 
L 517.284 232.876253 
L 517.284 232.876253 
" style="fill:none;stroke:#000000;stroke-linecap:square;stroke-width:2.0;"/>
   </g>
   <g id="line2d_24">
    <path clip-path="url(#p51829aa8fa)" d="M 72 225.118749 
L 76.464 224.453026 
L 80.928 223.567365 
L 85.392 222.474504 
L 90.972 220.841264 
L 96.552 218.945716 
L 102.132 216.830428 
L 108.828 214.069199 
L 118.872 209.659365 
L 132.264 203.779493 
L 138.96 201.053552 
L 144.54 198.978555 
L 150.12 197.132238 
L 155.7 195.556066 
L 160.164 194.513644 
L 164.628 193.681895 
L 169.092 193.072779 
L 173.556 192.695059 
L 178.02 192.554168 
L 182.484 192.65213 
L 186.948 192.987538 
L 191.412 193.555568 
L 195.876 194.348049 
L 200.34 195.353583 
L 204.804 196.557709 
L 210.384 198.315499 
L 215.964 200.31686 
L 222.66 202.976396 
L 231.588 206.817479 
L 251.676 215.604289 
L 258.372 218.240645 
L 263.952 220.216846 
L 269.532 221.944762 
L 273.996 223.122041 
L 278.46 224.098525 
L 282.924 224.860169 
L 287.388 225.39602 
L 291.852 225.69837 
L 296.316 225.76287 
L 300.78 225.588592 
L 305.244 225.178044 
L 309.708 224.53713 
L 314.172 223.675068 
L 318.636 222.604257 
L 323.1 221.340099 
L 328.68 219.515948 
L 334.26 217.459252 
L 340.956 214.749598 
L 349.884 210.871862 
L 367.74 203.050112 
L 374.436 200.384125 
L 380.016 198.375718 
L 385.596 196.609529 
L 390.06 195.397837 
L 394.524 194.384099 
L 398.988 193.582896 
L 403.452 193.005752 
L 407.916 192.660967 
L 412.38 192.5535 
L 416.844 192.684898 
L 421.308 193.05327 
L 425.772 193.653317 
L 430.236 194.476411 
L 434.7 195.510711 
L 439.164 196.741343 
L 444.744 198.528511 
L 450.324 200.554466 
L 457.02 203.236431 
L 465.948 207.094261 
L 484.92 215.401903 
L 491.616 218.0565 
L 497.196 220.052478 
L 502.776 221.803862 
L 507.24 223.002221 
L 511.704 224.001509 
L 516.168 224.787353 
L 517.284 224.949069 
L 517.284 224.949069 
" style="fill:none;stroke:#000000;stroke-linecap:square;stroke-width:2.0;"/>
   </g>
   <g id="line2d_25">
    <path clip-path="url(#p51829aa8fa)" d="M 72 217.53237 
L 76.464 216.919625 
L 80.928 216.082919 
L 85.392 215.034285 
L 89.856 213.788807 
L 95.436 211.982684 
L 101.016 209.937731 
L 107.712 207.233512 
L 116.64 203.348106 
L 135.612 194.996283 
L 142.308 192.332463 
L 147.888 190.33176 
L 153.468 188.578459 
L 157.932 187.380619 
L 162.396 186.383669 
L 166.86 185.601948 
L 171.324 185.0467 
L 175.788 184.725909 
L 180.252 184.644191 
L 184.716 184.80272 
L 189.18 185.199217 
L 193.644 185.827978 
L 198.108 186.679961 
L 202.572 187.742911 
L 207.036 189.001541 
L 212.616 190.822177 
L 218.196 192.879202 
L 224.892 195.594308 
L 233.82 199.48757 
L 251.676 207.36476 
L 258.372 210.057901 
L 263.952 212.090637 
L 269.532 213.882118 
L 273.996 215.114358 
L 278.46 216.1486 
L 282.924 216.969971 
L 287.388 217.566656 
L 291.852 217.930074 
L 296.316 218.054998 
L 300.78 217.93963 
L 305.244 217.585631 
L 309.708 216.998091 
L 314.172 216.185462 
L 318.636 215.15943 
L 323.1 213.934754 
L 328.68 212.15165 
L 334.26 210.125921 
L 340.956 207.43916 
L 349.884 203.566628 
L 368.856 195.200574 
L 375.552 192.518701 
L 381.132 190.498325 
L 386.712 188.721612 
L 391.176 187.502699 
L 395.64 186.48292 
L 400.104 185.676943 
L 404.568 185.09636 
L 409.032 184.74952 
L 413.496 184.641413 
L 417.96 184.773594 
L 422.424 185.144161 
L 426.888 185.747784 
L 431.352 186.575782 
L 435.816 187.616246 
L 440.28 188.854212 
L 445.86 190.652029 
L 451.44 192.690056 
L 458.136 195.388003 
L 467.064 199.268822 
L 486.036 207.62597 
L 492.732 210.296386 
L 498.312 212.304258 
L 503.892 214.066078 
L 508.356 215.271578 
L 512.82 216.276821 
L 517.284 217.067348 
L 517.284 217.067348 
" style="fill:none;stroke:#000000;stroke-linecap:square;stroke-width:2.0;"/>
   </g>
   <g id="line2d_26">
    <path clip-path="url(#p51829aa8fa)" d="M 72 210.013609 
L 76.464 209.457263 
L 80.928 208.673996 
L 85.392 207.675075 
L 89.856 206.474866 
L 95.436 204.718099 
L 101.016 202.71344 
L 107.712 200.044354 
L 115.524 196.676955 
L 137.844 186.85409 
L 144.54 184.227885 
L 150.12 182.269367 
L 155.7 180.567108 
L 160.164 179.415712 
L 164.628 178.469475 
L 169.092 177.742008 
L 173.556 177.243772 
L 178.02 176.981934 
L 182.484 176.96026 
L 186.948 177.179061 
L 191.412 177.635191 
L 195.876 178.322089 
L 200.34 179.229875 
L 204.804 180.345494 
L 210.384 182.007571 
L 215.964 183.931785 
L 222.66 186.525661 
L 230.472 189.837702 
L 257.256 201.534743 
L 262.836 203.655654 
L 268.416 205.552533 
L 273.996 207.182781 
L 278.46 208.270178 
L 282.924 209.147729 
L 287.388 209.802812 
L 291.852 210.226004 
L 296.316 210.41122 
L 300.78 210.355796 
L 305.244 210.060527 
L 309.708 209.529663 
L 314.172 208.770836 
L 318.636 207.794963 
L 323.1 206.616078 
L 328.68 204.883075 
L 334.26 202.898476 
L 340.956 200.247943 
L 348.768 196.893844 
L 372.204 186.598053 
L 378.9 183.996918 
L 384.48 182.065036 
L 390.06 180.394 
L 394.524 179.270419 
L 398.988 178.354087 
L 403.452 177.658184 
L 407.916 177.192718 
L 412.38 176.964384 
L 416.844 176.976467 
L 421.308 177.228792 
L 425.772 177.71773 
L 430.236 178.436249 
L 434.7 179.374014 
L 439.164 180.517539 
L 444.744 182.210975 
L 450.324 184.16198 
L 457.02 186.781137 
L 464.832 190.112195 
L 490.5 201.339151 
L 497.196 203.880273 
L 502.776 205.749281 
L 508.356 207.347239 
L 512.82 208.406107 
L 517.284 209.253174 
L 517.284 209.253174 
" style="fill:none;stroke:#000000;stroke-linecap:square;stroke-width:2.0;"/>
   </g>
   <g id="line2d_27">
    <path clip-path="url(#p51829aa8fa)" d="M 72 202.58088 
L 76.464 202.083627 
L 80.928 201.357595 
L 85.392 200.413226 
L 89.856 199.264102 
L 95.436 197.565201 
L 101.016 195.610548 
L 107.712 192.989525 
L 115.524 189.659817 
L 141.192 178.462155 
L 147.888 175.933761 
L 153.468 174.076442 
L 159.048 172.490878 
L 163.512 171.442244 
L 167.976 170.605538 
L 172.44 169.992793 
L 176.904 169.612822 
L 181.368 169.471091 
L 185.832 169.569637 
L 190.296 169.907044 
L 194.76 170.478458 
L 199.224 171.275662 
L 203.688 172.287188 
L 208.152 173.498489 
L 213.732 175.266754 
L 219.312 177.280041 
L 226.008 179.955426 
L 233.82 183.324339 
L 256.14 193.117537 
L 262.836 195.726141 
L 268.416 197.667571 
L 273.996 199.35095 
L 278.46 200.486234 
L 282.924 201.415714 
L 287.388 202.12602 
L 291.852 202.606937 
L 296.316 202.851548 
L 300.78 202.856334 
L 305.244 202.621228 
L 309.708 202.14961 
L 314.172 201.448263 
L 318.636 200.527275 
L 323.1 199.399893 
L 328.68 197.725388 
L 334.26 195.791533 
L 340.956 193.190068 
L 348.768 189.874955 
L 375.552 178.214081 
L 381.132 176.108671 
L 386.712 174.229377 
L 392.292 172.618403 
L 396.756 171.547349 
L 401.22 170.686712 
L 405.684 170.048868 
L 410.148 169.642992 
L 414.612 169.474921 
L 419.076 169.547073 
L 423.54 169.85841 
L 428.004 170.404454 
L 432.468 171.177352 
L 436.932 172.165986 
L 441.396 173.356139 
L 446.976 175.100879 
L 452.556 177.094368 
L 459.252 179.751531 
L 467.064 183.107542 
L 490.5 193.372079 
L 497.196 195.955294 
L 502.776 197.869868 
L 508.356 199.521848 
L 512.82 200.629212 
L 517.284 201.528716 
L 517.284 201.528716 
" style="fill:none;stroke:#000000;stroke-linecap:square;stroke-width:2.0;"/>
   </g>
   <g id="line2d_28">
    <path clip-path="url(#p51829aa8fa)" d="M 72 195.252558 
L 76.464 194.816349 
L 80.928 194.150626 
L 85.392 193.264965 
L 89.856 192.172104 
L 95.436 190.538864 
L 101.016 188.643316 
L 106.596 186.528028 
L 113.292 183.766799 
L 123.336 179.356965 
L 136.728 173.477093 
L 143.424 170.751152 
L 149.004 168.676155 
L 154.584 166.829838 
L 160.164 165.253666 
L 164.628 164.211244 
L 169.092 163.379494 
L 173.556 162.770379 
L 178.02 162.392659 
L 182.484 162.251768 
L 186.948 162.34973 
L 191.412 162.685138 
L 195.876 163.253168 
L 200.34 164.045649 
L 204.804 165.051183 
L 209.268 166.255309 
L 214.848 168.013099 
L 220.428 170.01446 
L 227.124 172.673996 
L 236.052 176.515079 
L 256.14 185.301889 
L 262.836 187.938245 
L 268.416 189.914446 
L 273.996 191.642362 
L 278.46 192.819641 
L 282.924 193.796125 
L 287.388 194.557769 
L 291.852 195.09362 
L 296.316 195.39597 
L 300.78 195.46047 
L 305.244 195.286192 
L 309.708 194.875644 
L 314.172 194.23473 
L 318.636 193.372668 
L 323.1 192.301857 
L 327.564 191.037699 
L 333.144 189.213548 
L 338.724 187.156852 
L 345.42 184.447198 
L 354.348 180.569462 
L 372.204 172.747712 
L 378.9 170.081725 
L 384.48 168.073318 
L 390.06 166.307129 
L 394.524 165.095437 
L 398.988 164.081699 
L 403.452 163.280496 
L 407.916 162.703352 
L 412.38 162.358567 
L 416.844 162.2511 
L 421.308 162.382498 
L 425.772 162.75087 
L 430.236 163.350917 
L 434.7 164.174011 
L 439.164 165.208311 
L 443.628 166.438943 
L 449.208 168.226111 
L 454.788 170.252066 
L 461.484 172.934031 
L 470.412 176.791861 
L 489.384 185.099503 
L 496.08 187.7541 
L 501.66 189.750078 
L 507.24 191.501462 
L 511.704 192.699821 
L 516.168 193.699109 
L 517.284 193.916076 
L 517.284 193.916076 
" style="fill:none;stroke:#000000;stroke-linecap:square;stroke-width:2.0;"/>
   </g>
   <g id="line2d_29">
    <path clip-path="url(#p51829aa8fa)" d="M 72 188.046866 
L 76.464 187.672888 
L 80.928 187.069806 
L 85.392 186.246295 
L 89.856 185.214199 
L 94.32 183.988363 
L 99.9 182.210724 
L 105.48 180.198021 
L 112.176 177.536449 
L 121.104 173.712318 
L 140.076 165.492208 
L 146.772 162.870399 
L 152.352 160.901248 
L 157.932 159.175598 
L 162.396 157.996648 
L 166.86 157.015421 
L 171.324 156.246028 
L 175.788 155.699536 
L 180.252 155.383805 
L 184.716 155.303375 
L 189.18 155.459404 
L 193.644 155.849648 
L 198.108 156.468494 
L 202.572 157.30704 
L 207.036 158.353227 
L 211.5 159.592007 
L 217.08 161.383931 
L 222.66 163.408515 
L 229.356 166.080802 
L 238.284 169.912666 
L 256.14 177.665627 
L 262.836 180.316296 
L 268.416 182.316974 
L 273.996 184.080203 
L 278.46 185.293009 
L 282.924 186.310941 
L 287.388 187.119358 
L 291.852 187.706634 
L 296.316 188.06432 
L 300.78 188.187274 
L 305.244 188.073726 
L 309.708 187.725309 
L 314.172 187.147035 
L 318.636 186.347221 
L 323.1 185.337371 
L 327.564 184.132008 
L 333.144 182.377025 
L 338.724 180.383243 
L 345.42 177.738854 
L 354.348 173.927394 
L 373.32 165.693278 
L 380.016 163.053699 
L 385.596 161.065186 
L 391.176 159.316493 
L 395.64 158.116803 
L 400.104 157.113107 
L 404.568 156.31984 
L 409.032 155.748413 
L 413.496 155.407043 
L 417.96 155.300641 
L 422.424 155.430737 
L 426.888 155.79546 
L 431.352 156.389564 
L 435.816 157.204504 
L 440.28 158.228559 
L 444.744 159.447001 
L 450.324 161.216466 
L 455.904 163.222352 
L 462.6 165.877751 
L 471.528 169.697367 
L 490.5 177.922718 
L 497.196 180.551019 
L 502.776 182.527226 
L 508.356 184.261261 
L 512.82 185.44775 
L 517.284 186.43714 
L 517.284 186.43714 
" style="fill:none;stroke:#000000;stroke-linecap:square;stroke-width:2.0;"/>
   </g>
   <g id="line2d_30">
    <path clip-path="url(#p51829aa8fa)" d="M 72 180.981747 
L 76.464 180.670421 
L 80.928 180.131553 
L 85.392 179.372894 
L 89.856 178.405356 
L 94.32 177.242854 
L 99.9 175.541279 
L 105.48 173.5996 
L 112.176 171.014368 
L 119.988 167.752762 
L 143.424 157.797395 
L 150.12 155.29752 
L 155.7 153.446932 
L 161.28 151.85243 
L 165.744 150.78549 
L 170.208 149.920836 
L 174.672 149.270903 
L 179.136 148.84504 
L 183.6 148.649371 
L 188.064 148.68671 
L 192.528 148.956522 
L 196.992 149.454924 
L 201.456 150.174749 
L 205.92 151.105644 
L 210.384 152.234219 
L 215.964 153.897946 
L 221.544 155.807632 
L 228.24 158.363202 
L 236.052 161.603416 
L 260.604 172.025025 
L 267.3 174.512213 
L 272.88 176.349498 
L 278.46 177.928528 
L 282.924 178.981763 
L 287.388 179.831744 
L 291.852 180.466246 
L 296.316 180.876143 
L 300.78 181.05554 
L 305.244 181.001857 
L 309.708 180.715865 
L 314.172 180.201678 
L 318.636 179.466692 
L 323.1 178.521477 
L 327.564 177.379629 
L 333.144 175.701072 
L 338.724 173.778822 
L 345.42 171.211561 
L 353.232 167.962837 
L 376.668 157.990507 
L 383.364 155.471092 
L 388.944 153.599903 
L 394.524 151.981366 
L 398.988 150.893084 
L 403.452 150.005541 
L 407.916 149.331501 
L 412.38 148.880658 
L 416.844 148.659498 
L 421.308 148.671201 
L 425.772 148.915598 
L 430.236 149.389175 
L 434.7 150.085121 
L 439.164 150.993425 
L 443.628 152.101024 
L 449.208 153.741257 
L 454.788 155.630968 
L 461.484 158.167839 
L 469.296 161.394246 
L 494.964 172.268486 
L 501.66 174.729775 
L 507.24 176.540064 
L 512.82 178.087819 
L 517.284 179.113421 
L 517.284 179.113421 
" style="fill:none;stroke:#000000;stroke-linecap:square;stroke-width:2.0;"/>
   </g>
   <g id="line2d_31">
    <path clip-path="url(#p51829aa8fa)" d="M 72 174.074746 
L 76.464 173.825724 
L 80.928 173.351873 
L 85.392 172.66001 
L 89.856 171.760086 
L 94.32 170.665044 
L 99.9 169.046098 
L 105.48 167.183437 
L 112.176 164.685768 
L 119.988 161.512766 
L 145.656 150.8421 
L 152.352 148.432701 
L 157.932 146.662793 
L 163.512 145.15185 
L 167.976 144.152568 
L 172.44 143.35524 
L 176.904 142.771333 
L 181.368 142.409245 
L 185.832 142.274184 
L 190.296 142.368092 
L 194.76 142.689619 
L 199.224 143.234141 
L 203.688 143.993826 
L 208.152 144.957747 
L 213.732 146.428471 
L 219.312 148.163422 
L 224.892 150.123637 
L 231.588 152.710961 
L 240.516 156.420995 
L 258.372 163.92746 
L 265.068 166.493854 
L 270.648 168.430923 
L 276.228 170.138091 
L 281.808 171.57702 
L 286.272 172.513093 
L 290.736 173.243217 
L 295.2 173.756892 
L 299.664 174.046729 
L 304.128 174.10856 
L 308.592 173.941495 
L 313.056 173.547937 
L 317.52 172.933547 
L 321.984 172.107161 
L 326.448 171.080665 
L 332.028 169.538889 
L 337.608 167.742331 
L 344.304 165.307305 
L 352.116 162.181898 
L 365.508 156.49661 
L 375.552 152.335758 
L 382.248 149.780102 
L 387.828 147.854812 
L 393.408 146.161716 
L 398.988 144.738838 
L 403.452 143.816789 
L 407.916 143.101523 
L 412.38 142.603327 
L 416.844 142.329366 
L 421.308 142.283582 
L 425.772 142.466631 
L 430.236 142.875883 
L 434.7 143.50545 
L 439.164 144.346277 
L 443.628 145.386272 
L 449.208 146.943301 
L 454.788 148.752995 
L 461.484 151.200576 
L 469.296 154.335708 
L 483.804 160.497858 
L 492.732 164.176377 
L 499.428 166.721114 
L 505.008 168.63449 
L 510.588 170.313393 
L 516.168 171.72012 
L 517.284 171.965908 
L 517.284 171.965908 
" style="fill:none;stroke:#000000;stroke-linecap:square;stroke-width:2.0;"/>
   </g>
   <g id="line2d_32">
    <path clip-path="url(#p51829aa8fa)" d="M 72 167.342887 
L 76.464 167.155057 
L 80.928 166.746256 
L 85.392 166.122363 
L 89.856 165.292352 
L 94.32 164.268159 
L 99.9 162.737542 
L 105.48 160.961098 
L 112.176 158.561382 
L 119.988 155.491092 
L 147.888 144.193165 
L 154.584 141.884023 
L 160.164 140.201412 
L 165.744 138.779087 
L 170.208 137.850314 
L 174.672 137.122051 
L 179.136 136.604773 
L 183.6 136.30592 
L 188.064 136.229791 
L 192.528 136.377479 
L 196.992 136.746861 
L 201.456 137.332624 
L 205.92 138.126344 
L 210.384 139.116604 
L 215.964 140.608864 
L 221.544 142.352258 
L 228.24 144.720357 
L 236.052 147.766109 
L 248.328 152.855272 
L 259.488 157.396609 
L 266.184 159.905579 
L 271.764 161.799306 
L 277.344 163.468277 
L 282.924 164.875009 
L 287.388 165.790137 
L 291.852 166.503925 
L 296.316 167.006106 
L 300.78 167.289458 
L 305.244 167.349905 
L 309.708 167.186578 
L 314.172 166.801826 
L 318.636 166.201183 
L 323.1 165.393288 
L 327.564 164.38976 
L 333.144 162.882482 
L 338.724 161.126121 
L 345.42 158.74558 
L 353.232 155.690104 
L 366.624 150.132026 
L 376.668 146.064273 
L 383.364 143.5658 
L 388.944 141.683589 
L 394.524 140.028376 
L 400.104 138.637335 
L 404.568 137.735917 
L 409.032 137.036655 
L 413.496 136.549606 
L 417.96 136.281776 
L 422.424 136.237016 
L 426.888 136.41597 
L 431.352 136.816064 
L 435.816 137.431544 
L 440.28 138.253558 
L 444.744 139.270283 
L 450.324 140.792473 
L 455.904 142.561675 
L 462.6 144.954491 
L 470.412 148.019474 
L 484.92 154.043745 
L 493.848 157.639956 
L 500.544 160.127755 
L 506.124 161.998318 
L 511.704 163.639656 
L 517.284 165.014907 
L 517.284 165.014907 
" style="fill:none;stroke:#000000;stroke-linecap:square;stroke-width:2.0;"/>
   </g>
   <g id="line2d_33">
    <path clip-path="url(#p51829aa8fa)" d="M 72 160.802547 
L 76.464 160.674051 
L 80.928 160.329563 
L 85.392 159.774039 
L 89.856 159.015467 
L 94.32 158.064759 
L 99.9 156.627261 
L 105.48 154.943386 
L 112.176 152.651104 
L 119.988 149.696753 
L 132.264 144.748361 
L 143.424 140.320795 
L 150.12 137.869107 
L 156.816 135.669054 
L 162.396 134.079483 
L 167.976 132.749911 
L 172.44 131.89373 
L 176.904 131.235498 
L 181.368 130.784681 
L 185.832 130.547763 
L 190.296 130.528151 
L 194.76 130.726128 
L 199.224 131.138847 
L 203.688 131.760371 
L 208.152 132.581761 
L 213.732 133.871302 
L 219.312 135.425515 
L 224.892 137.209498 
L 231.588 139.59685 
L 239.4 142.62378 
L 263.952 152.359395 
L 270.648 154.682866 
L 276.228 156.399214 
L 281.808 157.874306 
L 286.272 158.858213 
L 290.736 159.652244 
L 295.2 160.244981 
L 299.664 160.627897 
L 304.128 160.795485 
L 308.592 160.745335 
L 313.056 160.478169 
L 317.52 159.997828 
L 321.984 159.311221 
L 326.448 158.428225 
L 332.028 157.067907 
L 337.608 155.451316 
L 343.188 153.614758 
L 349.884 151.178897 
L 358.812 147.667998 
L 378.9 139.663246 
L 385.596 137.269666 
L 391.176 135.478998 
L 396.756 133.916897 
L 402.336 132.618446 
L 406.8 131.789324 
L 411.264 131.159652 
L 415.728 130.738486 
L 420.192 130.531883 
L 424.656 130.542816 
L 429.12 130.771126 
L 433.584 131.21353 
L 438.048 131.863666 
L 442.512 132.712182 
L 448.092 134.032949 
L 453.672 135.614759 
L 459.252 137.422088 
L 465.948 139.831114 
L 474.876 143.321582 
L 496.08 151.766741 
L 502.776 154.149326 
L 508.356 155.928203 
L 513.936 157.476403 
L 517.284 158.279893 
L 517.284 158.279893 
" style="fill:none;stroke:#000000;stroke-linecap:square;stroke-width:2.0;"/>
   </g>
   <g id="line2d_34">
    <path clip-path="url(#p51829aa8fa)" d="M 72 154.469335 
L 76.464 154.397584 
L 80.928 154.115917 
L 85.392 153.628387 
L 89.856 152.942005 
L 94.32 152.066644 
L 99.9 150.726115 
L 105.48 149.140268 
L 112.176 146.963921 
L 119.988 144.137763 
L 131.148 139.802666 
L 144.54 134.635024 
L 152.352 131.886602 
L 157.932 130.129906 
L 163.512 128.590439 
L 169.092 127.302775 
L 173.556 126.473582 
L 178.02 125.836097 
L 182.484 125.39949 
L 186.948 125.17004 
L 191.412 125.151046 
L 195.876 125.342783 
L 200.34 125.742493 
L 204.804 126.344426 
L 209.268 127.139925 
L 214.848 128.38882 
L 220.428 129.894044 
L 226.008 131.621795 
L 232.704 133.933898 
L 241.632 137.297844 
L 263.952 145.896656 
L 270.648 148.187113 
L 276.228 149.891765 
L 281.808 151.369838 
L 287.388 152.588137 
L 291.852 153.357141 
L 296.316 153.931194 
L 300.78 154.302041 
L 305.244 154.464346 
L 309.708 154.415777 
L 314.172 154.157032 
L 318.636 153.691832 
L 323.1 153.026867 
L 327.564 152.171703 
L 333.144 150.854262 
L 338.724 149.288627 
L 344.304 147.509957 
L 351 145.150876 
L 359.928 141.750641 
L 380.016 133.998201 
L 386.712 131.680067 
L 392.292 129.945841 
L 397.872 128.432978 
L 403.452 127.175454 
L 407.916 126.372467 
L 412.38 125.762642 
L 416.844 125.354751 
L 421.308 125.154661 
L 425.772 125.165249 
L 430.236 125.386362 
L 434.7 125.814822 
L 439.164 126.444465 
L 443.628 127.266236 
L 449.208 128.545372 
L 454.788 130.077323 
L 460.368 131.827684 
L 467.064 134.160778 
L 475.992 137.541225 
L 497.196 145.720191 
L 503.892 148.027676 
L 509.472 149.750482 
L 515.052 151.249882 
L 517.284 151.779359 
L 517.284 151.779359 
" style="fill:none;stroke:#000000;stroke-linecap:square;stroke-width:2.0;"/>
   </g>
   <g id="line2d_35">
    <path clip-path="url(#p51829aa8fa)" d="M 72 148.357975 
L 76.464 148.339675 
L 80.928 148.118598 
L 85.392 147.697924 
L 89.856 147.083703 
L 95.436 146.057464 
L 101.016 144.765854 
L 106.596 143.23788 
L 113.292 141.140953 
L 121.104 138.417929 
L 132.264 134.241032 
L 145.656 129.26197 
L 153.468 126.613846 
L 160.164 124.606716 
L 165.744 123.16945 
L 171.324 121.980829 
L 175.788 121.227097 
L 180.252 120.660541 
L 184.716 120.28931 
L 189.18 120.118743 
L 193.644 120.151292 
L 198.108 120.386491 
L 202.572 120.820955 
L 207.036 121.448437 
L 212.616 122.490217 
L 218.196 123.795895 
L 223.776 125.336148 
L 230.472 127.445061 
L 238.284 130.177803 
L 249.444 134.35986 
L 262.836 139.331128 
L 270.648 141.96799 
L 277.344 143.961953 
L 282.924 145.386087 
L 288.504 146.559927 
L 292.968 147.300867 
L 297.432 147.853972 
L 301.896 148.211285 
L 306.36 148.367668 
L 310.824 148.320872 
L 315.288 148.071569 
L 319.752 147.623345 
L 324.216 146.982646 
L 329.796 145.925399 
L 335.376 144.605745 
L 340.956 143.053323 
L 347.652 140.932571 
L 355.464 138.190304 
L 367.74 133.579592 
L 380.016 129.04026 
L 387.828 126.414847 
L 394.524 124.434193 
L 400.104 123.023291 
L 405.684 121.864315 
L 410.148 121.136218 
L 414.612 120.596604 
L 419.076 120.253234 
L 423.54 120.111047 
L 428.004 120.172087 
L 432.468 120.435477 
L 436.932 120.897429 
L 441.396 121.551298 
L 446.976 122.623939 
L 452.556 123.957475 
L 458.136 125.521957 
L 464.832 127.654396 
L 472.644 130.405994 
L 484.92 135.021146 
L 496.08 139.156834 
L 503.892 141.811276 
L 510.588 143.825826 
L 516.168 145.270508 
L 517.284 145.530666 
L 517.284 145.530666 
" style="fill:none;stroke:#000000;stroke-linecap:square;stroke-width:2.0;"/>
   </g>
   <g id="line2d_36">
    <path clip-path="url(#p51829aa8fa)" d="M 72 142.482182 
L 76.464 142.51337 
L 80.928 142.349936 
L 85.392 141.99423 
L 89.856 141.451369 
L 95.436 140.521746 
L 101.016 139.332959 
L 106.596 137.911704 
L 113.292 135.944609 
L 121.104 133.370191 
L 131.148 129.793784 
L 146.772 124.210864 
L 154.584 121.673487 
L 161.28 119.750298 
L 166.86 118.373141 
L 172.44 117.23423 
L 178.02 116.359141 
L 182.484 115.862439 
L 186.948 115.554429 
L 191.412 115.439539 
L 195.876 115.519422 
L 200.34 115.79293 
L 204.804 116.256128 
L 210.384 117.091476 
L 215.964 118.193852 
L 221.544 119.538501 
L 227.124 121.095223 
L 233.82 123.193712 
L 241.632 125.87321 
L 269.532 135.692188 
L 276.228 137.689791 
L 281.808 139.141995 
L 287.388 140.366021 
L 292.968 141.334379 
L 297.432 141.910165 
L 301.896 142.300005 
L 306.36 142.49829 
L 310.824 142.50217 
L 315.288 142.311589 
L 319.752 141.929288 
L 324.216 141.360764 
L 329.796 140.400939 
L 335.376 139.184662 
L 340.956 137.739248 
L 347.652 135.748317 
L 355.464 133.154148 
L 366.624 129.160257 
L 380.016 124.378395 
L 387.828 121.824455 
L 394.524 119.881753 
L 400.104 118.48506 
L 405.684 117.324098 
L 411.264 116.424941 
L 415.728 115.907895 
L 420.192 115.578885 
L 424.656 115.442644 
L 429.12 115.501132 
L 433.584 115.753507 
L 438.048 116.196139 
L 442.512 116.822662 
L 448.092 117.850444 
L 453.672 119.12821 
L 459.252 120.627263 
L 465.948 122.670521 
L 473.76 125.307043 
L 487.152 130.134455 
L 498.312 134.070658 
L 506.124 136.575123 
L 512.82 138.460058 
L 517.284 139.549903 
L 517.284 139.549903 
" style="fill:none;stroke:#000000;stroke-linecap:square;stroke-width:2.0;"/>
   </g>
   <g id="line2d_37">
    <path clip-path="url(#p51829aa8fa)" d="M 72 136.854549 
L 76.464 136.93063 
L 80.928 136.821208 
L 85.392 136.527857 
L 90.972 135.909192 
L 96.552 135.023813 
L 102.132 133.891604 
L 107.712 132.537992 
L 114.408 130.664517 
L 122.22 128.212624 
L 133.38 124.419884 
L 147.888 119.489219 
L 155.7 117.072604 
L 162.396 115.240946 
L 167.976 113.929333 
L 173.556 112.844625 
L 179.136 112.011185 
L 184.716 111.447728 
L 189.18 111.200066 
L 193.644 111.136977 
L 198.108 111.259367 
L 202.572 111.565477 
L 208.152 112.199516 
L 213.732 113.099309 
L 219.312 114.244649 
L 224.892 115.609815 
L 231.588 117.494707 
L 239.4 119.956093 
L 250.56 123.754501 
L 265.068 128.678089 
L 272.88 131.084425 
L 279.576 132.904067 
L 285.156 134.203698 
L 290.736 135.274916 
L 296.316 136.093664 
L 301.896 136.641556 
L 306.36 136.876372 
L 310.824 136.926465 
L 315.288 136.791115 
L 319.752 136.472268 
L 325.332 135.8229 
L 330.912 134.908756 
L 336.492 133.750365 
L 342.072 132.373744 
L 348.768 130.477567 
L 356.58 128.006863 
L 367.74 124.203054 
L 382.248 119.286891 
L 390.06 116.891003 
L 396.756 115.083506 
L 402.336 113.795951 
L 407.916 112.738298 
L 413.496 111.934299 
L 419.076 111.402011 
L 423.54 111.180057 
L 428.004 111.142964 
L 432.468 111.291265 
L 436.932 111.622826 
L 442.512 112.287478 
L 448.092 113.215908 
L 453.672 114.387267 
L 459.252 115.775248 
L 465.948 117.682575 
L 473.76 120.162423 
L 486.036 124.358279 
L 498.312 128.519032 
L 506.124 130.941412 
L 512.82 132.779841 
L 517.284 133.851752 
L 517.284 133.851752 
" style="fill:none;stroke:#000000;stroke-linecap:square;stroke-width:2.0;"/>
   </g>
   <g id="line2d_38">
    <path clip-path="url(#p51829aa8fa)" d="M 72 131.486435 
L 77.58 131.603765 
L 83.16 131.447059 
L 88.74 131.019838 
L 94.32 130.331694 
L 99.9 129.398082 
L 105.48 128.23997 
L 112.176 126.590836 
L 118.872 124.709397 
L 127.8 121.945364 
L 153.468 113.76648 
L 160.164 111.919716 
L 166.86 110.31471 
L 172.44 109.199571 
L 178.02 108.313546 
L 183.6 107.676533 
L 189.18 107.30284 
L 194.76 107.200856 
L 200.34 107.372874 
L 205.92 107.81503 
L 211.5 108.517394 
L 217.08 109.464192 
L 222.66 110.634162 
L 229.356 112.295398 
L 236.052 114.186252 
L 244.98 116.958148 
L 270.648 125.127403 
L 277.344 126.964149 
L 284.04 128.556529 
L 289.62 129.659443 
L 295.2 130.531987 
L 300.78 131.154565 
L 306.36 131.513196 
L 311.94 131.599825 
L 317.52 131.412507 
L 323.1 130.955448 
L 328.68 130.238914 
L 334.26 129.278995 
L 339.84 128.09725 
L 346.536 126.42403 
L 353.232 124.523894 
L 362.16 121.744333 
L 386.712 113.909683 
L 393.408 112.047472 
L 400.104 110.422891 
L 405.684 109.288739 
L 411.264 108.381698 
L 416.844 107.72214 
L 422.424 107.324876 
L 428.004 107.198827 
L 433.584 107.346826 
L 439.164 107.765547 
L 444.744 108.445587 
L 450.324 109.371675 
L 455.904 110.523012 
L 462.6 112.165216 
L 469.296 114.041245 
L 478.224 116.800724 
L 505.008 125.307783 
L 511.704 127.124107 
L 517.284 128.449353 
L 517.284 128.449353 
" style="fill:none;stroke:#000000;stroke-linecap:square;stroke-width:2.0;"/>
   </g>
   <g id="line2d_39">
    <path clip-path="url(#p51829aa8fa)" d="M 72 126.38786 
L 77.58 126.549395 
L 83.16 126.453627 
L 88.74 126.102705 
L 94.32 125.50451 
L 99.9 124.672478 
L 105.48 123.625292 
L 112.176 122.118091 
L 118.872 120.383864 
L 127.8 117.8161 
L 156.816 109.200541 
L 163.512 107.53609 
L 170.208 106.115797 
L 175.788 105.15211 
L 181.368 104.411657 
L 186.948 103.911065 
L 192.528 103.661577 
L 198.108 103.668796 
L 203.688 103.932559 
L 209.268 104.446944 
L 214.848 105.200398 
L 220.428 106.176001 
L 227.124 107.608787 
L 233.82 109.283382 
L 241.632 111.470151 
L 253.908 115.188531 
L 267.3 119.219035 
L 275.112 121.356896 
L 281.808 122.973521 
L 287.388 124.128152 
L 292.968 125.079854 
L 298.548 125.807255 
L 304.128 126.294019 
L 309.708 126.529213 
L 315.288 126.507557 
L 320.868 126.229536 
L 326.448 125.701395 
L 332.028 124.934993 
L 337.608 123.947544 
L 344.304 122.502366 
L 351 120.817745 
L 358.812 118.622697 
L 371.088 114.899514 
L 384.48 110.875613 
L 392.292 108.747034 
L 398.988 107.141199 
L 404.568 105.997297 
L 410.148 105.057646 
L 415.728 104.343349 
L 421.308 103.870448 
L 426.888 103.649563 
L 432.468 103.685655 
L 438.048 103.977913 
L 443.628 104.519774 
L 449.208 105.299068 
L 454.788 106.298295 
L 461.484 107.755763 
L 468.18 109.45029 
L 475.992 111.653461 
L 488.268 115.381186 
L 501.66 119.398199 
L 509.472 121.517345 
L 516.168 123.112276 
L 517.284 123.354181 
L 517.284 123.354181 
" style="fill:none;stroke:#000000;stroke-linecap:square;stroke-width:2.0;"/>
   </g>
   <g id="line2d_40">
    <path clip-path="url(#p51829aa8fa)" d="M 72 121.567401 
L 77.58 121.765501 
L 83.16 121.724255 
L 88.74 121.44459 
L 94.32 120.932786 
L 99.9 120.200337 
L 105.48 119.263692 
L 112.176 117.900093 
L 118.872 116.317022 
L 127.8 113.954089 
L 145.656 108.883571 
L 155.7 106.180533 
L 163.512 104.315782 
L 170.208 102.952183 
L 175.788 102.015538 
L 181.368 101.283089 
L 186.948 100.771285 
L 192.528 100.491619 
L 198.108 100.450374 
L 203.688 100.648474 
L 209.268 101.081471 
L 214.848 101.739642 
L 220.428 102.608203 
L 227.124 103.900423 
L 233.82 105.425536 
L 241.632 107.433095 
L 252.792 110.557663 
L 269.532 115.247559 
L 277.344 117.20677 
L 284.04 118.675775 
L 290.736 119.900244 
L 296.316 120.705023 
L 301.896 121.294272 
L 307.476 121.654758 
L 313.056 121.778385 
L 318.636 121.662376 
L 324.216 121.309338 
L 329.796 120.727199 
L 335.376 119.929031 
L 340.956 118.932761 
L 347.652 117.507528 
L 355.464 115.58702 
L 365.508 112.841485 
L 388.944 106.305752 
L 396.756 104.424878 
L 403.452 103.043612 
L 409.032 102.08996 
L 414.612 101.338833 
L 420.192 100.807099 
L 425.772 100.506699 
L 431.352 100.444381 
L 436.932 100.621542 
L 442.512 101.034206 
L 448.092 101.673104 
L 453.672 102.523888 
L 460.368 103.797306 
L 467.064 105.306949 
L 474.876 107.301331 
L 486.036 110.417209 
L 502.776 115.117528 
L 510.588 117.090795 
L 517.284 118.575935 
L 517.284 118.575935 
" style="fill:none;stroke:#000000;stroke-linecap:square;stroke-width:2.0;"/>
   </g>
   <g id="line2d_41">
    <path clip-path="url(#p51829aa8fa)" d="M 72 117.032098 
L 77.58 117.258578 
L 83.16 117.264776 
L 88.74 117.050554 
L 94.32 116.620722 
L 99.9 115.984932 
L 106.596 114.970533 
L 113.292 113.713123 
L 121.104 111.993587 
L 130.032 109.78878 
L 159.048 102.391045 
L 166.86 100.742898 
L 173.556 99.56234 
L 180.252 98.63665 
L 185.832 98.081783 
L 191.412 97.737303 
L 196.992 97.610948 
L 202.572 97.705554 
L 208.152 98.018997 
L 213.732 98.544238 
L 219.312 99.269481 
L 226.008 100.380547 
L 232.704 101.720042 
L 240.516 103.513406 
L 250.56 106.061346 
L 272.88 111.804091 
L 280.692 113.547816 
L 287.388 114.83179 
L 294.084 115.877236 
L 299.664 116.541603 
L 305.244 117.001789 
L 310.824 117.247461 
L 316.404 117.2731 
L 321.984 117.078132 
L 327.564 116.666934 
L 333.144 116.048742 
L 339.84 115.053535 
L 346.536 113.812635 
L 354.348 112.108265 
L 363.276 109.914592 
L 393.408 102.249861 
L 401.22 100.622795 
L 407.916 99.464549 
L 413.496 98.695103 
L 419.076 98.122272 
L 424.656 97.758918 
L 430.236 97.613204 
L 435.816 97.6884 
L 441.396 97.982818 
L 446.976 98.489847 
L 452.556 99.198099 
L 459.252 100.290924 
L 465.948 101.615073 
L 473.76 103.394849 
L 483.804 105.933031 
L 506.124 111.687373 
L 513.936 113.44547 
L 517.284 114.122426 
L 517.284 114.122426 
" style="fill:none;stroke:#000000;stroke-linecap:square;stroke-width:2.0;"/>
   </g>
   <g id="line2d_42">
    <path clip-path="url(#p51829aa8fa)" d="M 72 112.787365 
L 77.58 113.033573 
L 83.16 113.079541 
L 88.74 112.924235 
L 94.32 112.571144 
L 101.016 111.897825 
L 107.712 110.973096 
L 114.408 109.826837 
L 122.22 108.259303 
L 132.264 105.987095 
L 159.048 99.738441 
L 166.86 98.202754 
L 173.556 97.091025 
L 180.252 96.206331 
L 186.948 95.57726 
L 192.528 95.263232 
L 198.108 95.148046 
L 203.688 95.234289 
L 209.268 95.520025 
L 214.848 95.998836 
L 221.544 96.812837 
L 228.24 97.862863 
L 236.052 99.340564 
L 244.98 101.282126 
L 259.488 104.730381 
L 272.88 107.843497 
L 281.808 109.676142 
L 288.504 110.846617 
L 295.2 111.799649 
L 301.896 112.504443 
L 307.476 112.885455 
L 313.056 113.069553 
L 318.636 113.052602 
L 324.216 112.834982 
L 329.796 112.421581 
L 336.492 111.680439 
L 343.188 110.694911 
L 349.884 109.496842 
L 357.696 107.882438 
L 367.74 105.574506 
L 391.176 100.080485 
L 398.988 98.499398 
L 405.684 97.338288 
L 412.38 96.396224 
L 419.076 95.703647 
L 424.656 95.333486 
L 430.236 95.160589 
L 435.816 95.18884 
L 441.396 95.417604 
L 446.976 95.841743 
L 453.672 96.594898 
L 460.368 97.59112 
L 467.064 98.798219 
L 474.876 100.420668 
L 486.036 103.00094 
L 507.24 107.980157 
L 515.052 109.582843 
L 517.284 109.999486 
L 517.284 109.999486 
" style="fill:none;stroke:#000000;stroke-linecap:square;stroke-width:2.0;"/>
   </g>
   <g id="line2d_43">
    <path clip-path="url(#p51829aa8fa)" d="M 72 108.836909 
L 78.696 109.12378 
L 85.392 109.151617 
L 92.088 108.91952 
L 98.784 108.434989 
L 105.48 107.713679 
L 112.176 106.778899 
L 119.988 105.459156 
L 128.916 103.720526 
L 143.424 100.62368 
L 157.932 97.599459 
L 166.86 95.973873 
L 174.672 94.790079 
L 181.368 93.994664 
L 188.064 93.429076 
L 194.76 93.111591 
L 201.456 93.052466 
L 208.152 93.253613 
L 214.848 93.708532 
L 221.544 94.402524 
L 228.24 95.313163 
L 236.052 96.609791 
L 244.98 98.329882 
L 258.372 101.175063 
L 273.996 104.457462 
L 282.924 106.105165 
L 290.736 107.314738 
L 297.432 108.136135 
L 304.128 108.73041 
L 310.824 109.078361 
L 317.52 109.168745 
L 324.216 108.998642 
L 330.912 108.573547 
L 337.608 107.907198 
L 344.304 107.021125 
L 352.116 105.748216 
L 361.044 104.047466 
L 373.32 101.455425 
L 391.176 97.695509 
L 400.104 96.056326 
L 407.916 94.856724 
L 414.612 94.045399 
L 421.308 93.462261 
L 428.004 93.126154 
L 434.7 93.047937 
L 441.396 93.230138 
L 448.092 93.666869 
L 454.788 94.344019 
L 461.484 95.239707 
L 469.296 96.521922 
L 478.224 98.230298 
L 491.616 101.068731 
L 507.24 104.360449 
L 516.168 106.021282 
L 517.284 106.210877 
L 517.284 106.210877 
" style="fill:none;stroke:#000000;stroke-linecap:square;stroke-width:2.0;"/>
   </g>
   <g id="line2d_44">
    <path clip-path="url(#p51829aa8fa)" d="M 72 105.182657 
L 78.696 105.473754 
L 85.392 105.53677 
L 92.088 105.369668 
L 98.784 104.977847 
L 105.48 104.373968 
L 113.292 103.427811 
L 121.104 102.261407 
L 131.148 100.521489 
L 166.86 94.045137 
L 174.672 92.967366 
L 182.484 92.128961 
L 189.18 91.629088 
L 195.876 91.348491 
L 202.572 91.296236 
L 209.268 91.474012 
L 215.964 91.876074 
L 222.66 92.489432 
L 230.472 93.445276 
L 238.284 94.619488 
L 248.328 96.366142 
L 282.924 102.662582 
L 290.736 103.762441 
L 298.548 104.627351 
L 305.244 105.152578 
L 311.94 105.460101 
L 318.636 105.539984 
L 325.332 105.389644 
L 332.028 105.013941 
L 338.724 104.425014 
L 346.536 103.494184 
L 354.348 102.340191 
L 364.392 100.611084 
L 382.248 97.231682 
L 394.524 95.017969 
L 403.452 93.625927 
L 411.264 92.630735 
L 417.96 91.978635 
L 424.656 91.534517 
L 431.352 91.31273 
L 438.048 91.320441 
L 444.744 91.5574 
L 451.44 92.015952 
L 458.136 92.681279 
L 465.948 93.689812 
L 474.876 95.093634 
L 486.036 97.105623 
L 512.82 102.050432 
L 517.284 102.75822 
L 517.284 102.75822 
" style="fill:none;stroke:#000000;stroke-linecap:square;stroke-width:2.0;"/>
   </g>
   <g id="line2d_45">
    <path clip-path="url(#p51829aa8fa)" d="M 72 101.824694 
L 78.696 102.108619 
L 85.392 102.196264 
L 92.088 102.084797 
L 98.784 101.77782 
L 106.596 101.186149 
L 114.408 100.368111 
L 123.336 99.202532 
L 134.496 97.499038 
L 165.744 92.554662 
L 174.672 91.445425 
L 182.484 90.688805 
L 190.296 90.167052 
L 196.992 89.92445 
L 203.688 89.879271 
L 210.384 90.032974 
L 218.196 90.456683 
L 226.008 91.125459 
L 233.82 92.009916 
L 242.748 93.234602 
L 255.024 95.164579 
L 279.576 99.087673 
L 288.504 100.272512 
L 296.316 101.111943 
L 304.128 101.728269 
L 311.94 102.094408 
L 318.636 102.196605 
L 325.332 102.09968 
L 332.028 101.806763 
L 339.84 101.230282 
L 347.652 100.425496 
L 356.58 99.271946 
L 367.74 97.577833 
L 400.104 92.469638 
L 409.032 91.376916 
L 416.844 90.638005 
L 424.656 90.136194 
L 431.352 89.9118 
L 438.048 89.885237 
L 444.744 90.057364 
L 452.556 90.50153 
L 460.368 91.188793 
L 468.18 92.088955 
L 478.224 93.494577 
L 491.616 95.635309 
L 511.704 98.853739 
L 517.284 99.640934 
L 517.284 99.640934 
" style="fill:none;stroke:#000000;stroke-linecap:square;stroke-width:2.0;"/>
   </g>
   <g id="line2d_46">
    <path clip-path="url(#p51829aa8fa)" d="M 72 98.761207 
L 79.812 99.05482 
L 87.624 99.12439 
L 95.436 98.966859 
L 103.248 98.589149 
L 112.176 97.909581 
L 121.104 97.003363 
L 132.264 95.632006 
L 172.44 90.42967 
L 181.368 89.631034 
L 189.18 89.134363 
L 196.992 88.849536 
L 204.804 88.789066 
L 212.616 88.955611 
L 220.428 89.341852 
L 229.356 90.030102 
L 238.284 90.943386 
L 249.444 92.320696 
L 288.504 97.399286 
L 297.432 98.218175 
L 305.244 98.735541 
L 313.056 99.042892 
L 320.868 99.126723 
L 328.68 98.98335 
L 336.492 98.619075 
L 344.304 98.049901 
L 353.232 97.180975 
L 364.392 95.841719 
L 381.132 93.558782 
L 396.756 91.490181 
L 406.8 90.366528 
L 415.728 89.583922 
L 423.54 89.103528 
L 431.352 88.836332 
L 439.164 88.794074 
L 446.976 88.978611 
L 454.788 89.381834 
L 463.716 90.087299 
L 472.644 91.01452 
L 483.804 92.403446 
L 517.284 96.856182 
L 517.284 96.856182 
" style="fill:none;stroke:#000000;stroke-linecap:square;stroke-width:2.0;"/>
   </g>
   <g id="line2d_47">
    <path clip-path="url(#p51829aa8fa)" d="M 72 95.988441 
L 80.928 96.272701 
L 89.856 96.321724 
L 98.784 96.132701 
L 107.712 95.716468 
L 117.756 95.006793 
L 128.916 93.979875 
L 144.54 92.293957 
L 165.744 90.0287 
L 176.904 89.069083 
L 186.948 88.440229 
L 195.876 88.107081 
L 204.804 88.006783 
L 213.732 88.145085 
L 222.66 88.514059 
L 232.704 89.178066 
L 243.864 90.167386 
L 258.372 91.70548 
L 282.924 94.339412 
L 294.084 95.292336 
L 304.128 95.91337 
L 313.056 96.238609 
L 321.984 96.330566 
L 330.912 96.18397 
L 339.84 95.807224 
L 349.884 95.135652 
L 361.044 94.140022 
L 375.552 92.59789 
L 400.104 89.968966 
L 411.264 89.022801 
L 421.308 88.409631 
L 430.236 88.092325 
L 439.164 88.008715 
L 448.092 88.163595 
L 457.02 88.548086 
L 467.064 89.227176 
L 478.224 90.229044 
L 493.848 91.899597 
L 516.168 94.292382 
L 517.284 94.398837 
L 517.284 94.398837 
" style="fill:none;stroke:#000000;stroke-linecap:square;stroke-width:2.0;"/>
   </g>
   <g id="line2d_48">
    <path clip-path="url(#p51829aa8fa)" d="M 72 93.500668 
L 82.044 93.753581 
L 92.088 93.782455 
L 102.132 93.585199 
L 112.176 93.176105 
L 123.336 92.509621 
L 137.844 91.40723 
L 172.44 88.664947 
L 183.6 88.039197 
L 193.644 87.675131 
L 203.688 87.52746 
L 213.732 87.606884 
L 223.776 87.907648 
L 234.936 88.474418 
L 248.328 89.40669 
L 270.648 91.249112 
L 287.388 92.530864 
L 299.664 93.246257 
L 309.708 93.626687 
L 319.752 93.792273 
L 329.796 93.731018 
L 339.84 93.447358 
L 351 92.896844 
L 363.276 92.063119 
L 382.248 90.51482 
L 402.336 88.924751 
L 414.612 88.172065 
L 425.772 87.719329 
L 435.816 87.535905 
L 445.86 87.578964 
L 455.904 87.845386 
L 467.064 88.379388 
L 479.34 89.199844 
L 497.196 90.646626 
L 517.284 92.261463 
L 517.284 92.261463 
" style="fill:none;stroke:#000000;stroke-linecap:square;stroke-width:2.0;"/>
   </g>
   <g id="line2d_49">
    <path clip-path="url(#p51829aa8fa)" d="M 72 91.29016 
L 84.276 91.496607 
L 96.552 91.47883 
L 108.828 91.238746 
L 122.22 90.754329 
L 138.96 89.917543 
L 175.788 87.988693 
L 189.18 87.539578 
L 201.456 87.338667 
L 213.732 87.362236 
L 226.008 87.607743 
L 239.4 88.09697 
L 257.256 88.998726 
L 291.852 90.815477 
L 305.244 91.277489 
L 317.52 91.492588 
L 329.796 91.483897 
L 342.072 91.252352 
L 355.464 90.775548 
L 372.204 89.94437 
L 410.148 87.963083 
L 423.54 87.524157 
L 435.816 87.33436 
L 448.092 87.369508 
L 460.368 87.625809 
L 473.76 88.124552 
L 491.616 89.033348 
L 517.284 90.434298 
L 517.284 90.434298 
" style="fill:none;stroke:#000000;stroke-linecap:square;stroke-width:2.0;"/>
   </g>
   <g id="line2d_50">
    <path clip-path="url(#p51829aa8fa)" d="M 72 89.347185 
L 89.856 89.475264 
L 106.596 89.379422 
L 125.568 89.043603 
L 154.584 88.267268 
L 181.368 87.620949 
L 200.34 87.392306 
L 217.08 87.408345 
L 234.936 87.647567 
L 257.256 88.183085 
L 299.664 89.253174 
L 317.52 89.458024 
L 334.26 89.438044 
L 352.116 89.195142 
L 374.436 88.656995 
L 416.844 87.59011 
L 434.7 87.3891 
L 451.44 87.413018 
L 469.296 87.659583 
L 492.732 88.231226 
L 517.284 88.905267 
L 517.284 88.905267 
" style="fill:none;stroke:#000000;stroke-linecap:square;stroke-width:2.0;"/>
   </g>
  </g>
 </g>
 <defs>
  <clipPath id="p51829aa8fa">
   <rect height="334.8" width="446.4" x="72.0" y="48.6"/>
  </clipPath>
 </defs>
</svg>
