<?xml version="1.0" encoding="utf-8" standalone="no"?>
<!DOCTYPE svg PUBLIC "-//W3C//DTD SVG 1.1//EN"
  "http://www.w3.org/Graphics/SVG/1.1/DTD/svg11.dtd">
<!-- Created with matplotlib (http://matplotlib.org/) -->
<svg height="432pt" version="1.1" viewBox="0 0 576 432" width="576pt" xmlns="http://www.w3.org/2000/svg" xmlns:xlink="http://www.w3.org/1999/xlink">
 <defs>
  <style type="text/css">
*{stroke-linecap:butt;stroke-linejoin:round;stroke-miterlimit:100000;}
  </style>
 </defs>
 <g id="figure_1">
  <g id="axes_1">
   <g id="patch_2">
    <path clip-path="url(#p7442033cbe)" d="M 208.8 348.015717 
C 228.781537 348.015717 247.947373 340.076969 262.076453 325.947888 
C 276.205534 311.818807 284.144283 292.652972 284.144283 272.671435 
C 284.144283 252.689898 276.205534 233.524062 262.076453 219.394982 
C 247.947373 205.265901 228.781537 197.327152 208.8 197.327152 
C 188.818463 197.327152 169.652627 205.265901 155.523547 219.394982 
C 141.394466 233.524062 133.455717 252.689898 133.455717 272.671435 
C 133.455717 292.652972 141.394466 311.818807 155.523547 325.947888 
C 169.652627 340.076969 188.818463 348.015717 208.8 348.015717 
L 208.8 348.015717 
z
" style="fill:none;stroke:#000000;stroke-linejoin:miter;"/>
   </g>
   <g id="patch_3">
    <path clip-path="url(#p7442033cbe)" d="M 214.56 350.065639 
C 233.997892 350.065639 252.642275 342.342882 266.38694 328.598217 
C 280.131605 314.853552 287.854361 296.209169 287.854361 276.771277 
C 287.854361 257.333385 280.131605 238.689003 266.38694 224.944337 
C 252.642275 211.199672 233.997892 203.476916 214.56 203.476916 
C 195.122108 203.476916 176.477725 211.199672 162.73306 224.944337 
C 148.988395 238.689003 141.265639 257.333385 141.265639 276.771277 
C 141.265639 296.209169 148.988395 314.853552 162.73306 328.598217 
C 176.477725 342.342882 195.122108 350.065639 214.56 350.065639 
L 214.56 350.065639 
z
" style="fill:none;stroke:#000000;stroke-linejoin:miter;"/>
   </g>
   <g id="patch_4">
    <path clip-path="url(#p7442033cbe)" d="M 220.32 352.281979 
C 239.170112 352.281979 257.250709 344.79275 270.579751 331.463708 
C 283.908793 318.134666 291.398021 300.054069 291.398021 281.203957 
C 291.398021 262.353845 283.908793 244.273248 270.579751 230.944206 
C 257.250709 217.615164 239.170112 210.125936 220.32 210.125936 
C 201.469888 210.125936 183.389291 217.615164 170.060249 230.944206 
C 156.731207 244.273248 149.241979 262.353845 149.241979 281.203957 
C 149.241979 300.054069 156.731207 318.134666 170.060249 331.463708 
C 183.389291 344.79275 201.469888 352.281979 220.32 352.281979 
L 220.32 352.281979 
z
" style="fill:none;stroke:#000000;stroke-linejoin:miter;"/>
   </g>
   <g id="patch_5">
    <path clip-path="url(#p7442033cbe)" d="M 226.08 354.576378 
C 244.32163 354.576378 261.818585 347.328902 274.717365 334.430122 
C 287.616145 321.531342 294.863622 304.034387 294.863622 285.792757 
C 294.863622 267.551127 287.616145 250.054172 274.717365 237.155392 
C 261.818585 224.256612 244.32163 217.009135 226.08 217.009135 
C 207.83837 217.009135 190.341415 224.256612 177.442635 237.155392 
C 164.543855 250.054172 157.296378 267.551127 157.296378 285.792757 
C 157.296378 304.034387 164.543855 321.531342 177.442635 334.430122 
C 190.341415 347.328902 207.83837 354.576378 226.08 354.576378 
L 226.08 354.576378 
z
" style="fill:none;stroke:#000000;stroke-linejoin:miter;"/>
   </g>
   <g id="patch_6">
    <path clip-path="url(#p7442033cbe)" d="M 231.84 356.857368 
C 249.476704 356.857368 266.393429 349.850231 278.864462 337.379198 
C 291.335495 324.908165 298.342632 307.99144 298.342632 290.354736 
C 298.342632 272.718032 291.335495 255.801307 278.864462 243.330274 
C 266.393429 230.859241 249.476704 223.852104 231.84 223.852104 
C 214.203296 223.852104 197.286571 230.859241 184.815538 243.330274 
C 172.344505 255.801307 165.337368 272.718032 165.337368 290.354736 
C 165.337368 307.99144 172.344505 324.908165 184.815538 337.379198 
C 197.286571 349.850231 214.203296 356.857368 231.84 356.857368 
L 231.84 356.857368 
z
" style="fill:none;stroke:#000000;stroke-linejoin:miter;"/>
   </g>
   <g id="patch_7">
    <path clip-path="url(#p7442033cbe)" d="M 237.6 359.034012 
C 254.659452 359.034012 271.022489 352.25622 283.085343 340.193366 
C 295.148197 328.130512 301.925988 311.767475 301.925988 294.708023 
C 301.925988 277.648572 295.148197 261.285534 283.085343 249.22268 
C 271.022489 237.159827 254.659452 230.382035 237.6 230.382035 
C 220.540548 230.382035 204.177511 237.159827 192.114657 249.22268 
C 180.051803 261.285534 173.274012 277.648572 173.274012 294.708023 
C 173.274012 311.767475 180.051803 328.130512 192.114657 340.193366 
C 204.177511 352.25622 220.540548 359.034012 237.6 359.034012 
L 237.6 359.034012 
z
" style="fill:none;stroke:#000000;stroke-linejoin:miter;"/>
   </g>
   <g id="patch_8">
    <path clip-path="url(#p7442033cbe)" d="M 243.36 361.019533 
C 259.892885 361.019533 275.750852 354.450948 287.441367 342.760433 
C 299.131882 331.069918 305.700467 315.211951 305.700467 298.679066 
C 305.700467 282.146181 299.131882 266.288214 287.441367 254.597699 
C 275.750852 242.907183 259.892885 236.338599 243.36 236.338599 
C 226.827115 236.338599 210.969148 242.907183 199.278633 254.597699 
C 187.588118 266.288214 181.019533 282.146181 181.019533 298.679066 
C 181.019533 315.211951 187.588118 331.069918 199.278633 342.760433 
C 210.969148 354.450948 226.827115 361.019533 243.36 361.019533 
L 243.36 361.019533 
z
" style="fill:none;stroke:#000000;stroke-linejoin:miter;"/>
   </g>
   <g id="patch_9">
    <path clip-path="url(#p7442033cbe)" d="M 249.12 362.734776 
C 265.197997 362.734776 280.619646 356.34692 291.988507 344.978058 
C 303.357368 333.609197 309.745224 318.187549 309.745224 302.109551 
C 309.745224 286.031554 303.357368 270.609905 291.988507 259.241044 
C 280.619646 247.872183 265.197997 241.484327 249.12 241.484327 
C 233.042003 241.484327 217.620354 247.872183 206.251493 259.241044 
C 194.882632 270.609905 188.494776 286.031554 188.494776 302.109551 
C 188.494776 318.187549 194.882632 333.609197 206.251493 344.978058 
C 217.620354 356.34692 233.042003 362.734776 249.12 362.734776 
L 249.12 362.734776 
z
" style="fill:none;stroke:#000000;stroke-linejoin:miter;"/>
   </g>
   <g id="patch_10">
    <path clip-path="url(#p7442033cbe)" d="M 254.88 364.111358 
C 270.592923 364.111358 285.664402 357.868548 296.775116 346.757833 
C 307.885831 335.647118 314.128642 320.57564 314.128642 304.862717 
C 314.128642 289.149793 307.885831 274.078315 296.775116 262.967601 
C 285.664402 251.856886 270.592923 245.614075 254.88 245.614075 
C 239.167077 245.614075 224.095598 251.856886 212.984884 262.967601 
C 201.874169 274.078315 195.631358 289.149793 195.631358 304.862717 
C 195.631358 320.57564 201.874169 335.647118 212.984884 346.757833 
C 224.095598 357.868548 239.167077 364.111358 254.88 364.111358 
L 254.88 364.111358 
z
" style="fill:none;stroke:#000000;stroke-linejoin:miter;"/>
   </g>
   <g id="patch_11">
    <path clip-path="url(#p7442033cbe)" d="M 260.64 365.094401 
C 276.092217 365.094401 290.913632 358.95517 301.84 348.028803 
C 312.766368 337.102435 318.905599 322.28102 318.905599 306.828803 
C 318.905599 291.376585 312.766368 276.555171 301.84 265.628803 
C 290.913632 254.702435 276.092217 248.563204 260.64 248.563204 
C 245.187783 248.563204 230.366368 254.702435 219.44 265.628803 
C 208.513632 276.555171 202.374401 291.376585 202.374401 306.828803 
C 202.374401 322.28102 208.513632 337.102435 219.44 348.028803 
C 230.366368 358.95517 245.187783 365.094401 260.64 365.094401 
L 260.64 365.094401 
z
" style="fill:none;stroke:#000000;stroke-linejoin:miter;"/>
   </g>
   <g id="patch_12">
    <path clip-path="url(#p7442033cbe)" d="M 266.4 365.644714 
C 281.706273 365.644714 296.387701 359.563467 307.21087 348.740298 
C 318.03404 337.917128 324.115286 323.2357 324.115286 307.929427 
C 324.115286 292.623154 318.03404 277.941726 307.21087 267.118557 
C 296.387701 256.295387 281.706273 250.214141 266.4 250.214141 
C 251.093727 250.214141 236.412299 256.295387 225.58913 267.118557 
C 214.76596 277.941726 208.684714 292.623154 208.684714 307.929427 
C 208.684714 323.2357 214.76596 337.917128 225.58913 348.740298 
C 236.412299 359.563467 251.093727 365.644714 266.4 365.644714 
L 266.4 365.644714 
z
" style="fill:none;stroke:#000000;stroke-linejoin:miter;"/>
   </g>
   <g id="patch_13">
    <path clip-path="url(#p7442033cbe)" d="M 272.16 365.740356 
C 287.440908 365.740356 302.098007 359.669187 312.903241 348.863953 
C 323.708475 338.058719 329.779644 323.40162 329.779644 308.120712 
C 329.779644 292.839803 323.708475 278.182704 312.903241 267.377471 
C 302.098007 256.572237 287.440908 250.501067 272.16 250.501067 
C 256.879092 250.501067 242.221993 256.572237 231.416759 267.377471 
C 220.611525 278.182704 214.540356 292.839803 214.540356 308.120712 
C 214.540356 323.40162 220.611525 338.058719 231.416759 348.863953 
C 242.221993 359.669187 256.879092 365.740356 272.16 365.740356 
L 272.16 365.740356 
z
" style="fill:none;stroke:#000000;stroke-linejoin:miter;"/>
   </g>
   <g id="patch_14">
    <path clip-path="url(#p7442033cbe)" d="M 277.92 365.377515 
C 293.297135 365.377515 308.046532 359.268115 318.919808 348.394839 
C 329.793084 337.521562 335.902485 322.772165 335.902485 307.39503 
C 335.902485 292.017896 329.793084 277.268498 318.919808 266.395222 
C 308.046532 255.521946 293.297135 249.412546 277.92 249.412546 
C 262.542865 249.412546 247.793468 255.521946 236.920192 266.395222 
C 226.046916 277.268498 219.937515 292.017896 219.937515 307.39503 
C 219.937515 322.772165 226.046916 337.521562 236.920192 348.394839 
C 247.793468 359.268115 262.542865 365.377515 277.92 365.377515 
L 277.92 365.377515 
z
" style="fill:none;stroke:#000000;stroke-linejoin:miter;"/>
   </g>
   <g id="patch_15">
    <path clip-path="url(#p7442033cbe)" d="M 283.68 364.570657 
C 299.271116 364.570657 314.225759 358.376241 325.250343 347.351657 
C 336.274927 336.327073 342.469343 321.37243 342.469343 305.781314 
C 342.469343 290.190198 336.274927 275.235555 325.250343 264.210971 
C 314.225759 253.186387 299.271116 246.991971 283.68 246.991971 
C 268.088884 246.991971 253.134241 253.186387 242.109657 264.210971 
C 231.085073 275.235555 224.890657 290.190198 224.890657 305.781314 
C 224.890657 321.37243 231.085073 336.327073 242.109657 347.351657 
C 253.134241 358.376241 268.088884 364.570657 283.68 364.570657 
L 283.68 364.570657 
z
" style="fill:none;stroke:#000000;stroke-linejoin:miter;"/>
   </g>
   <g id="patch_16">
    <path clip-path="url(#p7442033cbe)" d="M 289.44 363.351948 
C 305.354321 363.351948 320.618976 357.029121 331.8721 345.775997 
C 343.125225 334.522872 349.448052 319.258217 349.448052 303.343896 
C 349.448052 287.429575 343.125225 272.16492 331.8721 260.911796 
C 320.618976 249.658671 305.354321 243.335844 289.44 243.335844 
C 273.525679 243.335844 258.261024 249.658671 247.0079 260.911796 
C 235.754775 272.16492 229.431948 287.429575 229.431948 303.343896 
C 229.431948 319.258217 235.754775 334.522872 247.0079 345.775997 
C 258.261024 357.029121 273.525679 363.351948 289.44 363.351948 
L 289.44 363.351948 
z
" style="fill:none;stroke:#000000;stroke-linejoin:miter;"/>
   </g>
   <g id="patch_17">
    <path clip-path="url(#p7442033cbe)" d="M 295.2 361.769975 
C 311.533866 361.769975 327.200937 355.280461 338.750725 343.730674 
C 350.300512 332.180887 356.790025 316.513815 356.790025 300.179949 
C 356.790025 283.846083 350.300512 268.179012 338.750725 256.629224 
C 327.200937 245.079437 311.533866 238.589924 295.2 238.589924 
C 278.866134 238.589924 263.199063 245.079437 251.649275 256.629224 
C 240.099488 268.179012 233.609975 283.846083 233.609975 300.179949 
C 233.609975 316.513815 240.099488 332.180887 251.649275 343.730674 
C 263.199063 355.280461 278.866134 361.769975 295.2 361.769975 
L 295.2 361.769975 
z
" style="fill:none;stroke:#000000;stroke-linejoin:miter;"/>
   </g>
   <g id="patch_18">
    <path clip-path="url(#p7442033cbe)" d="M 300.96 359.887805 
C 317.793023 359.887805 333.938875 353.199974 345.84162 341.297229 
C 357.744364 329.394484 364.432195 313.248632 364.432195 296.415609 
C 364.432195 279.582586 357.744364 263.436734 345.84162 251.53399 
C 333.938875 239.631245 317.793023 232.943414 300.96 232.943414 
C 284.126977 232.943414 267.981125 239.631245 256.07838 251.53399 
C 244.175636 263.436734 237.487805 279.582586 237.487805 296.415609 
C 237.487805 313.248632 244.175636 329.394484 256.07838 341.297229 
C 267.981125 353.199974 284.126977 359.887805 300.96 359.887805 
L 300.96 359.887805 
z
" style="fill:none;stroke:#000000;stroke-linejoin:miter;"/>
   </g>
   <g id="patch_19">
    <path clip-path="url(#p7442033cbe)" d="M 306.72 357.780475 
C 324.111893 357.780475 340.793801 350.870602 353.091727 338.572676 
C 365.389653 326.274751 372.299525 309.592843 372.299525 292.200949 
C 372.299525 274.809056 365.389653 258.127148 353.091727 245.829222 
C 340.793801 233.531296 324.111893 226.621424 306.72 226.621424 
C 289.328107 226.621424 272.646199 233.531296 260.348273 245.829222 
C 248.050347 258.127148 241.140475 274.809056 241.140475 292.200949 
C 241.140475 309.592843 248.050347 326.274751 260.348273 338.572676 
C 272.646199 350.870602 289.328107 357.780475 306.72 357.780475 
L 306.72 357.780475 
z
" style="fill:none;stroke:#000000;stroke-linejoin:miter;"/>
   </g>
   <g id="patch_20">
    <path clip-path="url(#p7442033cbe)" d="M 312.48 355.531997 
C 330.468197 355.531997 347.722065 348.385211 360.441641 335.665635 
C 373.161217 322.946059 380.308003 305.692191 380.308003 287.703994 
C 380.308003 269.715798 373.161217 252.461929 360.441641 239.742353 
C 347.722065 227.022778 330.468197 219.875991 312.48 219.875991 
C 294.491803 219.875991 277.237935 227.022778 264.518359 239.742353 
C 251.798783 252.461929 244.651997 269.715798 244.651997 287.703994 
C 244.651997 305.692191 251.798783 322.946059 264.518359 335.665635 
C 277.237935 348.385211 294.491803 355.531997 312.48 355.531997 
L 312.48 355.531997 
z
" style="fill:none;stroke:#000000;stroke-linejoin:miter;"/>
   </g>
   <g id="patch_21">
    <path clip-path="url(#p7442033cbe)" d="M 318.24 353.232012 
C 336.83816 353.232012 354.677091 345.842884 367.827976 332.691999 
C 380.978861 319.541115 388.367988 301.702183 388.367988 283.104023 
C 388.367988 264.505864 380.978861 246.666932 367.827976 233.516047 
C 354.677091 220.365162 336.83816 212.976035 318.24 212.976035 
C 299.64184 212.976035 281.802909 220.365162 268.652024 233.516047 
C 255.501139 246.666932 248.112012 264.505864 248.112012 283.104023 
C 248.112012 301.702183 255.501139 319.541115 268.652024 332.691999 
C 281.802909 345.842884 299.64184 353.232012 318.24 353.232012 
L 318.24 353.232012 
z
" style="fill:none;stroke:#000000;stroke-linejoin:miter;"/>
   </g>
   <g id="patch_22">
    <path clip-path="url(#p7442033cbe)" d="M 324 350.972212 
C 343.197466 350.972212 361.611238 343.344978 375.185896 329.770319 
C 388.760554 316.195661 396.387788 297.781889 396.387788 278.584423 
C 396.387788 259.386957 388.760554 240.973186 375.185896 227.398527 
C 361.611238 213.823869 343.197466 206.196635 324 206.196635 
C 304.802534 206.196635 286.388762 213.823869 272.814104 227.398527 
C 259.239446 240.973186 251.612212 259.386957 251.612212 278.584423 
C 251.612212 297.781889 259.239446 316.195661 272.814104 329.770319 
C 286.388762 343.344978 304.802534 350.972212 324 350.972212 
L 324 350.972212 
z
" style="fill:none;stroke:#000000;stroke-linejoin:miter;"/>
   </g>
   <g id="patch_23">
    <path clip-path="url(#p7442033cbe)" d="M 329.76 348.842688 
C 349.522222 348.842688 368.477695 340.991074 382.451697 327.017073 
C 396.425698 313.043071 404.277312 294.087598 404.277312 274.325376 
C 404.277312 254.563154 396.425698 235.607681 382.451697 221.633679 
C 368.477695 207.659678 349.522222 199.808064 329.76 199.808064 
C 309.997778 199.808064 291.042305 207.659678 277.068303 221.633679 
C 263.094302 235.607681 255.242688 254.563154 255.242688 274.325376 
C 255.242688 294.087598 263.094302 313.043071 277.068303 327.017073 
C 291.042305 340.991074 309.997778 348.842688 329.76 348.842688 
L 329.76 348.842688 
z
" style="fill:none;stroke:#000000;stroke-linejoin:miter;"/>
   </g>
   <g id="patch_24">
    <path clip-path="url(#p7442033cbe)" d="M 335.52 346.928338 
C 355.789914 346.928338 375.232353 338.875016 389.565346 324.542023 
C 403.89834 310.209029 411.951662 290.76659 411.951662 270.496676 
C 411.951662 250.226762 403.89834 230.784323 389.565346 216.45133 
C 375.232353 202.118336 355.789914 194.065014 335.52 194.065014 
C 315.250086 194.065014 295.807647 202.118336 281.474654 216.45133 
C 267.14166 230.784323 259.088338 250.226762 259.088338 270.496676 
C 259.088338 290.76659 267.14166 310.209029 281.474654 324.542023 
C 295.807647 338.875016 315.250086 346.928338 335.52 346.928338 
L 335.52 346.928338 
z
" style="fill:none;stroke:#000000;stroke-linejoin:miter;"/>
   </g>
   <g id="patch_25">
    <path clip-path="url(#p7442033cbe)" d="M 341.28 345.305481 
C 361.9803 345.305481 381.835557 337.081165 396.47288 322.443842 
C 411.110202 307.806519 419.334519 287.951263 419.334519 267.250962 
C 419.334519 246.550662 411.110202 226.695405 396.47288 212.058083 
C 381.835557 197.42076 361.9803 189.196443 341.28 189.196443 
C 320.5797 189.196443 300.724443 197.42076 286.08712 212.058083 
C 271.449798 226.695405 263.225481 246.550662 263.225481 267.250962 
C 263.225481 287.951263 271.449798 307.806519 286.08712 322.443842 
C 300.724443 337.081165 320.5797 345.305481 341.28 345.305481 
L 341.28 345.305481 
z
" style="fill:none;stroke:#000000;stroke-linejoin:miter;"/>
   </g>
   <g id="patch_26">
    <path clip-path="url(#p7442033cbe)" d="M 347.04 344.038815 
C 368.076224 344.038815 388.253691 335.681035 403.128548 320.806178 
C 418.003404 305.931321 426.361185 285.753854 426.361185 264.71763 
C 426.361185 243.681406 418.003404 223.503939 403.128548 208.629083 
C 388.253691 193.754226 368.076224 185.396445 347.04 185.396445 
C 326.003776 185.396445 305.826309 193.754226 290.951452 208.629083 
C 276.076596 223.503939 267.718815 243.681406 267.718815 264.71763 
C 267.718815 285.753854 276.076596 305.931321 290.951452 320.806178 
C 305.826309 335.681035 326.003776 344.038815 347.04 344.038815 
L 347.04 344.038815 
z
" style="fill:none;stroke:#000000;stroke-linejoin:miter;"/>
   </g>
   <g id="patch_27">
    <path clip-path="url(#p7442033cbe)" d="M 352.8 343.178838 
C 374.064293 343.178838 394.460518 334.730445 409.496643 319.69432 
C 424.532769 304.658194 432.981162 284.261969 432.981162 262.997677 
C 432.981162 241.733384 424.532769 221.337159 409.496643 206.301033 
C 394.460518 191.264908 374.064293 182.816515 352.8 182.816515 
C 331.535707 182.816515 311.139482 191.264908 296.103357 206.301033 
C 281.067231 221.337159 272.618838 241.733384 272.618838 262.997677 
C 272.618838 284.261969 281.067231 304.658194 296.103357 319.69432 
C 311.139482 334.730445 331.535707 343.178838 352.8 343.178838 
L 352.8 343.178838 
z
" style="fill:none;stroke:#000000;stroke-linejoin:miter;"/>
   </g>
   <g id="patch_28">
    <path clip-path="url(#p7442033cbe)" d="M 358.56 342.759835 
C 379.935414 342.759835 400.438223 334.267293 415.552923 319.152593 
C 430.667623 304.037893 439.160165 283.535084 439.160165 262.15967 
C 439.160165 240.784256 430.667623 220.281447 415.552923 205.166747 
C 400.438223 190.052047 379.935414 181.559505 358.56 181.559505 
C 337.184586 181.559505 316.681777 190.052047 301.567077 205.166747 
C 286.452377 220.281447 277.959835 240.784256 277.959835 262.15967 
C 277.959835 283.535084 286.452377 304.037893 301.567077 319.152593 
C 316.681777 334.267293 337.184586 342.759835 358.56 342.759835 
L 358.56 342.759835 
z
" style="fill:none;stroke:#000000;stroke-linejoin:miter;"/>
   </g>
   <g id="patch_29">
    <path clip-path="url(#p7442033cbe)" d="M 364.32 342.79851 
C 385.685157 342.79851 406.178129 334.310043 421.285576 319.202596 
C 436.393023 304.095148 444.88149 283.602176 444.88149 262.237019 
C 444.88149 240.871863 436.393023 220.378891 421.285576 205.271443 
C 406.178129 190.163996 385.685157 181.675529 364.32 181.675529 
C 342.954843 181.675529 322.461871 190.163996 307.354424 205.271443 
C 292.246977 220.378891 283.75851 240.871863 283.75851 262.237019 
C 283.75851 283.602176 292.246977 304.095148 307.354424 319.202596 
C 322.461871 334.310043 342.954843 342.79851 364.32 342.79851 
L 364.32 342.79851 
z
" style="fill:none;stroke:#000000;stroke-linejoin:miter;"/>
   </g>
   <g id="patch_30">
    <path clip-path="url(#p7442033cbe)" d="M 370.08 343.293321 
C 391.313932 343.293321 411.681035 334.85699 426.695692 319.842333 
C 441.710349 304.827676 450.146679 284.460573 450.146679 263.226641 
C 450.146679 241.992709 441.710349 221.625606 426.695692 206.610949 
C 411.681035 191.596292 391.313932 183.159962 370.08 183.159962 
C 348.846068 183.159962 328.478965 191.596292 313.464308 206.610949 
C 298.449651 221.625606 290.013321 241.992709 290.013321 263.226641 
C 290.013321 284.460573 298.449651 304.827676 313.464308 319.842333 
C 328.478965 334.85699 348.846068 343.293321 370.08 343.293321 
L 370.08 343.293321 
z
" style="fill:none;stroke:#000000;stroke-linejoin:miter;"/>
   </g>
   <g id="patch_31">
    <path clip-path="url(#p7442033cbe)" d="M 375.84 344.224541 
C 396.826969 344.224541 416.957192 335.88633 431.79722 321.046302 
C 446.637248 306.206273 454.975459 286.076051 454.975459 265.089082 
C 454.975459 244.102113 446.637248 223.97189 431.79722 209.131862 
C 416.957192 194.291834 396.826969 185.953623 375.84 185.953623 
C 354.853031 185.953623 334.722808 194.291834 319.88278 209.131862 
C 305.042752 223.97189 296.704541 244.102113 296.704541 265.089082 
C 296.704541 286.076051 305.042752 306.206273 319.88278 321.046302 
C 334.722808 335.88633 354.853031 344.224541 375.84 344.224541 
L 375.84 344.224541 
z
" style="fill:none;stroke:#000000;stroke-linejoin:miter;"/>
   </g>
  </g>
 </g>
 <defs>
  <clipPath id="p7442033cbe">
   <rect height="345.6" width="345.6" x="122.4" y="43.2"/>
  </clipPath>
 </defs>
</svg>
